<?xml version="1.0" encoding="utf-8"?>
<!-- Generator: Adobe Illustrator 27.0.0, SVG Export Plug-In . SVG Version: 6.00 Build 0)  -->
<svg version="1.1" id="Layer_1" xmlns="http://www.w3.org/2000/svg" xmlns:xlink="http://www.w3.org/1999/xlink" x="0px" y="0px"
	 viewBox="0 0 36 36" style="enable-background:new 0 0 36 36;" xml:space="preserve">
<style type="text/css">
	.st0{fill:#EE2347;}
	.st1{fill:#FFFFFF;}
</style>
<path class="st0" d="M31.7,36c2.4,0,4.3-1.9,4.3-4.3V4.3C36,1.9,34.1,0,31.7,0H4.3C1.9,0,0,1.9,0,4.3v27.4C0,34.1,1.9,36,4.3,36
	H31.7z"/>
<g>
	<path class="st1" d="M-84.2,15.8c-0.6,1.3-1.6,1.7-3.1,1.7c-7.2-0.1-14.3,0-21.5,0c-0.3,0-0.6,0-1,0c0-0.3,0-0.6-0.1-1
		c0.3,0,0.6,0,0.9,0c7.2,0,14.5,0,21.7,0c0.9,0,1.6-0.2,2-1.2c0.1-0.2,0.6-0.2,1-0.3C-84.2,15.3-84.2,15.6-84.2,15.8z"/>
	<path class="st1" d="M-98.1-4.6c-1.2-0.2-2.2-0.1-2.9,0.9c-0.7,1.1-1.7,2-2.6,3c-0.6,0.7-1.3,0.8-1.9,0.3c-0.5-0.5-0.5-1.2,0.1-1.8
		c1.2-1.4,2.4-2.8,3.6-4.2c0.4-0.5,0.9-0.7,1.6-0.7c1.6,0,3.2,0,4.8,0c0.7,0,1.3,0.2,1.8,0.8c1,1.1,2.1,2.2,3.3,3.3
		c0.9-1,1.8-1.9,2.8-2.8c0.3-0.3,0.8-0.5,1.2-0.5c1,0.1,1.4,1.3,0.7,2C-86.8-3-88-1.8-89.2-0.7c-0.7,0.7-1.4,0.7-2.1-0.1
		c-0.6-0.6-1.3-1.2-1.9-1.9c0,0-0.1,0-0.2-0.1c-1.1,1.3-2.2,2.5-3.4,3.9c0.8,0.8,1.6,1.7,2.5,2.4c1,0.8,1.2,1.8,0.9,3
		c-0.6,2.3-1.1,4.7-1.6,7.1c-0.2,0.7-0.4,1.4-1.3,1.5c-1.1,0.2-2-0.7-1.8-1.8c0.4-2,0.9-4,1.3-6c0.1-0.2,0-0.6-0.1-0.7
		c-1.1-1.1-2.2-2.2-3.3-3.3c-0.9,1-1.9,2-2.7,3c-0.6,0.7-1.2,1-2,1c-2.1,0-4.2,0-6.3,0c-1,0-1.7-0.6-1.7-1.6c0-0.9,0.6-1.4,1.7-1.4
		c1.6,0,3.1,0,4.7,0c0.3,0,0.6-0.1,0.8-0.3C-103.2,1.3-100.7-1.6-98.1-4.6z"/>
	<path class="st1" d="M-85.1-3.3c0.3,0.1,0.6,0.2,0.9,0.4c-0.1,0.3-0.2,0.5-0.3,0.8c-2.8,5.6-5.5,11.1-8.3,16.7
		c-0.3,0.6-0.7,0.8-1.3,0.6C-91.2,9-88.2,2.9-85.1-3.3z"/>
	<path class="st1" d="M-94.4-8.8c0-1.3,1-2.3,2.3-2.3c1.3,0,2.4,1,2.4,2.3c0,1.3-1.1,2.4-2.4,2.4C-93.3-6.5-94.4-7.5-94.4-8.8z"/>
	<path class="st1" d="M-105.1,14.2c-1.1,0.8-1.8,0.8-2.6,0c-2.1-2.1-4.2-4.3-6.3-6.3c-0.6-0.6-0.7-1.1-0.5-1.9
		c0.3,0.2,0.5,0.4,0.6,0.6c2.2,2.2,4.5,4.5,6.7,6.7c0.3,0.3,0.7,0.5,1.2,0.4C-105.7,13.7-105.4,14-105.1,14.2z"/>
	<path class="st1" d="M-106.6-0.2c-2.7,0-5.3,0-7.9,0c0-0.3,0-0.6,0-0.9c2.6,0,5.2,0,7.9,0C-106.6-0.7-106.6-0.5-106.6-0.2z"/>
</g>
<path class="st1" d="M-213.6,87.4c0,5-3.8,8.7-8.8,8.6c-5.1-0.1-8.6-3.8-8.5-8.9c0.1-4.9,3.6-8.3,8.5-8.4
	C-217.4,78.7-213.6,82.4-213.6,87.4z"/>
<path class="st1" d="M-127.4,78.7c5,0,8.8,3.8,8.7,8.8c-0.1,4.9-3.9,8.6-9,8.5c-4.8-0.1-8.3-3.7-8.4-8.5
	C-136.1,82.4-132.4,78.7-127.4,78.7z"/>
<path class="st1" d="M-209.2,21.1c12.8,0,25.4,0,38,0.1c1,0,2.4,1,3,2c2.1,3.2,3.8,6.6,5.8,10.1c-2.9,3.1-5.7,6.2-8.7,9.1
	c-0.8,0.8-2.3,1.5-3.4,1.5c-11.5,0.1-22.9,0.1-34.8,0.1C-209.2,36.4-209.2,29.2-209.2,21.1z"/>
<path class="st1" d="M-220.9,43.7c-6.7,0-13.1,0-19.5,0c-0.1-0.3-0.3-0.5-0.4-0.8c6.4-3.8,12.9-7.6,19.8-11.7
	C-220.9,35.6-220.9,39.4-220.9,43.7z"/>
<path class="st1" d="M8.6,30.2c2.9,0,5.2-2.3,5.2-5.2c0-2.9-2.3-5.2-5.2-5.2c-2.9,0-5.2,2.3-5.2,5.2C3.4,27.9,5.7,30.2,8.6,30.2z
	 M2.2,25c0-3.5,2.9-6.4,6.4-6.4c3.5,0,6.4,2.9,6.4,6.4c0,3.5-2.9,6.4-6.4,6.4C5,31.4,2.2,28.5,2.2,25z"/>
<path class="st1" d="M27.5,30.3c2.9,0,5.2-2.3,5.2-5.2c0-2.9-2.3-5.2-5.2-5.2c-2.9,0-5.2,2.3-5.2,5.2C22.2,27.9,24.6,30.3,27.5,30.3
	z M21,25c0-3.5,2.9-6.4,6.4-6.4c3.5,0,6.4,2.9,6.4,6.4s-2.9,6.4-6.4,6.4C23.9,31.5,21,28.6,21,25z"/>
<path class="st1" d="M21.1,9.4c1.3,0,2.4-1.1,2.4-2.4c0-1.3-1.1-2.4-2.4-2.4c-1.3,0-2.4,1.1-2.4,2.4C18.6,8.3,19.7,9.4,21.1,9.4z"/>
<path class="st1" d="M21.2,15.2c-0.3,0-0.7-0.2-1-0.6l-1.6-2.4l-3.2,3.2l3,1.6c1.2,0.6,1,1.7,1,1.7v6.8c0,0.8-0.6,1.4-1.4,1.4
	c-0.8,0-1.4-0.6-1.4-1.4V20l-5.2-2.9c-0.6-0.3-1-1-1-1.8c0-0.5,0.2-1,0.5-1.4L16,8.9c0.6-0.7,1.5-0.6,1.5-0.6c1.1,0,1.6,0.9,1.6,0.9
	l2.6,4.2l4,0c1.4,0,1.4,1.9,0,1.9H21.2z"/>
</svg>
