<?xml version="1.0" encoding="utf-8"?>
<!-- Generator: Adobe Illustrator 27.0.0, SVG Export Plug-In . SVG Version: 6.00 Build 0)  -->
<svg version="1.1" id="Layer_1" xmlns="http://www.w3.org/2000/svg" xmlns:xlink="http://www.w3.org/1999/xlink" x="0px" y="0px"
	 viewBox="0 0 35.4 35.4" style="enable-background:new 0 0 35.4 35.4;" xml:space="preserve">
<style type="text/css">
	.st0{fill:#FFFFFF;}
	.st1{fill:none;stroke:#000000;stroke-width:0.25;stroke-miterlimit:10;}
	.st2{font-family:'NaturallyWonderful-heavy';}
	.st3{font-size:7px;}
	.st4{fill:#DB5628;}
</style>
<g>
	<path class="st0" d="M-84.5,15.7c-0.6,1.3-1.6,1.7-3.1,1.7c-7.2-0.1-14.3,0-21.5,0c-0.3,0-0.6,0-1,0c0-0.3,0-0.6-0.1-1
		c0.3,0,0.6,0,0.9,0c7.2,0,14.5,0,21.7,0c0.9,0,1.6-0.2,2-1.2c0.1-0.2,0.6-0.2,1-0.3C-84.5,15.2-84.5,15.4-84.5,15.7z"/>
	<path class="st0" d="M-98.4-4.7c-1.2-0.2-2.2-0.1-2.9,0.9c-0.7,1.1-1.7,2-2.6,3c-0.6,0.7-1.3,0.8-1.9,0.3c-0.5-0.5-0.5-1.2,0.1-1.8
		c1.2-1.4,2.4-2.8,3.6-4.2c0.4-0.5,0.9-0.7,1.6-0.7c1.6,0,3.2,0,4.8,0c0.7,0,1.3,0.2,1.8,0.8c1,1.1,2.1,2.2,3.3,3.3
		c0.9-1,1.8-1.9,2.8-2.8c0.3-0.3,0.8-0.5,1.2-0.5c1,0.1,1.4,1.3,0.7,2c-1.2,1.2-2.4,2.4-3.6,3.6c-0.7,0.7-1.4,0.7-2.1-0.1
		c-0.6-0.6-1.3-1.2-1.9-1.9c0,0-0.1,0-0.2-0.1c-1.1,1.3-2.2,2.5-3.4,3.9c0.8,0.8,1.6,1.7,2.5,2.4c1,0.8,1.2,1.8,0.9,3
		c-0.6,2.3-1.1,4.7-1.6,7.1c-0.2,0.7-0.4,1.4-1.3,1.5c-1.1,0.2-2-0.7-1.8-1.8c0.4-2,0.9-4,1.3-6c0.1-0.2,0-0.6-0.1-0.7
		c-1.1-1.1-2.2-2.2-3.3-3.3c-0.9,1-1.9,2-2.7,3c-0.6,0.7-1.2,1-2,1c-2.1,0-4.2,0-6.3,0c-1,0-1.7-0.6-1.7-1.6c0-0.9,0.6-1.4,1.7-1.4
		c1.6,0,3.1,0,4.7,0c0.3,0,0.6-0.1,0.8-0.3C-103.5,1.2-101-1.7-98.4-4.7z"/>
	<path class="st0" d="M-85.5-3.4c0.3,0.1,0.6,0.2,0.9,0.4c-0.1,0.3-0.2,0.5-0.3,0.8c-2.8,5.6-5.5,11.1-8.3,16.7
		c-0.3,0.6-0.7,0.8-1.3,0.6C-91.5,8.9-88.5,2.8-85.5-3.4z"/>
	<path class="st0" d="M-94.7-8.9c0-1.3,1-2.3,2.3-2.3c1.3,0,2.4,1,2.4,2.3c0,1.3-1.1,2.4-2.4,2.4C-93.7-6.6-94.7-7.6-94.7-8.9z"/>
	<path class="st0" d="M-105.4,14.1c-1.1,0.8-1.8,0.8-2.6,0c-2.1-2.1-4.2-4.3-6.3-6.3c-0.6-0.6-0.7-1.1-0.5-1.9
		c0.3,0.2,0.5,0.4,0.6,0.6c2.2,2.2,4.5,4.5,6.7,6.7c0.3,0.3,0.7,0.5,1.2,0.4C-106,13.5-105.7,13.9-105.4,14.1z"/>
	<path class="st0" d="M-106.9-0.3c-2.7,0-5.3,0-7.9,0c0-0.3,0-0.6,0-0.9c2.6,0,5.2,0,7.9,0C-106.9-0.9-106.9-0.6-106.9-0.3z"/>
</g>
<path class="st0" d="M-213.9,87.3c0,5-3.8,8.7-8.8,8.6c-5.1-0.1-8.6-3.8-8.5-8.9c0.1-4.9,3.6-8.3,8.5-8.4
	C-217.7,78.6-213.9,82.3-213.9,87.3z"/>
<path class="st0" d="M-127.7,78.6c5,0,8.8,3.8,8.7,8.8c-0.1,4.9-3.9,8.6-9,8.5c-4.8-0.1-8.3-3.7-8.4-8.5
	C-136.4,82.3-132.7,78.6-127.7,78.6z"/>
<path class="st0" d="M-209.5,21c12.8,0,25.4,0,38,0.1c1,0,2.4,1,3,2c2.1,3.2,3.8,6.6,5.8,10.1c-2.9,3.1-5.7,6.2-8.7,9.1
	c-0.8,0.8-2.3,1.5-3.4,1.5c-11.5,0.1-22.9,0.1-34.8,0.1C-209.5,36.3-209.5,29.1-209.5,21z"/>
<path class="st0" d="M-221.3,43.6c-6.7,0-13.1,0-19.5,0c-0.1-0.3-0.3-0.5-0.4-0.8c6.4-3.8,12.9-7.6,19.8-11.7
	C-221.3,35.5-221.3,39.3-221.3,43.6z"/>
<circle class="st1" cx="17.7" cy="17.7" r="17.6"/>
<text transform="matrix(1 0 0 1 9.2935 30.758)" class="st2 st3">FFST</text>
<path class="st4" d="M5.9,24.3C6,24.2,6.4,23.9,6.7,24c0,0,0,0,0,0c-0.2-0.9,3.7-3.9,3.8-3.9c0,0,0.2-0.1,0.5,0c2.7,0,4.9-0.9,6.5-3
	c-0.6,0-0.7-0.2-0.3-0.5c2.6-0.7,4.7-1.6,5.4-3c-0.5,0-0.8-0.1-0.5-0.6c2.5-0.4,4-1.7,4.9-3.7c-0.3,0-0.5-0.1-0.3-0.5
	c1.1-0.6,1.6-2.3,1.5-3.9c0,0,0,0,0-0.1c0,0,0,0,0,0c0,0,0,0,0,0c-0.5,0.3-2.7,1.1-3.5,1.4C15.2,9.8,9.9,14.7,10,18.8
	c0,0.2,0,0.5-0.2,0.8C9.4,20.3,7,22.2,5.9,24.3C5.9,24.3,5.9,24.3,5.9,24.3"/>
</svg>
