<?xml version="1.0" encoding="utf-8"?>
<!-- Generator: Adobe Illustrator 27.0.0, SVG Export Plug-In . SVG Version: 6.00 Build 0)  -->
<svg version="1.1" id="Layer_1" xmlns="http://www.w3.org/2000/svg" xmlns:xlink="http://www.w3.org/1999/xlink" x="0px" y="0px"
	 viewBox="0 0 36.8 36.8" style="enable-background:new 0 0 36.8 36.8;" xml:space="preserve">
<style type="text/css">
	.st0{fill:#FFFFFF;}
</style>
<g>
	<path d="M32.5,36.9c2.4,0,4.4-2,4.4-4.4v-28c0-2.4-2-4.4-4.4-4.4h-28C2,0,0,2,0,4.4v28c0,2.4,2,4.4,4.4,4.4H32.5z"/>
	<polygon class="st0" points="5.1,32.1 33.9,32.1 33.9,29.1 8.1,29.1 8.1,17.7 33.9,6.1 33.9,3 1.9,17.4 1.9,20.5 5.1,19.1 	"/>
	<path class="st0" d="M20.2,21.6h4.7l-1.6-3.9h-1.6L20.2,21.6z M17.5,17.7v-1.4h10.4v1.4h-2.6l1.6,3.9h3.9V23h-3.3l1.8,4.5h-1.8
		L25.7,23h-5.9l-1.8,4.5h-1.8L18,23h-3.3v-1.4h3.8l1.6-3.9H17.5z"/>
</g>
</svg>
