<?xml version="1.0" encoding="utf-8"?>
<!-- Generator: Adobe Illustrator 27.0.0, SVG Export Plug-In . SVG Version: 6.00 Build 0)  -->
<svg version="1.1" id="Layer_1" xmlns="http://www.w3.org/2000/svg" xmlns:xlink="http://www.w3.org/1999/xlink" x="0px" y="0px"
	 viewBox="0 0 36 36" style="enable-background:new 0 0 36 36;" xml:space="preserve">
<style type="text/css">
	.st0{fill:#2DA649;}
	.st1{fill:#FFFFFF;}
</style>
<path class="st0" d="M31.7,36c2.4,0,4.3-1.9,4.3-4.3V4.3C36,1.9,34.1,0,31.7,0H4.3C1.9,0,0,1.9,0,4.3v27.4C0,34.1,1.9,36,4.3,36
	H31.7z"/>
<path class="st1" d="M32.5,21.1c-0.7-0.6-1.5-1.2-2.3-1.9c0,0.2,0,0.4,0,0.5c0,3.7,0,7.3,0,11c0,1.1-0.5,1.6-1.6,1.6c-7,0-14,0-21,0
	c-0.9,0-1.6-0.5-1.6-1.6c0-3.7,0-7.5,0-11.2c0-0.1,0-0.2,0-0.4c-0.8,0.7-1.6,1.3-2.4,1.9C3,20.5,2.5,20,1.9,19.4
	C7.3,14.8,12.6,10.3,18,5.7c2.3,2,4.6,4,7,6c0-0.1,0-0.2,0-0.3c0-0.7,0-1.5,0-2.2c0-0.5,0.2-0.6,0.6-0.6c0.6,0,1.1,0,1.7,0
	c0.5,0,0.7,0.1,0.7,0.7c0,1.6,0,3.2,0,4.8c0,0.3,0.1,0.4,0.3,0.6c1.9,1.6,3.8,3.2,5.7,4.9c0,0,0.1,0.1,0.1,0.1
	C33.6,19.9,33.1,20.5,32.5,21.1z M15.1,30c0-0.2,0-0.3,0-0.4c0-2.8,0-5.6,0-8.5c0-0.7,0.3-1,1-1c1.4,0,2.8,0,4.1,0c0.7,0,1,0.3,1,1
	c0,2.8,0,5.6,0,8.4c0,0.2,0,0.3,0,0.5c2.2,0,4.3,0,6.5,0c0-0.7,0-1.3,0-2c-1.8,0-3.6,0-5.4,0c0-0.8,0-1.6,0-2.4c1.8,0,3.6,0,5.4,0
	c0-0.7,0-1.3,0-2c-1.8,0-3.6,0-5.4,0c0-0.8,0-1.6,0-2.4c1.8,0,3.6,0,5.4,0c0-0.7,0-1.4,0-2.1c-6.5,0-13.1,0-19.6,0
	c0,0.7,0,1.4,0,2.1c2,0,3.9,0,5.9,0c0,0.7,0,1.4,0,2c0,0.3-0.1,0.3-0.4,0.3c-1.7,0-3.5,0-5.2,0c-0.1,0-0.2,0-0.3,0c0,0.7,0,1.3,0,2
	c2,0,3.9,0,5.8,0c0,0.8,0,1.6,0,2.4c-2,0-3.9,0-5.8,0c0,0.7,0,1.3,0,2C10.6,30,12.8,30,15.1,30z M17,15.7c0-1.9,0-3.8,0-5.8
	c-1.1,0.9-2.2,1.8-3.2,2.6C14.9,13.6,16,14.6,17,15.7z M19.5,10.2c0,1.9,0,3.7,0,5.5c1-1,2-2,3-3C21.6,11.9,20.6,11.1,19.5,10.2z
	 M11.9,14.1c-1,0.8-2,1.7-3.1,2.5c1.9,0,3.8,0,5.6,0C13.6,15.8,12.7,14.9,11.9,14.1z M24.5,14.4c-0.8,0.8-1.5,1.5-2.2,2.2
	c1.5,0,3.2,0,4.9,0C26.3,15.8,25.4,15.1,24.5,14.4z"/>
</svg>
