<?xml version="1.0" encoding="UTF-8"?>
<svg version="1.1" xmlns="http://www.w3.org/2000/svg" width="37" height="37">
<path d="M0 0 C1.67542976 0.28604898 3.34385343 0.61781233 5 1 C4.979375 1.9075 4.95875 2.815 4.9375 3.75 C4.9889755 6.42672588 5.2215017 8.46988052 6 11 C7.98 11 9.96 11 12 11 C12 11.99 12 12.98 12 14 C10.02 14 8.04 14 6 14 C6 14.66 6 15.32 6 16 C7.216875 15.835 8.43375 15.67 9.6875 15.5 C11.8984375 15.47265625 11.8984375 15.47265625 14 16 C15.7059652 17.93544783 16.76401791 19.83826048 17.89453125 22.15234375 C18.93016337 24.33879657 18.93016337 24.33879657 22 25 C22 25.99 22 26.98 22 28 C19.66705225 28.04241723 17.33297433 28.04092937 15 28 C14.67 27.67 14.34 27.34 14 27 C13.34 27.804375 12.68 28.60875 12 29.4375 C8.01873146 32.83816688 6.19577135 33 1 33 C-2.66584612 31.4521983 -5.17308143 29.55768353 -7 26 C-7.51101199 20.63437411 -7.44812884 17.37647122 -4 13 C-3.34 12.67 -2.68 12.34 -2 12 C-1.56947737 9.44648887 -1.56947737 9.44648887 -1.4375 6.5 C-1.09628611 1.09628611 -1.09628611 1.09628611 0 0 Z M-2 16 C-4.35618542 18.88599388 -4.35618542 18.88599388 -3.8125 22.5 C-3.21626339 25.84585831 -3.21626339 25.84585831 -1.875 27.9375 C1.18452459 29.6712306 3.56817525 29.42145216 7 29 C10.21519819 26.6309066 11.18349853 24.8103402 12 21 C10.86111328 20.96132813 10.86111328 20.96132813 9.69921875 20.921875 C8.70535156 20.86515625 7.71148437 20.8084375 6.6875 20.75 C5.70136719 20.70359375 4.71523438 20.6571875 3.69921875 20.609375 C1 20 1 20 -0.85546875 17.953125 C-1.23316406 17.30859375 -1.61085938 16.6640625 -2 16 Z " fill="#1F1F1F" transform="translate(12,2)"/>
<path d="M0 0 C0.33 0 0.66 0 1 0 C1 3.63 1 7.26 1 11 C0.01 11.33 -0.98 11.66 -2 12 C-1.67039784 17.01535052 -1.67039784 17.01535052 1 21 C5.66252681 21.55292834 5.66252681 21.55292834 9.75 19.6875 C10.36875 18.8521875 10.36875 18.8521875 11 18 C12 17 13 16 14 15 C14.66 16.32 15.32 17.64 16 19 C13.35996329 22.71560722 11.51894418 24.97296723 7 26 C1.80422865 26 -0.01873146 25.83816688 -4 22.4375 C-6.59445759 17.97827601 -6.64610621 16.08808639 -6 11 C-3.86111111 6.43055556 -3.86111111 6.43055556 -1 5 C-0.34444881 2.47266765 -0.34444881 2.47266765 0 0 Z " fill="#4D4D4D" transform="translate(11,9)"/>
<path d="M0 0 C0.33 0 0.66 0 1 0 C1 3.63 1 7.26 1 11 C0.01 11.33 -0.98 11.66 -2 12 C-2.33 13.65 -2.66 15.3 -3 17 C-3.66 17 -4.32 17 -5 17 C-5.35170604 11.72440945 -5.35170604 11.72440945 -5 9 C-3.0625 6.8125 -3.0625 6.8125 -1 5 C-0.20318682 2.35815459 -0.20318682 2.35815459 0 0 Z " fill="#2C2C2C" transform="translate(11,9)"/>
<path d="M0 0 C0.99 0.99 1.98 1.98 3 3 C-0.44615385 8.78461538 -0.44615385 8.78461538 -3.25 9.875 C-3.8275 9.91625 -4.405 9.9575 -5 10 C-5 9.34 -5 8.68 -5 8 C-6.98 8 -8.96 8 -11 8 C-11 7.67 -11 7.34 -11 7 C-9.1128125 6.6596875 -9.1128125 6.6596875 -7.1875 6.3125 C-3.82648432 5.49752806 -3.19641677 5.257797 -1 2.375 C-0.67 1.59125 -0.34 0.8075 0 0 Z " fill="#666666" transform="translate(24,24)"/>
<path d="M0 0 C1.67542976 0.28604898 3.34385343 0.61781233 5 1 C5 2.65 5 4.3 5 6 C3.34385343 6.38218767 1.67542976 6.71395102 0 7 C-1 6 -1 6 -1.125 3.5 C-1 1 -1 1 0 0 Z " fill="#3D3D3D" transform="translate(12,2)"/>
<path d="M0 0 C1.98 0 3.96 0 6 0 C5.67 0.99 5.34 1.98 5 3 C3.35 3 1.7 3 0 3 C0 2.01 0 1.02 0 0 Z " fill="#3B3B3B" transform="translate(13,32)"/>
<path d="M0 0 C0.33 0 0.66 0 1 0 C1 3.63 1 7.26 1 11 C0.34 9.68 -0.32 8.36 -1 7 C-1.66 6.67 -2.32 6.34 -3 6 C-2.34 5.67 -1.68 5.34 -1 5 C-0.34444881 2.47266765 -0.34444881 2.47266765 0 0 Z " fill="#A2A2A2" transform="translate(11,9)"/>
</svg>
