<?xml version="1.0" encoding="UTF-8"?>
<svg version="1.1" xmlns="http://www.w3.org/2000/svg" width="37" height="37">
<path d="M0 0 C0.66 0.28875 1.32 0.5775 2 0.875 C8.98897967 3.49586738 14.6643647 4.72523275 22 3 C24.01470098 2.02995879 26.01922047 1.03755118 28 0 C28.99 0.33 29.98 0.66 31 1 C30.875 2.8125 30.875 2.8125 30 5 C23.28250159 9.1221013 16.03943847 10.08415219 8.3671875 8.43359375 C0.90462045 6.35582362 0.90462045 6.35582362 -2 3 C-1.34 2.01 -0.68 1.02 0 0 Z " fill="#404040" transform="translate(4,27)"/>
<path d="M0 0 C0.99 0.33 1.98 0.66 3 1 C3 2.32 3 3.64 3 5 C4.32 5.33 5.64 5.66 7 6 C7 8.97 7 11.94 7 15 C3.04 15 -0.92 15 -5 15 C-5.29296875 8.1640625 -5.29296875 8.1640625 -5 6 C-4.01 5.34 -3.02 4.68 -2 4 C-0.80767387 1.94996045 -0.80767387 1.94996045 0 0 Z " fill="#212121" transform="translate(18,1)"/>
<path d="M0 0 C1.423125 0.495 1.423125 0.495 2.875 1 C10.06336905 3.03718961 17.01794484 2.42854093 24 0 C24.33 1.32 24.66 2.64 25 4 C20.48580776 6.60116565 17.19838471 7.4091999 12 7.375 C10.824375 7.38273437 9.64875 7.39046875 8.4375 7.3984375 C4.70309278 6.96558575 2.2370343 5.86524232 -1 4 C-0.67 2.68 -0.34 1.36 0 0 Z " fill="#3E3E3E" transform="translate(7,22)"/>
<path d="M0 0 C0.66 0.165 1.32 0.33 2 0.5 C7.41936382 1.4032273 12.65148842 1.3371279 18 0 C18.33 1.32 18.66 2.64 19 4 C14.18671257 6.56708663 9.31214782 6.45283883 4 6 C0.875 5 0.875 5 -1 4 C-0.67 2.68 -0.34 1.36 0 0 Z " fill="#3C3C3C" transform="translate(10,17)"/>
<path d="M0 0 C0.99 0.33 1.98 0.66 3 1 C3 2.32 3 3.64 3 5 C3.99 5.33 4.98 5.66 6 6 C2.7 6 -0.6 6 -4 6 C-2.68 4.02 -1.36 2.04 0 0 Z " fill="#595959" transform="translate(18,1)"/>
</svg>
