<?xml version="1.0" encoding="UTF-8"?>
<svg version="1.1" xmlns="http://www.w3.org/2000/svg" width="37" height="37">
<path d="M0 0 C0 2.31 0 4.62 0 7 C0.99 7 1.98 7 3 7 C3 6.01 3 5.02 3 4 C3.66 4 4.32 4 5 4 C4.22095672 15.52164009 4.22095672 15.52164009 2 21 C0.35 20.67 -1.3 20.34 -3 20 C-3.33 19.01 -3.66 18.02 -4 17 C-4.66 18.32 -5.32 19.64 -6 21 C-6.99 20.67 -7.98 20.34 -9 20 C-8.83242187 19.30132813 -8.66484375 18.60265625 -8.4921875 17.8828125 C-8.18667969 16.51769531 -8.18667969 16.51769531 -7.875 15.125 C-7.66617187 14.22007813 -7.45734375 13.31515625 -7.2421875 12.3828125 C-7.16226562 11.59648437 -7.08234375 10.81015625 -7 10 C-7.66 9.34 -8.32 8.68 -9 8 C-8.875 4.5 -8.875 4.5 -8 1 C-5.20799413 -1.31062555 -3.32874667 -1.1888381 0 0 Z M-1 9 C-0.67 11.64 -0.34 14.28 0 17 C2.28728734 15.16116119 2.28728734 15.16116119 2.125 12.375 C2.063125 11.199375 2.063125 11.199375 2 10 C1.01 9.67 0.02 9.34 -1 9 Z " fill="#2D2D2D" transform="translate(12,3)"/>
<path d="M0 0 C2.40875078 3.05253102 4.32543798 6.21351847 6.1875 9.625 C6.71730469 10.58664063 7.24710938 11.54828125 7.79296875 12.5390625 C9 15 9 15 9 17 C9.66 17 10.32 17 11 17 C11 17.66 11 18.32 11 19 C3.74 19 -3.52 19 -11 19 C-11 18.34 -11 17.68 -11 17 C-10.38705078 16.41798828 -10.38705078 16.41798828 -9.76171875 15.82421875 C-7.20187508 13.17356023 -5.58709024 10.01189686 -3.8125 6.8125 C-3.44447266 6.15830078 -3.07644531 5.50410156 -2.69726562 4.83007812 C-1.7937534 3.22253039 -0.8962759 1.61159349 0 0 Z M0 11 C-2.37015245 13.65484449 -2.37015245 13.65484449 -3 17 C-0.69 17 1.62 17 4 17 C2.515 14.03 2.515 14.03 1 11 C0.67 11 0.34 11 0 11 Z " fill="#313131" transform="translate(23,16)"/>
<path d="M0 0 C0.66 0 1.32 0 2 0 C1.22095672 11.52164009 1.22095672 11.52164009 -1 17 C-2.32 16.67 -3.64 16.34 -5 16 C-4.34 16 -3.68 16 -3 16 C-2.86722656 15.09636719 -2.73445312 14.19273438 -2.59765625 13.26171875 C-2.42105469 12.08222656 -2.24445312 10.90273438 -2.0625 9.6875 C-1.88847656 8.51574219 -1.71445313 7.34398437 -1.53515625 6.13671875 C-1 3 -1 3 0 0 Z " fill="#848484" transform="translate(15,7)"/>
<path d="M0 0 C1.98 0.495 1.98 0.495 4 1 C4 3.31 4 5.62 4 8 C3.01 8 2.02 8 1 8 C-1 5 -1 5 -0.625 2.3125 C-0.41875 1.549375 -0.2125 0.78625 0 0 Z " fill="#484848" transform="translate(8,15)"/>
<path d="M0 0 C1.32 0.66 2.64 1.32 4 2 C3.67 3.65 3.34 5.3 3 7 C1.68 7 0.36 7 -1 7 C-0.67 4.69 -0.34 2.38 0 0 Z " fill="#4F4F4F" transform="translate(4,4)"/>
<path d="M0 0 C1.98 0.495 1.98 0.495 4 1 C3.34 2.32 2.68 3.64 2 5 C1.01 4.34 0.02 3.68 -1 3 C-0.67 2.01 -0.34 1.02 0 0 Z " fill="#575757" transform="translate(8,2)"/>
</svg>
