<?xml version="1.0" encoding="UTF-8"?>
<svg version="1.1" xmlns="http://www.w3.org/2000/svg" width="37" height="37">
<path d="M0 0 C1.2065625 0.0309375 1.2065625 0.0309375 2.4375 0.0625 C2.4375 0.7225 2.4375 1.3825 2.4375 2.0625 C3.0665625 2.24425781 3.695625 2.42601562 4.34375 2.61328125 C9.80811108 4.21802584 15.12969738 5.99835454 20.4375 8.0625 C20.4375 9.0525 20.4375 10.0425 20.4375 11.0625 C19.4475 11.5575 19.4475 11.5575 18.4375 12.0625 C18.7675 13.3825 19.0975 14.7025 19.4375 16.0625 C19.83582031 15.629375 20.23414062 15.19625 20.64453125 14.75 C21.43923828 13.9146875 21.43923828 13.9146875 22.25 13.0625 C22.77207031 12.505625 23.29414063 11.94875 23.83203125 11.375 C25.4375 10.0625 25.4375 10.0625 28.4375 10.0625 C28.3125 12.1875 28.3125 12.1875 27.4375 15.0625 C26.4475 15.8875 25.4575 16.7125 24.4375 17.5625 C21.0328224 20.64137113 20.88346425 23.45372664 20.5625 27.9375 C20.49401198 29.97844299 20.44355959 32.0204172 20.4375 34.0625 C16.8075 34.0625 13.1775 34.0625 9.4375 34.0625 C9.4375 32.0825 9.4375 30.1025 9.4375 28.0625 C7.4575 28.0625 5.4775 28.0625 3.4375 28.0625 C3.4375 24.0625 3.4375 24.0625 5.4375 22.0625 C4.7775 21.7325 4.1175 21.4025 3.4375 21.0625 C2.48832555 18.94842963 1.62540309 16.79511849 0.8125 14.625 C0.36648437 13.45066406 -0.07953125 12.27632812 -0.5390625 11.06640625 C-1.5625 8.0625 -1.5625 8.0625 -1.5625 6.0625 C-2.2225 6.0625 -2.8825 6.0625 -3.5625 6.0625 C-3.605221 4.39638095 -3.60313832 2.72867115 -3.5625 1.0625 C-2.5625 0.0625 -2.5625 0.0625 0 0 Z M9.4375 7.0625 C9.4375 7.7225 9.4375 8.3825 9.4375 9.0625 C10.0975 9.0625 10.7575 9.0625 11.4375 9.0625 C11.7675 9.7225 12.0975 10.3825 12.4375 11.0625 C13.4275 10.4025 14.4175 9.7425 15.4375 9.0625 C13.4575 8.4025 11.4775 7.7425 9.4375 7.0625 Z M6.4375 10.0625 C6.4375 10.7225 6.4375 11.3825 6.4375 12.0625 C7.0975 12.0625 7.7575 12.0625 8.4375 12.0625 C8.4375 11.4025 8.4375 10.7425 8.4375 10.0625 C7.7775 10.0625 7.1175 10.0625 6.4375 10.0625 Z M2.4375 11.0625 C2.4375 11.7225 2.4375 12.3825 2.4375 13.0625 C3.0975 13.0625 3.7575 13.0625 4.4375 13.0625 C4.4375 12.4025 4.4375 11.7425 4.4375 11.0625 C3.7775 11.0625 3.1175 11.0625 2.4375 11.0625 Z M8.4375 12.0625 C8.7675 12.7225 9.0975 13.3825 9.4375 14.0625 C9.7675 13.4025 10.0975 12.7425 10.4375 12.0625 C9.7775 12.0625 9.1175 12.0625 8.4375 12.0625 Z M4.4375 13.0625 C4.1075 14.0525 3.7775 15.0425 3.4375 16.0625 C4.0975 16.0625 4.7575 16.0625 5.4375 16.0625 C5.7675 17.7125 6.0975 19.3625 6.4375 21.0625 C8.0875 20.4025 9.7375 19.7425 11.4375 19.0625 C11.1075 18.4025 10.7775 17.7425 10.4375 17.0625 C9.4475 17.0625 8.4575 17.0625 7.4375 17.0625 C7.4375 16.4025 7.4375 15.7425 7.4375 15.0625 C6.7775 15.0625 6.1175 15.0625 5.4375 15.0625 C5.1075 14.4025 4.7775 13.7425 4.4375 13.0625 Z " fill="#262626" transform="translate(6.5625,1.9375)"/>
<path d="M0 0 C1.2065625 0.0309375 1.2065625 0.0309375 2.4375 0.0625 C2.4375 0.7225 2.4375 1.3825 2.4375 2.0625 C3.0665625 2.24425781 3.695625 2.42601562 4.34375 2.61328125 C9.80811108 4.21802584 15.12969738 5.99835454 20.4375 8.0625 C20.4375 9.0525 20.4375 10.0425 20.4375 11.0625 C16.87969804 10.45259109 13.7546411 9.4841319 10.4375 8.0625 C10.7675 8.3925 11.0975 8.7225 11.4375 9.0625 C12.6452558 12.68576739 11.98061128 13.70396369 10.4375 17.0625 C9.4475 17.0625 8.4575 17.0625 7.4375 17.0625 C7.4375 16.4025 7.4375 15.7425 7.4375 15.0625 C6.4475 15.0625 5.4575 15.0625 4.4375 15.0625 C5.4275 16.5475 5.4275 16.5475 6.4375 18.0625 C6.4375 19.0525 6.4375 20.0425 6.4375 21.0625 C5.4475 21.0625 4.4575 21.0625 3.4375 21.0625 C2.60010219 18.9390984 1.76769717 16.8137272 0.9375 14.6875 C0.24140625 12.91246094 0.24140625 12.91246094 -0.46875 11.1015625 C-1.5625 8.0625 -1.5625 8.0625 -1.5625 6.0625 C-2.2225 6.0625 -2.8825 6.0625 -3.5625 6.0625 C-3.605221 4.39638095 -3.60313832 2.72867115 -3.5625 1.0625 C-2.5625 0.0625 -2.5625 0.0625 0 0 Z M6.4375 10.0625 C6.4375 10.7225 6.4375 11.3825 6.4375 12.0625 C7.0975 12.0625 7.7575 12.0625 8.4375 12.0625 C8.4375 11.4025 8.4375 10.7425 8.4375 10.0625 C7.7775 10.0625 7.1175 10.0625 6.4375 10.0625 Z M2.4375 11.0625 C2.4375 11.7225 2.4375 12.3825 2.4375 13.0625 C3.0975 13.0625 3.7575 13.0625 4.4375 13.0625 C4.4375 12.4025 4.4375 11.7425 4.4375 11.0625 C3.7775 11.0625 3.1175 11.0625 2.4375 11.0625 Z M8.4375 12.0625 C8.7675 12.7225 9.0975 13.3825 9.4375 14.0625 C9.7675 13.4025 10.0975 12.7425 10.4375 12.0625 C9.7775 12.0625 9.1175 12.0625 8.4375 12.0625 Z " fill="#848484" transform="translate(6.5625,1.9375)"/>
<path d="M0 0 C1.2065625 0.0309375 1.2065625 0.0309375 2.4375 0.0625 C2.4375 0.7225 2.4375 1.3825 2.4375 2.0625 C3.0665625 2.24425781 3.695625 2.42601562 4.34375 2.61328125 C9.80811108 4.21802584 15.12969738 5.99835454 20.4375 8.0625 C20.4375 9.0525 20.4375 10.0425 20.4375 11.0625 C15.36751981 10.40830901 11.01759223 8.2078591 6.4375 6.0625 C6.4375 6.7225 6.4375 7.3825 6.4375 8.0625 C5.4475 7.7325 4.4575 7.4025 3.4375 7.0625 C3.4375 6.4025 3.4375 5.7425 3.4375 5.0625 C2.261875 5.5884375 2.261875 5.5884375 1.0625 6.125 C-0.236875 6.5890625 -0.236875 6.5890625 -1.5625 7.0625 C-2.2225 6.7325 -2.8825 6.4025 -3.5625 6.0625 C-3.605221 4.39638095 -3.60313832 2.72867115 -3.5625 1.0625 C-2.5625 0.0625 -2.5625 0.0625 0 0 Z " fill="#7E7E7E" transform="translate(6.5625,1.9375)"/>
<path d="M0 0 C4.875 0.875 4.875 0.875 6 2 C6.1875 4.4375 6.1875 4.4375 6 7 C4 9 4 9 1.4375 9.1875 C-1 9 -1 9 -2 8 C-2.29386153 4.27775401 -2.14809171 3.22213757 0 0 Z " fill="#2E2E2E" transform="translate(19,12)"/>
<path d="M0 0 C1.2065625 0.0309375 1.2065625 0.0309375 2.4375 0.0625 C2.4375 4.0625 2.4375 4.0625 0.4375 7.0625 C-0.8825 6.7325 -2.2025 6.4025 -3.5625 6.0625 C-3.605221 4.39638095 -3.60313832 2.72867115 -3.5625 1.0625 C-2.5625 0.0625 -2.5625 0.0625 0 0 Z " fill="#3E3E3E" transform="translate(6.5625,1.9375)"/>
<path d="M0 0 C0.66 0 1.32 0 2 0 C2 0.66 2 1.32 2 2 C2.66 2 3.32 2 4 2 C5.25664978 4.90600261 6 6.79604584 6 10 C5.01 10 4.02 10 3 10 C2.01 6.7 1.02 3.4 0 0 Z " fill="#757575" transform="translate(7,13)"/>
</svg>
