<?xml version="1.0" encoding="UTF-8"?>
<svg version="1.1" xmlns="http://www.w3.org/2000/svg" width="37" height="37">
<path d="M0 0 C2.475 0.495 2.475 0.495 5 1 C5 2.65 5 4.3 5 6 C4.01 6 3.02 6 2 6 C2.33 7.32 2.66 8.64 3 10 C4.98 10 6.96 10 9 10 C8.67 10.99 8.34 11.98 8 13 C4.625 13.125 4.625 13.125 1 13 C0.34 12.34 -0.32 11.68 -1 11 C-1.33 11.66 -1.66 12.32 -2 13 C-1.01 13.33 -0.02 13.66 1 14 C1 17.3 1 20.6 1 24 C-0.32 24.33 -1.64 24.66 -3 25 C-3 22.36 -3 19.72 -3 17 C-3.99 17 -4.98 17 -6 17 C-5.34 17.66 -4.68 18.32 -4 19 C-3.56755399 22.89201406 -3.42153535 25.13230302 -5.625 28.4375 C-8.69817115 30.45932313 -10.38247881 30.52755517 -14 30 C-16.3125 28.875 -16.3125 28.875 -18 27 C-19.14364857 23.49281106 -19.27206511 21.70416853 -17.9375 18.25 C-15.53856372 15.46413851 -13.52394445 14.86140864 -10 14 C-9.95875 13.278125 -9.9175 12.55625 -9.875 11.8125 C-8.60118706 7.71810125 -6.46571675 6.47551196 -3 4 C-2.34 4 -1.68 4 -1 4 C-0.67 2.68 -0.34 1.36 0 0 Z M-14.25 18.125 C-16.19757313 19.89518322 -16.19757313 19.89518322 -16.5625 22.5 C-16.21499957 25.20412205 -16.21499957 25.20412205 -13.75 26.9375 C-11.12132038 28.24503602 -11.12132038 28.24503602 -8.75 27.5 C-6.80207031 26.08065519 -6.80207031 26.08065519 -6.125 23.5625 C-5.73353649 20.75556583 -5.73353649 20.75556583 -8 18 C-10.68560044 16.74671979 -11.5754419 16.78772095 -14.25 18.125 Z " fill="#313131" transform="translate(20,3)"/>
<path d="M0 0 C3.3656687 2.77667668 4.87000107 4.17667343 5.5625 8.5625 C5 12 5 12 3.375 14.4375 C0.30182885 16.45932313 -1.38247881 16.52755517 -5 16 C-7.3125 14.875 -7.3125 14.875 -9 13 C-10.13378367 9.5230634 -10.25341201 7.69688303 -9 4.25 C-6.33377963 1.25050208 -3.86200358 0.80154791 0 0 Z M-5.25 4.125 C-7.19757313 5.89518322 -7.19757313 5.89518322 -7.5625 8.5 C-7.21499957 11.20412205 -7.21499957 11.20412205 -4.75 12.9375 C-2.12132038 14.24503602 -2.12132038 14.24503602 0.25 13.5 C2.19792969 12.08065519 2.19792969 12.08065519 2.875 9.5625 C3.26646351 6.75556583 3.26646351 6.75556583 1 4 C-1.68560044 2.74671979 -2.5754419 2.78772095 -5.25 4.125 Z " fill="#606060" transform="translate(11,17)"/>
<path d="M0 0 C2.375 1.5625 2.375 1.5625 4 4 C4.56783945 7.97487617 4.62340519 10.06489221 2.375 13.4375 C-0.71685231 15.47161336 -2.36367425 15.60605429 -6 15 C-8.375 13.4375 -8.375 13.4375 -10 11 C-10.56783945 7.02512383 -10.62340519 4.93510779 -8.375 1.5625 C-5.28314769 -0.47161336 -3.63632575 -0.60605429 0 0 Z M-6 3 C-8.25162602 5.75471394 -8.25162602 5.75471394 -7.9375 8.5625 C-7.20025401 11.1919108 -7.20025401 11.1919108 -4.6875 12.5 C-1.99699948 13.26779486 -1.99699948 13.26779486 0.3125 11.9375 C2.22148113 10.09822611 2.22148113 10.09822611 2.375 7.4375 C2.21896136 4.82471891 2.21896136 4.82471891 0 3 C-3 2.58333333 -3 2.58333333 -6 3 Z " fill="#656565" transform="translate(32,18)"/>
<path d="M0 0 C1.32 0.66 2.64 1.32 4 2 C3.01 2.66 2.02 3.32 1 4 C0.49985047 6.45741537 0.49985047 6.45741537 1 9 C2.39585785 10.81476003 2.39585785 10.81476003 4 12 C2.68 12.33 1.36 12.66 0 13 C-2.19242277 10.01830504 -3.03350875 8.56964872 -2.8125 4.8125 C-2 2 -2 2 0 0 Z " fill="#6B6B6B" transform="translate(4,19)"/>
<path d="M0 0 C0.66 0 1.32 0 2 0 C2.20625 1.11375 2.4125 2.2275 2.625 3.375 C3.61628301 7.26599195 3.61628301 7.26599195 7.125 8.4375 C8.07375 8.623125 9.0225 8.80875 10 9 C10 9.66 10 10.32 10 11 C6.50355037 11.31785906 4.602598 11.39644605 1.625 9.4375 C-0.54455002 6.18317497 -0.29451507 3.82869586 0 0 Z " fill="#515151" transform="translate(22,22)"/>
<path d="M0 0 C0.33 1.32 0.66 2.64 1 4 C0.16855469 4.72316406 0.16855469 4.72316406 -0.6796875 5.4609375 C-1.40414063 6.09257812 -2.12859375 6.72421875 -2.875 7.375 C-3.95394531 8.31472656 -3.95394531 8.31472656 -5.0546875 9.2734375 C-6.4076598 10.47426834 -7.7208345 11.7208345 -9 13 C-8.84759391 10.33289346 -8.50635081 8.5494129 -6.66796875 6.5546875 C-2.49375 3 -2.49375 3 0 3 C0 2.01 0 1.02 0 0 Z " fill="#6D6D6D" transform="translate(19,4)"/>
<path d="M0 0 C2.475 0.495 2.475 0.495 5 1 C5 2.65 5 4.3 5 6 C3.35 5.67 1.7 5.34 0 5 C0 3.35 0 1.7 0 0 Z " fill="#383838" transform="translate(20,3)"/>
<path d="M0 0 C0.66 0 1.32 0 2 0 C1.42655063 2.86724686 1.1385485 3.8614515 -1 6 C-4.125 6.125 -4.125 6.125 -7 6 C-7 5.34 -7 4.68 -7 4 C-6.030625 3.71125 -5.06125 3.4225 -4.0625 3.125 C-0.89335797 2.35785318 -0.89335797 2.35785318 0 0 Z " fill="#585858" transform="translate(13,27)"/>
</svg>
