<?xml version="1.0" encoding="UTF-8"?>
<svg version="1.1" xmlns="http://www.w3.org/2000/svg" width="37" height="37">
<path d="M0 0 C0.99 0.33 1.98 0.66 3 1 C2.34 1.66 1.68 2.32 1 3 C2.21558594 3.32613281 3.43117188 3.65226563 4.68359375 3.98828125 C6.26841228 4.4290296 7.85303796 4.87047182 9.4375 5.3125 C10.23994141 5.52583984 11.04238281 5.73917969 11.86914062 5.95898438 C12.63291016 6.17490234 13.39667969 6.39082031 14.18359375 6.61328125 C14.89056396 6.80704346 15.59753418 7.00080566 16.32592773 7.20043945 C16.87837158 7.46429443 17.43081543 7.72814941 18 8 C19.31223496 11.93670488 18.24296256 14.12488144 17 18 C13.53058454 17.54177532 10.32604951 17.10868317 7 16 C7.33 16.99 7.66 17.98 8 19 C10.32891096 20.02700444 10.32891096 20.02700444 13.0625 20.6875 C13.98160156 20.93886719 14.90070312 21.19023437 15.84765625 21.44921875 C16.55792969 21.63097656 17.26820312 21.81273438 18 22 C18.495 24.475 18.495 24.475 19 27 C7.78 27 -3.44 27 -15 27 C-15 22.71 -15 18.42 -15 14 C-9.76119922 14.55145271 -5.02649303 15.42922093 0 17 C-0.33 16.01 -0.66 15.02 -1 14 C-3.38066801 13.12012394 -5.61481901 12.42741106 -8.0625 11.8125 C-9.05733398 11.54663086 -9.05733398 11.54663086 -10.07226562 11.27539062 C-11.71187426 10.83894804 -13.35559238 10.41799781 -15 10 C-14.67 9.01 -14.34 8.02 -14 7 C-11.36 7.66 -8.72 8.32 -6 9 C-6.66 8.4225 -7.32 7.845 -8 7.25 C-10 5 -10 5 -10 1 C-8.906875 1.20625 -7.81375 1.4125 -6.6875 1.625 C-2.9161599 2.40346525 -2.9161599 2.40346525 0 0 Z M7 13 C11 14 11 14 11 14 Z " fill="#232323" transform="translate(17,5)"/>
<path d="M0 0 C0.99 0.33 1.98 0.66 3 1 C2.34 1.66 1.68 2.32 1 3 C2.21558594 3.32613281 3.43117188 3.65226563 4.68359375 3.98828125 C6.26841228 4.4290296 7.85303796 4.87047182 9.4375 5.3125 C10.23994141 5.52583984 11.04238281 5.73917969 11.86914062 5.95898438 C12.63291016 6.17490234 13.39667969 6.39082031 14.18359375 6.61328125 C14.89056396 6.80704346 15.59753418 7.00080566 16.32592773 7.20043945 C16.87837158 7.46429443 17.43081543 7.72814941 18 8 C19.31223496 11.93670488 18.24296256 14.12488144 17 18 C7.95652174 16.95652174 7.95652174 16.95652174 5 14 C5 14.99 5 15.98 5 17 C4.01 17 3.02 17 2 17 C1.67 16.01 1.34 15.02 1 14 C-1.71318044 13.11917378 -4.28883517 12.42123771 -7.0625 11.8125 C-7.82111328 11.63525391 -8.57972656 11.45800781 -9.36132812 11.27539062 C-11.23821697 10.83863033 -13.1188016 10.41780844 -15 10 C-14.67 9.01 -14.34 8.02 -14 7 C-11.36 7.66 -8.72 8.32 -6 9 C-6.66 8.4225 -7.32 7.845 -8 7.25 C-10 5 -10 5 -10 1 C-8.906875 1.20625 -7.81375 1.4125 -6.6875 1.625 C-2.9161599 2.40346525 -2.9161599 2.40346525 0 0 Z M7 13 C11 14 11 14 11 14 Z " fill="#262626" transform="translate(17,5)"/>
<path d="M0 0 C1.72926874 0.31193464 3.45841044 0.62457362 5.1875 0.9375 C6.15042969 1.11152344 7.11335937 1.28554687 8.10546875 1.46484375 C10.74239972 1.9523735 13.3719905 2.46671105 16 3 C16 3.66 16 4.32 16 5 C17.65 4.67 19.3 4.34 21 4 C20.67 5.98 20.34 7.96 20 10 C19.01 10 18.02 10 17 10 C16.67 9.01 16.34 8.02 16 7 C13.28681956 6.11917378 10.71116483 5.42123771 7.9375 4.8125 C7.17888672 4.63525391 6.42027344 4.45800781 5.63867188 4.27539062 C3.76178303 3.83863033 1.8811984 3.41780844 0 3 C0 2.01 0 1.02 0 0 Z " fill="#676767" transform="translate(2,12)"/>
<path d="M0 0 C1.98 0 3.96 0 6 0 C6 0.66 6 1.32 6 2 C7.98 1.34 9.96 0.68 12 0 C11.67 1.65 11.34 3.3 11 5 C6.94393835 4.53199289 3.53411321 4.12046792 0 2 C0 1.34 0 0.68 0 0 Z " fill="#7A7A7A" transform="translate(23,18)"/>
<path d="M0 0 C0.33 0.66 0.66 1.32 1 2 C2.65 1.67 4.3 1.34 6 1 C5.67 2.98 5.34 4.96 5 7 C4.01 7 3.02 7 2 7 C1.67 6.01 1.34 5.02 1 4 C-1.97 3.505 -1.97 3.505 -5 3 C-2 1 -2 1 0 0 Z " fill="#828282" transform="translate(17,15)"/>
</svg>
