<?xml version="1.0" encoding="UTF-8"?>
<svg version="1.1" xmlns="http://www.w3.org/2000/svg" width="37" height="37">
<path d="M0 0 C0.33 0 0.66 0 1 0 C1.04125 0.763125 1.0825 1.52625 1.125 2.3125 C1.74882718 5.28347556 1.74882718 5.28347556 4.8125 6.5 C5.864375 6.995 6.91625 7.49 8 8 C11.39856489 11.6741242 12.80852232 14.30861383 13.375 19.3125 C12.99475372 23.05158846 12.25853613 24.95087001 9.77832031 27.76733398 C6.06429192 30.3417614 1.51939342 29.60192256 -2.8125 29.375 C-3.79154297 29.34792969 -4.77058594 29.32085938 -5.77929688 29.29296875 C-8.18846621 29.22245648 -10.59308819 29.12398568 -13 29 C-13 27.02 -13 25.04 -13 23 C-14.32 23 -15.64 23 -17 23 C-15.49499231 18.2547993 -12.85377759 15.16211353 -9.625 11.5 C-8.65826463 10.38592796 -7.69210965 9.27135201 -6.7265625 8.15625 C-6.26411133 7.62644531 -5.80166016 7.09664062 -5.32519531 6.55078125 C-4.0825735 5.09662986 -2.89446729 3.5963885 -1.7109375 2.09375 C-1.14632813 1.4028125 -0.58171875 0.711875 0 0 Z " fill="#494949" transform="translate(21,1)"/>
<path d="M0 0 C0.33 0 0.66 0 1 0 C1 7.26 1 14.52 1 22 C-4.94 22 -10.88 22 -17 22 C-14.95344968 18.5890828 -13.15708006 15.803959 -10.6796875 12.79296875 C-10.06222656 12.04208984 -9.44476562 11.29121094 -8.80859375 10.51757812 C-7.85146484 9.36418945 -7.85146484 9.36418945 -6.875 8.1875 C-6.22917969 7.39923828 -5.58335938 6.61097656 -4.91796875 5.79882812 C-1.35792074 1.48870711 -1.35792074 1.48870711 0 0 Z " fill="#0E0E0E" transform="translate(21,1)"/>
<path d="M0 0 C7.50769231 3.75384615 7.50769231 3.75384615 10 8 C10.60660078 11.03300389 10.81476091 13.89724516 11 17 C7.37 17 3.74 17 0 17 C0 11.39 0 5.78 0 0 Z " fill="#181818" transform="translate(23,6)"/>
<path d="M0 0 C9.57 0 19.14 0 29 0 C29.33 1.65 29.66 3.3 30 5 C19.77 5 9.54 5 -1 5 C-0.67 3.35 -0.34 1.7 0 0 Z " fill="#373737" transform="translate(4,31)"/>
<path d="M0 0 C0.33 0 0.66 0 1 0 C1 7.26 1 14.52 1 22 C0.67 22 0.34 22 0 22 C-0.33 16.39 -0.66 10.78 -1 5 C-2.98 5.99 -2.98 5.99 -5 7 C-1.125 1.125 -1.125 1.125 0 0 Z " fill="#4D4D4D" transform="translate(21,1)"/>
</svg>
