<?xml version="1.0" encoding="UTF-8"?>
<svg version="1.1" xmlns="http://www.w3.org/2000/svg" width="37" height="37">
<path d="M0 0 C3.56080988 4.52790312 6.03493328 9.5320719 8.6875 14.625 C9.19861328 15.59179688 9.70972656 16.55859375 10.23632812 17.5546875 C10.71908203 18.47765625 11.20183594 19.400625 11.69921875 20.3515625 C12.14096436 21.19541504 12.58270996 22.03926758 13.0378418 22.90869141 C14 25 14 25 14 27 C14.99 27 15.98 27 17 27 C17 27.99 17 28.98 17 30 C5.78 30 -5.44 30 -17 30 C-17 29.01 -17 28.02 -17 27 C-16.01 26.67 -15.02 26.34 -14 26 C-12.38074976 23.53432323 -12.38074976 23.53432323 -10.8984375 20.46875 C-10.32609375 19.34855469 -9.75375 18.22835938 -9.1640625 17.07421875 C-8.57367188 15.89472656 -7.98328125 14.71523438 -7.375 13.5 C-6.19851984 11.17544184 -5.01707835 8.85344774 -3.8359375 6.53125 C-3.31563965 5.49548828 -2.7953418 4.45972656 -2.25927734 3.39257812 C-1 1 -1 1 0 0 Z M0 15 C-1.98 18.96 -3.96 22.92 -6 27 C-1.71 27 2.58 27 7 27 C4.03 21.06 4.03 21.06 1 15 C0.67 15 0.34 15 0 15 Z " fill="#2E2E2E" transform="translate(19,3)"/>
</svg>
