<?xml version="1.0" encoding="UTF-8"?>
<svg version="1.1" xmlns="http://www.w3.org/2000/svg" width="37" height="37">
<path d="M0 0 C2.09839872 1.27609044 4.15858948 2.61609027 6.1875 4 C7.78658203 5.0828125 7.78658203 5.0828125 9.41796875 6.1875 C12 8 12 8 13 9 C13.08685603 10.56172745 13.10702219 12.12729344 13.09765625 13.69140625 C13.09515869 14.54162354 13.09266113 15.39184082 13.09008789 16.26782227 C13.08098389 17.35506592 13.07187988 18.44230957 13.0625 19.5625 C13.041875 23.006875 13.02125 26.45125 13 30 C2.77 30 -7.46 30 -18 30 C-19.64043864 10.43191052 -19.64043864 10.43191052 -16.69042969 6.05859375 C-12.59916967 2.23337349 -5.60804775 -2.73038284 0 0 Z M-15 12 C-15 16.95 -15 21.9 -15 27 C-14.34 27 -13.68 27 -13 27 C-13 25.68 -13 24.36 -13 23 C-6.73 23 -0.46 23 6 23 C6 23.99 6 24.98 6 26 C6.99 26 7.98 26 9 26 C9.020625 24.72125 9.04125 23.4425 9.0625 22.125 C9.07410156 21.40570313 9.08570312 20.68640625 9.09765625 19.9453125 C9.12649242 17.91814596 9.12649242 17.91814596 8 16 C5.57644958 15.71013022 3.24499131 15.53203284 0.8125 15.4375 C-3.87454956 15.21211685 -8.38579545 14.86830288 -13 14 C-13 13.34 -13 12.68 -13 12 C-13.66 12 -14.32 12 -15 12 Z " fill="#1C1C1C" transform="translate(22,3)"/>
</svg>
