<?xml version="1.0" encoding="UTF-8"?>
<svg version="1.1" xmlns="http://www.w3.org/2000/svg" width="37" height="37">
<path d="M0 0 C0.92425781 -0.00386719 1.84851563 -0.00773438 2.80078125 -0.01171875 C4.24517578 0.00568359 4.24517578 0.00568359 5.71875 0.0234375 C6.68167969 0.01183594 7.64460938 0.00023437 8.63671875 -0.01171875 C9.56097656 -0.00785156 10.48523438 -0.00398437 11.4375 0 C12.28248047 0.00338379 13.12746094 0.00676758 13.99804688 0.01025391 C16.69798393 0.4822086 17.59265088 1.22477107 19.21875 3.3984375 C19.51171875 5.87890625 19.51171875 5.87890625 19.40625 8.5859375 C19.37917969 9.48699219 19.35210937 10.38804688 19.32421875 11.31640625 C19.28941406 12.00347656 19.25460938 12.69054688 19.21875 13.3984375 C20.70375 13.8934375 20.70375 13.8934375 22.21875 14.3984375 C22.21875 14.7284375 22.21875 15.0584375 22.21875 15.3984375 C17.92875 15.3984375 13.63875 15.3984375 9.21875 15.3984375 C9.21875 16.0584375 9.21875 16.7184375 9.21875 17.3984375 C13.50875 17.7284375 17.79875 18.0584375 22.21875 18.3984375 C22.31640625 26.89453125 22.31640625 26.89453125 22.21875 29.3984375 C20.54201351 31.07517399 18.49019924 30.52631567 16.25219727 30.53738403 C15.56053467 30.5353598 14.86887207 30.53333557 14.15625 30.53125 C13.44976318 30.53220673 12.74327637 30.53316345 12.01538086 30.53414917 C10.51904207 30.53483083 9.02270033 30.53297755 7.52636719 30.52880859 C5.22844843 30.52346007 2.93072514 30.52875401 0.6328125 30.53515625 C-0.81770877 30.53449547 -2.26822991 30.5332143 -3.71875 30.53125 C-4.7562439 30.53428635 -4.7562439 30.53428635 -5.81469727 30.53738403 C-10.66629776 30.51338974 -10.66629776 30.51338974 -11.78125 29.3984375 C-11.85351502 27.54556248 -11.8650622 25.69009872 -11.84375 23.8359375 C-11.83472656 22.82402344 -11.82570313 21.81210937 -11.81640625 20.76953125 C-11.80480469 19.98707031 -11.79320312 19.20460938 -11.78125 18.3984375 C-9.14125 18.3984375 -6.50125 18.3984375 -3.78125 18.3984375 C-3.78125 17.7384375 -3.78125 17.0784375 -3.78125 16.3984375 C-2.79125 16.3984375 -1.80125 16.3984375 -0.78125 16.3984375 C-0.78125 17.0584375 -0.78125 17.7184375 -0.78125 18.3984375 C0.20875 18.0684375 1.19875 17.7384375 2.21875 17.3984375 C2.21875 16.7384375 2.21875 16.0784375 2.21875 15.3984375 C-0.75125 15.3984375 -3.72125 15.3984375 -6.78125 15.3984375 C-8.00816067 12.94461616 -7.98300931 11.19859647 -8.03125 8.4609375 C-8.05703125 7.58566406 -8.0828125 6.71039062 -8.109375 5.80859375 C-7.44339074 0.91678079 -4.54991385 0.01822048 0 0 Z M-2.78125 4.3984375 C-2.78125 5.3884375 -2.78125 6.3784375 -2.78125 7.3984375 C-0.14125 7.3984375 2.49875 7.3984375 5.21875 7.3984375 C5.21875 6.4084375 5.21875 5.4184375 5.21875 4.3984375 C2.57875 4.3984375 -0.06125 4.3984375 -2.78125 4.3984375 Z M11.21875 4.3984375 C11.21875 5.3884375 11.21875 6.3784375 11.21875 7.3984375 C12.53875 7.0684375 13.85875 6.7384375 15.21875 6.3984375 C15.21875 5.7384375 15.21875 5.0784375 15.21875 4.3984375 C13.89875 4.3984375 12.57875 4.3984375 11.21875 4.3984375 Z M-8.78125 20.3984375 C-8.78125 22.7084375 -8.78125 25.0184375 -8.78125 27.3984375 C-4.16125 27.3984375 0.45875 27.3984375 5.21875 27.3984375 C5.21875 25.4184375 5.21875 23.4384375 5.21875 21.3984375 C4.15229885 20.10210129 4.15229885 20.10210129 1.65625 20.3359375 C0.851875 20.3565625 0.0475 20.3771875 -0.78125 20.3984375 C-0.78125 22.3784375 -0.78125 24.3584375 -0.78125 26.3984375 C-1.77125 26.3984375 -2.76125 26.3984375 -3.78125 26.3984375 C-3.78125 24.4184375 -3.78125 22.4384375 -3.78125 20.3984375 C-5.43125 20.3984375 -7.08125 20.3984375 -8.78125 20.3984375 Z " fill="#212121" transform="translate(13.78125,3.6015625)"/>
<path d="M0 0 C0.92425781 -0.00386719 1.84851563 -0.00773438 2.80078125 -0.01171875 C4.24517578 0.00568359 4.24517578 0.00568359 5.71875 0.0234375 C6.68167969 0.01183594 7.64460938 0.00023437 8.63671875 -0.01171875 C9.56097656 -0.00785156 10.48523438 -0.00398437 11.4375 0 C12.28248047 0.00338379 13.12746094 0.00676758 13.99804688 0.01025391 C16.69798393 0.4822086 17.59265088 1.22477107 19.21875 3.3984375 C19.51171875 5.87890625 19.51171875 5.87890625 19.40625 8.5859375 C19.37917969 9.48699219 19.35210937 10.38804688 19.32421875 11.31640625 C19.28941406 12.00347656 19.25460938 12.69054688 19.21875 13.3984375 C20.20875 13.7284375 21.19875 14.0584375 22.21875 14.3984375 C22.21875 14.7284375 22.21875 15.0584375 22.21875 15.3984375 C20.28193839 15.47951333 18.3441566 15.53766225 16.40625 15.5859375 C15.32730469 15.62074219 14.24835937 15.65554687 13.13671875 15.69140625 C9.86297587 15.36271721 9.26344058 14.82129969 7.21875 12.3984375 C5.08071946 12.47450586 5.08071946 12.47450586 3.21875 13.3984375 C2.88875 14.0584375 2.55875 14.7184375 2.21875 15.3984375 C-0.75125 15.3984375 -3.72125 15.3984375 -6.78125 15.3984375 C-8.00816067 12.94461616 -7.98300931 11.19859647 -8.03125 8.4609375 C-8.05703125 7.58566406 -8.0828125 6.71039062 -8.109375 5.80859375 C-7.44339074 0.91678079 -4.54991385 0.01822048 0 0 Z M-2.78125 4.3984375 C-2.78125 5.3884375 -2.78125 6.3784375 -2.78125 7.3984375 C-0.14125 7.3984375 2.49875 7.3984375 5.21875 7.3984375 C5.21875 6.4084375 5.21875 5.4184375 5.21875 4.3984375 C2.57875 4.3984375 -0.06125 4.3984375 -2.78125 4.3984375 Z M11.21875 4.3984375 C11.21875 5.3884375 11.21875 6.3784375 11.21875 7.3984375 C12.53875 7.0684375 13.85875 6.7384375 15.21875 6.3984375 C15.21875 5.7384375 15.21875 5.0784375 15.21875 4.3984375 C13.89875 4.3984375 12.57875 4.3984375 11.21875 4.3984375 Z " fill="#1C1C1C" transform="translate(13.78125,3.6015625)"/>
<path d="M0 0 C0.99 0 1.98 0 3 0 C3.74926071 3.66305234 4.2380014 6.42355152 3 10 C2.01 10 1.02 10 0 10 C-1.125 6.25 -1.125 6.25 0 4 C-1.65 4 -3.3 4 -5 4 C-5 6.31 -5 8.62 -5 11 C-0.38 11 4.24 11 9 11 C9 11.33 9 11.66 9 12 C0.585 12.495 0.585 12.495 -8 13 C-8 9.37 -8 5.74 -8 2 C-5.36 2 -2.72 2 0 2 C0 1.34 0 0.68 0 0 Z " fill="#3C3C3C" transform="translate(10,20)"/>
<path d="M0 0 C0.99 0 1.98 0 3 0 C3.74926071 3.66305234 4.2380014 6.42355152 3 10 C2.01 10 1.02 10 0 10 C-0.74926071 6.33694766 -1.2380014 3.57644848 0 0 Z " fill="#797979" transform="translate(10,20)"/>
<path d="M0 0 C2 0.1875 2 0.1875 4 1 C4.66 1.99 5.32 2.98 6 4 C3.64046906 6.35953094 2.22104383 6.49141413 -1 7 C-1.625 4.625 -1.625 4.625 -2 2 C-1.34 1.34 -0.68 0.68 0 0 Z " fill="#777777" transform="translate(18,15)"/>
</svg>
