<?xml version="1.0" encoding="UTF-8"?>
<svg version="1.1" xmlns="http://www.w3.org/2000/svg" width="37" height="37">
<path d="M0 0 C2.5 1.3125 2.5 1.3125 5 3 C5 3.99 5 4.98 5 6 C4.34 6 3.68 6 3 6 C3 6.66 3 7.32 3 8 C2.01 8.33 1.02 8.66 0 9 C-1.14814997 11.29629994 -1.30769809 13.07698086 -1.5625 15.625 C-1.64628906 16.44226563 -1.73007812 17.25953125 -1.81640625 18.1015625 C-1.90728516 19.04128906 -1.90728516 19.04128906 -2 20 C-2.99 20.33 -3.98 20.66 -5 21 C-5 18.36 -5 15.72 -5 13 C-6.65 13 -8.3 13 -10 13 C-9.34 15.31 -8.68 17.62 -8 20 C-9.32 20 -10.64 20 -12 20 C-12.33 19.01 -12.66 18.02 -13 17 C-13.33 18.32 -13.66 19.64 -14 21 C-14.99 20.67 -15.98 20.34 -17 20 C-17.19393875 17.85473901 -17.37998676 15.70876323 -17.5625 13.5625 C-17.71912109 11.77005859 -17.71912109 11.77005859 -17.87890625 9.94140625 C-17.91886719 8.97074219 -17.95882813 8.00007812 -18 7 C-16.25040671 5.25040671 -13.62715497 5.83117115 -11.25 5.75 C-5.93082113 5.42137964 -5.93082113 5.42137964 -1.75 2.4375 C-0.88375 1.2309375 -0.88375 1.2309375 0 0 Z " fill="#323232" transform="translate(20,2)"/>
<path d="M0 0 C4.0823779 3.47064543 5.97659111 8.48342268 8.37890625 13.1640625 C9.6979964 16.08007185 9.6979964 16.08007185 12 17 C12 17.66 12 18.32 12 19 C4.41 19 -3.18 19 -11 19 C-11 18.34 -11 17.68 -11 17 C-10.38705078 16.41798828 -10.38705078 16.41798828 -9.76171875 15.82421875 C-7.20187508 13.17356023 -5.58709024 10.01189686 -3.8125 6.8125 C-3.44447266 6.15830078 -3.07644531 5.50410156 -2.69726562 4.83007812 C-1.7937534 3.22253039 -0.8962759 1.61159349 0 0 Z M0 10 C-1.485 13.465 -1.485 13.465 -3 17 C-0.69 17 1.62 17 4 17 C3.01 14.69 2.02 12.38 1 10 C0.67 10 0.34 10 0 10 Z " fill="#343434" transform="translate(23,16)"/>
</svg>
