<?xml version="1.0" encoding="UTF-8"?>
<svg version="1.1" xmlns="http://www.w3.org/2000/svg" width="37" height="37">
<path d="M0 0 C0 5.94 0 11.88 0 18 C-8.11490241 18.37743732 -14.86676978 18.24867696 -22 14 C-22.66 13.01 -23.32 12.02 -24 11 C-22.35 10.67 -20.7 10.34 -19 10 C-20.32 9.34 -21.64 8.68 -23 8 C-22 5 -22 5 -20.14453125 3.8671875 C-13.05410161 0.85048879 -7.84059604 0 0 0 Z " fill="#181818" transform="translate(36,16)"/>
<path d="M0 0 C0 0.66 0 1.32 0 2 C-0.89138672 2.07734375 -0.89138672 2.07734375 -1.80078125 2.15625 C-12.44615985 3.61316029 -19.81488206 10.51274536 -27.24609375 17.84765625 C-29 19 -29 19 -31.22265625 18.68359375 C-31.80917969 18.45800781 -32.39570312 18.23242188 -33 18 C-33.33 16.35 -33.66 14.7 -34 13 C-31.69 12.01 -29.38 11.02 -27 10 C-27.66 11.32 -28.32 12.64 -29 14 C-25.48953976 11.37881191 -25.48953976 11.37881191 -22.68359375 8.0625 C-17.21441627 1.36244035 -8.22781694 -0.82278169 0 0 Z " fill="#656565" transform="translate(36,3)"/>
<path d="M0 0 C0 1.33333333 0 2.66666667 0 4 C0.66 3.34 1.32 2.68 2 2 C2.99 2 3.98 2 5 2 C3.6190998 5.33717549 2.1798762 7.22301036 -1 9 C-3.25 8.6875 -3.25 8.6875 -5 8 C-5.33 6.35 -5.66 4.7 -6 3 C-4.02 2.01 -2.04 1.02 0 0 Z " fill="#676767" transform="translate(8,13)"/>
<path d="M0 0 C0 0.99 0 1.98 0 3 C-2.5 4.6875 -2.5 4.6875 -5 6 C-5.66 5.34 -6.32 4.68 -7 4 C-3.375 0 -3.375 0 0 0 Z " fill="#4E4E4E" transform="translate(18,10)"/>
</svg>
