<?xml version="1.0" encoding="UTF-8"?>
<!DOCTYPE svg PUBLIC "-//W3C//DTD SVG 1.1//EN" "http://www.w3.org/Graphics/SVG/1.1/DTD/svg11.dtd">
<svg xmlns="http://www.w3.org/2000/svg" version="1.1" width="37px" height="37px" style="shape-rendering:geometricPrecision; text-rendering:geometricPrecision; image-rendering:optimizeQuality; fill-rule:evenodd; clip-rule:evenodd" xmlns:xlink="http://www.w3.org/1999/xlink">
<g><path style="opacity:1" fill="#2b2b2b" d="M 19.5,6.5 C 18.1667,6.5 16.8333,6.5 15.5,6.5C 13.8231,2.01434 15.3231,0.681007 20,2.5C 20.765,4.06574 20.5983,5.39907 19.5,6.5 Z"/></g>
<g><path style="opacity:1" fill="#242424" d="M 13.5,8.5 C 12.596,9.20895 12.2627,10.209 12.5,11.5C 12.8333,12.8333 13.1667,12.8333 13.5,11.5C 14.1098,10.609 14.4431,9.60895 14.5,8.5C 14.5,7.83333 14.8333,7.5 15.5,7.5C 16.9587,7.43255 18.2921,7.76589 19.5,8.5C 20.29,9.60853 20.79,10.9419 21,12.5C 22.8778,13.0527 24.3778,14.0527 25.5,15.5C 24.4324,16.4345 23.099,16.7678 21.5,16.5C 20.448,16.3505 19.448,16.5172 18.5,17C 20.0462,21.0187 21.0462,25.1854 21.5,29.5C 21.5,31.1667 21.5,32.8333 21.5,34.5C 20.1196,35.7065 18.9529,35.3731 18,33.5C 17.1785,30.8832 16.6785,28.2165 16.5,25.5C 16.719,24.325 16.3857,23.325 15.5,22.5C 14.7025,22.9569 14.3691,23.6236 14.5,24.5C 14.196,27.5219 13.696,30.5219 13,33.5C 11.9207,35.3937 10.5874,35.727 9,34.5C 9.00697,28.1309 10.1736,21.9643 12.5,16C 10.8659,15.5065 9.19919,15.3398 7.5,15.5C 7.80404,12.4781 8.30404,9.47805 9,6.5C 10.3561,5.61983 11.8561,5.28649 13.5,5.5C 13.5,6.5 13.5,7.5 13.5,8.5 Z"/></g>
<g><path style="opacity:1" fill="#929292" d="M 15.5,7.5 C 15.5,7.16667 15.5,6.83333 15.5,6.5C 16.8333,6.5 18.1667,6.5 19.5,6.5C 19.5,7.16667 19.5,7.83333 19.5,8.5C 18.2921,7.76589 16.9587,7.43255 15.5,7.5 Z"/></g>
<g><path style="opacity:1" fill="#ababab" d="M 13.5,8.5 C 13.8333,8.5 14.1667,8.5 14.5,8.5C 14.4431,9.60895 14.1098,10.609 13.5,11.5C 13.1667,11.5 12.8333,11.5 12.5,11.5C 12.2627,10.209 12.596,9.20895 13.5,8.5 Z"/></g>
<g><path style="opacity:1" fill="#a9a9a9" d="M 16.5,25.5 C 15.8333,25.1667 15.1667,24.8333 14.5,24.5C 14.3691,23.6236 14.7025,22.9569 15.5,22.5C 16.3857,23.325 16.719,24.325 16.5,25.5 Z"/></g>
<g><path style="opacity:1" fill="#676767" d="M 21.5,34.5 C 21.5,32.8333 21.5,31.1667 21.5,29.5C 22.2216,29.9175 22.7216,30.5842 23,31.5C 24.029,26.8564 24.8623,22.1897 25.5,17.5C 23.901,17.7678 22.5676,17.4345 21.5,16.5C 23.099,16.7678 24.4324,16.4345 25.5,15.5C 26.3019,14.0484 26.8019,12.3817 27,10.5C 28.1562,9.00724 28.9896,9.17391 29.5,11C 28.0397,19.2675 26.2064,27.4342 24,35.5C 23.3292,34.7476 22.4959,34.4142 21.5,34.5 Z"/></g>
</svg>
