<?xml version="1.0" encoding="UTF-8"?>
<!DOCTYPE svg PUBLIC "-//W3C//DTD SVG 1.1//EN" "http://www.w3.org/Graphics/SVG/1.1/DTD/svg11.dtd">
<svg xmlns="http://www.w3.org/2000/svg" version="1.1" width="37px" height="37px" style="shape-rendering:geometricPrecision; text-rendering:geometricPrecision; image-rendering:optimizeQuality; fill-rule:evenodd; clip-rule:evenodd" xmlns:xlink="http://www.w3.org/1999/xlink">
<g><path style="opacity:1" fill="#1a1a1a" d="M 21.5,11.5 C 20.2825,12.1614 18.9492,12.8281 17.5,13.5C 20.2108,14.9886 22.2108,14.3219 23.5,11.5C 24.7007,9.09051 26.3674,7.09051 28.5,5.5C 29.1667,6.16667 29.8333,6.83333 30.5,7.5C 33.4959,8.47438 35.1625,10.4744 35.5,13.5C 34.209,13.2627 33.209,13.596 32.5,14.5C 31.8485,13.9094 31.1818,13.2427 30.5,12.5C 29.8933,12.6236 29.56,12.9569 29.5,13.5C 28.375,14.3478 28.375,15.3478 29.5,16.5C 27.0414,18.052 25.5414,20.3854 25,23.5C 24.5014,27.1516 24.3347,30.8183 24.5,34.5C 23.209,34.7373 22.209,34.404 21.5,33.5C 21.5,29.8333 21.5,26.1667 21.5,22.5C 18.3019,21.9644 15.6353,22.631 13.5,24.5C 14.1,27.298 15.1,29.9646 16.5,32.5C 15.5373,34.4896 14.204,34.8229 12.5,33.5C 11.0584,30.9504 9.8917,28.2837 9,25.5C 8.50204,28.4816 8.33537,31.4816 8.5,34.5C 7.20895,34.7373 6.20895,34.404 5.5,33.5C 5.37013,29.1318 5.70347,24.7985 6.5,20.5C 6.16667,19.5 5.83333,18.5 5.5,17.5C 4.7022,19.0777 4.2022,20.7444 4,22.5C 3.50335,20.1902 3.33669,17.8568 3.5,15.5C 3.5,14.8333 3.83333,14.5 4.5,14.5C 7.5,14.5 10.5,14.5 13.5,14.5C 13.5,12.1667 13.5,9.83333 13.5,7.5C 11.5369,3.71567 12.5369,1.88234 16.5,2C 17.8333,3.66667 17.8333,5.33333 16.5,7C 17.4445,9.44634 19.1112,10.9463 21.5,11.5 Z"/></g>
<g><path style="opacity:1" fill="#d2d2d2" d="M 28.5,5.5 C 28.56,4.95691 28.8933,4.62358 29.5,4.5C 30.3857,5.32496 30.719,6.32496 30.5,7.5C 29.8333,6.83333 29.1667,6.16667 28.5,5.5 Z"/></g>
<g><path style="opacity:1" fill="#767676" d="M 21.5,11.5 C 22.1667,11.5 22.8333,11.5 23.5,11.5C 22.2108,14.3219 20.2108,14.9886 17.5,13.5C 18.9492,12.8281 20.2825,12.1614 21.5,11.5 Z"/></g>
<g><path style="opacity:1" fill="#b0b0b0" d="M 13.5,7.5 C 13.5,9.83333 13.5,12.1667 13.5,14.5C 10.5,14.5 7.5,14.5 4.5,14.5C 6.9479,13.5269 9.61456,13.1936 12.5,13.5C 12.2053,11.2646 12.5386,9.26465 13.5,7.5 Z"/></g>
<g><path style="opacity:1" fill="#787878" d="M 32.5,14.5 C 32.0269,15.9063 31.0269,16.573 29.5,16.5C 28.375,15.3478 28.375,14.3478 29.5,13.5C 29.56,12.9569 29.8933,12.6236 30.5,12.5C 31.1818,13.2427 31.8485,13.9094 32.5,14.5 Z"/></g>
<g><path style="opacity:1" fill="#696969" d="M 3.5,15.5 C 3.33669,17.8568 3.50335,20.1902 4,22.5C 4.2022,20.7444 4.7022,19.0777 5.5,17.5C 5.83333,18.5 6.16667,19.5 6.5,20.5C 5.70347,24.7985 5.37013,29.1318 5.5,33.5C 4.65371,28.9449 3.65371,24.2783 2.5,19.5C 2.51084,17.9549 2.84417,16.6216 3.5,15.5 Z"/></g>
<g><path style="opacity:1" fill="#ababab" d="M 21.5,33.5 C 20.5206,30.3752 20.1872,27.0419 20.5,23.5C 18.0504,23.298 15.717,23.6314 13.5,24.5C 15.6353,22.631 18.3019,21.9644 21.5,22.5C 21.5,26.1667 21.5,29.8333 21.5,33.5 Z"/></g>
</svg>
