<?xml version="1.0" encoding="UTF-8"?>
<!DOCTYPE svg PUBLIC "-//W3C//DTD SVG 1.1//EN" "http://www.w3.org/Graphics/SVG/1.1/DTD/svg11.dtd">
<svg xmlns="http://www.w3.org/2000/svg" version="1.1" width="37px" height="37px" style="shape-rendering:geometricPrecision; text-rendering:geometricPrecision; image-rendering:optimizeQuality; fill-rule:evenodd; clip-rule:evenodd" xmlns:xlink="http://www.w3.org/1999/xlink">
<g><path style="opacity:1" fill="#7f7f7f" d="M 2.5,1.5 C 2.5,9.5 2.5,17.5 2.5,25.5C 6.83333,25.1667 8.83333,27.1667 8.5,31.5C 9.5,31.5 10.5,31.5 11.5,31.5C 10.3285,32.3446 8.99522,33.0113 7.5,33.5C 8.46704,29.1486 6.80037,26.8153 2.5,26.5C 2.5,29.1667 2.5,31.8333 2.5,34.5C 3.5,34.5 4.5,34.5 5.5,34.5C 4.43236,35.4345 3.09903,35.7678 1.5,35.5C 1.1719,23.9877 1.50523,12.6544 2.5,1.5 Z"/></g>
<g><path style="opacity:1" fill="#141414" d="M 2.5,1.5 C 4.85684,1.33669 7.19018,1.50335 9.5,2C 10.056,2.38258 10.3893,2.88258 10.5,3.5C 10.5,6.83333 10.5,10.1667 10.5,13.5C 11.8333,13.5 13.1667,13.5 14.5,13.5C 17.5184,13.6646 20.5184,13.498 23.5,13C 26.2802,11.1877 28.7802,9.021 31,6.5C 32.3799,9.34366 33.8799,12.0103 35.5,14.5C 34.1667,14.5 32.8333,14.5 31.5,14.5C 31.1667,14.5 30.8333,14.5 30.5,14.5C 29.375,15.3478 29.375,16.3478 30.5,17.5C 26.5466,19.4941 24.5466,22.8274 24.5,27.5C 23.5489,28.9187 23.2155,30.5853 23.5,32.5C 22.1667,32.5 20.8333,32.5 19.5,32.5C 19.8333,31.8333 20.1667,31.1667 20.5,30.5C 20.5751,27.7938 20.9084,25.1272 21.5,22.5C 19.1229,22.2155 16.9562,22.2155 15,22.5C 15.1604,25.1589 15.6604,27.8255 16.5,30.5C 16.5,31.1667 16.1667,31.5 15.5,31.5C 14.1667,31.5 12.8333,31.5 11.5,31.5C 10.5,31.5 9.5,31.5 8.5,31.5C 8.83333,27.1667 6.83333,25.1667 2.5,25.5C 2.5,17.5 2.5,9.5 2.5,1.5 Z M 20.5,30.5 C 19.1667,30.5 17.8333,30.5 16.5,30.5C 15.6604,27.8255 15.1604,25.1589 15,22.5C 16.9562,22.2155 19.1229,22.2155 21.5,22.5C 20.9084,25.1272 20.5751,27.7938 20.5,30.5 Z"/></g>
<g><path style="opacity:1" fill="#919191" d="M 10.5,3.5 C 11.4767,6.2869 11.81,9.2869 11.5,12.5C 12.791,12.2627 13.791,12.596 14.5,13.5C 13.1667,13.5 11.8333,13.5 10.5,13.5C 10.5,10.1667 10.5,6.83333 10.5,3.5 Z"/></g>
<g><path style="opacity:1" fill="#7c7c7c" d="M 30.5,14.5 C 30.8333,15.8333 31.1667,15.8333 31.5,14.5C 32.8333,14.5 34.1667,14.5 35.5,14.5C 34.1007,15.8897 32.4341,16.8897 30.5,17.5C 29.375,16.3478 29.375,15.3478 30.5,14.5 Z"/></g>
<g><path style="opacity:1" fill="#8a8a8a" d="M 12.5,28.5 C 12.0618,28.4346 11.7284,28.6012 11.5,29C 13.9316,30.0875 13.5983,30.5875 10.5,30.5C 10.3367,28.1432 10.5034,25.8098 11,23.5C 12.0086,25.0249 12.5086,26.6916 12.5,28.5 Z"/></g>
<g><path style="opacity:1" fill="#0d0d0d" d="M 7.5,33.5 C 7.15829,34.3382 6.49162,34.6716 5.5,34.5C 4.5,34.5 3.5,34.5 2.5,34.5C 2.5,31.8333 2.5,29.1667 2.5,26.5C 6.80037,26.8153 8.46704,29.1486 7.5,33.5 Z"/></g>
<g><path style="opacity:1" fill="#999999" d="M 16.5,30.5 C 17.8333,30.5 19.1667,30.5 20.5,30.5C 20.1667,31.1667 19.8333,31.8333 19.5,32.5C 17.901,32.7678 16.5676,32.4345 15.5,31.5C 16.1667,31.5 16.5,31.1667 16.5,30.5 Z"/></g>
<g><path style="opacity:1" fill="#8f8f8f" d="M 24.5,27.5 C 24.5,28.8333 24.5,30.1667 24.5,31.5C 27.2706,31.4207 29.9373,31.9207 32.5,33C 29.3035,33.8045 26.3035,33.6378 23.5,32.5C 23.2155,30.5853 23.5489,28.9187 24.5,27.5 Z"/></g>
</svg>
