<?xml version="1.0" encoding="UTF-8"?>
<!DOCTYPE svg PUBLIC "-//W3C//DTD SVG 1.1//EN" "http://www.w3.org/Graphics/SVG/1.1/DTD/svg11.dtd">
<svg xmlns="http://www.w3.org/2000/svg" version="1.1" width="37px" height="37px" style="shape-rendering:geometricPrecision; text-rendering:geometricPrecision; image-rendering:optimizeQuality; fill-rule:evenodd; clip-rule:evenodd" xmlns:xlink="http://www.w3.org/1999/xlink">
<g><path style="opacity:1" fill="#000000" d="M 31.5,2.5 C 31.5,12.8333 31.5,23.1667 31.5,33.5C 29.1667,33.5 26.8333,33.5 24.5,33.5C 24.5,29.1667 24.5,24.8333 24.5,20.5C 20.5,20.5 16.5,20.5 12.5,20.5C 12.5,24.8333 12.5,29.1667 12.5,33.5C 10.1667,33.5 7.83333,33.5 5.5,33.5C 5.5,23.1667 5.5,12.8333 5.5,2.5C 7.83333,2.5 10.1667,2.5 12.5,2.5C 12.5,6.5 12.5,10.5 12.5,14.5C 16.5,14.5 20.5,14.5 24.5,14.5C 24.5,10.5 24.5,6.5 24.5,2.5C 26.8333,2.5 29.1667,2.5 31.5,2.5 Z"/></g>
<g><path style="opacity:1" fill="#bababa" d="M 31.5,2.5 C 29.1667,2.5 26.8333,2.5 24.5,2.5C 24.5,6.5 24.5,10.5 24.5,14.5C 20.5,14.5 16.5,14.5 12.5,14.5C 12.5,10.5 12.5,6.5 12.5,2.5C 10.1667,2.5 7.83333,2.5 5.5,2.5C 5.5,12.8333 5.5,23.1667 5.5,33.5C 7.83333,33.5 10.1667,33.5 12.5,33.5C 12.5,29.1667 12.5,24.8333 12.5,20.5C 16.5,20.5 20.5,20.5 24.5,20.5C 24.5,24.8333 24.5,29.1667 24.5,33.5C 26.8333,33.5 29.1667,33.5 31.5,33.5C 29.0521,34.4731 26.3854,34.8064 23.5,34.5C 23.5,30.1667 23.5,25.8333 23.5,21.5C 20.1667,21.5 16.8333,21.5 13.5,21.5C 13.5,25.8333 13.5,30.1667 13.5,34.5C 10.5,34.5 7.5,34.5 4.5,34.5C 4.5,23.5 4.5,12.5 4.5,1.5C 7.5,1.5 10.5,1.5 13.5,1.5C 13.5,5.5 13.5,9.5 13.5,13.5C 16.8333,13.5 20.1667,13.5 23.5,13.5C 23.5,9.5 23.5,5.5 23.5,1.5C 26.3854,1.1936 29.0521,1.52693 31.5,2.5 Z"/></g>
</svg>
