<?xml version="1.0" encoding="UTF-8"?>
<!DOCTYPE svg PUBLIC "-//W3C//DTD SVG 1.1//EN" "http://www.w3.org/Graphics/SVG/1.1/DTD/svg11.dtd">
<svg xmlns="http://www.w3.org/2000/svg" version="1.1" width="37px" height="37px" style="shape-rendering:geometricPrecision; text-rendering:geometricPrecision; image-rendering:optimizeQuality; fill-rule:evenodd; clip-rule:evenodd" xmlns:xlink="http://www.w3.org/1999/xlink">
<g><path style="opacity:1" fill="#949494" d="M 36.5,4.5 C 36.5,4.83333 36.5,5.16667 36.5,5.5C 36.1667,5.5 35.8333,5.5 35.5,5.5C 34.0222,5.23798 32.6888,5.57131 31.5,6.5C 30.9649,8.26099 29.9649,9.59433 28.5,10.5C 28.7512,8.82972 29.4178,7.32972 30.5,6C 24.4724,5.16973 18.4724,5.33639 12.5,6.5C 11.9649,8.26099 10.9649,9.59433 9.5,10.5C 9.75115,8.82972 10.4178,7.32972 11.5,6C 10.0715,5.42094 8.7382,5.58761 7.5,6.5C 16.7755,4.52666 26.4422,3.86 36.5,4.5 Z"/></g>
<g><path style="opacity:1" fill="#272727" d="M 9.5,10.5 C 8.11539,11.5736 6.94873,12.9069 6,14.5C 5.50058,20.1569 5.33391,25.8236 5.5,31.5C 4.16667,31.5 2.83333,31.5 1.5,31.5C 1.33391,25.8236 1.50058,20.1569 2,14.5C 3.60911,11.5932 5.44245,8.92658 7.5,6.5C 8.7382,5.58761 10.0715,5.42094 11.5,6C 10.4178,7.32972 9.75115,8.82972 9.5,10.5 Z"/></g>
<g><path style="opacity:1" fill="#333333" d="M 28.5,10.5 C 26.7497,11.6594 25.7497,13.326 25.5,15.5C 19.5,15.5 13.5,15.5 7.5,15.5C 8.4408,13.9505 9.10746,12.2838 9.5,10.5C 10.9649,9.59433 11.9649,8.26099 12.5,6.5C 18.4724,5.33639 24.4724,5.16973 30.5,6C 29.4178,7.32972 28.7512,8.82972 28.5,10.5 Z"/></g>
<g><path style="opacity:1" fill="#282828" d="M 35.5,5.5 C 34.2611,8.58887 32.7611,11.5889 31,14.5C 30.5006,20.1569 30.3339,25.8236 30.5,31.5C 29.1667,31.5 27.8333,31.5 26.5,31.5C 25.9982,24.3232 26.6649,17.3232 28.5,10.5C 29.9649,9.59433 30.9649,8.26099 31.5,6.5C 32.6888,5.57131 34.0222,5.23798 35.5,5.5 Z"/></g>
<g><path style="opacity:1" fill="#bababa" d="M 9.5,10.5 C 9.10746,12.2838 8.4408,13.9505 7.5,15.5C 6.83333,20.8333 6.16667,26.1667 5.5,31.5C 5.33391,25.8236 5.50058,20.1569 6,14.5C 6.94873,12.9069 8.11539,11.5736 9.5,10.5 Z"/></g>
<g><path style="opacity:1" fill="#bfbfbf" d="M 28.5,10.5 C 26.6649,17.3232 25.9982,24.3232 26.5,31.5C 25.5119,26.3595 25.1786,21.0262 25.5,15.5C 25.7497,13.326 26.7497,11.6594 28.5,10.5 Z"/></g>
</svg>
