<?xml version="1.0" encoding="UTF-8"?>
<!DOCTYPE svg PUBLIC "-//W3C//DTD SVG 1.1//EN" "http://www.w3.org/Graphics/SVG/1.1/DTD/svg11.dtd">
<svg xmlns="http://www.w3.org/2000/svg" version="1.1" width="37px" height="37px" style="shape-rendering:geometricPrecision; text-rendering:geometricPrecision; image-rendering:optimizeQuality; fill-rule:evenodd; clip-rule:evenodd" xmlns:xlink="http://www.w3.org/1999/xlink">
<g><path style="opacity:1" fill="#3e3e3e" d="M 14.5,0.5 C 30.3618,0.192464 37.1951,7.85913 35,23.5C 30.2326,34.5432 22.0659,38.0432 10.5,34C 0.709152,27.0474 -1.45751,18.2141 4,7.5C 6.99784,4.26226 10.4978,1.92893 14.5,0.5 Z M 17.5,3.5 C 30.9363,6.10736 35.103,13.774 30,26.5C 22.3333,34.5 14.6667,34.5 7,26.5C 1.86975,14.7657 5.36975,7.09906 17.5,3.5 Z"/></g>
<g><path style="opacity:1" fill="#282828" d="M 20.5,23.5 C 19.1667,23.5 17.8333,23.5 16.5,23.5C 16.5,22.5 16.5,21.5 16.5,20.5C 17.3733,18.1137 18.8733,16.1137 21,14.5C 21.8333,11.3333 20.6667,10.1667 17.5,11C 16.119,12.625 14.4523,13.7917 12.5,14.5C 9.14808,13.783 8.64808,12.1164 11,9.5C 16,5.5 21,5.5 26,9.5C 26.6667,11.8333 26.6667,14.1667 26,16.5C 23.5464,18.4412 21.713,20.7746 20.5,23.5 Z"/></g>
<g><path style="opacity:1" fill="#c1c1c1" d="M 16.5,20.5 C 16.5,21.5 16.5,22.5 16.5,23.5C 17.8333,23.5 19.1667,23.5 20.5,23.5C 21.3686,25.717 21.702,28.0504 21.5,30.5C 19.5,30.5 17.5,30.5 15.5,30.5C 15.1872,26.9581 15.5206,23.6248 16.5,20.5 Z"/></g>
<g><path style="opacity:1" fill="#000000" d="M 16.5,25.5 C 17.8333,25.5 19.1667,25.5 20.5,25.5C 20.5,26.8333 20.5,28.1667 20.5,29.5C 19.1667,29.5 17.8333,29.5 16.5,29.5C 16.5,28.1667 16.5,26.8333 16.5,25.5 Z"/></g>
</svg>
