<?xml version="1.0" encoding="UTF-8"?>
<!DOCTYPE svg PUBLIC "-//W3C//DTD SVG 1.1//EN" "http://www.w3.org/Graphics/SVG/1.1/DTD/svg11.dtd">
<svg xmlns="http://www.w3.org/2000/svg" version="1.1" width="37px" height="37px" style="shape-rendering:geometricPrecision; text-rendering:geometricPrecision; image-rendering:optimizeQuality; fill-rule:evenodd; clip-rule:evenodd" xmlns:xlink="http://www.w3.org/1999/xlink">
<g><path style="opacity:1" fill="#252525" d="M 25.5,21.5 C 27.7488,20.9202 29.4154,19.5869 30.5,17.5C 31.1894,16.2264 32.0228,16.2264 33,17.5C 33.2868,19.8907 33.7868,22.2241 34.5,24.5C 31.279,27.7646 27.9457,30.9313 24.5,34C 15.9899,36.8875 9.65652,34.3875 5.5,26.5C 3.9254,24.8863 3.25873,22.8863 3.5,20.5C 3.5,19.1667 3.5,17.8333 3.5,16.5C 9.01005,17.8143 11.5101,21.1476 11,26.5C 12.2635,28.607 14.0968,29.607 16.5,29.5C 16.6662,23.4908 16.4995,17.4908 16,11.5C 12.1232,6.76054 12.9565,3.09388 18.5,0.5C 20.2581,1.12794 21.7581,2.12794 23,3.5C 21.6753,8.76417 20.842,14.2642 20.5,20C 20.8333,23.1667 21.1667,26.3333 21.5,29.5C 25.5977,28.1816 26.5977,26.015 24.5,23C 24.5699,22.2352 24.9033,21.7352 25.5,21.5 Z M 17.5,5.5 C 19.337,5.63945 19.6704,6.30612 18.5,7.5C 17.7025,7.04311 17.3691,6.37644 17.5,5.5 Z"/></g>
<g><path style="opacity:1" fill="#676767" d="M 30.5,17.5 C 29.4154,19.5869 27.7488,20.9202 25.5,21.5C 26.5846,19.4131 28.2512,18.0798 30.5,17.5 Z"/></g>
<g><path style="opacity:1" fill="#898989" d="M 3.5,20.5 C 3.25873,22.8863 3.9254,24.8863 5.5,26.5C 4.5,26.5 3.5,26.5 2.5,26.5C 2.20528,24.2646 2.53862,22.2646 3.5,20.5 Z"/></g>
</svg>
