<?xml version="1.0" encoding="UTF-8"?>
<!DOCTYPE svg PUBLIC "-//W3C//DTD SVG 1.1//EN" "http://www.w3.org/Graphics/SVG/1.1/DTD/svg11.dtd">
<svg xmlns="http://www.w3.org/2000/svg" version="1.1" width="37px" height="37px" style="shape-rendering:geometricPrecision; text-rendering:geometricPrecision; image-rendering:optimizeQuality; fill-rule:evenodd; clip-rule:evenodd" xmlns:xlink="http://www.w3.org/1999/xlink">
<g><path style="opacity:1" fill="#0a0a0a" d="M 7.5,6.5 C 7.5,7.83333 7.5,9.16667 7.5,10.5C 16.1922,10.1686 24.8589,10.502 33.5,11.5C 32.3984,12.1757 31.3984,12.8423 30.5,13.5C 29.2921,14.2341 27.9587,14.5674 26.5,14.5C 25.5084,14.6716 24.8417,14.3382 24.5,13.5C 19.5968,12.5002 13.9302,12.1668 7.5,12.5C 7.20528,14.7354 7.53862,16.7354 8.5,18.5C 8.83333,18.5 9.16667,18.5 9.5,18.5C 10.4916,18.3284 11.1583,18.6618 11.5,19.5C 10.791,20.404 9.79105,20.7373 8.5,20.5C 7.52056,23.6248 7.18723,26.9581 7.5,30.5C 6.16667,30.5 4.83333,30.5 3.5,30.5C 3.5,22.5 3.5,14.5 3.5,6.5C 4.83333,6.5 6.16667,6.5 7.5,6.5 Z"/></g>
<g><path style="opacity:1" fill="#b6b6b6" d="M 7.5,6.5 C 8.40397,7.20895 8.73731,8.20895 8.5,9.5C 17.1667,9.5 25.8333,9.5 34.5,9.5C 34.5,10.8333 34.5,12.1667 34.5,13.5C 33.1667,13.5 31.8333,13.5 30.5,13.5C 31.3984,12.8423 32.3984,12.1757 33.5,11.5C 24.8589,10.502 16.1922,10.1686 7.5,10.5C 7.5,9.16667 7.5,7.83333 7.5,6.5 Z"/></g>
<g><path style="opacity:1" fill="#acacac" d="M 24.5,13.5 C 23.609,14.1098 22.609,14.4431 21.5,14.5C 17.3656,13.5151 13.0323,13.1818 8.5,13.5C 8.5,15.1667 8.5,16.8333 8.5,18.5C 7.53862,16.7354 7.20528,14.7354 7.5,12.5C 13.9302,12.1668 19.5968,12.5002 24.5,13.5 Z"/></g>
<g><path style="opacity:1" fill="#4b4b4b" d="M 24.5,13.5 C 24.8417,14.3382 25.5084,14.6716 26.5,14.5C 21.7841,16.7387 16.7841,18.4054 11.5,19.5C 11.1583,18.6618 10.4916,18.3284 9.5,18.5C 13.2157,16.5947 17.2157,15.2613 21.5,14.5C 22.609,14.4431 23.609,14.1098 24.5,13.5 Z"/></g>
<g><path style="opacity:1" fill="#7f7f7f" d="M 8.5,20.5 C 8.5,24.1667 8.5,27.8333 8.5,31.5C 6.58533,31.7845 4.91866,31.4511 3.5,30.5C 4.83333,30.5 6.16667,30.5 7.5,30.5C 7.18723,26.9581 7.52056,23.6248 8.5,20.5 Z"/></g>
</svg>
