<?xml version="1.0" encoding="UTF-8"?>
<!DOCTYPE svg PUBLIC "-//W3C//DTD SVG 1.1//EN" "http://www.w3.org/Graphics/SVG/1.1/DTD/svg11.dtd">
<svg xmlns="http://www.w3.org/2000/svg" version="1.1" width="37px" height="37px" style="shape-rendering:geometricPrecision; text-rendering:geometricPrecision; image-rendering:optimizeQuality; fill-rule:evenodd; clip-rule:evenodd" xmlns:xlink="http://www.w3.org/1999/xlink">
<g><path style="opacity:1" fill="#202020" d="M 7.5,6.5 C 14.8333,6.5 22.1667,6.5 29.5,6.5C 29.5,7.5 29.5,8.5 29.5,9.5C 27.8333,9.5 26.1667,9.5 24.5,9.5C 24.2627,10.791 24.596,11.791 25.5,12.5C 27.2761,16.8136 30.6094,18.4803 35.5,17.5C 35.5,18.5 35.5,19.5 35.5,20.5C 33.076,20.1924 30.7427,20.5258 28.5,21.5C 28.6236,22.1067 28.9569,22.44 29.5,22.5C 30.5375,23.9303 31.2041,25.597 31.5,27.5C 30.8166,29.1765 29.4832,29.8432 27.5,29.5C 26.7019,27.1138 25.7019,24.7805 24.5,22.5C 20.5411,21.3401 16.5411,21.1735 12.5,22C 11.5941,24.2213 10.5941,26.3879 9.5,28.5C 7.54402,30.1751 6.21068,29.8418 5.5,27.5C 5.47199,25.4176 6.13865,23.5843 7.5,22C 5.5273,21.5045 3.5273,21.3379 1.5,21.5C 1.5,20.1667 1.5,18.8333 1.5,17.5C 6.99947,18.6721 10.3328,16.6721 11.5,11.5C 12.0431,11.44 12.3764,11.1067 12.5,10.5C 10.9547,9.54811 9.28801,9.21478 7.5,9.5C 7.5,8.5 7.5,7.5 7.5,6.5 Z M 16.5,10.5 C 17.8221,10.33 18.9887,10.6634 20,11.5C 20.4497,13.519 21.283,15.3523 22.5,17C 19.854,17.4974 17.1873,17.6641 14.5,17.5C 14.8782,15.079 15.5448,12.7457 16.5,10.5 Z"/></g>
<g><path style="opacity:1" fill="#c0c0c0" d="M 7.5,6.5 C 7.5,7.5 7.5,8.5 7.5,9.5C 9.28801,9.21478 10.9547,9.54811 12.5,10.5C 12.3764,11.1067 12.0431,11.44 11.5,11.5C 10.0813,10.5489 8.41467,10.2155 6.5,10.5C 6.23219,8.90097 6.56552,7.56764 7.5,6.5 Z"/></g>
<g><path style="opacity:1" fill="#b8b8b8" d="M 29.5,9.5 C 27.7809,10.0221 26.4475,11.0221 25.5,12.5C 24.596,11.791 24.2627,10.791 24.5,9.5C 26.1667,9.5 27.8333,9.5 29.5,9.5 Z"/></g>
<g><path style="opacity:1" fill="#aeaeae" d="M 35.5,20.5 C 33.5,21.1667 31.5,21.8333 29.5,22.5C 28.9569,22.44 28.6236,22.1067 28.5,21.5C 30.7427,20.5258 33.076,20.1924 35.5,20.5 Z"/></g>
<g><path style="opacity:1" fill="#666666" d="M 5.5,27.5 C 6.21068,29.8418 7.54402,30.1751 9.5,28.5C 8.44787,30.256 6.78121,30.9227 4.5,30.5C 4.26269,29.209 4.59603,28.209 5.5,27.5 Z"/></g>
<g><path style="opacity:1" fill="#6d6d6d" d="M 31.5,27.5 C 32.404,28.209 32.7373,29.209 32.5,30.5C 30.5853,30.7845 28.9187,30.4511 27.5,29.5C 29.4832,29.8432 30.8166,29.1765 31.5,27.5 Z"/></g>
</svg>
