<?xml version="1.0" encoding="UTF-8"?>
<!DOCTYPE svg PUBLIC "-//W3C//DTD SVG 1.1//EN" "http://www.w3.org/Graphics/SVG/1.1/DTD/svg11.dtd">
<svg xmlns="http://www.w3.org/2000/svg" version="1.1" width="37px" height="37px" style="shape-rendering:geometricPrecision; text-rendering:geometricPrecision; image-rendering:optimizeQuality; fill-rule:evenodd; clip-rule:evenodd" xmlns:xlink="http://www.w3.org/1999/xlink">
<g><path style="opacity:1" fill="#282828" d="M 31.5,3.5 C 33.0481,3.82124 33.7148,4.82124 33.5,6.5C 25.5295,10.1602 17.5295,13.8269 9.5,17.5C 8.51078,21.1073 8.17744,24.774 8.5,28.5C 16.8333,28.5 25.1667,28.5 33.5,28.5C 33.5,29.5 33.5,30.5 33.5,31.5C 24.1667,31.5 14.8333,31.5 5.5,31.5C 5.5,27.5 5.5,23.5 5.5,19.5C 4.20895,19.2627 3.20895,19.596 2.5,20.5C 1.19914,19.1155 1.19914,17.6155 2.5,16C 12.1881,11.8211 21.8548,7.65439 31.5,3.5 Z"/></g>
<g><path style="opacity:1" fill="#bbbbbb" d="M 31.5,3.5 C 32.209,2.59603 33.209,2.26269 34.5,2.5C 34.7678,4.09903 34.4345,5.43236 33.5,6.5C 33.7148,4.82124 33.0481,3.82124 31.5,3.5 Z"/></g>
<g><path style="opacity:1" fill="#9a9a9a" d="M 26.5,19.5 C 25.3079,18.4341 25.6412,17.6008 27.5,17C 24.1667,16.3333 20.8333,16.3333 17.5,17C 19.3588,17.6008 19.6921,18.4341 18.5,19.5C 17.1938,18.5326 16.5271,17.1993 16.5,15.5C 20.5,15.5 24.5,15.5 28.5,15.5C 28.4729,17.1993 27.8062,18.5326 26.5,19.5 Z"/></g>
<g><path style="opacity:1" fill="#303030" d="M 26.5,19.5 C 26.5,19.8333 26.5,20.1667 26.5,20.5C 27.6085,21.29 28.9419,21.79 30.5,22C 29.376,22.2492 28.376,22.7492 27.5,23.5C 27.6236,24.1067 27.9569,24.44 28.5,24.5C 28.7576,28.484 27.7576,28.484 25.5,24.5C 23.604,23.5344 21.604,23.2011 19.5,23.5C 19.7521,26.9318 18.4188,27.9318 15.5,26.5C 15.8333,25.8333 16.1667,25.1667 16.5,24.5C 15.1468,23.4763 14.4802,22.143 14.5,20.5C 16.099,20.7678 17.4324,20.4345 18.5,19.5C 19.6921,18.4341 19.3588,17.6008 17.5,17C 20.8333,16.3333 24.1667,16.3333 27.5,17C 25.6412,17.6008 25.3079,18.4341 26.5,19.5 Z M 21.5,18.5 C 22.4916,18.3284 23.1583,18.6618 23.5,19.5C 22.3774,20.7574 21.7107,20.4241 21.5,18.5 Z"/></g>
<g><path style="opacity:1" fill="#4f4f4f" d="M 2.5,20.5 C 3.20895,19.596 4.20895,19.2627 5.5,19.5C 5.5,23.5 5.5,27.5 5.5,31.5C 5.16667,31.5 4.83333,31.5 4.5,31.5C 5.08031,27.351 4.41365,23.6843 2.5,20.5 Z"/></g>
<g><path style="opacity:1" fill="#a8a8a8" d="M 21.5,18.5 C 21.7107,20.4241 22.3774,20.7574 23.5,19.5C 24.0431,19.56 24.3764,19.8933 24.5,20.5C 23.3112,21.4287 21.9778,21.762 20.5,21.5C 20.2627,20.209 20.596,19.209 21.5,18.5 Z"/></g>
<g><path style="opacity:1" fill="#afafaf" d="M 26.5,20.5 C 28.1667,20.5 29.8333,20.5 31.5,20.5C 31.5,21.5 31.5,22.5 31.5,23.5C 30.209,23.2627 29.209,23.596 28.5,24.5C 27.9569,24.44 27.6236,24.1067 27.5,23.5C 28.376,22.7492 29.376,22.2492 30.5,22C 28.9419,21.79 27.6085,21.29 26.5,20.5 Z"/></g>
<g><path style="opacity:1" fill="#878787" d="M 33.5,28.5 C 34.4345,29.5676 34.7678,30.901 34.5,32.5C 24.3194,32.8274 14.3194,32.494 4.5,31.5C 4.83333,31.5 5.16667,31.5 5.5,31.5C 14.8333,31.5 24.1667,31.5 33.5,31.5C 33.5,30.5 33.5,29.5 33.5,28.5 Z"/></g>
</svg>
