<?xml version="1.0" encoding="UTF-8"?>
<!DOCTYPE svg PUBLIC "-//W3C//DTD SVG 1.1//EN" "http://www.w3.org/Graphics/SVG/1.1/DTD/svg11.dtd">
<svg xmlns="http://www.w3.org/2000/svg" version="1.1" width="37px" height="37px" style="shape-rendering:geometricPrecision; text-rendering:geometricPrecision; image-rendering:optimizeQuality; fill-rule:evenodd; clip-rule:evenodd" xmlns:xlink="http://www.w3.org/1999/xlink">
<g><path style="opacity:1" fill="#a1a1a1" d="M 6.5,3.5 C 4.82124,3.28519 3.82124,3.95186 3.5,5.5C 2.59603,4.79105 2.26269,3.79105 2.5,2.5C 4.09903,2.23219 5.43236,2.56552 6.5,3.5 Z"/></g>
<g><path style="opacity:1" fill="#212121" d="M 6.5,3.5 C 8.83333,5.16667 10.8333,7.16667 12.5,9.5C 12.7828,10.2891 13.2828,10.9558 14,11.5C 14.4966,9.19018 14.6633,6.85684 14.5,4.5C 15.1894,3.22641 16.0228,3.22641 17,4.5C 17.499,8.82056 17.6657,13.1539 17.5,17.5C 13.1667,17.5 8.83333,17.5 4.5,17.5C 4.5,16.5 4.5,15.5 4.5,14.5C 6.92397,14.8076 9.25731,14.4742 11.5,13.5C 11.3764,12.8933 11.0431,12.56 10.5,12.5C 7.83333,10.5 5.5,8.16667 3.5,5.5C 3.82124,3.95186 4.82124,3.28519 6.5,3.5 Z"/></g>
<g><path style="opacity:1" fill="#bebebe" d="M 14.5,4.5 C 14.6633,6.85684 14.4966,9.19018 14,11.5C 13.2828,10.9558 12.7828,10.2891 12.5,9.5C 13.1667,7.83333 13.8333,6.16667 14.5,4.5 Z"/></g>
<g><path style="opacity:1" fill="#838383" d="M 10.5,12.5 C 11.0431,12.56 11.3764,12.8933 11.5,13.5C 9.25731,14.4742 6.92397,14.8076 4.5,14.5C 6.5,13.8333 8.5,13.1667 10.5,12.5 Z"/></g>
<g><path style="opacity:1" fill="#1a1a1a" d="M 28.5,19.5 C 29.8333,19.1667 31.1667,18.8333 32.5,18.5C 32.7035,20.3904 32.0368,21.8904 30.5,23C 32.1341,23.4935 33.8008,23.6602 35.5,23.5C 35.7373,24.791 35.404,25.791 34.5,26.5C 32.8008,26.3398 31.1341,26.5065 29.5,27C 30.0442,27.7172 30.7109,28.2172 31.5,28.5C 32.4345,29.5676 32.7678,30.901 32.5,32.5C 30.6203,32.7709 29.287,32.1042 28.5,30.5C 28.44,29.9569 28.1067,29.6236 27.5,29.5C 26.5481,31.0453 26.2148,32.712 26.5,34.5C 25.8333,34.5 25.1667,34.5 24.5,34.5C 24.7852,32.712 24.4519,31.0453 23.5,29.5C 22.8933,29.6236 22.56,29.9569 22.5,30.5C 21.713,32.1042 20.3797,32.7709 18.5,32.5C 18.2322,30.901 18.5655,29.5676 19.5,28.5C 20.2891,28.2172 20.9558,27.7172 21.5,27C 19.8659,26.5065 18.1992,26.3398 16.5,26.5C 15.596,25.791 15.2627,24.791 15.5,23.5C 17.1992,23.6602 18.8659,23.4935 20.5,23C 18.8446,21.5557 18.178,19.7224 18.5,17.5C 19.791,17.2627 20.791,17.596 21.5,18.5C 21.7496,19.9221 22.583,20.9221 24,21.5C 25,14.8333 26,14.8333 27,21.5C 27.7172,20.9558 28.2172,20.2891 28.5,19.5 Z"/></g>
<g><path style="opacity:1" fill="#888888" d="M 28.5,19.5 C 28.2172,20.2891 27.7172,20.9558 27,21.5C 26,14.8333 25,14.8333 24,21.5C 22.583,20.9221 21.7496,19.9221 21.5,18.5C 22.1174,18.6107 22.6174,18.944 23,19.5C 23.49,18.2068 23.6567,16.8734 23.5,15.5C 24.8333,15.5 26.1667,15.5 27.5,15.5C 27.2322,17.099 27.5655,18.4324 28.5,19.5 Z"/></g>
<g><path style="opacity:1" fill="#6f6f6f" d="M 32.5,18.5 C 31.1667,18.8333 29.8333,19.1667 28.5,19.5C 29.5383,17.4805 30.8716,17.1472 32.5,18.5 Z"/></g>
<g><path style="opacity:1" fill="#bebebe" d="M 16.5,26.5 C 18.1992,26.3398 19.8659,26.5065 21.5,27C 20.9558,27.7172 20.2891,28.2172 19.5,28.5C 18.5,27.8333 17.5,27.1667 16.5,26.5 Z"/></g>
<g><path style="opacity:1" fill="#bebebe" d="M 34.5,26.5 C 33.5,27.1667 32.5,27.8333 31.5,28.5C 30.7109,28.2172 30.0442,27.7172 29.5,27C 31.1341,26.5065 32.8008,26.3398 34.5,26.5 Z"/></g>
<g><path style="opacity:1" fill="#8e8e8e" d="M 22.5,30.5 C 22.56,29.9569 22.8933,29.6236 23.5,29.5C 24.4519,31.0453 24.7852,32.712 24.5,34.5C 23.8333,33.1667 23.1667,31.8333 22.5,30.5 Z"/></g>
<g><path style="opacity:1" fill="#858585" d="M 28.5,30.5 C 27.8333,31.8333 27.1667,33.1667 26.5,34.5C 26.2148,32.712 26.5481,31.0453 27.5,29.5C 28.1067,29.6236 28.44,29.9569 28.5,30.5 Z"/></g>
</svg>
