<?xml version="1.0" encoding="UTF-8"?>
<!DOCTYPE svg PUBLIC "-//W3C//DTD SVG 1.1//EN" "http://www.w3.org/Graphics/SVG/1.1/DTD/svg11.dtd">
<svg xmlns="http://www.w3.org/2000/svg" version="1.1" width="37px" height="37px" style="shape-rendering:geometricPrecision; text-rendering:geometricPrecision; image-rendering:optimizeQuality; fill-rule:evenodd; clip-rule:evenodd" xmlns:xlink="http://www.w3.org/1999/xlink">
<g><path style="opacity:1" fill="#818181" d="M 19.5,2.5 C 18.609,3.10978 17.609,3.44312 16.5,3.5C 17.221,1.61818 18.221,1.28485 19.5,2.5 Z"/></g>
<g><path style="opacity:1" fill="#1b1b1b" d="M 19.5,2.5 C 24.1182,5.27802 28.6182,8.27802 33,11.5C 33.4997,18.8258 33.6663,26.1591 33.5,33.5C 23.5,33.5 13.5,33.5 3.5,33.5C 3.33368,26.1591 3.50034,18.8258 4,11.5C 7.96885,8.43771 12.1355,5.77104 16.5,3.5C 17.609,3.44312 18.609,3.10978 19.5,2.5 Z M 28.5,29.5 C 26.6431,30.7652 24.9764,30.4318 23.5,28.5C 22.3716,24.9099 20.705,21.5766 18.5,18.5C 16.5554,21.3933 14.8887,24.3933 13.5,27.5C 12.596,28.209 12.2627,29.209 12.5,30.5C 10.901,30.7678 9.56764,30.4345 8.5,29.5C 11.8924,23.7196 15.0591,17.7196 18,11.5C 21.779,17.3989 25.279,23.3989 28.5,29.5 Z"/></g>
<g><path style="opacity:1" fill="#1c1c1c" d="M 23.5,28.5 C 22.036,29.1599 20.3693,29.4932 18.5,29.5C 16.3603,29.4439 14.6936,28.7773 13.5,27.5C 14.8887,24.3933 16.5554,21.3933 18.5,18.5C 20.705,21.5766 22.3716,24.9099 23.5,28.5 Z"/></g>
<g><path style="opacity:1" fill="#919191" d="M 13.5,27.5 C 14.6936,28.7773 16.3603,29.4439 18.5,29.5C 20.3693,29.4932 22.036,29.1599 23.5,28.5C 24.9764,30.4318 26.6431,30.7652 28.5,29.5C 29.3764,29.3691 30.0431,29.7025 30.5,30.5C 22.1667,31.8333 13.8333,31.8333 5.5,30.5C 6.32496,29.6143 7.32496,29.281 8.5,29.5C 9.56764,30.4345 10.901,30.7678 12.5,30.5C 12.2627,29.209 12.596,28.209 13.5,27.5 Z"/></g>
</svg>
