<?xml version="1.0" encoding="UTF-8"?>
<!DOCTYPE svg PUBLIC "-//W3C//DTD SVG 1.1//EN" "http://www.w3.org/Graphics/SVG/1.1/DTD/svg11.dtd">
<svg xmlns="http://www.w3.org/2000/svg" version="1.1" width="37px" height="37px" style="shape-rendering:geometricPrecision; text-rendering:geometricPrecision; image-rendering:optimizeQuality; fill-rule:evenodd; clip-rule:evenodd" xmlns:xlink="http://www.w3.org/1999/xlink">
<g><path style="opacity:1" fill="#505050" d="M 17.5,5.5 C 18.5,5.5 19.5,5.5 20.5,5.5C 20.5,13.8333 20.5,22.1667 20.5,30.5C 19.5,30.5 18.5,30.5 17.5,30.5C 17.5,22.1667 17.5,13.8333 17.5,5.5 Z"/></g>
<g><path style="opacity:1" fill="#282828" d="M 4.5,20.5 C 6.08813,18.4727 6.58813,16.1394 6,13.5C 4.95685,17.2259 4.45685,16.8926 4.5,12.5C 4.88066,11.0689 5.88066,10.2355 7.5,10C 6,7.83333 6.5,6.33333 9,5.5C 10.6755,7.37987 12.3421,9.37987 14,11.5C 14.704,13.2784 15.204,15.1118 15.5,17C 15.2451,18.3261 14.5784,19.3261 13.5,20C 13.9574,20.414 14.2907,20.914 14.5,21.5C 12.7397,24.2123 12.073,27.2123 12.5,30.5C 10.5,30.5 8.5,30.5 6.5,30.5C 6.5,27.8333 6.5,25.1667 6.5,22.5C 4.00651,22.8693 3.33985,22.2027 4.5,20.5 Z"/></g>
<g><path style="opacity:1" fill="#232323" d="M 33.5,11.5 C 33.6641,14.1873 33.4974,16.854 33,19.5C 32.6667,17.5 32.3333,15.5 32,13.5C 31.5034,15.8098 31.3367,18.1432 31.5,20.5C 32.069,24.3293 31.4023,27.6627 29.5,30.5C 28.8333,17.1667 28.1667,17.1667 27.5,30.5C 27.1667,30.5 26.8333,30.5 26.5,30.5C 26.8288,24.7945 26.4954,19.1278 25.5,13.5C 24.5258,15.7427 24.1924,18.076 24.5,20.5C 23.2353,19.4855 22.5687,17.9855 22.5,16C 21.7781,12.4932 23.1114,10.3265 26.5,9.5C 25.6437,6.52133 26.9771,5.18799 30.5,5.5C 30.5,7.16667 30.5,8.83333 30.5,10.5C 31.791,10.2627 32.791,10.596 33.5,11.5 Z"/></g>
<g><path style="opacity:1" fill="#515151" d="M 26.5,30.5 C 25.8333,27.1667 25.1667,23.8333 24.5,20.5C 24.1924,18.076 24.5258,15.7427 25.5,13.5C 26.4954,19.1278 26.8288,24.7945 26.5,30.5 Z"/></g>
<g><path style="opacity:1" fill="#999999" d="M 33.5,11.5 C 34.4767,14.2869 34.81,17.2869 34.5,20.5C 33.5,20.5 32.5,20.5 31.5,20.5C 31.3367,18.1432 31.5034,15.8098 32,13.5C 32.3333,15.5 32.6667,17.5 33,19.5C 33.4974,16.854 33.6641,14.1873 33.5,11.5 Z"/></g>
<g><path style="opacity:1" fill="#626262" d="M 4.5,12.5 C 4.45685,16.8926 4.95685,17.2259 6,13.5C 6.58813,16.1394 6.08813,18.4727 4.5,20.5C 2.41934,17.969 2.41934,15.3023 4.5,12.5 Z"/></g>
<g><path style="opacity:1" fill="#464646" d="M 29.5,30.5 C 28.8333,30.5 28.1667,30.5 27.5,30.5C 28.1667,17.1667 28.8333,17.1667 29.5,30.5 Z"/></g>
</svg>
