<?xml version="1.0" encoding="UTF-8"?>
<!DOCTYPE svg PUBLIC "-//W3C//DTD SVG 1.1//EN" "http://www.w3.org/Graphics/SVG/1.1/DTD/svg11.dtd">
<svg xmlns="http://www.w3.org/2000/svg" version="1.1" width="37px" height="37px" style="shape-rendering:geometricPrecision; text-rendering:geometricPrecision; image-rendering:optimizeQuality; fill-rule:evenodd; clip-rule:evenodd" xmlns:xlink="http://www.w3.org/1999/xlink">
<g><path style="opacity:1" fill="#151515" d="M 16.5,30.5 C 17.791,30.7373 18.791,30.404 19.5,29.5C 19.5,28.5 19.5,27.5 19.5,26.5C 21.5,26.1667 23.5,25.8333 25.5,25.5C 25.0371,22.5176 24.7038,19.5176 24.5,16.5C 24.8333,15.8333 25.1667,15.1667 25.5,14.5C 28.2002,11.0798 29.8668,7.07982 30.5,2.5C 31.8333,2.5 33.1667,2.5 34.5,2.5C 34.5,12.8333 34.5,23.1667 34.5,33.5C 26.8045,33.8308 19.1378,33.4975 11.5,32.5C 12.6685,30.7826 14.3352,30.1159 16.5,30.5 Z"/></g>
<g><path style="opacity:1" fill="#9a9a9a" d="M 8.5,6.5 C 7.39105,6.55688 6.39105,6.89022 5.5,7.5C 6.0527,5.44818 7.0527,5.11484 8.5,6.5 Z"/></g>
<g><path style="opacity:1" fill="#262626" d="M 23.5,14.5 C 23.5,15.1667 23.5,15.8333 23.5,16.5C 20.4997,17.3786 17.6664,16.712 15,14.5C 12.7642,17.1636 13.4309,18.8303 17,19.5C 17.9958,22.9089 18.8292,26.2423 19.5,29.5C 18.791,30.404 17.791,30.7373 16.5,30.5C 14.6837,28.5889 13.517,26.2556 13,23.5C 12,22.8333 11,22.1667 10,21.5C 9.97606,25.8453 8.8094,29.8453 6.5,33.5C 5.31116,34.4287 3.97782,34.762 2.5,34.5C 2.25903,31.2065 3.09237,28.2065 5,25.5C 5.49834,22.1832 5.66501,18.8499 5.5,15.5C 6.52502,15.1034 6.69169,14.4368 6,13.5C 4.98873,14.3366 3.82207,14.67 2.5,14.5C 1.95691,14.44 1.62358,14.1067 1.5,13.5C 2.50047,11.1868 3.83381,9.18676 5.5,7.5C 6.39105,6.89022 7.39105,6.55688 8.5,6.5C 9.7382,7.41239 11.0715,7.57906 12.5,7C 10.6667,2.16667 12.1667,0.666667 17,2.5C 17.4935,4.13414 17.6602,5.80081 17.5,7.5C 16.448,7.35055 15.448,7.51722 14.5,8C 16.8966,11.1806 19.8966,13.3473 23.5,14.5 Z"/></g>
<g><path style="opacity:1" fill="#949494" d="M 8.5,8.5 C 9.71251,9.49711 9.54585,10.4971 8,11.5C 7.53042,10.4232 7.69708,9.42317 8.5,8.5 Z"/></g>
<g><path style="opacity:1" fill="#949494" d="M 5.5,15.5 C 4.20895,15.7373 3.20895,15.404 2.5,14.5C 3.82207,14.67 4.98873,14.3366 6,13.5C 6.69169,14.4368 6.52502,15.1034 5.5,15.5 Z"/></g>
<g><path style="opacity:1" fill="#d2d2d2" d="M 23.5,14.5 C 24.1667,14.5 24.8333,14.5 25.5,14.5C 25.1667,15.1667 24.8333,15.8333 24.5,16.5C 24.1667,16.5 23.8333,16.5 23.5,16.5C 23.5,15.8333 23.5,15.1667 23.5,14.5 Z"/></g>
</svg>
