<?xml version="1.0" encoding="UTF-8"?>
<!DOCTYPE svg PUBLIC "-//W3C//DTD SVG 1.1//EN" "http://www.w3.org/Graphics/SVG/1.1/DTD/svg11.dtd">
<svg xmlns="http://www.w3.org/2000/svg" version="1.1" width="37px" height="37px" style="shape-rendering:geometricPrecision; text-rendering:geometricPrecision; image-rendering:optimizeQuality; fill-rule:evenodd; clip-rule:evenodd" xmlns:xlink="http://www.w3.org/1999/xlink">
<g><path style="opacity:1" fill="#1e1e1e" d="M 21.5,18.5 C 21.1436,16.8102 20.1436,15.8102 18.5,15.5C 15.3362,13.8094 13.3362,14.8094 12.5,18.5C 12.1667,18.5 11.8333,18.5 11.5,18.5C 10.5489,17.0813 10.2155,15.4147 10.5,13.5C 8.16667,13.5 5.83333,13.5 3.5,13.5C 3.5,14.8333 3.5,16.1667 3.5,17.5C -1.78134,4.47996 2.71866,-0.853373 17,1.5C 29.4237,-0.909141 34.257,4.09086 31.5,16.5C 32.9778,16.238 34.3112,16.5713 35.5,17.5C 30.8804,18.4933 26.2137,18.8266 21.5,18.5 Z M 6.5,6.5 C 9.89838,6.17964 13.2317,6.51298 16.5,7.5C 16.2907,8.08605 15.9574,8.58605 15.5,9C 12.8333,9.66667 10.1667,9.66667 7.5,9C 6.74756,8.32924 6.41423,7.4959 6.5,6.5 Z M 22.5,6.5 C 24.1667,6.5 25.8333,6.5 27.5,6.5C 27.5,7.5 27.5,8.5 27.5,9.5C 24.715,10.0838 23.0483,9.08382 22.5,6.5 Z"/></g>
<g><path style="opacity:1" fill="#252525" d="M 18.5,15.5 C 19.3007,17.0418 19.634,18.7085 19.5,20.5C 19.5,21.1667 19.1667,21.5 18.5,21.5C 16.302,21.8799 14.6354,21.2132 13.5,19.5C 13.5,19.1667 13.5,18.8333 13.5,18.5C 14.4006,16.2729 16.0672,15.2729 18.5,15.5 Z"/></g>
<g><path style="opacity:1" fill="#909090" d="M 18.5,15.5 C 16.0672,15.2729 14.4006,16.2729 13.5,18.5C 13.1667,18.5 12.8333,18.5 12.5,18.5C 13.3362,14.8094 15.3362,13.8094 18.5,15.5 Z"/></g>
<g><path style="opacity:1" fill="#8f8f8f" d="M 18.5,15.5 C 20.1436,15.8102 21.1436,16.8102 21.5,18.5C 20.8333,19.1667 20.1667,19.8333 19.5,20.5C 19.634,18.7085 19.3007,17.0418 18.5,15.5 Z"/></g>
<g><path style="opacity:1" fill="#d4d4d4" d="M 11.5,18.5 C 11.8417,19.3382 12.5084,19.6716 13.5,19.5C 14.6354,21.2132 16.302,21.8799 18.5,21.5C 18.5,22.1667 18.5,22.8333 18.5,23.5C 16.4816,22.0674 14.8149,22.4008 13.5,24.5C 13.1667,25.8333 12.8333,27.1667 12.5,28.5C 11.8333,28.8333 11.1667,29.1667 10.5,29.5C 8.39263,28.5318 6.0593,28.1984 3.5,28.5C 3.5,24.8333 3.5,21.1667 3.5,17.5C 3.5,16.1667 3.5,14.8333 3.5,13.5C 5.83333,13.5 8.16667,13.5 10.5,13.5C 10.2155,15.4147 10.5489,17.0813 11.5,18.5 Z"/></g>
<g><path style="opacity:1" fill="#020202" d="M 13.5,24.5 C 12.5416,24.9528 11.7083,25.6195 11,26.5C 10.6667,26.1667 10.3333,25.8333 10,25.5C 8.59928,27.1922 6.76595,27.8588 4.5,27.5C 4.5,23.1667 4.5,18.8333 4.5,14.5C 6.16667,14.5 7.83333,14.5 9.5,14.5C 9.2011,16.604 9.53443,18.604 10.5,20.5C 12.5499,21.0766 13.5499,22.4099 13.5,24.5 Z"/></g>
<g><path style="opacity:1" fill="#2a2a2a" d="M 18.5,23.5 C 19.3764,23.3691 20.0431,23.7025 20.5,24.5C 19.4986,27.1732 17.9986,29.5065 16,31.5C 14.4815,30.8366 13.3149,29.8366 12.5,28.5C 12.8333,27.1667 13.1667,25.8333 13.5,24.5C 14.8149,22.4008 16.4816,22.0674 18.5,23.5 Z"/></g>
<g><path style="opacity:1" fill="#1a1a1a" d="M 3.5,28.5 C 6.0593,28.1984 8.39263,28.5318 10.5,29.5C 11.2341,30.7079 11.5674,32.0413 11.5,33.5C 8.42814,33.8174 5.42814,33.4841 2.5,32.5C 3.24585,31.2638 3.57918,29.9305 3.5,28.5 Z"/></g>
</svg>
