<?xml version="1.0" encoding="UTF-8"?>
<!DOCTYPE svg PUBLIC "-//W3C//DTD SVG 1.1//EN" "http://www.w3.org/Graphics/SVG/1.1/DTD/svg11.dtd">
<svg xmlns="http://www.w3.org/2000/svg" version="1.1" width="37px" height="37px" style="shape-rendering:geometricPrecision; text-rendering:geometricPrecision; image-rendering:optimizeQuality; fill-rule:evenodd; clip-rule:evenodd" xmlns:xlink="http://www.w3.org/1999/xlink">
<g><path style="opacity:1" fill="#212121" d="M 24.5,16.5 C 24.7497,18.674 25.7497,20.3406 27.5,21.5C 27.5,21.8333 27.5,22.1667 27.5,22.5C 26.4324,23.4345 25.099,23.7678 23.5,23.5C 18.9852,24.1532 14.4852,24.4866 10,24.5C 8.59622,24.4907 7.42956,23.9907 6.5,23C 10.1667,20.6667 13.8333,18.3333 17.5,16C 15.2543,13.573 14.5876,10.9063 15.5,8C 20.6823,6.19684 26.0157,5.36351 31.5,5.5C 31.7135,7.14387 31.3802,8.64387 30.5,10C 27.8791,10.9385 25.2125,11.7719 22.5,12.5C 23.1799,13.8599 23.8466,15.1932 24.5,16.5 Z"/></g>
<g><path style="opacity:1" fill="#1f1f1f" d="M 32.5,20.5 C 27.5,21.5 25.5,19.5 26.5,14.5C 28.0106,12.5589 30.0106,12.0589 32.5,13C 35.1402,15.6206 35.1402,18.1206 32.5,20.5 Z"/></g>
<g><path style="opacity:1" fill="#9a9a9a" d="M 26.5,14.5 C 25.5,19.5 27.5,21.5 32.5,20.5C 31.0813,21.4511 29.4147,21.7845 27.5,21.5C 25.7497,20.3406 24.7497,18.674 24.5,16.5C 25.1667,15.8333 25.8333,15.1667 26.5,14.5 Z"/></g>
<g><path style="opacity:1" fill="#999999" d="M 27.5,22.5 C 28.0431,22.56 28.3764,22.8933 28.5,23.5C 26.7015,24.7879 25.0348,24.7879 23.5,23.5C 25.099,23.7678 26.4324,23.4345 27.5,22.5 Z"/></g>
<g><path style="opacity:1" fill="#303030" d="M 34.5,26.5 C 34.7148,28.1788 34.0481,29.1788 32.5,29.5C 22.8333,30.8333 13.1667,30.8333 3.5,29.5C 1.95186,29.1788 1.28519,28.1788 1.5,26.5C 12.5,26.5 23.5,26.5 34.5,26.5 Z"/></g>
<g><path style="opacity:1" fill="#b6b6b6" d="M 1.5,26.5 C 1.28519,28.1788 1.95186,29.1788 3.5,29.5C 2.79105,30.404 1.79105,30.7373 0.5,30.5C 0.232191,28.901 0.565525,27.5676 1.5,26.5 Z"/></g>
<g><path style="opacity:1" fill="#b6b6b6" d="M 34.5,26.5 C 35.4345,27.5676 35.7678,28.901 35.5,30.5C 34.209,30.7373 33.209,30.404 32.5,29.5C 34.0481,29.1788 34.7148,28.1788 34.5,26.5 Z"/></g>
</svg>
