<?xml version="1.0" encoding="UTF-8"?>
<!DOCTYPE svg PUBLIC "-//W3C//DTD SVG 1.1//EN" "http://www.w3.org/Graphics/SVG/1.1/DTD/svg11.dtd">
<svg xmlns="http://www.w3.org/2000/svg" version="1.1" width="37px" height="37px" style="shape-rendering:geometricPrecision; text-rendering:geometricPrecision; image-rendering:optimizeQuality; fill-rule:evenodd; clip-rule:evenodd" xmlns:xlink="http://www.w3.org/1999/xlink">
<g><path style="opacity:1" fill="#151515" d="M 20.5,4.5 C 20.5,7.5 20.5,10.5 20.5,13.5C 17.6122,12.9898 15.2789,13.6565 13.5,15.5C 12.6906,14.5313 11.6906,13.6979 10.5,13C 12.5951,12.4444 12.7618,11.9444 11,11.5C 8.40498,13.1458 5.57164,13.8125 2.5,13.5C 1.18162,10.4355 1.18162,7.2688 2.5,4C 8.6812,3.18079 14.6812,3.34745 20.5,4.5 Z"/></g>
<g><path style="opacity:1" fill="#8b8b8b" d="M 11.5,6.5 C 3.5,6.83333 3.5,7.16667 11.5,7.5C 9.39263,8.46822 7.0593,8.80155 4.5,8.5C 4.5,7.5 4.5,6.5 4.5,5.5C 7.0593,5.19845 9.39263,5.53178 11.5,6.5 Z"/></g>
<g><path style="opacity:1" fill="#5e5e5e" d="M 20.5,4.5 C 21.1657,7.02773 21.8324,9.6944 22.5,12.5C 23.3081,12.8076 23.9747,13.3076 24.5,14C 20.7481,14.2401 17.0814,14.7401 13.5,15.5C 15.2789,13.6565 17.6122,12.9898 20.5,13.5C 20.5,10.5 20.5,7.5 20.5,4.5 Z"/></g>
<g><path style="opacity:1" fill="#4f4f4f" d="M 13.5,15.5 C 13.0831,16.1239 12.4164,16.4573 11.5,16.5C 8.46484,15.2098 5.46484,14.2098 2.5,13.5C 5.57164,13.8125 8.40498,13.1458 11,11.5C 12.7618,11.9444 12.5951,12.4444 10.5,13C 11.6906,13.6979 12.6906,14.5313 13.5,15.5 Z"/></g>
<g><path style="opacity:1" fill="#282828" d="M 34.5,32.5 C 27.6866,33.4912 20.6866,33.8245 13.5,33.5C 17.2257,27.7271 20.7257,21.7271 24,15.5C 27.5252,21.2306 31.0252,26.8973 34.5,32.5 Z M 23.5,25.5 C 29.7419,31.1232 28.7419,33.2898 20.5,32C 21.914,30.0065 22.914,27.8398 23.5,25.5 Z"/></g>
<g><path style="opacity:1" fill="#868686" d="M 34.5,32.5 C 35.0431,32.56 35.3764,32.8933 35.5,33.5C 28.0102,34.8194 20.6769,34.8194 13.5,33.5C 20.6866,33.8245 27.6866,33.4912 34.5,32.5 Z"/></g>
</svg>
