<?xml version="1.0" encoding="UTF-8"?>
<!DOCTYPE svg PUBLIC "-//W3C//DTD SVG 1.1//EN" "http://www.w3.org/Graphics/SVG/1.1/DTD/svg11.dtd">
<svg xmlns="http://www.w3.org/2000/svg" version="1.1" width="37px" height="37px" style="shape-rendering:geometricPrecision; text-rendering:geometricPrecision; image-rendering:optimizeQuality; fill-rule:evenodd; clip-rule:evenodd" xmlns:xlink="http://www.w3.org/1999/xlink">
<g><path style="opacity:1" fill="#181818" d="M 34.5,16.5 C 34.5,17.5 34.5,18.5 34.5,19.5C 33.8106,20.7736 32.9772,20.7736 32,19.5C 31.501,23.8206 31.3343,28.1539 31.5,32.5C 22.6506,32.8264 13.9839,32.493 5.5,31.5C 5.66568,27.1539 5.49902,22.8206 5,18.5C 3.98873,19.3366 2.82207,19.67 1.5,19.5C 0.474981,19.1034 0.308314,18.4368 1,17.5C 6.16667,13 11.3333,8.5 16.5,4C 19.8306,4.25144 22.6639,5.75144 25,8.5C 26.049,6.89339 27.549,6.22672 29.5,6.5C 28.5403,11.1929 30.2069,14.5262 34.5,16.5 Z M 15.5,10.5 C 16.8333,11.1667 16.8333,11.8333 15.5,12.5C 14.4937,11.6043 14.4937,10.9377 15.5,10.5 Z M 14.5,27.5 C 14.5,28.1667 14.5,28.8333 14.5,29.5C 6.5,28.8333 6.5,28.1667 14.5,27.5 Z M 22.5,27.5 C 30.5,28.1667 30.5,28.8333 22.5,29.5C 22.5,28.8333 22.5,28.1667 22.5,27.5 Z"/></g>
<g><path style="opacity:1" fill="#848484" d="M 15.5,12.5 C 16.8333,11.8333 16.8333,11.1667 15.5,10.5C 16.8082,7.70257 17.4749,7.86924 17.5,11C 17.1667,11.8333 16.8333,12.6667 16.5,13.5C 15.8933,13.3764 15.56,13.0431 15.5,12.5 Z"/></g>
<g><path style="opacity:1" fill="#8e8e8e" d="M 21.5,10.5 C 20.1667,11.1667 20.1667,11.8333 21.5,12.5C 20.528,13.7514 19.8614,13.418 19.5,11.5C 19.8614,9.58196 20.528,9.24863 21.5,10.5 Z"/></g>
<g><path style="opacity:1" fill="#c6c6c6" d="M 11.5,13.5 C 11.9175,14.2216 12.5842,14.7216 13.5,15C 12.1667,15.6667 10.8333,15.6667 9.5,15C 10.0442,14.2828 10.7109,13.7828 11.5,13.5 Z"/></g>
<g><path style="opacity:1" fill="#b7b7b7" d="M 24.5,13.5 C 25.7562,13.4614 26.7562,13.9614 27.5,15C 26.1667,15.6667 24.8333,15.6667 23.5,15C 24.056,14.6174 24.3893,14.1174 24.5,13.5 Z"/></g>
<g><path style="opacity:1" fill="#808080" d="M 34.5,16.5 C 35.1667,16.8333 35.8333,17.1667 36.5,17.5C 36.5,17.8333 36.5,18.1667 36.5,18.5C 35.8333,18.8333 35.1667,19.1667 34.5,19.5C 34.5,18.5 34.5,17.5 34.5,16.5 Z"/></g>
<g><path style="opacity:1" fill="#b9b9b9" d="M 5.5,31.5 C 4.51836,28.0381 4.18503,24.3714 4.5,20.5C 3.20895,20.7373 2.20895,20.404 1.5,19.5C 2.82207,19.67 3.98873,19.3366 5,18.5C 5.49902,22.8206 5.66568,27.1539 5.5,31.5 Z"/></g>
<g><path style="opacity:1" fill="#878787" d="M 28.5,18.5 C 20.5,18.8333 20.5,19.1667 28.5,19.5C 26.6309,20.1646 24.6309,20.8313 22.5,21.5C 24.6309,22.1687 26.6309,22.8354 28.5,23.5C 25.9588,23.1486 24.2921,23.4819 23.5,24.5C 22.8902,25.391 22.5569,26.391 22.5,27.5C 22.5,28.1667 22.5,28.8333 22.5,29.5C 21.5184,26.0381 21.185,22.3714 21.5,18.5C 19.5,18.5 17.5,18.5 15.5,18.5C 15.815,22.3714 15.4816,26.0381 14.5,29.5C 14.5,28.8333 14.5,28.1667 14.5,27.5C 14.4431,26.391 14.1098,25.391 13.5,24.5C 12.7079,23.4819 11.0412,23.1486 8.5,23.5C 10.3691,22.8354 12.3691,22.1687 14.5,21.5C 12.1667,20.8333 9.83333,20.1667 7.5,19.5C 7.62358,18.8933 7.95691,18.56 8.5,18.5C 15.1667,17.1667 21.8333,17.1667 28.5,18.5 Z"/></g>
</svg>
