<?xml version="1.0" encoding="UTF-8"?>
<svg version="1.1" xmlns="http://www.w3.org/2000/svg" width="37" height="37">
<path d="M0 0 C8.25 0 16.5 0 25 0 C27.26134873 8.66850346 28.32343727 16.05156878 28 25 C24.37 25 20.74 25 17 25 C17 21.04 17 17.08 17 13 C14.69 12.34 12.38 11.68 10 11 C10 11.66 10 12.32 10 13 C9.34 13 8.68 13 8 13 C8 16.96 8 20.92 8 25 C4.04 25 0.08 25 -4 25 C-4.49564125 15.83063693 -2.77518274 8.75917053 0 0 Z " fill="#101010" transform="translate(7,9)"/>
<path d="M0 0 C3.3 0 6.6 0 10 0 C12.31777107 8.55367895 13.32040405 16.13548801 13 25 C9.37 25 5.74 25 2 25 C2 21.04 2 17.08 2 13 C1.34 13 0.68 13 0 13 C0 8.71 0 4.42 0 0 Z " fill="#090909" transform="translate(22,9)"/>
<path d="M0 0 C1.98 0 3.96 0 6 0 C6 3.96 6 7.92 6 12 C4.35 11.67 2.7 11.34 1 11 C0.67 11.66 0.34 12.32 0 13 C0 8.71 0 4.42 0 0 Z " fill="#585858" transform="translate(16,9)"/>
<path d="M0 0 C2.31 0 4.62 0 7 0 C7 1.65 7 3.3 7 5 C4.69 5 2.38 5 0 5 C0 3.35 0 1.7 0 0 Z " fill="#323232" transform="translate(10,3)"/>
<path d="M0 0 C2.31 0 4.62 0 7 0 C7 1.65 7 3.3 7 5 C4.69 5 2.38 5 0 5 C0 3.35 0 1.7 0 0 Z " fill="#323232" transform="translate(21,3)"/>
</svg>
