<?xml version="1.0" encoding="UTF-8"?>
<svg version="1.1" xmlns="http://www.w3.org/2000/svg" width="37" height="37">
<path d="M0 0 C1.00224609 -0.02449219 2.00449219 -0.04898437 3.03710938 -0.07421875 C10.29346124 -0.10326352 10.29346124 -0.10326352 13.73828125 2.0390625 C15.38922039 4.95133863 15.47100882 6.79631471 15.3125 10.125 C15.27640625 11.10984375 15.2403125 12.0946875 15.203125 13.109375 C15.13351563 14.23085938 15.13351563 14.23085938 15.0625 15.375 C16.0525 15.375 17.0425 15.375 18.0625 15.375 C18.0625 16.035 18.0625 16.695 18.0625 17.375 C17.07507812 17.42398437 16.08765625 17.47296875 15.0703125 17.5234375 C13.78898437 17.59820313 12.50765625 17.67296875 11.1875 17.75 C9.91132813 17.81960937 8.63515625 17.88921875 7.3203125 17.9609375 C3.98188301 18.04741106 3.98188301 18.04741106 2.0625 20.375 C0.7425 20.375 -0.5775 20.375 -1.9375 20.375 C-2.370625 21.8290625 -2.370625 21.8290625 -2.8125 23.3125 C-3.9375 26.375 -3.9375 26.375 -5.9375 27.375 C-9.375 27.6875 -9.375 27.6875 -12.9375 27.375 C-15.27418266 25.13808581 -15.91506619 23.9286343 -16.046875 20.67578125 C-15.92828125 19.68964844 -15.8096875 18.70351563 -15.6875 17.6875 C-15.50574219 16.10775391 -15.50574219 16.10775391 -15.3203125 14.49609375 C-15.19398437 13.46613281 -15.06765625 12.43617187 -14.9375 11.375 C-14.87304688 10.47910156 -14.80859375 9.58320313 -14.7421875 8.66015625 C-14.5625 6.25 -14.5625 6.25 -13.9375 2.375 C-9.478244 -0.59783733 -5.24661565 0.00672212 0 0 Z M-8.9375 5.375 C-8.9375 6.035 -8.9375 6.695 -8.9375 7.375 C-5.9675 7.375 -2.9975 7.375 0.0625 7.375 C0.0625 6.715 0.0625 6.055 0.0625 5.375 C-2.9075 5.375 -5.8775 5.375 -8.9375 5.375 Z M6.0625 5.375 C6.0625 6.035 6.0625 6.695 6.0625 7.375 C7.3825 7.375 8.7025 7.375 10.0625 7.375 C10.0625 6.715 10.0625 6.055 10.0625 5.375 C8.7425 5.375 7.4225 5.375 6.0625 5.375 Z " fill="#3F3F3F" transform="translate(17.9375,5.625)"/>
<path d="M0 0 C0.66 0 1.32 0 2 0 C4.26556023 2.86526735 5.84507896 5.0483422 6.4375 8.6875 C6 11 6 11 4.875 12.875 C3 14 3 14 -0.125 13.75 C-3 13 -3 13 -4 12 C-4.46565129 7.99539892 -4.11028801 6.19851841 -2.125 2.625 C-1.42375 1.75875 -0.7225 0.8925 0 0 Z " fill="#0A0A0A" transform="translate(8,18)"/>
<path d="M0 0 C1.65 0 3.3 0 5 0 C5.33 0.99 5.66 1.98 6 3 C10.62 2.67 15.24 2.34 20 2 C20 2.66 20 3.32 20 4 C18.51886719 4.07347656 18.51886719 4.07347656 17.0078125 4.1484375 C15.72648437 4.22320313 14.44515625 4.29796875 13.125 4.375 C11.21074219 4.47941406 11.21074219 4.47941406 9.2578125 4.5859375 C5.91938301 4.67241106 5.91938301 4.67241106 4 7 C2.68 7 1.36 7 0 7 C-0.93423645 3.98968256 -1.04449911 3.13349732 0 0 Z " fill="#5A5A5A" transform="translate(16,19)"/>
<path d="M0 0 C0.98613281 0.00322266 1.97226563 0.00644531 2.98828125 0.00976562 C4.02082031 0.01814453 5.05335937 0.02652344 6.1171875 0.03515625 C7.67759766 0.04192383 7.67759766 0.04192383 9.26953125 0.04882812 C11.84380712 0.06063673 14.41796896 0.0771055 16.9921875 0.09765625 C16.9921875 0.42765625 16.9921875 0.75765625 16.9921875 1.09765625 C16.37698242 1.11747559 15.76177734 1.13729492 15.12792969 1.15771484 C12.33226208 1.25315352 9.5373224 1.3627558 6.7421875 1.47265625 C5.29005859 1.5190625 5.29005859 1.5190625 3.80859375 1.56640625 C2.87402344 1.60507813 1.93945312 1.64375 0.9765625 1.68359375 C0.11772461 1.71501465 -0.74111328 1.74643555 -1.62597656 1.77880859 C-4.1360153 2.11481829 -5.82713578 2.83957353 -8.0078125 4.09765625 C-7.6778125 3.10765625 -7.3478125 2.11765625 -7.0078125 1.09765625 C-4.50284246 -0.15482877 -2.79927976 -0.01608781 0 0 Z " fill="#7C7C7C" transform="translate(12.0078125,5.90234375)"/>
</svg>
