<?xml version="1.0" encoding="UTF-8"?>
<svg version="1.1" xmlns="http://www.w3.org/2000/svg" width="37" height="37">
<path d="M0 0 C3.70654664 -0.28318268 7.30427146 -0.46334507 11 0 C12.6875 2.4375 12.6875 2.4375 14 5 C16.71802891 5.77814537 19.14927534 5.85980043 22 6 C23.49821059 9.37097383 24 11.20442119 24 15 C23.01 15 22.02 15 21 15 C19.10782925 18.89564566 19.12464213 20.84205011 20 25 C19.34 25.99 18.68 26.98 18 28 C14.875 28.1875 14.875 28.1875 12 28 C11.67 27.01 11.34 26.02 11 25 C10.67 25.99 10.34 26.98 10 28 C7.36 28 4.72 28 2 28 C1.67 27.01 1.34 26.02 1 25 C0.67 25.99 0.34 26.98 0 28 C-1.98 27.67 -3.96 27.34 -6 27 C-5.25 21.25 -5.25 21.25 -3 19 C-3.66 17.68 -4.32 16.36 -5 15 C-5.99 15 -6.98 15 -8 15 C-8 13.68 -8 12.36 -8 11 C-8.99 11 -9.98 11 -11 11 C-11 8.69 -11 6.38 -11 4 C-7.57703036 3.25989846 -4.49869895 3 -1 3 C-0.67 2.01 -0.34 1.02 0 0 Z M2 3 C2 3.99 2 4.98 2 6 C4.31 6 6.62 6 9 6 C9 5.01 9 4.02 9 3 C6.69 3 4.38 3 2 3 Z M-1 14 C0 16 0 16 0 16 Z M16 14 C16.33 14.66 16.66 15.32 17 16 C17.33 15.34 17.66 14.68 18 14 C17.34 14 16.68 14 16 14 Z M4 15 C3.34 16.32 2.68 17.64 2 19 C5.92296433 20.30765478 8.86002433 20.1971417 13 20 C13.66 19.34 14.32 18.68 15 18 C14.34 18 13.68 18 13 18 C13 17.01 13 16.02 13 15 C10.03 15 7.06 15 4 15 Z M15 22 C15.33 23.32 15.66 24.64 16 26 C16.33 25.01 16.66 24.02 17 23 C16.34 22.67 15.68 22.34 15 22 Z " fill="#303030" transform="translate(12,4)"/>
<path d="M0 0 C0.556875 0.144375 1.11375 0.28875 1.6875 0.4375 C9.07297717 2.23396742 15.47019779 2.50596044 23 1 C24.25 7.625 24.25 7.625 22 11 C18.875 11.1875 18.875 11.1875 16 11 C15.67 10.01 15.34 9.02 15 8 C14.67 8.99 14.34 9.98 14 11 C11.36 11 8.72 11 6 11 C5.67 10.01 5.34 9.02 5 8 C4.67 8.99 4.34 9.98 4 11 C1.03 10.505 1.03 10.505 -2 10 C-1.25 4.25 -1.25 4.25 1 2 C0.67 1.34 0.34 0.68 0 0 Z M19 5 C19.33 6.32 19.66 7.64 20 9 C20.33 8.01 20.66 7.02 21 6 C20.34 5.67 19.68 5.34 19 5 Z " fill="#5B5B5B" transform="translate(8,21)"/>
<path d="M0 0 C0.598125 0.20625 1.19625 0.4125 1.8125 0.625 C2.4375 3.4375 2.4375 3.4375 2.8125 6.625 C1.8225 8.11 1.8225 8.11 0.8125 9.625 C-2.3125 9.8125 -2.3125 9.8125 -5.1875 9.625 C-5.48046875 3.5703125 -5.48046875 3.5703125 -5.1875 1.625 C-2.1875 -0.375 -2.1875 -0.375 0 0 Z M-2.1875 3.625 C-1.8575 4.945 -1.5275 6.265 -1.1875 7.625 C-0.8575 6.635 -0.5275 5.645 -0.1875 4.625 C-0.8475 4.295 -1.5075 3.965 -2.1875 3.625 Z " fill="#4C4C4C" transform="translate(29.1875,22.375)"/>
<path d="M0 0 C1.67542976 0.28604898 3.34385343 0.61781233 5 1 C5 2.98 5 4.96 5 7 C2.69 6.67 0.38 6.34 -2 6 C-1.125 1.125 -1.125 1.125 0 0 Z M1 3 C2 5 2 5 2 5 Z " fill="#232323" transform="translate(10,15)"/>
<path d="M0 0 C0.99 0 1.98 0 3 0 C3.33 2.64 3.66 5.28 4 8 C1.03 7.505 1.03 7.505 -2 7 C-1.125 1.125 -1.125 1.125 0 0 Z " fill="#585858" transform="translate(8,24)"/>
<path d="M0 0 C0.66 0 1.32 0 2 0 C2 0.66 2 1.32 2 2 C2.99 2.33 3.98 2.66 5 3 C4.34 3 3.68 3 3 3 C2.67 4.32 2.34 5.64 2 7 C1.34 7 0.68 7 0 7 C0 6.01 0 5.02 0 4 C-2.97 4 -5.94 4 -9 4 C-9.33 4.66 -9.66 5.32 -10 6 C-10 4.35 -10 2.7 -10 1 C-9.67 1.66 -9.34 2.32 -9 3 C-7.700625 2.87625 -6.40125 2.7525 -5.0625 2.625 C-4.33160156 2.55539063 -3.60070312 2.48578125 -2.84765625 2.4140625 C-2.23792969 2.27742188 -1.62820312 2.14078125 -1 2 C-0.67 1.34 -0.34 0.68 0 0 Z " fill="#727272" transform="translate(25,15)"/>
<path d="M0 0 C1.65 0.33 3.3 0.66 5 1 C5 2.98 5 4.96 5 7 C3.35 7 1.7 7 0 7 C-0.33 5.68 -0.66 4.36 -1 3 C-0.67 3.66 -0.34 4.32 0 5 C0.99 4.01 1.98 3.02 3 2 C2.01 2 1.02 2 0 2 C0 1.34 0 0.68 0 0 Z " fill="#0F0F0F" transform="translate(27,15)"/>
<path d="M0 0 C2.31 0 4.62 0 7 0 C6.34 2.97 5.68 5.94 5 9 C3 7 3 7 2.5 3.9375 C2.335 2.968125 2.17 1.99875 2 1 C1.34 0.67 0.68 0.34 0 0 Z " fill="#7C7C7C" transform="translate(17,23)"/>
<path d="M0 0 C0.33 0 0.66 0 1 0 C1.33 2.64 1.66 5.28 2 8 C1.01 8 0.02 8 -1 8 C-1 7.34 -1 6.68 -1 6 C-1.66 5.67 -2.32 5.34 -3 5 C-2.01 5 -1.02 5 0 5 C-0.2784375 4.0409375 -0.2784375 4.0409375 -0.5625 3.0625 C-0.706875 2.381875 -0.85125 1.70125 -1 1 C-0.67 0.67 -0.34 0.34 0 0 Z " fill="#1A1A1A" transform="translate(10,24)"/>
</svg>
