<?xml version="1.0" encoding="UTF-8"?>
<svg version="1.1" xmlns="http://www.w3.org/2000/svg" width="37" height="37">
<path d="M0 0 C2.54888655 -0.01076994 5.04677727 0.08640562 7.5859375 0.30078125 C7.5859375 1.62078125 7.5859375 2.94078125 7.5859375 4.30078125 C8.34519531 4.27757812 9.10445312 4.254375 9.88671875 4.23046875 C10.88058594 4.21242188 11.87445312 4.194375 12.8984375 4.17578125 C13.88457031 4.15257812 14.87070312 4.129375 15.88671875 4.10546875 C18.5859375 4.30078125 18.5859375 4.30078125 21.5859375 6.30078125 C21.87890625 9.33984375 21.87890625 9.33984375 21.7734375 12.92578125 C21.74636719 14.11429688 21.71929687 15.3028125 21.69140625 16.52734375 C21.65660156 17.44257813 21.62179688 18.3578125 21.5859375 19.30078125 C22.9059375 19.30078125 24.2259375 19.30078125 25.5859375 19.30078125 C25.5859375 19.96078125 25.5859375 20.62078125 25.5859375 21.30078125 C20.6359375 21.30078125 15.6859375 21.30078125 10.5859375 21.30078125 C10.2559375 22.29078125 9.9259375 23.28078125 9.5859375 24.30078125 C4.72517801 23.35563357 4.72517801 23.35563357 2.5234375 22.48828125 C1.564375 22.39546875 1.564375 22.39546875 0.5859375 22.30078125 C-1.68550324 24.15510212 -1.68550324 24.15510212 -3.4140625 26.30078125 C-4.4040625 25.97078125 -5.3940625 25.64078125 -6.4140625 25.30078125 C-6.5584375 24.24890625 -6.7028125 23.19703125 -6.8515625 22.11328125 C-7.28721259 18.49417986 -7.28721259 18.49417986 -8.1640625 15.86328125 C-8.55189842 11.88796304 -7.01045005 8.8836239 -5.4140625 5.30078125 C-5.0634375 4.31078125 -4.7128125 3.32078125 -4.3515625 2.30078125 C-2.4140625 0.30078125 -2.4140625 0.30078125 0 0 Z M12.5859375 9.30078125 C12.5859375 9.96078125 12.5859375 10.62078125 12.5859375 11.30078125 C14.2359375 11.30078125 15.8859375 11.30078125 17.5859375 11.30078125 C17.5859375 10.64078125 17.5859375 9.98078125 17.5859375 9.30078125 C15.9359375 9.30078125 14.2859375 9.30078125 12.5859375 9.30078125 Z " fill="#171717" transform="translate(10.4140625,4.69921875)"/>
<path d="M0 0 C2.31 0 4.62 0 7 0 C5.80100302 3.0831351 4.52299523 6.06279492 3 9 C3.99 9 4.98 9 6 9 C5.41827275 12.9520518 3.44842259 15.22095053 0.9375 18.25 C0.20402344 19.14203125 -0.52945312 20.0340625 -1.28515625 20.953125 C-1.85105469 21.62859375 -2.41695313 22.3040625 -3 23 C-3.33 22.34 -3.66 21.68 -4 21 C-3.67 20.34 -3.34 19.68 -3 19 C-3.99 19 -4.98 19 -6 19 C-6.8759457 11.26247962 -4.01272428 6.49679169 0 0 Z " fill="#0C0C0C" transform="translate(10,6)"/>
<path d="M0 0 C2.31 0.33 4.62 0.66 7 1 C7 1.66 7 2.32 7 3 C11.62 2.67 16.24 2.34 21 2 C21 2.66 21 3.32 21 4 C16.05 4 11.1 4 6 4 C5.67 4.99 5.34 5.98 5 7 C0.13924051 6.05485232 0.13924051 6.05485232 -2.0625 5.1875 C-3.0215625 5.0946875 -3.0215625 5.0946875 -4 5 C-6.27144074 6.85432087 -6.27144074 6.85432087 -8 9 C-8.99 8.67 -9.98 8.34 -11 8 C-10.67 6.35 -10.34 4.7 -10 3 C-9.34 3 -8.68 3 -8 3 C-8 3.99 -8 4.98 -8 6 C-6.35 4.35 -4.7 2.7 -3 1 C-3 1.66 -3 2.32 -3 3 C-2.34 3 -1.68 3 -1 3 C-0.67 2.01 -0.34 1.02 0 0 Z " fill="#515151" transform="translate(15,22)"/>
<path d="M0 0 C2.54888655 -0.01076994 5.04677727 0.08640562 7.5859375 0.30078125 C7.5859375 1.62078125 7.5859375 2.94078125 7.5859375 4.30078125 C11.2159375 4.30078125 14.8459375 4.30078125 18.5859375 4.30078125 C18.5859375 4.63078125 18.5859375 4.96078125 18.5859375 5.30078125 C14.2959375 5.30078125 10.0059375 5.30078125 5.5859375 5.30078125 C5.5859375 5.96078125 5.5859375 6.62078125 5.5859375 7.30078125 C6.2459375 7.63078125 6.9059375 7.96078125 7.5859375 8.30078125 C7.2559375 9.95078125 6.9259375 11.60078125 6.5859375 13.30078125 C6.2559375 12.31078125 5.9259375 11.32078125 5.5859375 10.30078125 C4.5959375 10.30078125 3.6059375 10.30078125 2.5859375 10.30078125 C3.64468824 6.89765387 4.59495904 4.28724894 6.5859375 1.30078125 C3.19556315 1.27770992 3.19556315 1.27770992 -0.4140625 2.30078125 C-2.55579736 5.22922883 -2.55579736 5.22922883 -3.8515625 8.86328125 C-4.34527344 10.06082031 -4.83898437 11.25835937 -5.34765625 12.4921875 C-5.69957031 13.41902344 -6.05148438 14.34585937 -6.4140625 15.30078125 C-4.7640625 15.30078125 -3.1140625 15.30078125 -1.4140625 15.30078125 C-1.4140625 15.63078125 -1.4140625 15.96078125 -1.4140625 16.30078125 C-3.0640625 16.30078125 -4.7140625 16.30078125 -6.4140625 16.30078125 C-6.7440625 16.96078125 -7.0740625 17.62078125 -7.4140625 18.30078125 C-9.14307322 13.27093189 -7.46384959 9.90120838 -5.4140625 5.30078125 C-5.0634375 4.31078125 -4.7128125 3.32078125 -4.3515625 2.30078125 C-2.4140625 0.30078125 -2.4140625 0.30078125 0 0 Z " fill="#DBDBDB" transform="translate(10.4140625,4.69921875)"/>
<path d="M0 0 C1.65 0 3.3 0 5 0 C4.071875 0.4021875 4.071875 0.4021875 3.125 0.8125 C0.7004767 1.95556848 0.7004767 1.95556848 -1 5 C-2.33076989 5.34342449 -3.66431979 5.67619874 -5 6 C-6.73026102 7.47890069 -6.73026102 7.47890069 -8 9 C-8.99 8.67 -9.98 8.34 -11 8 C-10.67 6.35 -10.34 4.7 -10 3 C-9.34 3 -8.68 3 -8 3 C-8 3.99 -8 4.98 -8 6 C-6.35 4.35 -4.7 2.7 -3 1 C-3 1.66 -3 2.32 -3 3 C-2.34 3 -1.68 3 -1 3 C-0.67 2.01 -0.34 1.02 0 0 Z " fill="#D1D1D1" transform="translate(15,22)"/>
<path d="M0 0 C4.62 0 9.24 0 14 0 C14 0.33 14 0.66 14 1 C9.71 1 5.42 1 1 1 C1 1.66 1 2.32 1 3 C1.66 3.33 2.32 3.66 3 4 C2.67 5.65 2.34 7.3 2 9 C1.67 8.01 1.34 7.02 1 6 C0.01 6 -0.98 6 -2 6 C-1.34 4.02 -0.68 2.04 0 0 Z " fill="#B6B6B6" transform="translate(15,9)"/>
<path d="M0 0 C1.65 0 3.3 0 5 0 C4.67 1.32 4.34 2.64 4 4 C2.68 4 1.36 4 0 4 C0 2.68 0 1.36 0 0 Z " fill="#525252" transform="translate(4,21)"/>
</svg>
