<?xml version="1.0" encoding="UTF-8"?>
<svg version="1.1" xmlns="http://www.w3.org/2000/svg" width="37" height="37">
<path d="M0 0 C0.87140625 0.00064453 1.7428125 0.00128906 2.640625 0.00195312 C3.54296875 0.01806641 4.4453125 0.03417969 5.375 0.05078125 C6.72851562 0.04594727 6.72851562 0.04594727 8.109375 0.04101562 C15.7516778 0.10319412 15.7516778 0.10319412 19.375 2.36328125 C20.69729189 5.00786504 20.47177194 7.04089426 20.4375 9.98828125 C20.42847656 10.99117187 20.41945312 11.9940625 20.41015625 13.02734375 C20.39855469 13.79820313 20.38695312 14.5690625 20.375 15.36328125 C21.695 15.36328125 23.015 15.36328125 24.375 15.36328125 C24.375 16.02328125 24.375 16.68328125 24.375 17.36328125 C22.76818359 17.43675781 22.76818359 17.43675781 21.12890625 17.51171875 C19.73174361 17.58673419 18.3346095 17.66228255 16.9375 17.73828125 C16.23044922 17.76921875 15.52339844 17.80015625 14.79492188 17.83203125 C12.98260812 17.93608754 11.17682012 18.14248017 9.375 18.36328125 C9.045 19.02328125 8.715 19.68328125 8.375 20.36328125 C7.385 20.69328125 6.395 21.02328125 5.375 21.36328125 C5.643125 22.60078125 5.91125 23.83828125 6.1875 25.11328125 C6.4609375 27.3125 6.4609375 27.3125 6.375 29.36328125 C4.3125 31.92578125 4.3125 31.92578125 1.375 33.36328125 C-2.35206873 33.21712169 -3.96711707 33.02116418 -6.625 30.36328125 C-6.75 27.73828125 -6.75 27.73828125 -6.625 25.36328125 C-7.945 25.03328125 -9.265 24.70328125 -10.625 24.36328125 C-9.965 22.38328125 -9.305 20.40328125 -8.625 18.36328125 C-9.945 17.70328125 -11.265 17.04328125 -12.625 16.36328125 C-12.05939084 14.25428115 -11.4718289 12.15115988 -10.875 10.05078125 C-10.55015625 8.87902344 -10.2253125 7.70726562 -9.890625 6.5 C-7.90235812 1.57228919 -5.24750129 -0.01976359 0 0 Z M1.375 5.36328125 C1.045 6.35328125 0.715 7.34328125 0.375 8.36328125 C2.025 8.03328125 3.675 7.70328125 5.375 7.36328125 C5.375 6.70328125 5.375 6.04328125 5.375 5.36328125 C4.055 5.36328125 2.735 5.36328125 1.375 5.36328125 Z M11.375 5.36328125 C11.705 6.35328125 12.035 7.34328125 12.375 8.36328125 C13.695 8.03328125 15.015 7.70328125 16.375 7.36328125 C16.375 6.70328125 16.375 6.04328125 16.375 5.36328125 C14.725 5.36328125 13.075 5.36328125 11.375 5.36328125 Z " fill="#232323" transform="translate(12.625,2.63671875)"/>
<path d="M0 0 C8.57142857 -0.28571429 8.57142857 -0.28571429 12 2 C10.68 2 9.36 2 8 2 C7.34 3.65 6.68 5.3 6 7 C6.66 7.33 7.32 7.66 8 8 C7.67 9.65 7.34 11.3 7 13 C7.66 13 8.32 13 9 13 C9.33 13.66 9.66 14.32 10 15 C12.52733235 15.65555119 12.52733235 15.65555119 15 16 C14.01 16.66 13.02 17.32 12 18 C12.268125 19.2375 12.53625 20.475 12.8125 21.75 C13.0859375 23.94921875 13.0859375 23.94921875 13 26 C10.9375 28.5625 10.9375 28.5625 8 30 C4.27293127 29.85384044 2.65788293 29.65788293 0 27 C-0.125 24.375 -0.125 24.375 0 22 C-1.32 21.67 -2.64 21.34 -4 21 C-3.34 19.02 -2.68 17.04 -2 15 C-3.32 14.34 -4.64 13.68 -6 13 C-5.01 10.36 -4.02 7.72 -3 5 C-2.34 5 -1.68 5 -1 5 C-2.875 10.75 -2.875 10.75 -4 13 C-2.68 13 -1.36 13 0 13 C-0.33 14.98 -0.66 16.96 -1 19 C1.31 16.03 3.62 13.06 6 10 C5.01 9.34 4.02 8.68 3 8 C4.32 5.69 5.64 3.38 7 1 C5.02 1 3.04 1 1 1 C0.67 1.99 0.34 2.98 0 4 C-0.33 3.34 -0.66 2.68 -1 2 C-0.67 1.34 -0.34 0.68 0 0 Z " fill="#F4F4F4" transform="translate(6,6)"/>
<path d="M0 0 C3 1 3 1 4.6875 3.1875 C6.19370342 6.41507877 6.39134758 8.4778718 6 12 C5.34 12.66 4.68 13.32 4 14 C0.375 13.625 0.375 13.625 -3 13 C-3.85637238 10.07406105 -4.38673104 7.91825712 -3.17578125 5.04296875 C-2.17852152 3.32488268 -1.09427085 1.65798613 0 0 Z " fill="#0A0A0A" transform="translate(11,20)"/>
<path d="M0 0 C1.98 0 3.96 0 6 0 C4.125 4.75 4.125 4.75 3 7 C3.99 7.66 4.98 8.32 6 9 C3.36 12.63 0.72 16.26 -2 20 C-3.2077558 16.37673261 -2.54311128 15.35853631 -1 12 C-2.32 12 -3.64 12 -5 12 C-3.68938409 7.76570244 -2.05643741 3.92592596 0 0 Z " fill="#111111" transform="translate(7,7)"/>
<path d="M0 0 C8.57142857 -0.28571429 8.57142857 -0.28571429 12 2 C10.68 2 9.36 2 8 2 C7.34 3.65 6.68 5.3 6 7 C6.66 7.33 7.32 7.66 8 8 C7.67 9.65 7.34 11.3 7 13 C7.66 13 8.32 13 9 13 C9.33 13.66 9.66 14.32 10 15 C12.52733235 15.65555119 12.52733235 15.65555119 15 16 C14.01 16.66 13.02 17.32 12 18 C11.7497843 21.08365871 11.7497843 21.08365871 12 24 C11.731875 23.443125 11.46375 22.88625 11.1875 22.3125 C8.93288201 17.37424914 8.93288201 17.37424914 5 14 C4.34 15.32 3.68 16.64 3 18 C2.34 18 1.68 18 1 18 C2.37154504 15.04590299 3.98863724 12.55991624 6 10 C5.01 9.34 4.02 8.68 3 8 C4.32 5.69 5.64 3.38 7 1 C5.02 1 3.04 1 1 1 C0.67 1.99 0.34 2.98 0 4 C-0.33 3.34 -0.66 2.68 -1 2 C-0.67 1.34 -0.34 0.68 0 0 Z " fill="#CDCDCD" transform="translate(6,6)"/>
<path d="M0 0 C1.2065625 0.0309375 1.2065625 0.0309375 2.4375 0.0625 C2.7675 1.0525 3.0975 2.0425 3.4375 3.0625 C8.3875 2.7325 13.3375 2.4025 18.4375 2.0625 C18.4375 2.7225 18.4375 3.3825 18.4375 4.0625 C17.36628906 4.12308594 16.29507813 4.18367188 15.19140625 4.24609375 C13.79425609 4.33048537 12.39712143 4.41513406 11 4.5 C9.93942383 4.55897461 9.93942383 4.55897461 8.85742188 4.61914062 C5.35059581 4.53874438 5.35059581 4.53874438 2.4375 6.0625 C0.77132885 6.10313832 -0.89638095 6.105221 -2.5625 6.0625 C-2.94468767 4.40635343 -3.27645102 2.73792976 -3.5625 1.0625 C-2.5625 0.0625 -2.5625 0.0625 0 0 Z " fill="#515151" transform="translate(18.5625,15.9375)"/>
<path d="M0 0 C0.99 0 1.98 0 3 0 C3.33 0.66 3.66 1.32 4 2 C6.52733235 2.65555119 6.52733235 2.65555119 9 3 C8.01 3.66 7.02 4.32 6 5 C5.7497843 8.08365871 5.7497843 8.08365871 6 11 C5.7525 10.484375 5.505 9.96875 5.25 9.4375 C3.60418384 6.22815849 1.8023904 3.12414336 0 0 Z " fill="#C2C2C2" transform="translate(12,19)"/>
</svg>
