<?xml version="1.0" encoding="UTF-8"?>
<svg version="1.1" xmlns="http://www.w3.org/2000/svg" width="37" height="37">
<path d="M0 0 C0.144375 1.093125 0.28875 2.18625 0.4375 3.3125 C0.88288104 6.93122987 0.88288104 6.93122987 2 10 C2.66 10 3.32 10 4 10 C4 11.98 4 13.96 4 16 C2.948125 16.12375 1.89625 16.2475 0.8125 16.375 C-2.84016455 16.8072057 -2.84016455 16.8072057 -5.375 18.0625 C-9.16232236 19.41511513 -13.01534652 19.53233092 -17 19 C-17.66 18.34 -18.32 17.68 -19 17 C-19.66 17.66 -20.32 18.32 -21 19 C-23.61580479 18.6730244 -25.64078137 18.17960932 -28 17 C-28.3125 14.1875 -28.3125 14.1875 -28 11 C-26.33333333 10 -24.66666667 9 -23 8 C-22.74994614 4.95817107 -22.74994614 4.95817107 -23 2 C-20.15225792 -0.84774208 -17.02238769 -0.78557905 -13.1875 -1.25 C-12.47529297 -1.353125 -11.76308594 -1.45625 -11.02929688 -1.5625 C-6.76230157 -2.09932827 -3.83035887 -2.01677048 0 0 Z M-19 10 C-18.67 10.66 -18.34 11.32 -18 12 C-17.67 11.34 -17.34 10.68 -17 10 C-17.66 10 -18.32 10 -19 10 Z M-24 13 C-23.67 13.66 -23.34 14.32 -23 15 C-22.67 14.34 -22.34 13.68 -22 13 C-22.66 13 -23.32 13 -24 13 Z M-14 13 C-13.67 13.66 -13.34 14.32 -13 15 C-12.67 14.34 -12.34 13.68 -12 13 C-12.66 13 -13.32 13 -14 13 Z M-9 13 C-8 16 -8 16 -8 16 Z M-26 15 C-25 17 -25 17 -25 17 Z " fill="#616161" transform="translate(31,10)"/>
<path d="M0 0 C3.2578125 0.0234375 3.2578125 0.0234375 7.125 0.375 C8.40632813 0.48585938 9.68765625 0.59671875 11.0078125 0.7109375 C12.48894531 0.85402344 12.48894531 0.85402344 14 1 C12.35 2.32 10.7 3.64 9 5 C8.34 4.67 7.68 4.34 7 4 C7 3.34 7 2.68 7 2 C6.01 2 5.02 2 4 2 C4 3.32 4 4.64 4 6 C3 6 2 6 1 6 C1.639375 6.268125 2.27875 6.53625 2.9375 6.8125 C5 8 5 8 6 11 C7.65 10.34 9.3 9.68 11 9 C11 10.65 11 12.3 11 14 C9.68 13.67 8.36 13.34 7 13 C6.67 13.66 6.34 14.32 6 15 C2.76056483 17.24960776 -0.03824786 18.68723009 -4 19 C-4.99 18.34 -5.98 17.68 -7 17 C-7.5 14.0625 -7.5 14.0625 -7 11 C-5.33333333 10 -3.66666667 9 -2 8 C-1.74994614 4.95817107 -1.74994614 4.95817107 -2 2 C-1.34 1.34 -0.68 0.68 0 0 Z M2 10 C2.33 10.66 2.66 11.32 3 12 C3.33 11.34 3.66 10.68 4 10 C3.34 10 2.68 10 2 10 Z M-3 13 C-2.67 13.66 -2.34 14.32 -2 15 C-1.67 14.34 -1.34 13.68 -1 13 C-1.66 13 -2.32 13 -3 13 Z M-5 15 C-4 17 -4 17 -4 17 Z " fill="#585858" transform="translate(10,10)"/>
<path d="M0 0 C0.5745952 3.73486879 1 7.21293268 1 11 C0.01 10.67 -0.98 10.34 -2 10 C-3.89180758 9.62492382 -5.78821577 9.27266781 -7.6875 8.9375 C-8.68136719 8.76089844 -9.67523438 8.58429687 -10.69921875 8.40234375 C-11.45847656 8.26957031 -12.21773437 8.13679688 -13 8 C-10.01353231 6.00902154 -7.40312738 5.05875074 -4 4 C-4.62648438 3.97421875 -5.25296875 3.9484375 -5.8984375 3.921875 C-7.12433594 3.83679688 -7.12433594 3.83679688 -8.375 3.75 C-9.18710937 3.70359375 -9.99921875 3.6571875 -10.8359375 3.609375 C-13 3 -13 3 -14.2890625 0.953125 C-14.52367188 0.30859375 -14.75828125 -0.3359375 -15 -1 C-4.44191344 -2.51708428 -4.44191344 -2.51708428 0 0 Z " fill="#656565" transform="translate(31,10)"/>
<path d="M0 0 C0.99 0 1.98 0 3 0 C3.66 0.66 4.32 1.32 5 2 C7.67813399 2.02207488 7.67813399 2.02207488 10.625 1.625 C11.62789062 1.51414062 12.63078125 1.40328125 13.6640625 1.2890625 C14.43492188 1.19367187 15.20578125 1.09828125 16 1 C15 3 15 3 13.375 3.625 C10.2339425 4.12095645 7.17398169 4.06103811 4 4 C4 4.66 4 5.32 4 6 C5.35544922 6.07347656 5.35544922 6.07347656 6.73828125 6.1484375 C7.91777344 6.22320313 9.09726562 6.29796875 10.3125 6.375 C11.48425781 6.44460937 12.65601563 6.51421875 13.86328125 6.5859375 C17 7 17 7 20 9 C19 10 19 10 15.75 10.125 C12.66396211 10.02213207 9.98575886 9.72382033 7 9 C7 8.34 7 7.68 7 7 C6.34 7 5.68 7 5 7 C5 7.66 5 8.32 5 9 C3.35 9.33 1.7 9.66 0 10 C0.33 9.34 0.66 8.68 1 8 C-0.65 7.67 -2.3 7.34 -4 7 C-4 4 -4 4 -3 1 C-2.67 1.99 -2.34 2.98 -2 4 C-1.34 4 -0.68 4 0 4 C0 2.68 0 1.36 0 0 Z " fill="#404040" transform="translate(14,12)"/>
<path d="M0 0 C3.2578125 0.0234375 3.2578125 0.0234375 7.125 0.375 C8.40632813 0.48585938 9.68765625 0.59671875 11.0078125 0.7109375 C11.99523438 0.80632813 12.98265625 0.90171875 14 1 C12.35 2.32 10.7 3.64 9 5 C8.34 4.67 7.68 4.34 7 4 C7 3.34 7 2.68 7 2 C6.01 2 5.02 2 4 2 C4 3.32 4 4.64 4 6 C3 6 2 6 1 6 C2.32 6.66 3.64 7.32 5 8 C4.67 8.99 4.34 9.98 4 11 C1.5625 10.625 1.5625 10.625 -1 10 C-2.38125018 7.23749964 -2.19079306 5.05268901 -2 2 C-1.34 1.34 -0.68 0.68 0 0 Z " fill="#8E8E8E" transform="translate(10,10)"/>
<path d="M0 0 C0 1.32 0 2.64 0 4 C0.66 4 1.32 4 2 4 C1.67 4.99 1.34 5.98 1 7 C0.01 6.67 -0.98 6.34 -2 6 C-3.89180758 5.62492382 -5.78821577 5.27266781 -7.6875 4.9375 C-8.68136719 4.76089844 -9.67523437 4.58429687 -10.69921875 4.40234375 C-11.45847656 4.26957031 -12.21773437 4.13679688 -13 4 C-10.34531286 2.23020858 -8.92500069 1.57859829 -5.9375 0.875 C-5.24527344 0.70742187 -4.55304687 0.53984375 -3.83984375 0.3671875 C-2 0 -2 0 0 0 Z " fill="#707070" transform="translate(31,14)"/>
<path d="M0 0 C0.33 0 0.66 0 1 0 C1 1.98 1 3.96 1 6 C-0.98 6.33 -2.96 6.66 -5 7 C-5 6.34 -5 5.68 -5 5 C-4.34 4.67 -3.68 4.34 -3 4 C-7.455 3.01 -7.455 3.01 -12 2 C-8.12639055 1.03159764 -4.96098797 1 -1 1 C-0.67 0.67 -0.34 0.34 0 0 Z " fill="#939393" transform="translate(34,20)"/>
<path d="M0 0 C0.33 0 0.66 0 1 0 C1 1.65 1 3.3 1 5 C-0.32 4.67 -1.64 4.34 -3 4 C-3.33 4.66 -3.66 5.32 -4 6 C-6.0625 6.625 -6.0625 6.625 -8 7 C-7.67 5.35 -7.34 3.7 -7 2 C-6.030625 1.855625 -5.06125 1.71125 -4.0625 1.5625 C-1.13513227 1.32437659 -1.13513227 1.32437659 0 0 Z " fill="#A5A5A5" transform="translate(20,19)"/>
<path d="M0 0 C1.60379341 -0.05416188 3.20811406 -0.09286638 4.8125 -0.125 C5.70582031 -0.14820312 6.59914063 -0.17140625 7.51953125 -0.1953125 C10 0 10 0 13 2 C12 3 12 3 8.75 3.125 C5.66396211 3.02213207 2.98575886 2.72382033 0 2 C0 1.34 0 0.68 0 0 Z " fill="#2F2F2F" transform="translate(21,19)"/>
<path d="M0 0 C0.61875 0.928125 0.61875 0.928125 1.25 1.875 C3.05573879 4.06768281 4.4090534 4.92788417 7 6 C6.67 6.99 6.34 7.98 6 9 C3.5625 8.625 3.5625 8.625 1 8 C-0.35439668 5.29120665 -0.06501451 2.99066732 0 0 Z " fill="#989898" transform="translate(8,12)"/>
<path d="M0 0 C-2.55068845 2.35448165 -3.71017358 2.98327924 -7.25 3.1875 C-8.1575 3.125625 -9.065 3.06375 -10 3 C-10 2.34 -10 1.68 -10 1 C-6.78548731 -0.60725635 -3.56387464 -0.05748185 0 0 Z " fill="#191919" transform="translate(33,23)"/>
<path d="M0 0 C1.98 0.99 3.96 1.98 6 3 C6 3.99 6 4.98 6 6 C4.35 5.67 2.7 5.34 1 5 C1.33 4.01 1.66 3.02 2 2 C1.34 2 0.68 2 0 2 C0 1.34 0 0.68 0 0 Z " fill="#A5A5A5" transform="translate(4,23)"/>
</svg>
