<?xml version="1.0" encoding="UTF-8"?>
<!DOCTYPE svg PUBLIC "-//W3C//DTD SVG 1.1//EN" "http://www.w3.org/Graphics/SVG/1.1/DTD/svg11.dtd">
<svg xmlns="http://www.w3.org/2000/svg" version="1.1" width="37px" height="37px" style="shape-rendering:geometricPrecision; text-rendering:geometricPrecision; image-rendering:optimizeQuality; fill-rule:evenodd; clip-rule:evenodd" xmlns:xlink="http://www.w3.org/1999/xlink">
<g><path style="opacity:1" fill="#2c2c2c" d="M 25.5,14.5 C 20.6946,15.4872 15.6946,15.8205 10.5,15.5C 13.4783,11.5566 15.9783,7.22324 18,2.5C 20.2746,6.73244 22.7746,10.7324 25.5,14.5 Z M 17.5,10.5 C 20.4595,13.2714 20.1261,14.2714 16.5,13.5C 17.1272,12.5832 17.4606,11.5832 17.5,10.5 Z"/></g>
<g><path style="opacity:1" fill="#bebebe" d="M 25.5,14.5 C 26.0431,14.56 26.3764,14.8933 26.5,15.5C 21.0136,16.8147 15.6803,16.8147 10.5,15.5C 15.6946,15.8205 20.6946,15.4872 25.5,14.5 Z"/></g>
<g><path style="opacity:1" fill="#2f2f2f" d="M 16.5,30.5 C 11.3054,30.8205 6.30537,30.4872 1.5,29.5C 4.05853,26.0672 6.39186,22.4005 8.5,18.5C 11.1769,22.5286 13.8435,26.5286 16.5,30.5 Z M 9.5,26.5 C 9.41423,27.4959 9.74756,28.3292 10.5,29C 8.84254,29.7252 7.84254,29.2252 7.5,27.5C 8.16667,27.1667 8.83333,26.8333 9.5,26.5 Z"/></g>
<g><path style="opacity:1" fill="#353535" d="M 35.5,29.5 C 30.5,30.8333 25.5,30.8333 20.5,29.5C 23.0585,26.0672 25.3919,22.4005 27.5,18.5C 29.9884,21.4658 31.9884,24.7991 33.5,28.5C 33.9569,29.2975 34.6236,29.6309 35.5,29.5 Z M 27.5,26.5 C 29.6246,27.3676 29.7913,28.3676 28,29.5C 26.3167,28.8235 26.1501,27.8235 27.5,26.5 Z"/></g>
<g><path style="opacity:1" fill="#c9c9c9" d="M 9.5,26.5 C 8.83333,26.8333 8.16667,27.1667 7.5,27.5C 7.71073,25.5759 8.3774,25.2426 9.5,26.5 Z"/></g>
<g><path style="opacity:1" fill="#c0c0c0" d="M 1.5,29.5 C 6.30537,30.4872 11.3054,30.8205 16.5,30.5C 11.3197,31.8147 5.98642,31.8147 0.5,30.5C 0.62358,29.8933 0.956913,29.56 1.5,29.5 Z"/></g>
<g><path style="opacity:1" fill="#c3c3c3" d="M 20.5,29.5 C 25.5,30.8333 30.5,30.8333 35.5,29.5C 35.8333,29.5 36.1667,29.5 36.5,29.5C 36.5,30.1667 36.5,30.8333 36.5,31.5C 30.7945,31.8288 25.1278,31.4954 19.5,30.5C 19.6236,29.8933 19.9569,29.56 20.5,29.5 Z"/></g>
</svg>
