<?xml version="1.0" encoding="UTF-8"?>
<!DOCTYPE svg PUBLIC "-//W3C//DTD SVG 1.1//EN" "http://www.w3.org/Graphics/SVG/1.1/DTD/svg11.dtd">
<svg xmlns="http://www.w3.org/2000/svg" version="1.1" width="37px" height="37px" style="shape-rendering:geometricPrecision; text-rendering:geometricPrecision; image-rendering:optimizeQuality; fill-rule:evenodd; clip-rule:evenodd" xmlns:xlink="http://www.w3.org/1999/xlink">
<g><path style="opacity:1" fill="#292929" d="M 25.5,13.5 C 23.6028,14.8048 21.2695,15.4714 18.5,15.5C 15.7305,15.4714 13.3972,14.8048 11.5,13.5C 13.554,9.06137 15.8873,4.72803 18.5,0.5C 21.1127,4.72803 23.446,9.06137 25.5,13.5 Z M 17.5,9.5 C 23.3127,13.8198 22.6461,15.3198 15.5,14C 16.5822,12.6703 17.2488,11.1703 17.5,9.5 Z"/></g>
<g><path style="opacity:1" fill="#818181" d="M 11.5,13.5 C 13.3972,14.8048 15.7305,15.4714 18.5,15.5C 21.2695,15.4714 23.6028,14.8048 25.5,13.5C 26.4778,13.811 27.1445,14.4777 27.5,15.5C 24.0227,16.1672 20.6893,16.8339 17.5,17.5C 16.1667,17.5 14.8333,17.5 13.5,17.5C 12.2825,16.8386 10.9492,16.1719 9.5,15.5C 9.85549,14.4777 10.5222,13.811 11.5,13.5 Z"/></g>
<g><path style="opacity:1" fill="#b0b0b0" d="M 18.5,20.5 C 19.209,19.596 20.209,19.2627 21.5,19.5C 21.7373,20.791 21.404,21.791 20.5,22.5C 20.5,21.1667 19.8333,20.5 18.5,20.5 Z"/></g>
<g><path style="opacity:1" fill="#252525" d="M 13.5,17.5 C 14.8333,17.5 16.1667,17.5 17.5,17.5C 17.1596,19.5476 17.4929,20.5476 18.5,20.5C 19.8333,20.5 20.5,21.1667 20.5,22.5C 20.5858,23.4959 20.2524,24.3292 19.5,25C 17.9154,25.0848 16.5821,25.2514 15.5,25.5C 16.8333,25.8333 18.1667,26.1667 19.5,26.5C 22.3066,26.0983 24.9732,25.5983 27.5,25C 28.4231,27.0408 28.7564,29.2075 28.5,31.5C 21.8333,31.5 15.1667,31.5 8.5,31.5C 8.42074,28.7294 8.92074,26.0627 10,23.5C 11.8415,21.8409 13.0081,19.8409 13.5,17.5 Z"/></g>
<g><path style="opacity:1" fill="#1b1b1b" d="M 28.5,32.5 C 22.2504,34.4589 15.5837,35.1255 8.5,34.5C 14.7496,32.5411 21.4163,31.8745 28.5,32.5 Z"/></g>
<g><path style="opacity:1" fill="#a6a6a6" d="M 28.5,32.5 C 29.404,33.209 29.7373,34.209 29.5,35.5C 22.3134,35.8245 15.3134,35.4912 8.5,34.5C 15.5837,35.1255 22.2504,34.4589 28.5,32.5 Z"/></g>
</svg>
