<?xml version="1.0" encoding="UTF-8"?>
<!DOCTYPE svg PUBLIC "-//W3C//DTD SVG 1.1//EN" "http://www.w3.org/Graphics/SVG/1.1/DTD/svg11.dtd">
<svg xmlns="http://www.w3.org/2000/svg" version="1.1" width="37px" height="37px" style="shape-rendering:geometricPrecision; text-rendering:geometricPrecision; image-rendering:optimizeQuality; fill-rule:evenodd; clip-rule:evenodd" xmlns:xlink="http://www.w3.org/1999/xlink">
<g><path style="opacity:1" fill="#242424" d="M 15.5,8.5 C 13.7085,8.63404 12.0418,8.30071 10.5,7.5C 9.09699,4.96683 9.93032,3.30017 13,2.5C 14.1074,2.58524 15.1074,2.91858 16,3.5C 16.7796,5.38695 16.6129,7.05361 15.5,8.5 Z"/></g>
<g><path style="opacity:1" fill="#a5a5a5" d="M 18.5,8.5 C 19.5676,7.56552 20.901,7.23219 22.5,7.5C 22.7678,9.09903 22.4345,10.4324 21.5,11.5C 21.5,10.5 21.5,9.5 21.5,8.5C 20.5,8.5 19.5,8.5 18.5,8.5 Z"/></g>
<g><path style="opacity:1" fill="#707070" d="M 10.5,7.5 C 12.0418,8.30071 13.7085,8.63404 15.5,8.5C 15.1667,9.16667 14.8333,9.83333 14.5,10.5C 12.5648,9.85048 10.5648,9.51715 8.5,9.5C 9.16667,8.83333 9.83333,8.16667 10.5,7.5 Z"/></g>
<g><path style="opacity:1" fill="#1d1d1d" d="M 18.5,8.5 C 19.5,8.5 20.5,8.5 21.5,8.5C 21.5,9.5 21.5,10.5 21.5,11.5C 20.5717,15.8801 18.0717,17.2134 14,15.5C 12.8315,16.0085 11.9981,16.8419 11.5,18C 16.5,18.6667 21.5,18.6667 26.5,18C 28.0083,15.4077 30.0083,14.9077 32.5,16.5C 32.427,18.0269 33.0937,19.0269 34.5,19.5C 35.8028,22.1194 35.3028,24.4528 33,26.5C 22.5732,26.2466 12.0732,26.2466 1.5,26.5C 1.344,19.8116 3.67733,14.1449 8.5,9.5C 10.5648,9.51715 12.5648,9.85048 14.5,10.5C 16.3797,10.7709 17.713,10.1042 18.5,8.5 Z"/></g>
<g><path style="opacity:1" fill="#888888" d="M 32.5,16.5 C 33.9063,16.9731 34.573,17.9731 34.5,19.5C 33.0937,19.0269 32.427,18.0269 32.5,16.5 Z"/></g>
<g><path style="opacity:1" fill="#343434" d="M 4.5,27.5 C 14.8802,28.2103 25.2135,28.5436 35.5,28.5C 35.5,29.8333 35.5,31.1667 35.5,32.5C 24.1479,32.169 12.8146,32.169 1.5,32.5C 1.5,31.1667 1.5,29.8333 1.5,28.5C 2.79105,28.7373 3.79105,28.404 4.5,27.5 Z"/></g>
</svg>
