<?xml version="1.0" encoding="UTF-8"?>
<!DOCTYPE svg PUBLIC "-//W3C//DTD SVG 1.1//EN" "http://www.w3.org/Graphics/SVG/1.1/DTD/svg11.dtd">
<svg xmlns="http://www.w3.org/2000/svg" version="1.1" width="37px" height="37px" style="shape-rendering:geometricPrecision; text-rendering:geometricPrecision; image-rendering:optimizeQuality; fill-rule:evenodd; clip-rule:evenodd" xmlns:xlink="http://www.w3.org/1999/xlink">
<g><path style="opacity:1" fill="#434343" d="M 22.5,15.5 C 21.8333,15.1667 21.1667,14.8333 20.5,14.5C 19.1422,5.65127 14.8089,3.65127 7.5,8.5C 7.5,7.16667 6.83333,6.5 5.5,6.5C 11.2505,0.96643 16.7505,1.29976 22,7.5C 22.4974,10.146 22.6641,12.8127 22.5,15.5 Z"/></g>
<g><path style="opacity:1" fill="#3b3b3b" d="M 5.5,6.5 C 6.83333,6.5 7.5,7.16667 7.5,8.5C 6.63137,10.717 6.29803,13.0504 6.5,15.5C 6.5,16.8333 5.83333,17.5 4.5,17.5C 3.04501,13.6815 3.37834,10.0148 5.5,6.5 Z"/></g>
<g><path style="opacity:1" fill="#5c5c5c" d="M 6.5,15.5 C 7.5,17.1667 8.83333,18.5 10.5,19.5C 8.30228,19.4088 7.96895,20.0755 9.5,21.5C 7.25124,20.9202 5.58457,19.5869 4.5,17.5C 5.83333,17.5 6.5,16.8333 6.5,15.5 Z"/></g>
<g><path style="opacity:1" fill="#3c3c3c" d="M 20.5,14.5 C 21.1667,14.8333 21.8333,15.1667 22.5,15.5C 22.6716,16.4916 22.3382,17.1583 21.5,17.5C 19.8333,18.5 18.5,19.8333 17.5,21.5C 14.8333,22.8333 12.1667,22.8333 9.5,21.5C 7.96895,20.0755 8.30228,19.4088 10.5,19.5C 15.2189,20.4199 18.5522,18.7532 20.5,14.5 Z"/></g>
<g><path style="opacity:1" fill="#676767" d="M 21.5,17.5 C 22.1667,18.8333 22.8333,20.1667 23.5,21.5C 22.0937,21.9731 21.427,22.9731 21.5,24.5C 20.7638,22.7706 19.4305,21.7706 17.5,21.5C 18.5,19.8333 19.8333,18.5 21.5,17.5 Z"/></g>
<g><path style="opacity:1" fill="#363636" d="M 23.5,21.5 C 26.8306,24.3054 29.8306,27.4721 32.5,31C 31.5342,32.6779 30.2009,33.3446 28.5,33C 26.2779,30.0438 23.9446,27.2105 21.5,24.5C 21.427,22.9731 22.0937,21.9731 23.5,21.5 Z"/></g>
</svg>
