<?xml version="1.0" encoding="UTF-8"?>
<svg version="1.1" xmlns="http://www.w3.org/2000/svg" width="37" height="37">
<path d="M0 0 C3.3 0.33 6.6 0.66 10 1 C10 3.31 10 5.62 10 8 C7.36 7.67 4.72 7.34 2 7 C2.34623972 9.88533097 2.58587016 11.51531412 4 14 C6.52838798 15.85443026 9.0990448 17.29908124 11.8828125 18.73828125 C12.58148438 19.15464844 13.28015625 19.57101563 14 20 C14 20.66 14 21.32 14 22 C13.01 22 12.02 22 11 22 C11 25.63 11 29.26 11 33 C7.7 33 4.4 33 1 33 C1 30.03 1 27.06 1 24 C-0.65 24 -2.3 24 -4 24 C-4 27.3 -4 30.6 -4 34 C-7.3 34 -10.6 34 -14 34 C-14 30.04 -14 26.08 -14 22 C-14.99 22 -15.98 22 -17 22 C-17 21.34 -17 20.68 -17 20 C-14.75849376 18.3595846 -12.5321169 16.85337913 -10.1875 15.375 C-9.22360352 14.74464844 -9.22360352 14.74464844 -8.24023438 14.1015625 C-3.38145546 11 -3.38145546 11 0 11 C0 7.37 0 3.74 0 0 Z " fill="#212121" transform="translate(20,2)"/>
</svg>
