<?xml version="1.0" encoding="UTF-8"?>
<svg version="1.1" xmlns="http://www.w3.org/2000/svg" width="37" height="37">
<path d="M0 0 C5.81441577 4.93344368 10.95980479 12.07936024 12.55078125 19.60546875 C12.69516885 24.14227898 11.94032753 27.40626635 9 31 C4.55599734 33.96266844 0.21098923 33.76945894 -5 33 C-8.2487611 30.53094156 -10.66805929 28.2826526 -11.27124023 24.13476562 C-11.56424722 17.59548025 -9.72953253 13.80293926 -6.0625 8.5 C-5.59392578 7.78585938 -5.12535156 7.07171875 -4.64257812 6.3359375 C-1.34598214 1.34598214 -1.34598214 1.34598214 0 0 Z " fill="#161616" transform="translate(18,2)"/>
<path d="M0 0 C0.99 0.33 1.98 0.66 3 1 C3.12375 1.639375 3.2475 2.27875 3.375 2.9375 C3.684375 3.9584375 3.684375 3.9584375 4 5 C6.49034386 6.29660434 6.49034386 6.29660434 9 7 C9 7.99 9 8.98 9 10 C5.74952319 10.36116409 4.41238939 10.30929204 1.75 8.3125 C-0.16277808 5.78490039 -0.74550432 4.13878011 -1 1 C-0.67 0.67 -0.34 0.34 0 0 Z " fill="#E7E7E7" transform="translate(11,22)"/>
</svg>
