<svg width="99" height="71" viewBox="0 0 99 71" fill="none" xmlns="http://www.w3.org/2000/svg">
<path d="M98.3807 54.5556C98.5317 53.8008 98.5317 53.0459 98.5317 52.291C98.5317 52.291 98.5317 52.291 98.3807 52.291C98.3807 53.0459 98.3807 53.8008 98.3807 54.5556Z" fill="#A6BECF"/>
<path d="M31.0458 2.16748C29.687 2.16748 28.3282 2.31846 26.9695 2.62041C25.4597 2.77138 24.1009 3.22431 22.5912 3.37528C22.4402 3.37528 22.1383 3.52626 21.9873 3.52626C22.1383 4.73406 22.2892 5.94186 22.4402 7.30064C22.7422 9.56527 22.7422 11.8299 22.8931 14.0945C23.0441 16.6611 22.7422 19.2277 22.4402 21.7943C22.4402 21.9452 22.4402 22.2472 22.2892 22.3982C21.6853 23.304 21.8363 24.3608 21.5344 25.4177C21.3834 26.1725 21.2324 26.9274 20.9305 27.6823C20.1756 29.7959 19.2697 31.9096 17.911 33.8723C15.6463 37.3447 12.6268 39.9113 8.70147 41.572C6.88977 42.3269 5.07806 42.6288 3.26636 42.4779C2.66246 42.4779 2.05856 42.3269 1.75661 41.723C1.45466 42.3269 1.30369 43.0818 1.15271 43.8366C1.30369 43.8366 1.45466 43.8366 1.60564 43.8366C2.81344 43.8366 4.02124 44.1386 5.22904 44.4405C6.88977 44.8935 8.39952 45.4974 9.7583 46.2522C11.1171 47.0071 12.4759 47.762 13.8346 48.5169C15.1934 49.2717 16.5522 50.0266 17.911 50.7815C18.6658 51.0834 19.2697 51.6873 20.0246 51.9893C20.6285 52.2912 21.2324 52.4422 21.6853 52.8951C22.5912 53.499 23.497 53.801 24.4029 54.2539C25.6107 55.0088 26.9695 55.4617 28.3282 55.7637C29.3851 56.0656 30.5929 56.3676 31.4987 56.9715C32.4046 57.2734 33.3104 57.2734 34.2163 57.4244C35.2731 57.5754 36.3299 57.7264 37.5377 57.8773C39.0475 58.0283 40.5572 58.3303 41.916 58.4812C43.7277 58.7832 45.6904 59.0851 47.5021 59.3871C48.8609 59.5381 50.0687 59.84 51.4275 59.991C53.2392 60.2929 55.2018 60.5949 57.0135 60.8968C58.5233 61.0478 60.033 61.3498 61.6938 61.5007C61.8447 61.5007 61.9957 61.5007 61.9957 61.1988C62.1467 59.991 62.4486 58.7832 63.0525 57.7264C64.7133 54.5559 67.4308 52.8951 70.9033 51.9893C72.8659 51.5364 74.8286 51.3854 76.9423 51.5364C79.2069 51.8383 81.4715 51.8383 83.8871 51.6873C85.6988 51.5364 87.3596 51.2344 88.8693 50.4795C90.2281 49.7247 91.1339 48.6678 91.4359 47.1581C91.7378 46.1013 91.7378 45.0444 91.7378 43.9876C90.3791 43.8366 89.0203 43.5347 87.5105 43.3837C86.0008 43.0818 84.491 42.7798 82.8303 42.3269C81.1696 42.0249 79.3579 41.572 77.6971 41.1191C77.2442 40.9681 76.9423 40.8171 76.4893 40.8171C76.3384 41.572 75.8854 42.0249 75.2815 42.4779C74.0737 43.2327 72.715 43.6857 71.2052 43.8366C69.3935 43.9876 67.5818 44.1386 65.7701 43.9876C64.2603 43.8366 62.5996 43.5347 61.0899 43.0818C61.0899 43.0818 60.9389 43.0818 60.9389 43.2327C60.033 44.4405 58.6743 44.5915 57.4665 44.1386C56.1077 43.5347 55.5038 42.4779 55.8057 40.9681C55.9567 40.5152 56.1077 40.0623 56.2587 39.4584C56.1077 39.0054 55.9567 38.7035 55.9567 38.2505C55.8057 37.6466 55.9567 37.1937 55.9567 36.5898C55.5038 36.4389 55.0509 36.1369 54.7489 35.8349C54.447 35.9859 54.296 35.9859 53.994 36.1369C52.9372 36.4389 52.0314 36.7408 50.9745 36.7408C50.8236 36.8918 50.8236 36.8918 50.6726 37.0428C50.0687 37.7976 49.3138 38.2505 48.4079 38.2505C46.1433 38.0996 44.6336 35.9859 45.9923 33.7213C46.2943 33.1174 46.7472 32.6645 47.0492 32.2115C47.0492 32.0606 47.0492 31.9096 47.0492 31.7586C46.8982 31.0037 47.2001 30.2489 47.3511 29.494C46.5962 28.4372 45.6904 27.5313 45.0865 26.4745C44.9355 26.4745 44.7845 26.4745 44.7845 26.3235C44.6336 26.6255 44.3316 26.7764 44.1806 27.0784C43.1238 28.1352 41.916 28.5881 40.5572 27.9842C39.5004 27.3803 38.4436 25.8706 38.8965 24.6628C39.1985 23.9079 39.6514 23.455 40.2553 22.8511C40.7082 22.3982 41.3121 22.2472 41.765 21.9452C41.765 21.6433 41.916 21.1904 41.916 20.8884L41.765 20.7374C41.3121 19.5296 40.7082 18.4728 40.2553 17.265C39.8024 17.114 39.3494 17.416 38.8965 17.114C38.2926 17.567 37.6887 18.1709 36.9338 18.4728C35.877 18.9257 34.9712 18.9257 34.0653 18.3218C33.1595 17.7179 32.8575 16.8121 32.7065 15.7552C32.5556 14.3965 33.9143 13.3396 34.6692 12.8867C34.8202 12.8867 34.8202 12.8867 34.9712 12.8867C35.5751 12.7357 36.3299 12.7357 36.9338 12.5848C37.0848 11.8299 37.2358 11.226 37.3868 10.6221C37.5377 10.3201 37.3868 10.3201 37.2358 10.4711C36.6319 10.6221 36.028 10.7731 35.4241 10.924C34.0653 11.226 32.5556 10.6221 31.8007 9.41429C30.5929 8.96136 29.838 8.20649 29.989 6.84771C29.989 6.09284 30.2909 5.48894 30.8948 4.88503C30.7439 3.82821 30.8948 2.92236 31.0458 2.16748Z" fill="#8A6D57"/>
<path d="M91.5869 43.9874C91.5869 45.0442 91.5869 46.101 91.2849 47.1579C90.983 48.6676 90.0771 49.7244 88.7184 50.4793C87.2086 51.3852 85.3969 51.6871 83.7362 51.6871C81.4715 51.8381 79.2069 51.8381 76.7913 51.5361C74.8286 51.3852 72.715 51.5361 70.7523 51.9891C67.4309 52.7439 64.7133 54.5556 62.9016 57.7261C62.2977 58.7829 61.9957 59.9907 61.8448 61.1985C61.8448 61.5005 61.6938 61.5005 61.5428 61.5005C60.0331 61.3495 58.5233 61.0476 56.8626 60.8966C55.0509 60.5946 53.0882 60.2927 51.2765 59.9907C49.9177 59.8398 48.7099 59.5378 47.3512 59.3868C45.5395 59.0849 43.5768 58.7829 41.7651 58.481C40.2553 58.179 38.7456 58.0281 37.3868 57.8771C36.33 57.7261 35.2731 57.5751 34.0653 57.4242C33.1595 57.2732 32.2536 57.2732 31.3478 56.9712C30.8949 56.9712 30.4419 56.9712 29.989 56.9712C28.6302 56.8203 27.4224 56.6693 26.0636 56.5183C24.7049 56.3673 23.1951 56.3673 21.8363 56.2164C20.6285 56.0654 19.4207 56.2164 18.2129 55.9144C17.609 55.7634 16.8542 55.9144 16.0993 55.7634C15.1934 55.6125 14.4386 55.3105 13.5327 55.3105C11.721 55.3105 10.0603 55.0086 8.39955 54.8576C5.682 54.5556 3.11542 54.1027 0.548838 53.4988C0.397863 55.4615 0.246888 57.5751 0.397863 59.5378C0.548838 60.5946 0.548838 61.6515 0.850788 62.8593C1.00176 63.9161 1.30371 64.9729 1.90762 65.8788C2.05859 66.1807 2.51152 66.4827 2.81347 66.6337C3.26639 66.7846 3.71932 66.9356 4.32322 67.0866C4.62517 67.0866 4.77614 67.0866 4.77614 66.7846C4.77614 66.4827 4.77614 66.0298 4.77614 65.7278C4.77614 65.5768 4.77614 65.4258 5.07809 65.4258C5.38004 65.4258 5.38005 65.5768 5.38005 65.7278C5.38005 66.1807 5.38005 66.4827 5.38005 66.9356C5.38005 67.2376 5.38004 67.3885 5.682 67.3885C6.73882 67.5395 7.79565 67.6905 8.7015 67.8415H8.85247C9.60735 67.9924 9.60735 67.9924 9.60735 67.0866C9.60735 66.7846 9.60735 66.3317 9.60735 66.0298C9.60735 65.7278 9.75833 65.7278 9.9093 65.7278C10.5132 65.8788 10.9661 65.8788 11.57 66.0298C11.721 66.0298 11.721 66.1807 11.721 66.3317C11.721 66.7846 11.721 67.2376 11.721 67.6905C11.721 68.1434 11.872 68.2944 12.1739 68.2944C12.7778 68.2944 13.5327 68.4454 14.1366 68.4454C16.2503 68.5963 18.3639 68.5963 20.4776 68.7473C20.9305 68.7473 21.0815 68.5963 21.0815 68.1434C21.0815 67.6905 20.9305 67.2376 21.0815 66.9356C21.2324 66.7846 21.8363 66.9356 22.2893 66.9356C23.1951 66.9356 24.101 66.9356 25.1578 66.9356C25.4597 66.9356 25.6107 66.9356 25.4597 67.2376C25.4597 67.5395 25.4597 67.9924 25.4597 68.2944C25.4597 68.5963 25.6107 68.7473 25.9127 68.7473C27.8754 68.7473 29.6871 68.8983 31.6497 68.7473C32.8575 68.7473 33.9144 68.2944 34.9712 67.8415C36.179 67.3885 37.2358 67.0866 38.4436 66.9356C39.0475 66.9356 39.6514 67.0866 40.2553 67.0866C40.8592 67.2376 41.4631 67.2376 42.067 67.2376C42.369 67.2376 42.5199 67.0866 42.5199 66.7846C42.5199 66.4827 42.5199 66.1807 42.5199 66.0298C42.6709 65.8788 42.9729 66.0298 43.1238 66.0298C43.5768 66.0298 44.0297 66.1807 44.4826 66.3317C44.6336 66.3317 44.6336 66.4827 44.6336 66.4827C44.6336 66.6337 44.6336 66.6337 44.6336 66.7846C44.6336 67.6905 44.6336 67.6905 45.5394 67.8415C46.8982 67.9924 48.257 68.2944 49.6158 68.5963C50.6726 68.7473 51.7294 68.8983 52.7863 69.0493C53.0882 69.0493 53.0882 68.8983 53.0882 68.7473C53.0882 68.5963 53.0882 68.2944 53.0882 68.1434C53.0882 67.8415 53.2392 67.8415 53.5411 67.8415C54.598 67.8415 55.6548 67.9924 56.7116 68.1434C56.8626 68.1434 57.0136 68.2944 57.0136 68.4454C57.0136 68.7473 57.0136 69.0493 57.0136 69.5022C57.0136 69.8041 57.1645 69.8041 57.3155 69.8041C59.2782 70.1061 61.0899 70.2571 63.0526 70.2571C64.4113 70.2571 65.9211 70.408 67.2799 70.408C67.5818 70.408 67.7328 70.2571 67.7328 69.9551C67.7328 69.9551 67.7328 69.9551 67.7328 69.8041C67.7328 68.8983 67.7328 68.8983 68.7896 68.7473C70.6013 68.7473 72.413 68.5963 74.2247 68.5963C74.5267 68.5963 74.6777 68.5963 74.6777 68.8983C74.6777 69.3512 74.6777 69.3512 75.2816 69.3512C77.2442 69.0493 79.2069 68.5963 81.1696 68.2944C81.4715 68.2944 81.9245 68.1434 82.2264 67.9924C82.5284 67.9924 82.6794 67.8415 82.5284 67.5395C82.5284 67.3885 82.5284 67.2376 82.8303 67.2376C83.4342 67.0866 84.0381 66.9356 84.642 66.6337C84.944 66.4827 84.944 66.6337 84.944 66.7846C84.944 67.2376 85.095 67.2376 85.5479 67.0866C86.7557 66.7846 87.9635 66.3317 89.0203 65.8788C90.2281 65.2749 91.5869 64.671 92.6437 63.9161C92.7947 63.7651 92.9457 63.6142 93.2476 63.6142C94.9083 62.7083 95.8142 61.1985 96.72 59.6888C97.3239 58.632 97.6259 57.4242 97.9278 56.0654C98.0788 55.6125 98.0788 55.0086 98.0788 54.4047C98.0788 53.6498 98.0788 52.8949 98.0788 52.14C97.9278 51.0832 97.9278 50.0264 97.6259 48.9696C97.173 47.3088 96.72 45.6481 95.2103 44.4403C94.3044 43.6854 93.3986 43.5344 92.3418 43.6854C92.3418 43.8364 91.8888 43.9874 91.5869 43.9874Z" fill="#5A432D"/>
<path d="M1.75664 41.7229C2.20956 42.1758 2.66249 42.3268 3.26639 42.4777C5.22907 42.6287 7.04077 42.3268 8.7015 41.5719C12.6269 40.0621 15.6464 37.3446 17.911 33.8721C19.2698 31.9095 20.1756 29.9468 20.9305 27.6822C21.2324 26.9273 21.2324 26.1724 21.5344 25.4175C21.8363 24.3607 21.6854 23.3039 22.2893 22.398C22.4402 22.247 22.2893 21.9451 22.4402 21.7941C22.7422 19.2275 23.0441 16.661 22.8932 14.0944C22.7422 11.8298 22.7422 9.56513 22.4402 7.3005C22.2893 6.0927 22.1383 4.73392 21.9873 3.52612C20.7795 3.82807 19.5717 3.97905 18.3639 4.281C17.0051 4.58295 15.4954 4.8849 14.1366 5.18685C12.4759 5.4888 10.8151 5.79075 9.15442 6.0927C7.4937 6.39465 5.98394 6.6966 4.32321 6.84758C2.81346 6.99855 1.90761 8.05538 1.60566 9.56513C1.00176 12.4337 1.30371 15.1512 1.45469 18.0197C1.60566 19.6805 1.60566 21.4922 1.90761 23.1529C2.05859 24.9646 2.20956 26.6253 2.20956 28.437C2.20956 29.3429 2.36054 30.3997 2.36054 31.4565C2.36054 33.5702 2.36054 35.8348 2.20956 37.9485C2.05859 39.3073 1.90761 40.5151 1.75664 41.7229Z" fill="#5A432D"/>
<path d="M0.850704 53.3477C3.41728 53.9516 6.13484 54.4045 8.70142 54.7065C10.3621 55.0084 12.1738 55.1594 13.8346 55.1594C14.7404 55.1594 15.4953 55.4614 16.4012 55.6123C17.0051 55.7633 17.7599 55.6123 18.5148 55.7633C19.7226 55.9143 20.9304 55.9143 22.1382 56.0653C23.497 56.2162 25.0067 56.2162 26.3655 56.3672C27.7243 56.5182 28.9321 56.6692 30.2909 56.8201C30.7438 56.8201 31.1967 56.8201 31.6496 56.8201C30.5928 56.2162 29.536 56.0653 28.4792 55.6123C27.1204 55.1594 25.7616 54.7065 24.5538 54.1026C23.648 53.6497 22.7421 53.1967 21.8363 52.7438C21.3833 52.4419 20.7794 52.1399 20.1755 51.838C19.4207 51.536 18.8168 51.0831 18.0619 50.6302C16.7031 49.8753 15.3443 49.1204 13.9855 48.3655C12.6268 47.6107 11.268 46.8558 9.90922 46.1009C8.39947 45.346 6.88971 44.7421 5.37996 44.2892C4.17216 43.9872 2.96436 43.6853 1.75655 43.6853C1.60558 43.6853 1.4546 43.6853 1.30363 43.6853C1.00168 44.8931 0.699729 46.2519 0.548754 47.4597C0.397779 48.9694 0.397778 50.4792 0.699729 51.9889C0.699729 52.5928 0.699729 52.8948 0.850704 53.3477Z" fill="#C49A6C"/>
<path d="M60.335 29.9469C59.4292 29.041 58.6743 28.1352 57.7685 27.0783C56.5607 25.8705 55.5038 24.5118 54.296 23.304C54.145 23.304 54.145 23.4549 53.9941 23.4549C52.9372 24.2098 52.0314 25.1157 51.2765 26.1725C50.3707 27.3803 49.6158 28.7391 49.3138 30.3998C49.4648 30.3998 49.6158 30.2488 49.7668 30.2488C50.9746 29.6449 51.7294 29.9469 52.0314 31.0037C52.0314 31.1547 52.0314 31.3056 52.0314 31.4566C52.0314 32.2115 52.0314 32.8154 52.0314 33.5703C52.0314 33.7212 52.1824 33.8722 52.3333 33.8722C52.4843 34.0232 52.6353 34.0232 52.6353 34.1742C53.2392 34.0232 53.8431 33.8722 54.296 33.5703C56.4097 32.6644 58.3724 31.3056 60.335 29.9469Z" fill="#C49A6C"/>
<path d="M74.5266 40.2133C72.8659 39.6094 71.3562 38.7035 69.8464 37.7976C68.3367 36.8918 66.9779 35.835 65.6191 34.7781C64.4113 33.7213 63.0525 32.6645 61.9957 31.6077H61.8447C60.6369 32.3625 59.7311 33.4194 58.9762 34.6272C58.5233 35.382 58.2213 36.1369 58.2213 37.0428C58.6742 36.5898 59.1272 36.2879 59.5801 35.9859C60.335 35.533 60.9389 35.684 61.3918 36.4389C61.5428 36.7408 61.6937 37.0428 61.6937 37.1937C61.8447 37.7977 61.8447 38.4015 61.9957 39.0054C62.7506 39.1564 63.3545 39.3074 64.1093 39.6094C66.072 40.2133 68.0347 40.5152 70.1484 40.6662C71.5071 40.8172 73.0169 40.8172 74.3757 40.8172C74.3757 40.5152 74.3757 40.3642 74.5266 40.2133Z" fill="#C49A6C"/>
<path d="M52.7863 21.7939C51.8804 20.7371 50.9746 19.6803 50.0687 18.6235C49.0119 17.4156 47.9551 16.2078 46.8983 14.8491C46.7473 14.6981 46.7473 14.6981 46.5963 14.5471C46.2944 15 45.9924 15.453 45.6905 16.0569C44.7846 17.5666 44.0297 19.2274 43.7278 21.0391C44.0297 21.0391 44.3317 20.8881 44.7846 20.8881C45.9924 20.8881 46.5963 21.341 46.2944 22.5488C46.1434 23.0017 45.9924 23.6056 45.8414 24.0586C46.4453 24.0586 47.0492 23.9076 47.6531 23.7566C48.559 23.4547 49.4648 23.1527 50.3707 22.8508C51.1256 22.5488 52.0314 22.2469 52.7863 21.7939Z" fill="#C49A6C"/>
<path d="M52.7864 21.794C51.8806 22.2469 51.1257 22.6999 50.2198 23.0018C49.314 23.3038 48.4081 23.6057 47.5023 23.9077C46.8984 24.0586 46.2945 24.2096 45.6906 24.2096C45.3886 24.9645 44.9357 25.5684 44.4828 26.1723C44.6338 26.1723 44.7847 26.1723 44.7847 26.3233C46.2945 26.3233 47.8042 25.8703 49.465 25.4174C49.163 25.8703 48.7101 26.4742 48.4081 26.9272C47.8042 27.682 47.5023 28.5879 47.2003 29.4937C47.0494 30.2486 46.8984 31.0035 46.8984 31.7584C46.8984 31.9093 46.8984 32.0603 46.8984 32.2113C47.6533 31.6074 48.2572 31.0035 49.012 30.5506C49.314 29.0408 50.0689 27.682 50.9747 26.3233C51.7296 25.2664 52.6354 24.3606 53.6923 23.6057C53.8432 23.4547 53.8432 23.4547 53.9942 23.4547C53.9942 23.3038 53.9942 23.3038 54.1452 23.1528C54.4472 22.8508 54.5981 22.3979 54.2962 22.096C53.8433 21.643 53.5413 21.3411 53.0884 21.643C53.2394 21.643 53.0884 21.794 52.7864 21.794Z" fill="#3C2415"/>
<path d="M58.0704 37.0426C58.0704 36.1368 58.5234 35.3819 58.8253 34.627C59.5802 33.4192 60.4861 32.3624 61.6939 31.6075H61.8448C61.8448 31.4566 61.8448 31.4566 61.9958 31.3056C62.2977 30.8527 62.2978 30.3997 62.1468 30.0978C61.8448 29.7958 61.2409 29.6449 60.788 29.9468C60.637 30.0978 60.486 30.0978 60.3351 30.0978C58.3724 31.4566 56.4097 32.8153 54.1451 33.8722C53.5412 34.1741 53.0883 34.3251 52.4844 34.4761C52.3334 34.627 52.0314 34.627 51.7295 34.778C51.5785 35.5329 51.2766 36.1368 50.9746 36.8917C52.0314 36.8917 53.0883 36.5897 53.9941 36.2878C54.2961 36.1368 54.447 36.1368 54.749 35.9858C55.3529 35.6839 55.8058 35.3819 56.4097 35.08C56.2587 35.6839 56.1078 36.1368 55.9568 36.7407C55.9568 37.3446 55.9568 37.7975 55.9568 38.4014C55.9568 38.8544 56.1078 39.1563 56.2587 39.6092C56.8626 38.5524 57.4665 37.6465 58.0704 37.0426Z" fill="#3C2415"/>
<path d="M74.5268 40.2132C74.3758 40.3642 74.3758 40.6661 74.0738 40.6661C73.7719 40.9681 73.319 41.27 72.866 41.421C71.5073 41.8739 69.9975 42.0249 68.4878 42.0249C67.28 42.0249 65.9212 41.8739 64.7134 41.723C63.6565 41.572 62.7507 41.421 61.6939 40.9681C61.6939 41.723 61.3919 42.3269 61.09 42.9308C62.5997 43.5347 64.1095 43.6856 65.7702 43.8366C67.5819 43.9876 69.3936 43.9876 71.2053 43.6856C72.7151 43.5347 73.9229 43.0817 75.2816 42.3269C75.8855 42.0249 76.3385 41.421 76.4894 40.6661C76.4894 40.3642 76.4894 40.2132 76.3385 39.9113C76.1875 39.4583 75.2816 39.1564 74.8287 39.6093C74.5268 39.9113 74.8287 40.2132 74.5268 40.2132Z" fill="#3C2415"/>
<path d="M43.7277 21.0394C44.0296 19.2277 44.7845 17.5669 45.6903 16.0572C45.9923 15.6043 46.2942 15.1513 46.5962 14.5474C46.5962 14.2455 46.7472 14.0945 46.8981 13.9435C47.0491 13.4906 47.0491 13.0377 46.7472 12.7357C46.4452 12.4338 45.9923 12.4338 45.5394 12.7357C45.3884 12.8867 45.2374 12.8867 45.0864 12.8867C43.7277 13.7926 42.2179 14.3965 40.5572 14.8494C40.1043 15.6043 39.5004 16.2082 38.7455 16.963C39.1984 17.265 39.6513 16.963 40.1043 17.114C41.3121 16.963 42.3689 16.5101 43.5767 16.0572C43.5767 16.2082 43.4257 16.3591 43.4257 16.5101C42.9728 17.265 42.6708 18.1708 42.3689 18.9257C42.0669 19.5296 42.0669 20.1335 41.765 20.7374C41.765 21.0394 41.614 21.4923 41.614 21.7943C42.3689 21.4923 42.9728 21.3413 43.7277 21.0394Z" fill="#3C2415"/>
<path d="M31.6498 9.11233C32.4047 10.3201 34.0654 10.924 35.2732 10.6221C35.8771 10.4711 36.481 10.3201 37.0849 10.1692C37.2359 10.1692 37.3868 10.1692 37.2359 10.3201C37.0849 10.924 36.9339 11.6789 36.9339 12.2828C37.5378 12.4338 38.1417 12.2828 38.8966 12.2828C38.8966 11.8299 39.1985 11.226 39.3495 10.7731C39.8024 9.71623 40.4063 8.81037 41.0102 7.90452C41.0102 7.75355 41.1612 7.60257 41.3122 7.4516C41.6141 6.99867 41.4632 6.54575 41.1612 6.2438C40.8593 5.94185 40.4063 5.94185 40.1044 6.09282C39.9534 6.2438 39.8024 6.39477 39.6515 6.2438C39.6515 6.2438 39.5005 6.2438 39.5005 6.39477C38.8966 6.8477 38.2927 7.30062 37.5378 7.60257C36.9339 8.0555 36.33 8.20647 35.7261 8.35745C35.2732 8.96135 34.6693 9.11233 33.9144 9.11233C33.0086 9.41428 32.2537 9.2633 31.6498 9.11233Z" fill="#3C2415"/>
<path d="M40.8591 8.05566C40.2552 8.96152 39.6513 9.86737 39.1984 10.9242C39.0474 11.3771 38.7455 11.83 38.7455 12.4339C38.8965 12.4339 38.8965 12.5849 39.0474 12.5849C39.5004 12.5849 39.8023 12.7359 40.2552 12.8869C40.7082 13.0378 41.0101 13.3398 41.0101 13.9437C41.0101 14.3966 40.7082 14.6986 40.7082 15.0005C42.3689 14.5476 43.8786 13.9437 45.2374 13.0378C44.7845 12.4339 44.1806 11.83 43.7277 11.2261C42.6708 10.0183 41.765 8.96152 40.8591 8.05566Z" fill="#C49A6C"/>
<path d="M31.046 2.16736C30.895 2.92224 30.744 3.67711 30.744 4.58296C31.3479 4.28101 32.1028 3.97906 32.8577 3.82809C33.0086 3.37516 33.0086 2.92223 33.1596 2.46931C33.3106 2.31833 33.3106 2.16736 33.6125 2.31833C34.2164 2.46931 34.8203 2.62029 35.4243 2.77126C35.4243 2.01638 35.4243 1.26151 34.8204 0.657607C33.7635 -0.399219 32.5557 -0.0972693 31.8008 0.959557C31.4989 1.26151 31.3479 1.56346 31.1969 2.01638C31.1969 2.16736 31.1969 2.16736 31.046 2.16736Z" fill="#3C2415"/>
<path d="M35.424 2.62041C34.8201 2.46943 34.2162 2.31846 33.6123 2.16748C33.4613 2.16748 33.3103 2.16748 33.1594 2.31846C33.0084 2.77138 32.8574 3.22431 32.8574 3.67723C33.3103 3.67723 33.7633 3.67723 34.2162 3.67723C34.8201 3.67723 35.424 4.13016 35.575 4.73406C35.8769 5.94186 35.8769 7.14966 35.424 8.20649C36.0279 8.05551 36.7828 7.90454 37.2357 7.45161C37.2357 6.84771 36.9338 6.39479 36.9338 5.79089C36.7828 4.88504 36.4808 3.97918 36.4808 3.07333C36.1789 3.07333 35.726 2.92236 35.424 2.62041Z" fill="#8A6D57"/>
<path d="M36.481 3.37524C36.481 4.2811 36.7829 5.18695 36.9339 6.0928C37.0849 6.6967 37.2358 7.14962 37.2358 7.75352C37.9907 7.45157 38.5946 6.99865 39.1985 6.54572C39.1985 6.54572 39.3495 6.54572 39.3495 6.39475C39.0475 5.79085 38.5946 5.33792 38.1417 4.885C37.6888 4.43207 37.2358 3.82817 36.481 3.37524Z" fill="#C49A6C"/>
<path d="M35.4241 8.50802C35.877 7.30021 35.877 6.24339 35.5751 5.03559C35.4241 4.43169 34.8202 3.97876 34.2163 3.97876C33.7634 3.97876 33.3104 3.97876 32.8575 3.97876C32.1026 3.97876 31.4987 4.28071 30.7439 4.73364C30.14 5.33754 29.838 5.94144 29.838 6.69631C29.838 8.05509 30.5929 8.80997 31.6497 9.26289C32.2536 9.41387 32.8575 9.56484 33.4614 9.56484C34.3673 9.26289 34.9712 9.11192 35.4241 8.50802Z" fill="#5A432D"/>
<path d="M61.0899 43.0816C60.184 44.2894 58.8252 44.4403 57.6174 43.9874C56.2586 43.3835 55.6547 42.3267 55.9567 40.8169C56.1077 40.364 56.2586 39.9111 56.4096 39.3072C56.8626 38.4013 57.4664 37.6465 58.0703 37.0426C58.5233 36.5896 58.9762 36.2877 59.4291 35.9857C60.184 35.5328 60.7879 35.6838 61.2408 36.4387C61.3918 36.7406 61.5428 37.0426 61.5428 37.1935C61.6938 37.7974 61.6938 38.4013 61.8447 39.0052V39.1562V39.3072V39.4582C61.8447 39.7601 61.8447 39.9111 61.8447 40.213C61.8447 40.364 61.8447 40.515 61.8447 40.666C61.8447 40.8169 61.8447 40.9679 61.8447 40.9679C61.6938 41.7228 61.3918 42.3267 61.0899 43.0816ZM58.8252 43.0816C60.033 43.0816 60.9389 42.1757 60.9389 40.9679C60.9389 39.7601 60.033 38.8543 58.8252 38.8543C57.7684 38.8543 56.7116 39.7601 56.7116 40.9679C56.7116 42.1757 57.7684 43.0816 58.8252 43.0816Z" fill="#5A432D"/>
<path d="M44.6337 20.8887C45.8416 20.8887 46.4455 21.3416 46.1435 22.5494C45.9925 23.0023 45.8416 23.6062 45.6906 24.0592C45.3886 24.814 44.9357 25.4179 44.4828 26.0218C44.3318 26.3238 44.0298 26.4748 43.8789 26.7767C42.822 27.8335 41.6142 28.2865 40.2555 27.6826C39.1986 27.0787 38.1418 25.5689 38.5947 24.3611C38.8967 23.6062 39.3496 23.1533 39.9535 22.5494C40.4064 22.0965 41.0103 21.9455 41.4633 21.6435C42.0672 21.4926 42.822 21.1906 43.4259 21.0396C44.0299 21.0396 44.3318 20.8887 44.6337 20.8887ZM43.7279 25.267C43.7279 24.2101 42.822 23.1533 41.6142 23.1533C40.5574 23.1533 39.5006 24.0592 39.5006 25.267C39.5006 26.4748 40.5574 27.3806 41.6142 27.3806C42.6711 27.3806 43.7279 26.3238 43.7279 25.267Z" fill="#5A432D"/>
<path d="M38.8964 16.9631C38.2925 17.416 37.6886 18.0199 36.9337 18.3219C35.8769 18.7748 34.9711 18.7748 34.0652 18.1709C33.1594 17.567 32.8574 16.6611 32.7064 15.6043C32.5555 14.2455 33.9142 13.1887 34.6691 12.7358C34.8201 12.7358 34.8201 12.7358 34.9711 12.7358C35.575 12.5848 36.3298 12.5848 36.9337 12.4338C37.5376 12.5848 38.1415 12.4338 38.8964 12.4338C39.0474 12.4338 39.0474 12.5848 39.1984 12.5848C39.6513 12.5848 39.9532 12.7358 40.4062 12.8868C40.8591 13.0377 41.161 13.3397 41.161 13.9436C41.161 14.3965 40.8591 14.6985 40.8591 15.0004C40.1042 15.6043 39.5003 16.2082 38.8964 16.9631ZM35.575 13.4907C34.5181 13.4907 33.4613 14.5475 33.4613 15.6043C33.4613 16.6611 34.3672 17.718 35.575 17.718C36.7828 17.718 37.6886 16.8121 37.6886 15.6043C37.6886 14.3965 36.7828 13.4907 35.575 13.4907Z" fill="#5A432D"/>
<path d="M50.6726 36.8919C50.0687 37.6467 49.3138 38.0997 48.4079 38.0997C46.1433 37.9487 44.6336 35.835 45.9923 33.5704C46.2943 32.9665 46.7472 32.5136 47.0492 32.0607C47.804 31.4568 48.4079 30.8529 49.1628 30.3999C49.3138 30.3999 49.4648 30.249 49.6157 30.249C50.8236 29.6451 51.5784 29.947 51.8804 31.0038C51.8804 31.1548 51.8804 31.3058 51.8804 31.4568C51.8804 32.2116 51.8804 32.8155 51.8804 33.5704C51.7294 33.8724 51.7294 34.1743 51.7294 34.4763C51.5784 35.2311 51.2765 35.835 50.9745 36.5899C50.8235 36.5899 50.8235 36.7409 50.6726 36.8919ZM50.5216 34.9292C50.5216 33.7214 49.6157 32.8155 48.4079 32.8155C47.2001 32.8155 46.2943 33.7214 46.2943 34.9292C46.2943 36.137 47.2001 37.0428 48.4079 37.0428C49.6157 37.0428 50.5216 36.137 50.5216 34.9292Z" fill="#5A432D"/>
<path d="M47.3512 29.3429C47.8041 28.4371 48.106 27.6822 48.559 26.7764C48.8609 26.3234 49.1629 25.8705 49.6158 25.2666C48.106 25.7195 46.5963 26.1725 44.9355 26.1725C45.6904 27.3803 46.5963 28.4371 47.3512 29.3429Z" fill="#C49A6C"/>
<path d="M41.7651 20.5865C41.9161 19.9826 42.067 19.3787 42.369 18.7748C42.6709 17.8689 42.9729 17.1141 43.4258 16.3592C43.4258 16.2082 43.5768 16.0572 43.5768 15.9062C42.369 16.3592 41.3122 16.8121 40.1044 16.9631C40.7083 18.1709 41.1612 19.3787 41.7651 20.5865Z" fill="#C49A6C"/>
<path d="M56.1078 36.4388C56.1078 35.9859 56.4098 35.382 56.5607 34.7781C55.9568 35.08 55.353 35.382 54.9 35.6839C55.202 35.9859 55.6549 36.2878 56.1078 36.4388Z" fill="#C49A6C"/>
<path d="M52.0315 33.5703C51.8805 33.8723 51.8805 34.1742 51.8805 34.4762C52.1824 34.3252 52.4844 34.4762 52.6354 34.1742C52.6354 34.0232 52.4844 34.0232 52.3334 33.8723C52.1824 33.8723 51.8805 33.7213 52.0315 33.5703Z" fill="#8A6D57"/>
<path d="M61.8448 39.1563V39.3073C61.8448 39.6092 61.8448 39.7602 61.8448 40.0621C61.8448 40.2131 61.8448 40.3641 61.8448 40.5151C61.8448 40.666 61.8448 40.817 61.8448 40.817C62.7507 41.119 63.8075 41.4209 64.8644 41.5719C66.0722 41.7229 67.28 41.8738 68.6387 41.8738C70.1485 41.8738 71.6582 41.7229 73.017 41.2699C73.4699 41.119 73.7719 40.817 74.2248 40.5151C72.866 40.5151 71.3563 40.3641 69.9975 40.3641C68.0348 40.2131 65.9212 39.9112 63.9585 39.3073C63.3546 39.1563 62.5997 38.8543 61.8448 38.7034C61.8448 39.0053 61.8448 39.0053 61.8448 39.1563Z" fill="#8A6D57"/>
<path d="M56.8627 40.9679C56.7117 42.0247 57.7685 43.0816 58.9763 43.0816C60.1841 43.0816 61.09 42.1757 61.09 40.9679C61.09 39.7601 60.1841 38.8542 58.9763 38.8542C57.9195 39.0052 56.7117 39.7601 56.8627 40.9679Z" fill="#00A79D"/>
<path d="M61.8448 40.6661C61.9958 40.5151 61.8448 40.3641 61.8448 40.2131C61.8448 40.3641 61.8448 40.5151 61.8448 40.6661Z" fill="#EE9D36"/>
<path d="M41.614 27.3804C42.6708 27.5314 43.7277 26.4745 43.7277 25.2667C43.7277 24.2099 42.8218 23.1531 41.614 23.1531C40.5572 23.1531 39.5004 24.0589 39.5004 25.2667C39.5004 26.3236 40.5572 27.3804 41.614 27.3804Z" fill="#00A79D"/>
<path d="M37.6887 15.4533C37.6887 14.2455 36.7829 13.3396 35.5751 13.3396C34.5183 13.3396 33.4614 14.3964 33.4614 15.4533C33.4614 16.5101 34.3673 17.5669 35.5751 17.5669C36.7829 17.5669 37.6887 16.6611 37.6887 15.4533Z" fill="#00A79D"/>
<path d="M48.408 37.0427C49.6158 37.0427 50.5216 36.1369 50.5216 34.9291C50.5216 33.7213 49.6158 32.8154 48.408 32.8154C47.2002 32.8154 46.2943 33.7213 46.2943 34.9291C46.4453 35.9859 47.3511 37.0427 48.408 37.0427Z" fill="#00A79D"/>
</svg>
