<svg width="82" height="64" viewBox="0 0 82 64" fill="none" xmlns="http://www.w3.org/2000/svg">
<path d="M75.7822 10.6545H6.07055C2.87417 10.6545 0.286621 13.2421 0.286621 16.4385V57.9915C0.286621 61.1879 2.87417 63.7754 6.07055 63.7754H75.7822C78.9786 63.7754 81.5661 61.1879 81.5661 57.9915V16.4385C81.5661 13.3943 78.9786 10.6545 75.7822 10.6545Z" fill="#D71920"/>
<path d="M45.7972 32.4204V22.679H36.0558V32.4204H26.3145V42.1617H36.0558V51.9031H45.7972V42.1617H55.5385V32.4204H45.7972Z" fill="white"/>
<path d="M6.37519 18.7216C7.55206 18.7216 8.50611 17.7675 8.50611 16.5906C8.50611 15.4138 7.55206 14.4597 6.37519 14.4597C5.19831 14.4597 4.24426 15.4138 4.24426 16.5906C4.24426 17.7675 5.19831 18.7216 6.37519 18.7216Z" fill="#B11116"/>
<path d="M77.6088 16.5906C77.6088 17.8083 76.6955 18.7216 75.4778 18.7216C74.2602 18.7216 73.3469 17.8083 73.3469 16.5906C73.3469 15.373 74.2602 14.4597 75.4778 14.4597C76.5433 14.4597 77.6088 15.373 77.6088 16.5906Z" fill="#B11116"/>
<path d="M6.37531 60.2748C7.55218 60.2748 8.50623 59.3207 8.50623 58.1439C8.50623 56.967 7.55218 56.0129 6.37531 56.0129C5.19843 56.0129 4.24438 56.967 4.24438 58.1439C4.24438 59.3207 5.19843 60.2748 6.37531 60.2748Z" fill="#B11116"/>
<path d="M77.6089 58.1439C77.6089 59.3615 76.6956 60.2748 75.478 60.2748C74.2603 60.2748 73.347 59.3615 73.347 58.1439C73.347 56.9262 74.2603 56.0129 75.478 56.0129C76.5434 56.0129 77.6089 56.9262 77.6089 58.1439Z" fill="#B11116"/>
<path d="M31.4893 0H27.9885V10.8068H31.4893V0Z" fill="#414042"/>
<path d="M55.5384 0H52.0376V10.8068H55.5384V0Z" fill="#414042"/>
<path d="M52.0376 0H31.4894V4.26185H52.0376V0Z" fill="#58595B"/>
<path d="M33.6205 2.13086H32.4028V4.26177H33.6205V2.13086Z" fill="#414042"/>
<path d="M36.0556 2.13086H34.8379V4.26177H36.0556V2.13086Z" fill="#414042"/>
<path d="M38.6431 2.13086H37.4254V4.26177H38.6431V2.13086Z" fill="#414042"/>
<path d="M41.0786 2.13086H39.861V4.26177H41.0786V2.13086Z" fill="#414042"/>
<path d="M43.5141 2.13086H42.2964V4.26177H43.5141V2.13086Z" fill="#414042"/>
<path d="M46.1016 2.13086H44.8839V4.26177H46.1016V2.13086Z" fill="#414042"/>
<path d="M48.5366 2.13086H47.319V4.26177H48.5366V2.13086Z" fill="#414042"/>
<path d="M50.9722 2.13086H49.7545V4.26177H50.9722V2.13086Z" fill="#414042"/>
</svg>
