<svg width="98" height="72" viewBox="0 0 98 72" fill="none" xmlns="http://www.w3.org/2000/svg">
<path d="M64.1467 13.6658C65.9732 9.7084 68.8652 6.81644 72.6704 4.98993C72.8226 4.98993 72.9748 4.83773 72.9748 4.68552C73.2793 4.53331 73.5837 4.3811 73.7359 4.3811C74.1925 4.98994 74.4969 5.75099 74.9536 6.35982C76.1712 8.64296 77.3889 10.7739 78.6066 13.057C80.5853 16.5578 82.4118 19.9064 84.3905 23.4072C85.9126 26.2992 87.4347 29.0389 88.9568 31.9309C89.87 33.7574 90.7833 35.5839 92.0009 37.2582C91.0877 37.5626 90.3267 38.1715 89.4134 38.6281C86.217 40.1502 82.8684 40.759 79.3676 40.4546C78.911 40.4546 78.911 40.4546 78.911 40.9112C78.911 41.0634 78.911 41.3678 78.7588 41.5201C78.911 40.9112 78.911 40.3024 78.4543 39.6936C78.3021 39.5413 78.15 39.2369 77.9977 39.0847C77.3889 37.5626 76.4757 36.1927 75.7146 34.6707C75.1058 33.453 74.3447 32.3875 73.7359 31.1698C73.1271 30.1044 72.6704 29.0389 72.0616 27.9735C71.3005 26.6036 70.5395 25.2337 69.7785 23.8638C68.8652 22.1895 67.9519 20.363 67.0387 18.6887C66.2776 17.4711 65.6688 16.1012 64.9078 14.7313C64.6034 14.2747 64.2989 13.9702 64.1467 13.6658Z" fill="#828286"/>
<path d="M92.0009 37.1062C90.9354 35.4319 90.0222 33.6054 88.9567 31.7789C87.4346 28.8869 85.9125 26.1472 84.3905 23.2552C82.5639 19.7544 80.5852 16.4058 78.6065 12.905C77.3888 10.6219 76.1712 8.49094 74.9535 6.20781C74.6491 5.59897 74.3447 4.83792 73.7358 4.22909C73.7358 3.77246 73.5836 3.31583 73.5836 2.707C73.888 0.423865 76.4756 -0.793796 78.3021 0.576083C78.4543 0.576083 78.4543 0.728278 78.6065 0.728278C78.7587 0.880487 78.7587 1.03271 78.9109 1.03271C82.5639 7.7299 86.217 14.4271 90.0222 21.1243C92.3053 25.2339 94.5884 29.4958 96.8716 33.6054C97.6326 34.8231 97.176 36.6496 95.9583 37.4106C94.7406 38.7805 93.0664 38.4761 92.0009 37.1062Z" fill="#F15A29"/>
<path d="M57.4493 47.4565C57.2971 47.4565 57.2971 47.6087 57.1449 47.6087C55.3184 48.5219 53.6441 49.4352 51.8176 50.5006C41.924 55.9802 31.8783 61.4597 21.9847 66.787C21.6803 66.9392 21.2236 67.2436 20.9192 67.3958C20.767 67.2436 20.767 67.0914 20.6148 66.9392C19.3971 64.656 18.1795 62.3729 16.9618 60.0898C16.5052 59.1765 15.8963 58.4155 15.5919 57.5022C15.7441 57.5022 15.8963 57.35 16.2007 57.35C18.7883 55.9802 21.3759 54.4581 23.9634 53.0882C25.7899 52.1749 27.4642 51.1095 29.2907 50.1962C31.1172 49.1307 33.0959 48.0653 34.9224 46.9998C36.4445 46.2388 37.8144 45.3255 39.3365 44.5645C39.6409 44.4123 39.7931 44.2601 39.6409 43.8034C39.1843 42.5858 39.0321 41.3681 39.3365 40.1504C39.7931 38.1717 41.163 36.954 42.9895 36.3452C45.4249 35.5842 48.0124 36.4974 49.2301 38.4761C49.3823 38.7805 49.6867 38.7806 49.9911 38.6283C52.4264 37.2585 54.8618 36.0408 57.1449 34.6709C59.5803 33.301 62.0156 32.0834 64.4509 30.7135C65.5164 30.1047 66.7341 29.648 67.6473 28.887C67.7995 28.887 67.7995 29.0392 67.7995 29.1914C68.865 31.0179 69.9305 32.8444 70.8437 34.8231C71.6048 36.193 72.2136 37.5629 72.9746 38.7805C69.4738 40.7593 65.8208 42.738 62.32 44.7167C60.4935 45.7822 58.9714 46.6954 57.4493 47.4565ZM39.9453 41.5203C39.7931 43.9556 41.6196 45.9344 44.055 46.0866C46.4903 46.2388 48.469 44.4123 48.6212 41.9769C48.7734 39.5416 46.7947 37.5629 44.5116 37.4107C42.0763 37.2585 40.0975 39.2372 39.9453 41.5203Z" fill="#1E2B34"/>
<path d="M4.93737 68.0044C4.93737 67.8522 4.78515 67.8522 4.78515 67.7C4.17631 66.4823 3.41527 65.2647 2.80643 64.047C2.50201 63.4382 2.1976 62.6771 1.74097 62.0683C-0.542159 57.8064 0.827729 53.088 4.93737 50.6526C5.5462 50.3482 6.15503 50.0438 6.76387 49.5872L6.91606 49.7394C7.82932 51.2615 8.59038 52.7836 9.50363 54.3056C11.4823 58.1109 13.6133 61.7639 15.592 65.5691C16.2008 66.7868 16.9618 68.0044 17.5707 69.2221C16.353 69.8309 15.2876 70.7442 13.9177 71.0486C10.4169 71.8097 7.67711 70.8964 5.39398 68.1566C5.08956 68.1566 4.93737 68.1566 4.93737 68.0044Z" fill="#1E2B34"/>
<path d="M17.4184 69.3745C16.8096 68.1568 16.0485 66.9391 15.4397 65.7215C13.461 61.9162 11.33 58.2632 9.35132 54.458C8.59027 52.9359 7.67703 51.4138 6.76377 49.8917L6.61156 49.7395C6.30714 48.9785 6.15493 48.2174 6.61156 47.6086C7.3726 46.5431 8.8947 46.3909 9.80795 47.6086C9.96016 47.7608 9.96015 47.913 10.1124 47.913C10.1124 48.2174 10.2646 48.3696 10.4168 48.674C11.4822 50.5006 12.5477 52.4793 13.461 54.3058C14.0698 55.3713 14.6786 56.5889 15.2875 57.6544C15.5919 58.5676 16.2007 59.4809 16.6573 60.2419C17.875 62.5251 19.0927 64.8082 20.3104 67.0913C20.4626 67.2435 20.4626 67.3957 20.6148 67.548C20.767 68.1568 21.0714 68.6134 20.9192 69.2222C20.767 69.9833 20.1581 70.4399 19.5493 70.5921C18.7883 70.7443 18.1794 70.4399 17.7228 69.8311C17.5706 69.6789 17.5706 69.5267 17.4184 69.3745Z" fill="#E93A27"/>
<path d="M72.8223 39.0848C72.0613 37.7149 71.4525 36.345 70.6914 35.1274C69.626 33.3009 68.7127 31.4744 67.6472 29.4956C67.6472 29.3434 67.495 29.1912 67.495 29.1912V29.039C66.1251 26.6037 64.9075 24.1683 63.5376 21.733C63.081 20.9719 62.7766 20.0587 62.1677 19.2977C61.7111 18.2322 61.1023 17.3189 60.6456 16.2535C60.189 15.3402 60.3412 14.5792 60.95 13.6659C61.7111 12.7527 62.9288 12.6005 63.9942 13.2093C64.1464 13.3615 64.2986 13.3615 64.4509 13.5137C64.6031 13.9703 64.9075 14.2748 65.0597 14.5792C65.8207 15.9491 66.4296 17.1667 67.1906 18.5366C68.1039 20.2109 69.0171 21.8852 69.9304 23.7117C70.6914 25.0816 71.4525 26.4515 72.2135 27.8213C72.8223 28.8868 73.279 29.9523 73.8878 31.0177C74.4966 32.2354 75.2577 33.3009 75.8665 34.5185C76.6276 36.0406 77.5408 37.4105 78.1496 38.9326C78.3019 39.0848 78.4541 39.3892 78.6063 39.5414C78.9107 40.1502 78.9107 40.7591 78.9107 41.3679C78.6063 42.2812 77.8452 42.89 76.932 43.0422C75.8665 43.1944 75.1055 42.7378 74.6488 41.8245C73.7356 40.9113 73.4312 39.8458 72.8223 39.0848Z" fill="#F9ED32"/>
<path d="M62.0158 19.2976C62.4724 20.0587 62.929 20.8197 63.3856 21.7329C64.7555 24.1683 66.1254 26.6036 67.3431 29.039V29.1912C66.2776 29.9522 65.2122 30.4088 64.1467 31.0177C61.7113 32.3876 59.276 33.7574 56.8407 34.9751C54.4053 36.345 51.97 37.5627 49.6868 38.9325C49.3824 39.0847 49.2302 39.0847 48.9258 38.7803C47.7081 36.8016 45.1206 35.7362 42.6852 36.6494C40.8587 37.2582 39.4889 38.4759 39.0322 40.4546C38.7278 41.6723 38.7278 42.89 39.3366 44.1076C39.4888 44.412 39.4889 44.5643 39.0322 44.8687C37.5101 45.6297 36.1403 46.3908 34.6182 47.304C32.7917 48.3695 30.8129 49.435 28.9864 50.5004C27.1599 51.4137 25.4856 52.4791 23.6591 53.3924C21.0716 54.7623 18.484 56.2843 15.8965 57.6542C15.7443 57.8064 15.5921 57.8064 15.2876 57.8064C14.5266 56.741 14.07 55.5233 13.4611 54.4578C12.3957 52.6313 11.3302 50.6526 10.417 48.8261C10.2648 48.5217 10.1125 48.3695 10.1125 48.0651C12.5479 46.6952 15.1354 45.3253 17.5708 43.9554C23.0503 40.9113 28.3776 38.0193 33.8571 34.9751C36.7491 33.453 39.6411 31.7787 42.3808 30.2566C48.9258 26.4514 55.4708 22.9506 62.0158 19.2976Z" fill="#41576A"/>
<path d="M39.9456 41.5204C40.0978 39.085 42.0766 37.2585 44.5119 37.4107C46.9472 37.5629 48.7737 39.6938 48.6215 41.977C48.4693 44.4123 46.3384 46.2388 44.0553 46.0866C41.6199 46.0866 39.7934 43.9557 39.9456 41.5204Z" fill="#E93A27"/>
</svg>
