<svg width="94" height="80" viewBox="0 0 94 80" fill="none" xmlns="http://www.w3.org/2000/svg">
<path d="M68.0246 47.4155C63.4617 44.0694 59.6594 39.9628 59.051 34.0311C58.7468 30.6851 59.9636 27.6432 62.245 25.0576C66.5036 20.3426 71.979 16.5403 75.3251 10.9128C76.846 8.47925 78.0628 6.04575 78.0628 3.00386C78.0628 1.9392 77.7586 1.02664 77.3023 0.114071C77.4544 -0.0380236 77.6065 -0.0380236 77.7586 0.114071C84.9071 7.11042 90.5345 15.1714 92.5118 25.2097C93.8806 32.206 93.2722 38.8982 88.7094 44.6777C84.6029 49.6969 79.4316 51.9783 73.0437 51.6741C71.6748 51.6741 70.306 51.522 69.0892 51.2178C69.5455 50.1532 70.1539 49.3927 71.0665 48.6322C73.3479 48.328 75.4772 47.7196 77.6065 46.8071C80.04 45.7424 82.3214 44.3736 84.1466 42.3963C86.7322 39.3544 87.1885 35.7042 86.7322 31.9018C85.8196 26.1222 83.3861 21.1031 80.8005 15.9319C80.4963 19.7343 78.5191 22.4719 75.7814 24.7534C74.1083 26.1222 72.4353 27.339 70.9144 28.8599C66.9599 32.9665 66.0473 35.4 68.1766 40.1149C68.9371 41.94 69.8497 43.7652 70.1539 45.7424C69.0892 46.5029 68.6329 47.1113 68.0246 47.4155Z" fill="#F06024"/>
<path d="M1.8633 24.6011C4.90519 24.1448 7.94708 23.6885 10.989 23.2322C15.7039 22.6239 20.4188 21.4071 25.2859 20.9508C29.3924 20.4945 33.499 19.582 37.6055 18.9736C39.1265 18.6694 40.7995 18.5173 42.3204 18.3652C43.0809 22.1676 43.9935 25.97 44.4498 29.7723C45.0581 33.5747 45.8186 37.377 46.427 41.1794C47.3396 46.6548 48.4042 51.9781 49.4689 57.4535C49.621 57.9098 49.621 58.3661 49.621 58.8224C49.1647 59.735 48.2521 59.4308 47.4917 59.5829C45.9707 51.6739 44.4498 43.6129 42.9288 35.704C42.4725 33.2705 42.0163 30.837 41.56 28.4035C42.4725 27.1867 41.8642 25.8179 41.56 24.6011C41.1037 22.9281 39.7348 22.1676 38.0618 22.4718C36.845 22.7759 35.7804 23.3844 35.6283 24.6011C35.4762 26.1221 35.3241 27.9472 36.845 29.0119C36.845 29.1639 36.845 29.316 36.845 29.4681C38.2139 36.0082 39.4306 42.5482 40.7995 49.0883C41.56 52.8907 42.1683 56.8451 43.0809 60.6475C40.3432 61.1038 37.4534 61.7122 34.7157 62.1684C33.3469 55.1721 31.978 48.1758 30.6092 41.1794C30.0008 37.6812 29.2403 34.1831 28.6319 30.6849C29.3924 29.0119 28.9361 27.4909 28.1757 26.1221C27.8715 25.3616 26.9589 25.0574 26.1984 24.9053C23.917 24.7532 22.8523 25.8179 22.3961 28.4035C21.4835 26.5783 20.2667 25.8179 18.8979 26.1221C17.2249 26.4263 16.3123 27.643 16.0081 29.9244C15.2476 28.2514 14.183 27.1867 12.5099 27.3388C10.8369 27.4909 9.77222 28.7077 9.46803 30.5328C8.40336 28.8598 7.18661 28.0993 5.36148 28.7076C3.99263 29.1639 3.08006 30.0765 3.23215 31.2933C3.38425 32.6621 3.08006 34.4873 4.90519 35.0956C4.601 35.3998 4.7531 35.8561 4.90519 36.1603C5.81776 40.7231 6.73033 45.2859 7.4908 49.8488C8.70756 56.2367 9.92432 62.7768 11.2932 69.1648C11.4453 69.6211 11.4453 70.2295 12.2057 70.2295C12.3578 72.2067 11.4453 74.1839 11.1411 76.3133C10.5327 74.9444 10.5327 73.7276 10.2285 72.6629C9.16384 66.7313 8.09918 60.9517 7.03452 55.02C5.51357 46.6548 3.99263 38.1375 2.47168 29.7723C2.16749 28.0993 1.55911 26.4263 1.8633 24.6011Z" fill="#BE8F2E"/>
<path d="M1.86344 24.6011C1.55925 26.4262 2.31973 28.0992 2.62392 29.7723C4.14486 38.1375 5.66581 46.6548 7.18675 55.02C8.25141 60.9517 9.31607 66.7312 10.3807 72.6629C10.5328 73.8797 10.6849 75.0965 11.2933 76.3132C11.5975 74.1839 12.5101 72.3588 12.358 70.2294H12.5101C13.1184 69.1648 13.4226 68.1001 13.4226 66.8833C13.4226 65.5145 14.031 65.3624 15.0957 65.8187C14.7915 66.427 14.4873 67.0354 14.6394 67.6438C14.4873 67.7959 14.4873 67.7959 14.3352 67.948C13.5747 71.142 12.9663 74.1839 12.2059 77.3779C12.0538 77.9862 11.4454 78.7467 12.2059 79.3551C10.837 80.2677 10.6849 80.2677 10.3807 78.5946C7.94722 65.3624 5.51372 52.1302 3.0802 38.898C2.31973 34.4872 1.55926 30.2286 0.646694 25.8178C0.4946 25.0573 2.01554 24.1448 1.86344 24.6011Z" fill="#FBDB7E"/>
<path d="M48.8607 72.359C48.5565 72.5111 48.1002 72.6631 47.644 72.6631C47.3398 71.9027 46.8835 71.2943 45.9709 71.1422C45.8188 70.838 45.6667 70.6859 45.5146 70.3817C45.9709 69.0129 47.0356 68.2524 47.9482 67.3398C51.7505 63.5375 55.5529 59.7351 59.3552 55.9327C59.9636 55.3244 60.4199 54.8681 60.7241 54.1076C62.093 53.043 63.6139 52.5867 65.2869 52.8908C64.3744 54.8681 61.7888 55.4765 61.0283 57.6058C62.245 56.9974 63.3097 55.9328 64.6785 55.6286C64.2223 56.9974 63.0055 57.7579 62.0929 58.6705C59.3552 61.7124 56.3134 64.6021 53.4236 67.4919C53.1194 67.7961 52.8152 68.1003 52.6631 68.4045C52.0547 68.8608 51.5984 69.3171 51.1421 69.9255C50.3817 70.6859 49.4691 71.2943 48.8607 72.359Z" fill="#FDE39D"/>
<path d="M14.4871 67.796C14.335 67.0355 14.6392 66.4271 14.9434 65.9708C15.0955 65.9708 15.2476 65.8187 15.3997 65.8187C16.0081 65.6666 16.7685 65.9708 17.3769 65.5146C18.8979 65.5146 20.4188 65.2104 21.7876 64.7541C22.396 64.9062 23.0044 64.7541 23.6128 64.2978C23.917 64.2978 24.0691 64.2978 24.3733 64.2978C25.7421 64.2978 26.9589 63.9936 28.3277 63.5373C28.9361 63.5373 29.5445 63.5373 30.1528 63.2331C30.457 63.2331 30.6091 63.2331 30.9133 63.081C32.1301 62.9289 33.4989 62.6248 34.7157 62.4727C37.4534 62.0164 40.3432 61.408 43.0809 60.9517C43.233 60.7996 43.3851 60.7996 43.6893 60.6475C45.0581 60.4954 46.2749 60.1912 47.6437 59.887C48.4042 59.7349 49.3168 60.0391 49.773 59.1266C50.0772 59.7349 50.6856 59.4308 51.1419 59.4308C52.0545 59.2787 52.967 59.1266 53.8796 58.9745C54.9443 58.6703 54.7922 59.2787 54.488 59.887C54.3359 60.6475 53.7275 60.9517 53.1191 61.2559C43.9935 62.9289 34.8678 64.602 25.7421 66.275C21.9397 66.5792 18.1374 67.1876 14.4871 67.796Z" fill="#F6B81C"/>
<path d="M46.1229 71.1421C46.8834 71.4463 47.4917 71.9026 47.7959 72.663C42.3205 73.7277 36.9972 74.6403 31.5218 75.7049C25.1338 76.9217 18.5938 78.1385 12.2058 79.3552C11.4453 78.7469 12.0537 77.9864 12.2058 77.378C18.898 76.1612 25.5901 74.7924 32.2823 73.5756C36.8451 72.8151 41.5601 71.9026 46.1229 71.1421Z" fill="#F6B81C"/>
<path d="M64.8306 55.4765C63.4618 55.7806 62.3971 56.8453 61.1804 57.4537C61.9408 55.3243 64.5264 54.5639 65.439 52.7388C63.766 52.5867 62.245 53.0429 60.8762 53.9555C60.572 53.9555 60.2678 54.1076 59.9636 54.1076C61.6367 52.4346 63.0055 50.4573 65.2869 49.3927C66.3516 48.9364 67.2642 48.328 67.8725 47.2634C68.4809 46.9592 69.0893 46.3508 69.3935 45.7424C69.8498 45.2861 70.154 44.9819 70.6102 44.5256C71.3707 44.9819 71.9791 45.7424 72.5875 46.5029C71.9791 47.2634 71.2186 48.0238 70.6102 48.7843C69.6977 49.3927 69.0893 50.3052 68.633 51.3699C67.8725 52.8908 66.6558 54.1076 65.2869 55.1723C65.1348 55.1723 64.9827 55.3244 64.8306 55.4765Z" fill="#443D2B"/>
<path d="M59.9634 54.2598C60.2676 54.2598 60.5718 54.1077 60.876 54.1077C60.5718 54.8681 60.1155 55.4765 59.5071 55.9328C55.7048 59.7351 51.9024 63.5375 48.1 67.3399C47.1875 68.2524 45.9707 69.0129 45.6665 70.3818C45.0582 69.6213 45.2102 69.0129 45.9707 68.4045C47.9479 66.5794 49.7731 64.6022 51.5982 62.625C52.0545 62.0166 52.815 61.7124 52.9671 60.7998C53.5754 60.4956 54.1838 60.3435 54.3359 59.431C56.009 58.2142 57.2257 56.5412 58.7467 55.1723C59.2029 54.8681 59.6592 54.564 59.9634 54.2598Z" fill="#C3AC78"/>
<path d="M48.8606 72.3591C49.3169 71.2944 50.3815 70.5339 51.142 69.7734C51.5983 69.7734 51.9025 69.7734 52.3588 69.7734C52.5109 71.2944 51.7504 72.0549 50.2294 72.0549C49.9253 72.2069 49.469 72.3591 48.8606 72.3591Z" fill="#F6B81C"/>
<path d="M52.5111 69.7734C52.0548 69.7734 51.7506 69.7734 51.2943 69.7734C51.7506 69.165 52.2069 68.7087 52.8153 68.2524C52.6632 68.8608 52.5111 69.3171 52.5111 69.7734Z" fill="#443D2B"/>
<path d="M64.9828 55.4763C64.9828 55.3242 65.287 55.1721 65.4391 55.1721C65.1349 55.3242 65.1349 55.3242 64.9828 55.4763Z" fill="#FDE39D"/>
<path d="M70.7622 44.8299C70.3059 45.2861 70.0017 45.5903 69.5454 46.0466C69.3933 44.0694 68.4808 42.2443 67.5682 40.4191C65.4389 35.8563 66.3515 33.4228 70.3059 29.1641C71.8269 27.6432 73.4999 26.4264 75.1729 25.0576C77.9106 22.7762 79.8879 20.0384 80.1921 16.2361C82.7777 21.4073 85.2112 26.4264 86.1237 32.206C86.7321 36.0084 86.1237 39.6587 83.5381 42.7005C81.713 44.8299 79.5837 46.1987 76.9981 47.1113C74.8687 48.0238 72.7394 48.4801 70.458 48.9364C71.0664 48.176 71.8269 47.4155 72.4352 46.655C73.1957 46.8071 74.1083 47.4155 74.8688 46.655C75.4771 46.0466 76.0855 45.4382 76.5418 44.8299C77.1502 44.0694 77.3023 43.3089 76.9981 42.3963C76.3897 40.5712 74.5646 39.5065 72.8915 40.1149C71.0664 40.8754 70.0017 43.0047 70.7622 44.8299Z" fill="#F8EA00"/>
<path d="M4.9055 35.248C3.08037 34.4875 3.38456 32.8145 3.23247 31.4456C3.08037 30.2288 3.99294 29.1642 5.36179 28.86C7.18693 28.2516 8.40368 29.0121 9.46834 30.6851C9.77253 28.86 10.8372 27.6432 12.5102 27.4911C14.1833 27.339 15.4 28.2516 16.0084 30.0767C16.3126 27.7953 17.2252 26.5785 18.8982 26.2744C20.2671 25.9702 21.4838 26.8827 22.3964 28.5558C22.7006 25.9702 23.9173 25.0576 26.1987 25.0576C27.1113 25.0576 27.8718 25.5139 28.176 26.2744C28.9364 27.6432 29.3927 29.3162 28.6322 30.8372C27.5676 31.2935 26.5029 31.4456 25.2862 31.5977C24.8299 31.5977 24.3736 31.5977 23.9173 31.5977C23.3089 31.5977 23.1569 30.8372 22.7006 30.533C22.7006 31.1414 22.3964 31.5977 22.0922 32.054C20.8754 32.5103 19.6587 32.8145 18.4419 32.9666C18.1377 32.9666 17.6815 32.9666 17.3773 32.9666C16.6168 32.6624 16.4647 31.7498 16.0084 30.8372C16.0084 31.9019 16.3126 32.8144 15.5521 33.4228C14.1833 34.0312 12.6623 34.3354 11.1414 34.3354C10.533 34.0312 10.0767 33.5749 9.77254 32.8144C9.77254 33.5749 9.62044 34.0312 9.16416 34.6396C7.9474 35.2479 6.57855 35.4 5.2097 35.7042C5.3618 35.4 5.20969 35.4001 4.9055 35.248Z" fill="#721914"/>
<path d="M25.4379 31.4455C26.6546 31.2934 27.7193 30.9892 28.784 30.6851C29.3923 34.1832 30.1528 37.6814 30.7612 41.1796C32.13 48.1759 33.4989 55.1722 34.8677 62.1686C33.651 62.3207 32.2821 62.6249 31.0654 62.777C30.0007 56.9974 28.784 51.2178 27.7193 45.2861C26.9588 41.0274 26.0463 36.6167 25.1337 32.3581C24.9816 32.0539 24.9816 31.7497 25.4379 31.4455Z" fill="#FDE39D"/>
<path d="M47.6441 59.5832C46.4273 59.8874 45.0585 60.1916 43.6896 60.3437C43.6896 59.8874 43.6896 59.5832 43.5375 59.1269C41.8645 50.9138 40.3435 42.7007 38.6705 34.3355C38.3663 32.5104 37.4537 30.8373 38.2142 28.8601C39.1268 28.4038 40.3435 28.4038 41.4082 28.0996C41.8645 30.5331 42.3208 32.9666 42.777 35.4001C44.4501 43.6132 46.1231 51.6743 47.6441 59.5832Z" fill="#FDE39D"/>
<path d="M41.5601 28.4036C40.4955 28.7078 39.4308 28.7078 38.3662 29.1641C37.9099 29.1641 37.3015 29.1641 36.8452 29.1641C35.3243 27.9473 35.4764 26.2742 35.6285 24.7533C35.7806 23.5365 36.8452 22.9282 38.062 22.624C39.5829 22.3198 41.1039 23.0803 41.5601 24.7533C41.8643 25.818 42.4727 27.0348 41.5601 28.4036Z" fill="#721914"/>
<path d="M4.90546 35.248C5.05755 35.248 5.20965 35.248 5.51384 35.248C6.5785 40.5714 7.64316 46.0467 8.70782 51.37C9.92458 57.6059 11.1413 63.8418 12.3581 70.2298H12.206C11.4455 70.3819 11.2934 69.7735 11.2934 69.1651C10.0767 62.7771 8.85992 56.2371 7.49107 49.8491C6.57851 45.2862 5.66593 40.7234 4.90546 36.1606C4.90546 36.0085 4.60127 35.7043 4.90546 35.248Z" fill="#C3AC78"/>
<path d="M36.8453 29.012C37.3016 29.012 37.91 29.012 38.3663 29.012C37.4537 30.8371 38.3663 32.6622 38.8226 34.4874C40.3435 42.7005 42.0166 50.9136 43.6896 59.2788C43.6896 59.583 43.6896 60.0392 43.8417 60.4955C43.6896 60.6476 43.5375 60.6476 43.2333 60.7997C42.3207 56.9973 41.7124 53.0429 40.9519 49.2405C39.583 42.7005 38.3663 36.1604 36.9974 29.6203C36.8453 29.3161 36.8453 29.1641 36.8453 29.012Z" fill="#C3AC78"/>
<path d="M53.1192 60.8C52.9672 61.7126 52.2067 62.0168 51.7504 62.6252C49.9253 64.6024 47.948 66.5796 46.1229 68.4048C45.3624 69.0132 45.2103 69.6215 45.8187 70.382C45.9708 70.6862 46.1229 70.8383 46.275 71.1425C41.7122 72.055 36.9972 72.8155 32.4344 73.7281C25.7422 74.9448 19.0501 76.1616 12.3579 77.5304C13.1184 74.3365 13.7268 71.2946 14.4872 68.1006C14.6393 67.9485 14.6393 67.9485 14.7914 67.7964C18.5938 67.188 22.2441 66.5796 26.0464 65.8191C34.8679 64.1461 43.9936 62.4731 53.1192 60.8Z" fill="#371613"/>
<path d="M12.3579 70.3816C11.1412 64.1457 9.92441 57.9098 8.70765 51.5219C7.64299 46.1986 6.57833 40.7231 5.51367 35.3998C6.88252 35.0956 8.25137 35.0957 9.46813 34.3352C9.46813 34.6394 9.46812 35.0956 9.62022 35.3998C10.837 41.6357 12.0537 47.8716 13.2705 54.1075C14.031 57.9099 14.7914 61.8643 15.5519 65.6667C15.3998 65.6667 15.2477 65.8187 15.0956 65.8187C14.031 65.3625 13.4226 65.5146 13.4226 66.8834C13.2705 68.1002 12.9663 69.3169 12.3579 70.3816Z" fill="#FDE39D"/>
<path d="M14.4872 67.7961C14.3351 67.9482 14.3351 67.9482 14.183 68.1003C14.3351 67.9482 14.3351 67.7961 14.4872 67.7961Z" fill="#F6B81C"/>
<path d="M11.2933 34.1833C12.8143 34.1833 14.3352 33.8791 15.7041 33.2708C15.7041 33.4228 15.8562 33.727 15.8562 33.8791C16.9208 39.3545 17.9855 44.6779 19.0502 50.1533C19.9627 55.0203 20.8753 59.7352 21.7878 64.6022C20.419 65.0585 18.8981 65.3627 17.3771 65.3627C17.0729 63.9939 16.7687 62.625 16.4645 61.2561C15.552 56.3891 14.6394 51.5221 13.5748 46.6551C12.9664 42.5485 12.0538 38.2899 11.2933 34.1833Z" fill="#F3DA97"/>
<path d="M18.594 32.8144C19.8108 32.8144 21.0275 32.3581 22.2443 31.9019C23.3089 37.0731 24.2215 42.3964 25.2862 47.5676C26.3508 52.7388 27.2634 58.0621 28.328 63.2333C27.1113 63.6896 25.7424 63.9938 24.3736 63.9938C24.3736 63.5375 24.3736 63.2333 24.2215 62.777C22.8526 55.4765 21.3317 48.176 19.9628 40.8754C19.5066 38.2898 18.7461 35.5521 18.594 32.8144Z" fill="#FDE39D"/>
<path d="M11.2934 34.1833C12.0539 38.4419 12.9664 42.5485 13.7269 46.8071C14.6395 51.6742 15.552 56.5412 16.6167 61.4082C16.9209 62.7771 17.2251 64.1459 17.5293 65.5148C16.9209 65.9711 16.3125 65.6668 15.552 65.8189C14.7916 62.0166 14.0311 58.0622 13.2706 54.2598C12.0539 48.0239 10.8371 41.788 9.62035 35.5521C9.62035 35.248 9.62036 34.7917 9.46826 34.4875C9.77245 34.0312 10.0766 33.4228 10.0766 32.6624C10.0766 33.4228 10.685 33.727 11.2934 34.1833Z" fill="#BE9130"/>
<path d="M28.3279 63.2335C27.2633 58.0623 26.3507 52.739 25.286 47.5678C24.2214 42.3966 23.3088 37.0733 22.2441 31.902C22.5483 31.4458 22.8525 31.1416 22.8525 30.3811C23.3088 30.6853 23.4609 31.2937 24.0693 31.4458C25.286 37.9858 26.6549 44.5259 27.8716 51.2181C28.6321 55.1725 29.3926 59.127 30.1531 63.0814C29.5447 63.3856 28.9363 63.3856 28.3279 63.2335Z" fill="#BE912F"/>
<path d="M21.7878 64.6021C20.8752 59.7351 19.9626 55.0202 19.0501 50.1531C17.9854 44.6777 16.9207 39.3544 15.8561 33.879C15.8561 33.7269 15.704 33.4227 15.704 33.2706C16.4645 32.6623 16.1603 31.7497 16.1603 30.6851C16.6166 31.5976 16.7686 32.5102 17.5291 32.8144C17.5291 33.1186 17.6812 33.2707 17.6812 33.5748C19.0501 40.267 20.2668 46.9591 21.6357 53.6513C22.244 57.1495 22.8524 60.6477 23.6129 64.1459C23.0045 64.45 22.3961 64.7542 21.7878 64.6021Z" fill="#BE912F"/>
<path d="M23.6128 64.1457C23.0045 60.6475 22.3961 57.1493 21.6356 53.6511C20.4188 46.959 19.05 40.2668 17.6811 33.5747C17.6811 33.2705 17.5291 33.1184 17.5291 32.8142C17.8332 32.8142 18.2895 32.8142 18.5937 32.8142C18.7458 35.5519 19.5063 38.2896 19.9626 41.0273C21.3314 48.3278 22.8524 55.6284 24.2212 62.9289C24.2212 63.2331 24.2212 63.6894 24.3733 64.1457C24.0691 64.1457 23.917 64.1457 23.6128 64.1457Z" fill="#C3AC78"/>
<path d="M30.1529 63.0812C29.3924 59.1267 28.6319 55.1723 27.8715 51.2178C26.6547 44.6778 25.2858 38.1377 24.0691 31.4456C24.5254 31.4456 24.9817 31.4456 25.4379 31.4456C25.1338 31.7497 24.9817 31.9018 25.1338 32.3581C26.0463 36.6167 26.8068 41.0275 27.7194 45.2861C28.784 51.0657 30.0008 56.8453 31.0654 62.777C30.6092 63.0812 30.4571 63.0812 30.1529 63.0812Z" fill="#C3AC78"/>
<path d="M70.7621 44.8299C70.0017 43.1569 71.0663 40.8754 73.0435 40.115C74.7166 39.5066 76.5417 40.5713 77.1501 42.3964C77.4543 43.309 77.1501 44.0694 76.6938 44.8299C76.2375 45.4383 75.6292 46.0467 75.0208 46.6551C74.2603 47.5676 73.4998 46.8072 72.5873 46.6551C72.131 45.8946 71.5226 45.2862 70.7621 44.8299Z" fill="#100F08"/>
</svg>
