<svg width="111" height="78" viewBox="0 0 111 78" fill="none" xmlns="http://www.w3.org/2000/svg">
<path d="M47.1044 0C48.7684 0.151272 50.2811 0.151267 51.9451 0.302539C54.9705 0.605082 57.8447 1.21018 60.5676 2.7229C61.929 3.47926 63.1392 4.38689 64.0468 5.74833C64.6519 6.65596 64.9544 7.56359 64.6519 8.77377C64.5006 8.77377 64.3494 8.92502 64.1981 8.92502C62.0803 10.1352 59.8112 10.2865 57.5421 10.4377C56.3319 10.589 55.1218 10.2865 53.9116 10.7403C53.6091 10.4377 53.1552 10.589 52.8527 10.589C52.7014 10.4378 52.5502 10.4377 52.2476 10.4377C50.7349 10.2865 49.2222 10.1352 47.7095 9.98392V9.83266C51.9451 9.22758 56.3319 8.62249 60.5676 8.31995C61.1726 8.31995 62.2315 8.47122 62.3828 8.01741C62.5341 7.26105 61.6265 6.80722 61.0214 6.20213C60.4163 5.59704 59.6599 5.29452 58.9036 4.99197C57.5421 4.38689 56.1807 4.08434 54.8192 3.78179C51.4912 3.17671 48.1633 2.87417 44.8353 3.47926C44.5327 3.47926 44.2302 3.63052 43.9277 3.32797C43.7764 2.26907 43.7764 1.21017 43.6251 0C44.8353 0.151272 45.8942 0 47.1044 0Z" fill="#FEDB52"/>
<path d="M43.6254 0.30249C43.7766 1.36139 43.7766 2.42029 43.9279 3.63046C39.8436 3.93301 35.9105 4.84065 32.1287 6.50464C30.616 7.10973 29.2545 8.01735 28.1956 9.07626C27.4393 9.83262 26.8342 10.589 26.6829 11.7992C31.6749 11.1941 36.6668 10.8915 41.5075 10.589C40.7512 11.1941 39.6923 11.3453 38.7846 11.6479C38.0283 11.7991 37.2719 11.6479 36.8181 12.4042C36.3643 12.1017 36.0618 12.1017 35.6079 12.5555C35.4567 12.5555 35.3054 12.4042 35.0029 12.4042C31.5236 12.858 28.0443 13.6144 24.5651 12.4042C23.96 10.1352 25.0189 8.3199 26.5316 6.80718C29.4058 4.08429 32.885 2.72283 36.6668 1.66393C37.877 1.36138 39.0872 1.05885 40.4486 0.75631C41.5075 0.453767 42.5664 0.30249 43.6254 0.30249Z" fill="#F9E968"/>
<path d="M0.210205 60.2061C0.966564 59.1472 1.26911 57.7857 2.02547 56.7268H2.17674C5.20218 58.2395 8.22761 59.601 11.253 61.1137C12.0094 61.5675 12.917 61.5675 13.3709 62.4751V62.6264C12.7658 63.6853 12.4632 65.198 11.7069 65.6518C10.7992 66.1056 9.58905 64.8955 8.68142 64.4417C5.80726 63.0802 3.08437 61.7188 0.361475 60.3573C0.361475 60.3573 0.361477 60.2061 0.210205 60.2061ZM11.253 62.6264C10.648 62.7777 10.3454 62.9289 10.3454 63.534C10.3454 64.1391 10.7992 64.4417 11.253 64.4417C11.8581 64.4417 12.1607 63.9879 12.1607 63.534C12.1607 62.9289 11.7069 62.6264 11.253 62.6264Z" fill="#F9E968"/>
<path d="M47.5584 9.9837C49.0711 10.135 50.5838 10.2863 52.0965 10.4375C52.2478 10.4375 52.5503 10.4375 52.7016 10.5888C53.0041 13.7655 53.3067 16.9422 53.6092 20.2702C53.6092 20.8753 53.7605 21.3291 53.3067 21.9342C52.8529 22.388 53.0041 22.9931 53.458 23.4469C53.9118 23.7494 54.063 24.2033 54.063 24.6571C54.063 25.1109 54.2143 25.2621 54.6681 25.1109C55.1219 25.1109 55.1219 24.8083 55.1219 24.5058C55.1219 24.2033 54.9707 23.7494 55.2732 23.4469C56.0296 22.388 55.8783 22.0854 54.9707 21.3291C54.8194 19.6651 54.6681 18.0011 54.5169 16.4884C54.3656 15.1269 54.3656 13.7655 54.063 12.5553C54.063 11.9503 53.9118 11.4964 53.9118 10.8913C55.1219 10.4375 56.3321 10.7401 57.5423 10.5888C59.8114 10.4375 62.0804 10.2863 64.1982 9.07609C64.3495 8.92481 64.5008 8.9248 64.6521 8.9248C65.8622 9.07608 66.6186 9.83243 67.2237 10.7401C72.2157 17.396 77.2076 24.2033 82.1996 30.8592C87.1916 37.5152 92.0323 44.0199 97.0242 50.6758C97.478 51.4322 97.478 51.5835 96.7217 52.1885C93.8475 54.3063 90.9733 56.4242 88.0992 58.6932C87.4941 59.147 87.3428 59.147 86.7377 58.5419C81.4432 51.7347 75.9974 45.0788 70.7029 38.2715C70.4004 37.969 70.2491 37.6664 69.9466 37.3639C69.7953 37.6664 69.9466 37.969 69.9466 38.2715C70.8542 47.4991 71.6106 56.878 72.5182 66.1055C72.8207 68.6772 71.1568 70.4924 68.7364 70.6437C63.7444 71.0975 58.6012 71.5513 53.6092 72.0051C52.8529 72.0051 52.7016 71.8539 52.7016 71.2488C52.7016 70.6437 52.5503 69.8873 52.5503 69.2822C52.5503 68.6772 52.2478 68.5259 51.6427 68.5259C51.1889 68.6772 50.5838 68.6772 49.9787 68.6772C49.8274 67.6182 49.8274 66.5594 49.6762 65.5005C50.4325 65.3492 50.8863 65.0466 50.7351 64.139C50.7351 63.2314 50.13 63.0801 49.3736 62.9288C49.0711 59.9034 48.7685 56.8779 48.466 53.8525C49.2223 53.55 49.6762 53.2474 49.5249 52.3398C49.3736 51.5834 48.9198 51.2809 48.1634 51.2809C47.8609 48.2555 47.5583 45.23 47.2558 42.2046C48.0122 42.0533 48.466 41.5995 48.3147 40.8432C48.1634 40.0868 47.7096 39.7843 46.9533 39.7843C46.6507 36.7588 46.3482 33.7334 46.0456 30.708C46.802 30.5567 47.2558 30.2541 47.1045 29.3465C47.1045 28.5901 46.4994 28.1363 45.7431 28.1363C45.4405 25.1109 45.138 22.0854 44.8355 19.06C45.5918 18.7575 46.0456 18.4549 45.8944 17.5473C45.7431 16.7909 45.2893 16.4884 44.5329 16.4884C44.3816 14.8244 44.2304 13.1604 44.0791 11.3452C44.0791 10.7401 44.2304 10.4375 44.8355 10.4375C46.1969 10.2863 46.802 10.135 47.5584 9.9837ZM62.5343 60.2059C59.9626 60.5085 57.9961 60.6598 56.0296 60.811C55.5758 60.811 55.4245 60.9623 55.4245 61.4161C55.5758 63.0801 55.727 64.8954 55.8783 66.5594C55.8783 67.467 56.3321 67.6183 57.0885 67.6183C60.8703 67.3157 64.6521 66.8619 68.4339 66.5594C69.0389 66.5594 69.3415 66.1055 69.3415 65.5005C69.1902 63.6852 69.0389 61.8699 68.8877 59.9034C68.8877 59.6008 68.8877 59.2983 68.4339 59.4496C66.316 60.0547 64.047 60.0547 62.5343 60.2059ZM58.6012 58.2394C58.4499 57.7856 58.1474 57.483 57.5423 57.483C56.9372 57.483 56.6347 57.7856 56.6347 58.3907C56.6347 58.9958 57.0885 59.2983 57.6936 59.2983C58.2986 59.147 58.6012 58.8445 58.6012 58.2394ZM67.2237 57.483C67.0724 57.0292 66.7699 56.7267 66.1648 56.7267C65.5597 56.7267 65.2571 57.0292 65.4084 57.6343C65.4084 58.2394 65.8622 58.5419 66.4673 58.5419C66.9211 58.3907 67.2237 57.9369 67.2237 57.483ZM88.2505 55.9703C88.0992 55.5165 87.7966 55.214 87.3428 55.3652C86.7377 55.3652 86.4352 55.8191 86.5865 56.4242C86.5865 56.878 87.0403 57.3318 87.6454 57.1805C88.0992 57.0292 88.2505 56.7267 88.2505 55.9703Z" fill="#FDD30C"/>
<path d="M13.5223 62.4754C13.0684 61.5677 12.0095 61.5677 11.4045 61.1139C8.37902 59.6012 5.35358 58.0885 2.32815 56.727H2.17688C4.14341 52.4914 6.26122 48.4071 8.22775 44.1715C12.7659 34.9439 17.3041 25.7163 21.8422 16.4887C22.1448 15.8837 22.4473 15.2786 22.5986 14.5222C22.9011 13.4633 23.5062 12.707 24.5651 12.2531C28.0443 13.4633 31.5236 12.707 35.0028 12.2531C35.1541 12.2531 35.4567 12.2531 35.6079 12.4044C35.9105 15.7324 36.213 19.0604 36.5156 22.3884C36.5156 22.6909 36.5156 22.9934 36.213 23.296C35.7592 23.9011 35.7592 24.5062 36.3643 24.96C36.6668 25.2625 36.8181 25.5651 36.8181 26.0189C36.8181 26.3214 36.8181 26.624 37.4232 26.624C38.0283 26.624 38.0283 26.3214 38.0283 25.8676C38.0283 25.5651 37.877 25.2625 38.1796 24.96C38.9359 24.0523 38.6334 23.4473 37.877 22.6909C37.877 22.5396 37.877 22.3884 37.7257 22.2371C37.2719 18.9091 36.9694 15.4299 36.8181 12.1019C37.2719 11.3455 38.1796 11.4968 38.7846 11.3455C39.6923 11.043 40.7512 11.043 41.5075 10.2866C41.8101 10.2866 42.1126 10.2866 42.2639 10.2866C44.0792 29.1956 45.7431 48.1046 47.5584 66.8623C47.5584 67.3161 47.7097 67.9212 47.7097 68.375C47.861 69.2826 47.8609 70.1902 48.0122 71.2491C48.0122 71.8542 48.0122 72.0055 47.4071 72.0055C42.1126 72.4593 36.6668 73.0644 31.3723 73.5182C29.2545 73.6695 27.5905 72.1568 27.288 69.8877C26.5316 61.719 25.7753 53.5503 25.0189 45.3817C24.8676 44.1715 24.7164 42.8101 24.5651 41.2973C23.8087 42.8101 23.2037 44.0202 22.4473 45.2304C19.5731 50.6762 16.699 56.2732 13.8248 61.719C13.8248 62.0216 13.6735 62.3241 13.5223 62.4754ZM36.5156 58.391C34.7003 58.5423 32.7338 58.6936 30.9185 58.8448C30.0109 58.9961 29.5571 59.2987 29.7083 60.2063C30.0109 62.9292 30.1622 65.6521 30.4647 68.375C30.616 69.5851 31.0698 69.8877 32.28 69.8877C35.7592 69.5851 39.2385 69.2826 42.5664 68.98C43.9279 68.8288 44.2304 68.5262 44.0792 67.1648C43.7766 64.4419 43.6253 61.8703 43.3228 59.1474C43.1715 57.9372 43.0203 57.786 41.8101 57.9372C40.1461 58.0885 38.3308 58.2397 36.5156 58.391Z" fill="#FEDB52"/>
<path d="M47.8607 68.5263C47.8607 68.0725 47.7094 67.4674 47.7094 67.0136C45.8942 48.1046 44.2302 29.1956 42.4149 10.438C44.2302 10.2867 45.8942 10.1354 47.7094 9.98413V10.1354C46.9531 10.1354 46.1967 10.2867 45.4404 10.2867C44.8353 10.2867 44.684 10.5892 44.684 11.1943C44.8353 12.8583 44.9865 14.5223 45.1378 16.3376C44.5327 16.6401 43.9276 16.9426 44.0789 17.699C44.0789 18.4554 44.684 18.7579 45.4404 18.9092C45.7429 21.9346 46.0454 24.96 46.348 27.9855C45.7429 28.288 45.1378 28.7418 45.2891 29.4982C45.4404 30.1033 45.8942 30.5571 46.6505 30.5571C46.9531 33.5825 47.2556 36.608 47.5582 39.6334C46.8018 39.7847 46.348 40.2385 46.4992 40.9948C46.4992 41.7512 47.1043 42.0537 47.8607 42.205C48.1632 45.2305 48.4658 48.2559 48.7683 51.2813C48.1632 51.5839 47.5582 51.8864 47.7094 52.6428C47.7094 53.3991 48.3145 53.7017 49.0709 53.8529C49.3734 56.8784 49.676 59.9038 49.9785 62.9292C49.3734 63.2318 48.7683 63.5343 48.9196 64.2907C48.9196 65.0471 49.5247 65.3496 50.281 65.5009C50.4323 66.5598 50.4323 67.6187 50.5836 68.6776C49.2221 68.375 48.6171 68.5263 47.8607 68.5263Z" fill="#F9E968"/>
<path d="M47.5584 9.98377C45.7431 10.135 44.0791 10.2863 42.2639 10.4376C41.9613 10.4376 41.6588 10.4376 41.5075 10.4376C36.5155 10.7401 31.6748 11.0427 26.6829 11.6478C26.8341 10.4376 27.4392 9.68123 28.1956 8.92487C29.4058 7.86597 30.7672 6.95835 32.1286 6.35326C35.9104 4.68927 39.8435 3.78165 43.9278 3.4791C44.2304 3.78165 44.5329 3.63036 44.8355 3.63036C48.1635 3.02528 51.4914 3.32781 54.8194 3.9329C56.1809 4.23544 57.5423 4.53799 58.9038 5.14308C59.6601 5.44562 60.4165 5.89944 61.0216 6.35326C61.6266 6.80707 62.5343 7.41216 62.383 8.16852C62.2317 8.62233 61.1728 8.47105 60.5677 8.47105C56.1809 8.7736 51.9452 9.37868 47.5584 9.98377Z" fill="#817B8F"/>
<path d="M54.8195 21.178C55.7271 22.0857 55.8784 22.3882 55.122 23.2958C54.8195 23.5984 54.9708 24.0522 54.9708 24.3547C54.9708 24.6573 54.9708 24.9598 54.517 24.9598C54.0631 24.9598 53.9119 24.9598 53.9119 24.506C53.9119 24.0522 53.7606 23.5984 53.3068 23.2958C52.853 22.9933 52.7017 22.2369 53.1555 21.7831C53.6093 21.178 53.6093 20.7242 53.4581 20.1191C53.1555 16.9424 52.853 13.7657 52.5504 10.4377C52.853 10.4377 53.3068 10.2865 53.6093 10.589C53.6093 11.1941 53.7606 11.6479 53.7606 12.253C53.9119 14.0682 54.0631 15.8835 54.2144 17.6988C54.517 18.9089 54.5169 20.1191 54.8195 21.178Z" fill="#817B8F"/>
<path d="M37.8767 22.8422C38.6331 23.4472 38.9356 24.2036 38.1793 25.1112C38.028 25.4138 38.028 25.7163 38.028 26.0189C38.028 26.4727 38.028 26.7752 37.4229 26.7752C36.9691 26.7752 36.8178 26.4727 36.8178 26.1702C36.8178 25.7163 36.6666 25.4138 36.364 25.1112C35.9102 24.6574 35.9102 24.0523 36.2128 23.4473C36.5153 23.1447 36.5153 22.8422 36.5153 22.5396C36.2128 19.2116 35.9102 15.8837 35.6077 12.5557C35.9102 12.2531 36.364 12.1019 36.8178 12.4044C36.9691 15.7324 37.2717 19.2116 37.7255 22.5396C37.5742 22.5396 37.7255 22.6909 37.8767 22.8422Z" fill="#817B8F"/>
<path d="M11.253 62.6265C11.8581 62.6265 12.1606 62.929 12.1606 63.5341C12.1606 64.1392 11.8581 64.4417 11.253 64.4417C10.6479 64.4417 10.3453 64.1392 10.3453 63.5341C10.3453 62.929 10.6479 62.6265 11.253 62.6265Z" fill="#4B5155"/>
<path d="M62.5343 60.2059C64.1983 60.0546 66.3161 60.0546 68.5852 59.6008C69.039 59.4495 69.039 59.7521 69.039 60.0546C69.1903 61.8699 69.3415 63.6851 69.4928 65.6517C69.4928 66.2567 69.1903 66.5593 68.5852 66.7106C64.8034 67.0131 61.0216 67.4669 57.2398 67.7695C56.4834 67.7695 56.0296 67.6182 56.0296 66.7106C55.8784 65.0466 55.7271 63.2313 55.5758 61.5673C55.5758 61.1135 55.5758 60.9622 56.1809 60.9622C57.9962 60.6597 59.9627 60.5084 62.5343 60.2059Z" fill="#F9E968"/>
<path d="M45.4405 18.7577C44.8355 18.6064 44.2304 18.3038 44.0791 17.5475C44.0791 16.7911 44.5329 16.4886 45.138 16.186C45.8944 16.3373 46.3482 16.4886 46.4994 17.2449C46.6507 18.1526 46.0456 18.6064 45.4405 18.7577Z" fill="#4B5155"/>
<path d="M48.6173 53.5501C48.0122 53.3989 47.4071 53.0963 47.2559 52.34C47.2559 51.5836 47.7097 51.2811 48.3148 50.9785C48.9199 51.1298 49.5249 51.2811 49.6762 52.0374C49.8275 52.945 49.3737 53.3989 48.6173 53.5501Z" fill="#4B5155"/>
<path d="M49.6761 65.1981C48.9198 65.1981 48.466 64.7443 48.3147 63.9879C48.3147 63.2316 48.7685 62.7777 49.3736 62.6265C50.13 62.7777 50.735 63.0803 50.735 63.8366C50.8863 64.593 50.4325 65.0468 49.6761 65.1981Z" fill="#4B5155"/>
<path d="M46.4996 30.4054C45.8945 30.4054 45.2894 30.1028 45.1381 29.3465C44.9869 28.5901 45.5919 28.1363 46.197 27.8337C46.9534 27.985 47.4072 28.2876 47.5585 29.0439C47.5585 29.8003 47.1047 30.2541 46.4996 30.4054Z" fill="#4B5155"/>
<path d="M47.5582 42.0538C46.8019 41.9025 46.348 41.6 46.1968 40.8436C46.1968 40.0873 46.4993 39.6334 47.2557 39.4822C48.012 39.4822 48.4659 39.7847 48.6171 40.5411C48.7684 41.4487 48.3146 41.7513 47.5582 42.0538Z" fill="#4B5155"/>
<path d="M58.601 58.2395C58.601 58.8446 58.2985 59.1471 57.8447 59.2984C57.2396 59.2984 56.937 58.9959 56.7858 58.3908C56.7858 57.7857 57.0883 57.4832 57.6934 57.4832C58.1472 57.4832 58.4498 57.7857 58.601 58.2395Z" fill="#4B5155"/>
<path d="M67.2238 57.4833C67.2238 58.0884 66.9213 58.3909 66.4675 58.5422C65.8624 58.5422 65.5598 58.2396 65.4086 57.6346C65.4086 57.0295 65.7111 56.7269 66.1649 56.7269C66.77 56.5757 67.0726 57.0295 67.2238 57.4833Z" fill="#4B5155"/>
<path d="M88.2506 55.9706C88.2506 56.727 87.948 57.0295 87.4942 57.1808C86.8891 57.1808 86.5866 56.8783 86.4353 56.4244C86.284 55.8194 86.7379 55.5168 87.1917 55.3655C87.7968 55.2142 88.0993 55.5168 88.2506 55.9706Z" fill="#4B5155"/>
<path d="M54.8194 21.1781C54.5168 20.1192 54.5168 18.909 54.3656 17.8501C54.2143 16.0348 54.063 14.2196 53.9117 12.4043C54.3656 13.7657 54.2143 14.9759 54.3656 16.3374C54.6681 18.0014 54.8194 19.5141 54.8194 21.1781Z" fill="#FEDB52"/>
<path d="M36.5153 58.391C38.3306 58.2397 39.9946 58.0884 41.8098 57.9372C43.02 57.7859 43.1713 58.0884 43.3226 59.1473C43.6251 61.8702 43.7764 64.4418 44.0789 67.1647C44.2302 68.5262 43.9277 68.98 42.5662 68.98C39.087 69.2825 35.6077 69.5851 32.2797 69.8876C31.0696 70.0389 30.6157 69.5851 30.4645 68.3749C30.1619 65.652 30.0107 62.9291 29.7081 60.2062C29.5568 59.1473 30.0107 58.8448 30.9183 58.8448C32.8848 58.6935 34.7001 58.5422 36.5153 58.391ZM33.1874 60.66C33.1874 60.0549 32.7336 59.7524 32.2797 59.7524C31.6746 59.7524 31.3721 60.2062 31.5234 60.66C31.5234 61.1138 31.9772 61.5677 32.431 61.5677C33.0361 61.5677 33.3386 61.2651 33.1874 60.66ZM41.0535 60.8113C41.5073 60.66 41.9611 60.3575 41.8098 59.7524C41.8098 59.1473 41.356 58.8448 40.9022 58.9961C40.2971 58.9961 39.9946 59.4499 40.1459 59.9037C40.1459 60.5088 40.5997 60.8113 41.0535 60.8113Z" fill="#F9E968"/>
<path d="M33.1874 60.6601C33.1874 61.2651 32.8849 61.5677 32.4311 61.5677C31.826 61.5677 31.5234 61.2651 31.5234 60.6601C31.5234 60.2062 31.826 59.7524 32.2798 59.7524C32.8849 59.7524 33.1874 60.055 33.1874 60.6601Z" fill="#4B5155"/>
<path d="M41.0535 60.8114C40.4484 60.8114 40.1459 60.5088 40.1459 59.9037C40.1459 59.4499 40.4484 58.9961 40.9022 58.9961C41.5073 58.9961 41.8099 59.2986 41.8099 59.7525C41.9611 60.3575 41.6586 60.6601 41.0535 60.8114Z" fill="#4B5155"/>
<path d="M69.7952 56.4243C70.0977 55.8192 70.8541 55.5167 71.3079 55.0629C74.6359 52.6425 77.8126 50.2222 81.1406 47.8018C84.3173 45.5327 86.2838 42.6586 86.7376 38.5742C87.0402 34.7924 87.6452 31.1619 88.4016 27.5314C89.0067 25.1111 88.7041 22.6907 89.4605 20.4216C93.6961 21.0267 97.9317 21.6318 102.016 22.2369C102.47 22.2369 103.226 22.0856 103.226 22.842C103.226 23.9009 103.378 25.2623 102.621 25.8674C101.714 26.775 102.016 27.2289 102.47 27.9852C102.167 31.3132 101.562 34.6412 101.108 37.8179C100.655 40.8433 100.503 43.8688 101.108 46.8942C101.26 47.348 101.108 47.8018 101.108 48.2556C98.6881 48.4069 96.2677 49.1633 93.8474 49.6171C95.0576 51.2811 96.1165 52.7938 97.3266 54.4578C95.2088 56.1218 92.7885 57.3319 90.5194 58.6934C86.7376 60.9625 82.8045 63.2315 79.0227 65.5006C78.5689 65.8032 78.1151 66.1057 77.51 66.1057C76.2998 62.3239 73.577 58.8447 69.7952 56.4243ZM79.3253 58.5421C77.9638 57.937 77.0562 58.5421 76.4511 59.601C77.8126 60.5086 78.5689 59.4497 79.3253 58.5421ZM92.0321 26.775C93.3936 26.3212 93.3936 25.4136 92.7885 24.3547C92.0321 24.9598 91.1245 25.5649 92.0321 26.775ZM96.419 24.8085C95.0575 26.0187 95.0575 26.0187 95.6626 27.2289C96.8728 26.775 96.7215 25.8674 96.419 24.8085ZM99.8982 25.4136C98.5368 26.4725 98.5368 26.4725 99.1419 27.8339C100.352 27.2289 100.503 26.4725 99.8982 25.4136ZM78.5689 62.4752C79.174 62.4752 79.9304 62.929 80.5355 62.4752C80.6867 62.3239 80.5355 61.7188 80.2329 61.5675C79.4766 61.1137 79.174 62.1726 78.5689 62.4752ZM77.0562 55.668C76.2998 55.8192 75.6948 55.0629 75.0897 55.9705C75.0897 56.1218 74.7871 56.5756 75.2409 56.7269C76.1486 56.8781 76.4511 56.273 77.0562 55.668Z" fill="#F1F2F2"/>
<path d="M102.621 28.288C102.319 27.5316 102.016 26.9266 102.773 26.1702C103.529 25.4139 103.378 24.2037 103.378 23.1448C103.378 22.3884 102.621 22.5397 102.167 22.5397C97.9319 21.9346 93.6963 21.3295 89.6119 20.7244C89.7632 19.2117 90.0658 17.8503 90.217 16.3375C90.3683 15.5812 90.6708 15.2786 91.4272 15.4299C95.5115 16.035 99.4446 16.6401 103.529 17.2452C104.285 17.3964 104.437 17.699 104.437 18.4553C104.134 21.3295 103.831 24.3549 103.378 27.2291C103.226 27.3804 102.924 27.8342 102.621 28.288Z" fill="#CE1B24"/>
<path d="M69.7952 56.4243C73.577 58.8447 76.1486 62.3239 77.8126 66.5595C75.3922 67.921 71.1566 66.4082 69.6439 64.4417C67.8286 62.3239 67.6774 59.4497 69.1901 57.0294C69.3414 56.8781 69.4926 56.4243 69.7952 56.4243Z" fill="#CE1B24"/>
<path d="M97.6293 54.7605C96.5704 53.2478 95.3602 51.5838 94.15 49.9198C96.5704 49.466 98.8395 48.7096 101.411 48.5583C101.26 51.2812 100.503 53.5503 97.6293 54.7605Z" fill="#F1F2F2"/>
<path d="M79.3254 58.5422C78.5691 59.4498 77.8127 60.5087 76.4513 59.6011C77.0564 58.5422 77.964 58.0884 79.3254 58.5422Z" fill="#F1F2F2"/>
<path d="M92.0322 26.7753C91.1246 25.5652 92.0322 24.9601 92.7886 24.355C93.3936 25.4139 93.3936 26.1703 92.0322 26.7753Z" fill="#F1F2F2"/>
<path d="M96.419 24.8088C96.7215 25.8677 96.8728 26.7754 95.6626 27.2292C95.0576 26.019 95.0576 26.019 96.419 24.8088Z" fill="#F1F2F2"/>
<path d="M99.8983 25.4138C100.352 26.4727 100.201 27.3803 99.1419 27.8342C98.5368 26.4727 98.5368 26.4727 99.8983 25.4138Z" fill="#F1F2F2"/>
<path d="M77.0564 55.6679C76.6026 56.2729 76.1488 56.878 75.2411 56.5755C74.7873 56.4242 75.0899 55.9704 75.0899 55.8191C75.5437 55.0628 76.3 55.8191 77.0564 55.6679Z" fill="#F1F2F2"/>
<path d="M102.167 22.3882L103.983 22.6907L103.529 25.2623L102.47 25.4136L102.167 22.3882Z" fill="#F1F2F2"/>
<path d="M82.3507 73.3671C82.9558 72.9133 83.2584 71.8544 84.166 72.4594C84.4685 72.6107 84.6198 73.3671 84.4685 73.3671C83.8634 73.9722 83.1071 73.3671 82.3507 73.3671Z" fill="#E24228"/>
<path d="M73.1233 65.5008C73.4258 64.7445 74.1822 64.4419 74.7873 63.9881C78.4178 61.4165 81.897 58.6936 85.5276 56.122C89.0068 53.7016 91.1246 50.3736 91.5784 45.9868C92.0323 41.9024 92.4861 37.8181 93.3937 33.885C93.9988 31.3134 93.6962 28.7418 94.6039 26.1702C99.142 26.9265 103.831 27.5316 108.37 28.288C108.823 28.4392 109.731 28.1367 109.731 29.0443C109.731 30.2545 109.882 31.6159 109.126 32.3723C108.218 33.2799 108.521 33.885 108.975 34.7927C108.672 38.4232 108.067 41.9024 107.462 45.5329C107.008 48.8609 106.706 52.0376 107.613 55.3656C107.765 55.8194 107.613 56.2732 107.613 56.7271C104.89 56.8783 102.319 57.786 99.7471 58.2398C101.109 60.055 102.319 61.719 103.529 63.383C101.26 65.1983 98.5369 66.5597 96.1166 68.0724C91.881 70.6441 87.7966 73.0644 83.561 75.4847C83.1072 75.7873 82.6534 76.2411 82.0483 76.2411C80.0818 71.8542 77.2076 68.2237 73.1233 65.5008ZM83.4098 67.7699C81.8971 67.1648 80.9894 67.7699 80.2331 68.9801C81.7458 69.8877 82.5021 68.6775 83.4098 67.7699ZM97.3268 33.1287C98.8395 32.5236 98.8395 31.6159 98.2344 30.4058C97.1755 31.1621 96.2679 31.7672 97.3268 33.1287ZM102.016 31.0109C100.503 32.3723 100.503 32.3723 101.109 33.7338C102.621 33.1287 102.47 32.221 102.016 31.0109ZM105.798 31.6159C104.285 32.8261 104.285 32.8261 104.89 34.1876C106.252 33.7337 106.403 32.8261 105.798 31.6159ZM82.6534 72.1568C83.4098 72.1568 84.1661 72.6106 84.7712 72.1568C84.9225 72.0055 84.7712 71.4004 84.4687 71.2491C83.561 70.644 83.2585 71.703 82.6534 72.1568ZM80.8381 64.5932C80.0818 64.7445 79.3254 63.9881 78.7203 64.8957C78.7203 65.047 78.4178 65.5008 78.8716 65.6521C79.9305 65.9546 80.233 65.3495 80.8381 64.5932Z" fill="white"/>
<path d="M108.823 34.7924C108.369 34.0361 108.067 33.2797 108.974 32.3721C109.731 31.6157 109.58 30.103 109.58 29.0441C109.58 28.2878 108.672 28.439 108.218 28.2878C103.68 27.5314 98.9905 26.9263 94.4524 26.17C94.6037 24.6572 94.9062 22.9932 95.0575 21.4805C95.2088 20.7242 95.5113 20.4216 96.4189 20.4216C100.806 21.0267 105.193 21.7831 109.58 22.3882C110.336 22.5394 110.638 22.842 110.487 23.7496C110.033 26.9263 109.731 30.103 109.428 33.2797C109.428 33.8848 109.126 34.3386 108.823 34.7924Z" fill="#E24228"/>
<path d="M73.1231 65.5007C77.2075 68.2236 80.0816 72.0054 81.7456 76.5436C79.174 77.905 74.4846 76.3923 72.8206 74.2745C70.8541 71.8541 70.7028 68.8287 72.3668 66.2571C72.518 65.9545 72.6693 65.5007 73.1231 65.5007Z" fill="#E24228"/>
<path d="M103.378 63.6852C102.167 62.0213 100.957 60.206 99.5958 58.542C102.167 57.9369 104.739 57.1806 107.462 57.0293C107.311 59.9035 106.403 62.4751 103.378 63.6852Z" fill="#E24228"/>
<path d="M83.4097 67.7699C82.5021 68.6775 81.7457 69.8876 80.233 68.98C80.9894 67.7698 81.897 67.1648 83.4097 67.7699Z" fill="white"/>
<path d="M97.3264 33.1287C96.2675 31.7672 97.3264 31.1621 98.234 30.4058C98.6878 31.6159 98.6879 32.5236 97.3264 33.1287Z" fill="white"/>
<path d="M102.016 31.0107C102.47 32.2209 102.621 33.2798 101.108 33.7336C100.503 32.3722 100.503 32.3722 102.016 31.0107Z" fill="white"/>
<path d="M105.798 31.6157C106.403 32.8259 106.1 33.7335 104.89 34.1873C104.437 32.8259 104.436 32.8259 105.798 31.6157Z" fill="white"/>
<path d="M80.8379 64.5931C80.2328 65.3494 79.779 65.9545 78.8714 65.652C78.4176 65.5007 78.5688 65.0469 78.7201 64.8956C79.3252 63.988 80.0816 64.7444 80.8379 64.5931Z" fill="white"/>
<path d="M108.369 28.4392L110.185 28.7417L109.882 31.4646L108.672 31.6159L108.369 28.4392Z" fill="white"/>
</svg>
