<svg width="35" height="77" viewBox="0 0 35 77" fill="none" xmlns="http://www.w3.org/2000/svg">
<path d="M34.2156 71.8603C34.2156 71.8603 33.4592 73.373 31.0389 74.4319C28.6185 75.4908 21.2062 76.8522 13.6426 76.3984C6.07906 75.9446 2.14599 74.1293 0.784546 71.709L34.2156 71.8603Z" fill="#5CA2C1"/>
<path d="M0.784546 15.2845V71.5576C0.784546 71.5576 4.41507 76.3983 18.1808 75.6419C32.0978 74.8856 34.0643 71.7089 34.0643 71.7089V15.2845C34.0643 15.2845 33.9131 14.0743 30.8876 13.4692H3.96125C4.11252 13.4692 1.84345 13.6205 0.784546 15.2845Z" fill="#63B7E6"/>
<path opacity="0.3" d="M1.38964 17.251C1.38964 17.251 14.7016 23.9069 33.0054 17.856L34.0643 30.4116V15.4357C34.0643 15.4357 32.0978 16.9484 28.6186 17.5535C25.1393 18.1586 11.2223 20.2764 0.784546 15.2844V29.3527L1.38964 17.251Z" fill="white"/>
<path opacity="0.3" d="M0.784546 71.1038C0.784546 71.1038 6.68415 66.2631 18.6346 66.8681C30.5851 67.4732 34.0643 71.1038 34.0643 71.1038V57.9431L33.308 68.6834C33.308 68.6834 18.4833 61.1198 1.5409 68.986L0.935815 59.1533V71.1038H0.784546Z" fill="white"/>
<path d="M33.3081 66.8679C33.3081 66.8679 28.9212 69.137 25.8958 68.6832" stroke="white" stroke-miterlimit="10" stroke-linecap="round"/>
<path d="M33.308 62.9351C33.308 62.9351 31.1902 64.2965 27.7109 64.2965" stroke="white" stroke-miterlimit="10" stroke-linecap="round"/>
<path d="M33.1566 58.8506C33.1566 58.8506 30.8875 60.0608 27.8621 60.0608" stroke="white" stroke-miterlimit="10" stroke-linecap="round"/>
<path d="M33.3079 54.6152C33.3079 54.6152 30.585 55.8254 27.8621 55.8254" stroke="white" stroke-miterlimit="10" stroke-linecap="round"/>
<path d="M33.3079 50.3794C33.3079 50.3794 30.4337 51.7408 27.8621 51.5896" stroke="white" stroke-miterlimit="10" stroke-linecap="round"/>
<path d="M27.7109 47.3541C27.7109 47.3541 31.1902 47.3541 33.1567 46.2952" stroke="white" stroke-miterlimit="10" stroke-linecap="round"/>
<path d="M27.7109 43.1184C27.7109 43.1184 31.3415 43.1184 33.1567 41.9082" stroke="white" stroke-miterlimit="10" stroke-linecap="round"/>
<path d="M27.7109 38.8826C27.7109 38.8826 30.8877 39.0339 33.308 37.8237" stroke="white" stroke-miterlimit="10" stroke-linecap="round"/>
<path d="M27.7109 34.7985C27.7109 34.7985 31.3415 34.9497 33.308 33.437" stroke="white" stroke-miterlimit="10" stroke-linecap="round"/>
<path d="M27.7109 30.5627C27.7109 30.5627 31.1902 30.714 33.1567 29.3525" stroke="white" stroke-miterlimit="10" stroke-linecap="round"/>
<path d="M27.7109 26.176C27.7109 26.176 31.0389 26.3273 33.1567 24.9658" stroke="white" stroke-miterlimit="10" stroke-linecap="round"/>
<path d="M24.988 22.394C24.988 22.394 29.6775 22.5453 33.0054 20.4275" stroke="white" stroke-miterlimit="10" stroke-linecap="round"/>
<path d="M3.96143 8.32608L4.11271 14.3769C4.11271 14.3769 6.38178 17.5537 17.1221 17.4024C27.8624 17.2511 30.7365 15.1333 30.8878 14.2257V8.1748L3.96143 8.32608Z" fill="#414042"/>
<path d="M4.56646 9.08238C4.56646 9.08238 6.83554 11.0489 12.5839 11.3515C18.3322 11.654 27.711 11.654 30.7365 8.77984C30.7365 8.77984 31.7954 7.56967 29.0725 6.66204C26.3496 5.75441 22.5678 4.99805 16.3657 4.99805C10.1635 4.99805 4.41519 6.66204 4.11265 8.32603C3.96138 8.32603 3.8101 8.4773 4.56646 9.08238Z" fill="black"/>
<path d="M26.652 2.27513C26.652 2.27513 28.316 3.4853 26.5007 5.90565L27.5596 6.81328L29.2236 6.66201C29.2236 6.66201 30.2825 2.27513 29.3749 1.06495C28.4673 -0.145221 27.4084 0.0060509 27.4084 0.0060509L26.652 2.27513Z" fill="black"/>
<path d="M24.5343 0.157227C24.5343 0.157227 20.9038 4.39284 15.6093 6.66191C15.6093 6.66191 13.9453 7.11573 14.2478 7.72081C14.5504 8.3259 18.0296 8.62844 20.1474 8.02336C20.1474 8.02336 20.6012 7.56954 20.45 7.41827C20.45 7.41827 24.0805 5.60301 25.2907 3.93902C26.6521 2.27503 27.8623 0.157227 27.8623 0.157227H24.5343Z" fill="#414042"/>
<path d="M17.4245 8.47737C19.2625 8.47737 20.7525 8.07101 20.7525 7.56974C20.7525 7.06847 19.2625 6.66211 17.4245 6.66211C15.5865 6.66211 14.0966 7.06847 14.0966 7.56974C14.0966 8.07101 15.5865 8.47737 17.4245 8.47737Z" fill="#414042"/>
<path d="M17.4245 9.08235C19.2625 9.08235 20.7525 8.67599 20.7525 8.17472C20.7525 7.67345 19.2625 7.26709 17.4245 7.26709C15.5865 7.26709 14.0966 7.67345 14.0966 8.17472C14.0966 8.67599 15.5865 9.08235 17.4245 9.08235Z" fill="#414042"/>
<path d="M14.0966 7.56958V8.17467L15.7605 8.77975H19.6936L20.7525 8.17467V7.56958H14.0966Z" fill="#414042"/>
</svg>
