<?xml version="1.0" encoding="utf-8"?>
<!-- Generator: Adobe Illustrator 27.0.0, SVG Export Plug-In . SVG Version: 6.00 Build 0)  -->
<svg version="1.1" id="Layer_1" xmlns="http://www.w3.org/2000/svg" xmlns:xlink="http://www.w3.org/1999/xlink" x="0px" y="0px"
	 viewBox="0 0 73.7 73.7" style="enable-background:new 0 0 73.7 73.7;" xml:space="preserve">
<image style="overflow:visible;opacity:0.5;" width="1000" height="1000" xlink:href="../../Mirror/Other Publications/Passport/Stamps/Passport Stickers/500/CABESticker_500.png"  transform="matrix(7.674115e-02 0 0 7.674115e-02 119.7757 -7.1989)">
</image>
<path d="M36.9,71.4c19,0,34.5-15.5,34.5-34.5S55.9,2.3,36.9,2.3c-19,0-34.5,15.5-34.5,34.5S17.8,71.4,36.9,71.4z M66.9,36.8
	C66.9,53.5,53.4,67,36.7,67S6.5,53.5,6.5,36.8S20,6.6,36.7,6.6S66.9,20.1,66.9,36.8z"/>
<path d="M36.9,73.7c20.3,0,36.9-16.5,36.9-36.9S57.2,0,36.9,0C16.5,0,0,16.5,0,36.9S16.5,73.7,36.9,73.7z M36.9,1.1
	c19.7,0,35.8,16.1,35.8,35.8S56.6,72.6,36.9,72.6c-19.7,0-35.8-16.1-35.8-35.8S17.1,1.1,36.9,1.1z"/>
<g>
	<path d="M18.6,23.9c0.1,0.8,0,1.5-0.5,2.3c-0.2,0.3-0.4,0.7-0.6,0.9c-0.2,0.3-0.4,0.5-0.6,0.7l-4.5-2.7c0.2-0.5,0.3-0.8,0.3-1
		c0.1-0.3,0.3-0.7,0.5-1.1c0.2-0.3,0.5-0.6,0.8-0.9c0.5-0.4,0.9-0.6,1.4-0.6c0.6-0.1,1.3,0,1.9,0.4C18,22.4,18.5,23.1,18.6,23.9z
		 M15.1,23c-0.3,0.2-0.6,0.4-0.8,0.7c-0.1,0.2-0.2,0.4-0.3,0.5s-0.1,0.3-0.1,0.3l2.6,1.6c0.1-0.1,0.1-0.1,0.2-0.2
		c0.2-0.2,0.3-0.3,0.4-0.5c0.3-0.4,0.3-0.9,0.2-1.3s-0.4-0.8-0.8-1C16,22.8,15.5,22.7,15.1,23z"/>
	<path d="M20.3,22.7l-3.8-3.9l2.8-2.7l0.8,0.8l-1.9,1.8l0.4,0.5l1.2-1.1l0.8,0.8L19.6,20l0.9,1l2-1.9l0.9,0.8L20.3,22.7z"/>
	<path d="M24.1,19.3l-2.8-4.7l3.4-2l0.6,1l-2.2,1.3l0.3,0.5l1.4-0.8l0.6,1L24,16.4l0.7,1.1l2.4-1.4l0.7,1L24.1,19.3z"/>
	<path d="M31.4,13.7c-0.3,0.4-0.7,0.8-1.2,1.1c-0.1,0.1-0.3,0.2-0.6,0.3c-0.1,0-0.1,0.1-0.2,0.1l0.4,1.2l-1.3,0.4L27,11.7
		c0.3-0.2,0.6-0.4,0.9-0.5s0.6-0.3,0.9-0.4c0.7-0.2,1.3-0.2,1.8-0.1c0.6,0.2,1,0.6,1.2,1.2C32,12.5,31.9,13.1,31.4,13.7z M30,12
		c-0.2,0-0.5,0-0.7,0.1c-0.2,0.1-0.3,0.1-0.4,0.2c-0.1,0.1-0.2,0.1-0.3,0.1l0.4,1.5l0.1,0l0.8-0.5c0.4-0.3,0.6-0.7,0.5-1
		C30.4,12.1,30.3,12,30,12z"/>
	<path d="M41.5,15.8L41.5,15.8c-0.1,0-0.1,0-0.2,0c0,0-0.1,0-0.1,0c-0.2-0.1-0.3-0.1-0.4-0.1c-0.1-0.1-0.3-0.3-0.6-0.5
		c-0.2-0.2-0.2-0.3-0.3-0.4c-0.1-0.1-0.1-0.2-0.2-0.2c-0.1-0.2-0.2-0.3-0.3-0.4c0-0.1-0.1-0.1-0.1-0.2c-0.1,0-0.2,0-0.2,0
		c-0.2,0-0.4,0.1-0.6,0l-0.1,1.3l-1.3-0.1l0.6-5.3c0.2-0.1,0.5-0.1,0.9-0.1c0.5,0,0.8,0,1,0c0.7,0.1,1.3,0.3,1.7,0.6
		c0.5,0.4,0.7,0.9,0.7,1.5c0,0.4-0.2,0.7-0.4,1c-0.2,0.3-0.5,0.5-0.9,0.7c0.4,0.5,0.6,0.8,0.6,0.8c0.3,0.3,0.6,0.5,0.9,0.5
		L41.5,15.8z M40.3,11.2c-0.2-0.1-0.4-0.2-0.7-0.2c-0.2,0-0.4,0-0.5,0c-0.1,0-0.2,0-0.3,0.1l-0.2,1.5c0.5,0,0.9-0.1,1.3-0.3
		c0.4-0.2,0.6-0.4,0.7-0.6C40.6,11.5,40.5,11.3,40.3,11.2z"/>
	<path d="M43.1,16l1.7-5.2l1.2,0.4l-1.7,5.2L43.1,16z"/>
	<path d="M52.1,15.4c-0.7,0.6-1.4,1.1-2.1,1.5c-0.9,0.6-1.7,1-2.3,1.1c-0.2-0.6-0.2-1.4-0.2-2.5c0-0.8,0.1-1.7,0.2-2.6
		c0.1-0.6,0.1-1,0.2-1.2l1.2,0.7c0,0.2-0.1,0.4-0.1,0.6c-0.1,0.5-0.1,1-0.2,1.4c-0.1,0.6-0.1,1.2,0,1.7c0.4-0.2,0.9-0.5,1.4-0.9
		c0.3-0.2,0.7-0.5,1.1-0.8c0.2-0.1,0.3-0.2,0.4-0.4l1.2,0.7C52.8,14.8,52.5,15,52.1,15.4z"/>
	<path d="M50.7,19.9l3.8-3.9l2.8,2.7l-0.8,0.9l-1.9-1.8l-0.4,0.5l1.2,1.1l-0.8,0.8L53.4,19l-0.9,1l2,1.9l-0.8,0.9L50.7,19.9z"/>
	<path d="M56.5,27.4L56.5,27.4c0-0.1-0.1-0.1-0.1-0.1c0,0,0-0.1,0-0.1c-0.1-0.2-0.1-0.3-0.1-0.4c0-0.2,0-0.4,0-0.8
		c0-0.2,0.1-0.4,0.1-0.5c0-0.1,0-0.2,0.1-0.3c0-0.2,0.1-0.3,0.1-0.5c0-0.1,0.1-0.2,0.1-0.2c-0.1,0-0.1-0.1-0.2-0.1
		c-0.2-0.1-0.3-0.3-0.4-0.4L55,24.6l-0.7-1.1l4.5-2.8c0.1,0.1,0.4,0.3,0.7,0.7s0.5,0.6,0.6,0.8c0.4,0.6,0.6,1.2,0.6,1.7
		c0,0.6-0.2,1.1-0.8,1.5c-0.3,0.2-0.6,0.3-1,0.3c-0.3,0-0.7-0.1-1.1-0.3c-0.2,0.6-0.3,0.9-0.3,1c-0.1,0.4,0,0.7,0.2,1L56.5,27.4z
		 M59.4,23.7c0-0.2-0.1-0.4-0.3-0.7c-0.1-0.2-0.2-0.3-0.3-0.4s-0.2-0.2-0.3-0.2l-1.3,0.8c0.3,0.4,0.6,0.7,1,0.8
		c0.4,0.2,0.7,0.3,0.9,0.1C59.4,24.1,59.4,23.9,59.4,23.7z"/>
</g>
<path d="M53,32.7c0.2,0,0.4,0,0.5,0c0.5-0.1,0.6,0,0.5,0.5c0,0.1,0,0.1,0,0.2c0.2-0.1,0.3-0.3,0.4-0.4c0.4-0.3,0.6-0.1,0.7,0.3
	c0.1,0.2,0.1,0.4,0.2,0.6c0.2,0.4,0.2,0.8-0.1,1.1c-0.1,0.2-0.3,0.4-0.5,0.5c-0.3,0.3-0.6,0.5-0.7,0.9c0,0.3-0.3,0.4-0.6,0.2
	c-0.4-0.2-0.8-0.4-1.2-0.5c-0.4-0.1-0.8-0.2-1.2-0.4c-0.1,0.4,0.1,0.6,0.4,0.7c0.8,0.2,0.8,0.3,0.7,1.2c0.1,0,0.2,0,0.3,0
	c0.6,0.1,0.9,0.6,0.5,1.2c-0.1,0.2-0.3,0.4-0.4,0.5c-0.4,0.5-0.8,0.7-1.4,0.7c-1.6,0.1-2.9,0.8-3.9,2c-0.3,0.4-0.6,0.8-0.9,1.3
	c-0.1,0.2-0.2,0.4-0.3,0.6c-0.1,0.1-0.2,0.2-0.3,0.2c-0.5,0-1,0-1.4,0.1c-0.2,0-0.4,0.1-0.5,0.2c-0.3,0.3-0.5,0.2-0.8-0.1
	c-0.1-0.1-0.2-0.2-0.3-0.4c-1.4-1.3-2.7-2.7-4.1-4c-0.1-0.1-0.4-0.2-0.6-0.2c-1.3,0-2.6-0.1-3.9-0.1c-0.3,0-0.5-0.1-0.6-0.4
	c-0.3-1.1-1.1-1.6-2.3-1.6c-1.5,0-3-0.1-4.4-0.1c-0.3,0-0.5,0.1-0.8,0.2c-1,0.4-2,0.6-3,0.6c-1.3,0-2.6,0-3.8,0
	c-0.5,0-0.8-0.3-0.8-0.8c0-0.3,0.1-0.6,0.2-0.9c0.1-0.3,0.3-0.4,0.6-0.4c0.2,0,0.3-0.1,0.4-0.3c0.1-0.3,0.3-0.5,0.5-0.7
	c0.3-0.3,0.6-0.5,1-0.5c1.2,0.1,2.1-0.5,3-1.3c0.2-0.2,0.4-0.4,0.6-0.6c0.3-0.3,0.7-0.5,1.1-0.3c0.3,0.1,0.5,0,0.7-0.2
	c0.5-0.5,0.9-0.7,1.6-0.2c0.1-0.2,0.2-0.4,0.3-0.5c0.2-0.2,0.3-0.4,0.5-0.5c0.3-0.1,0.4-0.3,0.5-0.6c0.2-0.8,0.5-1,1.3-1.1
	c1.3,0,2.5-0.1,3.8-0.1c6.4,0,12.8,0.1,19.3,0.1c0.4,0,0.6,0.1,0.7,0.4c0.2,0.5,0.4,1,0.6,1.4c0.2,0.7-0.2,1.1-0.8,0.8
	C53.8,32.1,53.4,32.4,53,32.7z"/>
<g>
	<path d="M17.3,53.9c-0.3,0.2-0.9,0.7-1.3,0.9c-0.3,0.3-0.6,0.5-0.9,0.8l-0.5-0.5l0.8-0.7c0.5-0.4,0.9-0.8,1.3-1
		c0.5-0.3,1-0.6,1.4-0.7L17.8,56l1.8-1.8l0.5,0.5l-3,3L17.3,53.9z"/>
	<path d="M20.6,60.1c-0.3-0.1-0.6-0.2-0.8-0.4c-0.5-0.3-0.8-0.8-0.8-1.4c-0.1-0.6,0-1.1,0.3-1.5c0.4-0.5,0.8-0.8,1.4-0.9
		s1.1,0,1.6,0.4c0.2,0.2,0.4,0.4,0.6,0.7c0.1,0.2,0.2,0.5,0.3,0.7l-0.6,0.2l-0.1-0.5c-0.1-0.2-0.3-0.4-0.5-0.6
		c-0.3-0.2-0.7-0.3-1.1-0.2c-0.4,0.1-0.7,0.3-1,0.6c-0.2,0.3-0.3,0.6-0.2,1c0,0.4,0.2,0.8,0.6,1.1c0.2,0.1,0.3,0.2,0.6,0.3
		c0.4,0.1,0.4,0.1,0.8,0.1l-0.2,0.6C21.2,60.2,20.9,60.1,20.6,60.1z"/>
	<path d="M27,62.9c-0.4,0.2-0.8,0.2-1.3,0c-0.2-0.1-0.5-0.3-0.7-0.5c-0.3-0.2-0.4-0.4-0.5-0.5l0.5-0.6c0.1,0.2,0.3,0.4,0.5,0.5
		c0.2,0.1,0.3,0.2,0.5,0.3c0.1,0.1,0.4,0.1,0.6,0.1c0.2,0,0.3-0.1,0.4-0.3c0.1-0.2,0-0.5-0.3-0.7c-0.2-0.1-0.5-0.3-0.7-0.5
		c-0.2-0.2-0.4-0.3-0.4-0.6c-0.1-0.2,0-0.4,0.1-0.6c0.1-0.3,0.3-0.5,0.6-0.7c0.3-0.2,0.7-0.2,1.2,0c0.2,0.1,0.3,0.2,0.5,0.3
		c0.1,0.1,0.2,0.2,0.3,0.4l-0.4,0.5l-0.3-0.3c-0.1-0.1-0.2-0.1-0.3-0.2c-0.1-0.1-0.4-0.1-0.5,0c-0.1,0-0.3,0.1-0.3,0.3
		c-0.1,0.3,0.2,0.5,0.5,0.7c0.2,0.1,0.4,0.3,0.5,0.4c0.3,0.3,0.5,0.7,0.3,1.2C27.6,62.4,27.3,62.8,27,62.9z"/>
	<path d="M29.8,61.7l-0.4,1.4c0,0.2,0,0.3,0.1,0.3c0.1,0,0.2,0,0.3,0l0.2,0.6c-0.3,0.1-0.6,0.1-0.8,0.1c-0.2-0.1-0.4-0.2-0.4-0.3
		c-0.1-0.2-0.1-0.6,0-0.8l0.4-1.4l-0.5-0.1l0.2-0.6l0.5,0.1l0.2-0.7l0.6,0.2l-0.2,0.7l0.7,0.2l-0.1,0.6L29.8,61.7z"/>
	<path d="M32.7,61.4c0.3,0,0.5,0.1,0.7,0.3c0.2,0.2,0.3,0.4,0.3,0.5c0.1,0.2,0.1,0.4,0,0.6l0,0.1c0,0.2-0.1,0.3-0.1,0.5
		c0,0.1,0,0.3,0,0.4c0,0.2,0,0.3,0.2,0.6l-0.5,0.4l-0.2-0.3c-0.2,0.1-0.7,0.1-1.1,0.1c-0.3,0-0.6-0.2-0.8-0.4
		c-0.2-0.2-0.3-0.5-0.2-0.8c0-0.2,0.2-0.4,0.4-0.6c0.3-0.2,0.6-0.2,0.9-0.2l0,0c0.2,0,0.5,0.2,0.7,0.3c0.1-0.4-0.2-0.7-0.6-0.8
		c-0.3,0-0.4,0-0.7,0.2l-0.3-0.6C31.9,61.4,32.1,61.3,32.7,61.4z M32.2,64c0.2,0,0.5,0,0.7,0l0.1-0.5c-0.2-0.1-0.4-0.3-0.7-0.3
		c-0.4,0-0.6,0.1-0.6,0.3C31.6,63.7,31.8,64,32.2,64C32.2,64,32.2,64,32.2,64z"/>
	<path d="M35.9,62.5l0,1.5c0,0.2,0.1,0.3,0.2,0.3c0.1,0,0.2,0,0.3-0.1l0.3,0.5c-0.3,0.2-0.6,0.3-0.8,0.2c-0.2,0-0.4-0.1-0.5-0.2
		c-0.2-0.1-0.2-0.5-0.2-0.8l0-1.5l-0.5,0l0-0.6l0.5,0l0-0.7l0.7,0l0,0.7l0.7,0l0,0.6L35.9,62.5z"/>
	<path d="M38.8,61.6L38.8,61.6c0.4,0,0.7,0.1,1,0.3c0.3,0.2,0.5,0.5,0.6,1c0,0.1,0,0.2,0,0.2c0,0.1,0,0.2,0,0.3l-2.4,0.2
		c0.2,0.5,0.8,0.6,1.2,0.6c0,0,0,0,0,0c0.3,0,0.6-0.2,0.8-0.5l0.4,0.5c-0.3,0.4-0.8,0.6-1.4,0.6l0,0c-0.5,0-0.9-0.1-1.2-0.4
		c-0.4-0.3-0.5-0.6-0.6-1l0-0.1c0-0.5,0.1-0.9,0.4-1.2C38,61.8,38.3,61.6,38.8,61.6z M39.8,62.8c-0.1-0.4-0.5-0.5-0.9-0.5
		c-0.4,0-0.8,0.3-0.9,0.7L39.8,62.8z"/>
	<path d="M45,59.9l1.1,3.3l-0.6,0.2l-1.1-3.3L43,60.7L42.7,60l3.6-1.2l0.2,0.6L45,59.9z"/>
	<path d="M48.4,59.6C48.4,59.6,48.4,59.6,48.4,59.6C48.1,59.7,48,59.9,48,60c0,0.1,0,0.3,0.2,0.7l0.7,1.4l-0.6,0.3l-0.8-1.7
		c-0.2-0.3-0.3-0.5-0.5-0.6l0.3-0.7c0.1,0,0.2,0.1,0.4,0.1c0.1-0.2,0.2-0.4,0.6-0.6c0.4-0.2,0.7-0.1,0.7-0.1l-0.1,0.7
		C48.7,59.5,48.6,59.5,48.4,59.6z"/>
	<path d="M50.1,57.8c0.3-0.2,0.5-0.2,0.7-0.2c0.3,0,0.5,0.1,0.6,0.2c0.2,0.1,0.3,0.3,0.4,0.4l0.1,0.1c0.1,0.1,0.2,0.3,0.3,0.4
		c0.1,0.1,0.2,0.2,0.2,0.3c0.2,0.2,0.2,0.2,0.5,0.3L52.8,60l-0.3-0.1c-0.1,0.2-0.5,0.5-0.8,0.7c-0.3,0.2-0.6,0.2-0.9,0.1
		c-0.3-0.1-0.5-0.2-0.7-0.5C50,60.1,50,59.9,50,59.6c0.1-0.3,0.3-0.5,0.6-0.7l0,0c0.2-0.1,0.5-0.2,0.7-0.2c-0.2-0.4-0.6-0.4-0.9-0.2
		c-0.3,0.2-0.3,0.3-0.4,0.6l-0.6-0.2C49.5,58.3,49.6,58.1,50.1,57.8z M51.5,60.1c0.2-0.1,0.4-0.3,0.5-0.5l-0.3-0.4
		c-0.2,0-0.5,0-0.7,0.2c-0.3,0.2-0.3,0.5-0.2,0.6C50.8,60.2,51.1,60.3,51.5,60.1C51.4,60.1,51.4,60.1,51.5,60.1z"/>
	<path d="M52.3,55.6c0,0.1-0.1,0.2-0.2,0.3C52.1,56,52,56,51.9,56c-0.1,0-0.2-0.1-0.3-0.2c-0.1-0.1-0.1-0.2-0.1-0.3s0.1-0.2,0.2-0.3
		c0.1,0,0.1-0.1,0.2-0.1c0.1,0,0.1,0,0.2,0c0.1,0,0.1,0.1,0.2,0.1C52.3,55.4,52.4,55.5,52.3,55.6z M52.2,56.5l0.5-0.4l1.9,2.4
		l-0.5,0.4L52.2,56.5z"/>
	<path d="M52.7,54.2l0.5-0.5l3,3.3l-0.5,0.5L52.7,54.2z"/>
	<path d="M58.4,54.4c0,0.3-0.1,0.6-0.4,1c-0.1,0.2-0.3,0.3-0.6,0.5c-0.2,0.1-0.4,0.2-0.5,0.2l-0.3-0.6c0.1,0,0.2-0.1,0.2-0.1
		c0.3-0.1,0.6-0.3,0.7-0.5l0,0c0.2-0.3,0.2-0.6,0-0.7c0,0-0.1-0.1-0.1-0.1c-0.1,0-0.4,0.1-0.6,0.4c-0.3,0.3-0.6,0.4-0.9,0.4
		c-0.2,0-0.3-0.1-0.5-0.2c-0.2-0.2-0.3-0.4-0.3-0.7c0-0.3,0.1-0.6,0.3-0.9c0.1-0.1,0.2-0.2,0.4-0.3c0.1-0.1,0.2-0.1,0.4-0.2l0.3,0.6
		c-0.2,0.1-0.4,0.2-0.6,0.4c-0.3,0.3-0.2,0.5-0.1,0.6l0,0c0.2,0.2,0.7-0.5,1-0.6c0.2-0.1,0.3-0.1,0.5-0.1c0.2,0,0.3,0.1,0.6,0.3
		C58.3,53.9,58.4,54.1,58.4,54.4z"/>
</g>
</svg>
