<?xml version="1.0" encoding="utf-8"?>
<!-- Generator: Adobe Illustrator 27.0.0, SVG Export Plug-In . SVG Version: 6.00 Build 0)  -->
<svg version="1.1" id="Layer_1" xmlns="http://www.w3.org/2000/svg" xmlns:xlink="http://www.w3.org/1999/xlink" x="0px" y="0px"
	 viewBox="0 0 73.7 73.7" style="enable-background:new 0 0 73.7 73.7;" xml:space="preserve">
<image style="overflow:visible;opacity:0.5;" width="1000" height="1000" xlink:href="../../Mirror/Other Publications/Passport/Stamps/Passport Stickers/500/CABESticker_500.png"  transform="matrix(7.674115e-02 0 0 7.674115e-02 119.7757 -7.1989)">
</image>
<path d="M36.9,71.4c19,0,34.5-15.5,34.5-34.5S55.9,2.3,36.9,2.3c-19,0-34.5,15.5-34.5,34.5S17.8,71.4,36.9,71.4z M66.9,36.8
	C66.9,53.5,53.4,67,36.7,67S6.5,53.5,6.5,36.8S20,6.6,36.7,6.6S66.9,20.1,66.9,36.8z"/>
<path d="M36.9,73.7c20.3,0,36.9-16.5,36.9-36.9S57.2,0,36.9,0C16.5,0,0,16.5,0,36.9S16.5,73.7,36.9,73.7z M36.9,1.1
	c19.7,0,35.8,16.1,35.8,35.8S56.6,72.6,36.9,72.6c-19.7,0-35.8-16.1-35.8-35.8S17.1,1.1,36.9,1.1z"/>
<g>
	<path d="M15.1,34.5c0.1,0.4,0.2,0.8,0.1,1.3c0,0.8-0.4,1.5-1,2c-0.6,0.5-1.3,0.8-2,0.7c-0.8,0-1.5-0.4-2.1-1
		c-0.6-0.6-0.8-1.3-0.8-2.1c0-0.4,0.1-0.8,0.3-1.2c0.2-0.3,0.4-0.6,0.6-0.8l1,0.8l-0.5,0.6c-0.1,0.3-0.2,0.5-0.2,0.7
		c0,0.4,0.1,0.8,0.4,1.1c0.3,0.4,0.7,0.5,1.1,0.6c0.4,0,0.8-0.1,1.1-0.3c0.4-0.3,0.6-0.7,0.6-1.3c0-0.3,0-0.5,0-0.7
		c-0.1-0.4-0.2-0.7-0.5-1.1l1.3-0.3C14.8,33.7,14.9,34.1,15.1,34.5z"/>
	<path d="M17.1,28.3L17.1,28.3c0,0.1,0,0.1-0.1,0.1c0,0,0,0.1-0.1,0.1c-0.1,0.2-0.2,0.3-0.2,0.3c-0.1,0.1-0.3,0.3-0.6,0.5
		c-0.2,0.1-0.3,0.2-0.4,0.2c-0.1,0.1-0.2,0.1-0.3,0.1c-0.2,0.1-0.3,0.2-0.5,0.2c-0.1,0-0.2,0.1-0.2,0.1c0,0.1,0,0.2,0,0.2
		c0,0.2,0,0.4-0.1,0.6l1.2,0.4l-0.4,1.2l-5-1.7c0-0.2,0-0.5,0.1-0.9c0.1-0.5,0.2-0.8,0.2-1c0.2-0.7,0.5-1.2,1-1.6
		c0.5-0.4,1-0.5,1.6-0.3c0.3,0.1,0.6,0.3,0.8,0.6c0.2,0.3,0.4,0.6,0.5,1.1c0.6-0.3,0.9-0.4,1-0.4c0.4-0.2,0.6-0.4,0.7-0.7L17.1,28.3
		z M12.4,28.5c-0.1,0.2-0.3,0.4-0.3,0.6c-0.1,0.2-0.1,0.4-0.1,0.5s0,0.2,0,0.3l1.4,0.5c0.1-0.5,0.1-0.9,0-1.3
		c-0.1-0.5-0.3-0.7-0.5-0.8C12.7,28.3,12.5,28.3,12.4,28.5z"/>
	<path d="M19.4,22.5c0.2,0.8,0.1,1.7-0.4,2.5c-0.5,0.7-1.1,1.1-1.9,1.2s-1.5,0-2.2-0.5c-0.7-0.5-1.1-1.1-1.2-1.9
		c-0.1-0.8,0-1.6,0.5-2.2c0.4-0.6,1.1-1,1.8-1.2c0.8-0.1,1.5,0,2.2,0.4C18.8,21.2,19.2,21.8,19.4,22.5z M16.2,21.6
		c-0.4,0.1-0.8,0.3-1,0.7c-0.3,0.4-0.3,0.8-0.3,1.2c0.1,0.4,0.3,0.8,0.7,1c0.4,0.2,0.8,0.3,1.2,0.2c0.5-0.1,0.8-0.3,1-0.6
		c0.3-0.4,0.3-0.8,0.2-1.2s-0.3-0.8-0.7-1.1C17,21.6,16.6,21.6,16.2,21.6z"/>
	<path d="M23.2,14.6c0.3,0.7,0.6,1.3,0.7,1.8c0,0.1,0.1,0.4,0.3,0.9c0.1,0.2,0.1,0.4,0.2,0.5c0.1,0.4,0.2,0.7,0.2,1
		c0,0.2,0.1,0.4,0.1,0.6c-0.2,0-0.5-0.1-1-0.4c-0.6-0.3-1.1-0.6-1.7-1c0.2,0.6,0.3,1.1,0.4,1.6c0.1,0.5,0.2,1,0.2,1.4
		c-0.5-0.1-1.1-0.4-1.9-0.9c-0.6-0.4-1.3-0.8-2-1.4c-0.4-0.3-0.8-0.6-1.2-0.9l-0.1-0.1l1.1-0.9c0.1,0.1,0.4,0.4,1,0.8
		c0.5,0.4,1,0.7,1.2,0.8c0-0.2-0.1-0.5-0.2-0.9c-0.1-0.4-0.3-0.7-0.4-0.8l0-0.1c-0.3-0.3-0.6-0.4-0.7-0.5c-0.1,0,0,0,0-0.1l1-0.8
		c0.4,0.3,0.9,0.7,1.4,1c0.5,0.3,0.8,0.5,0.9,0.6c-0.1-0.3-0.3-0.8-0.6-1.5c-0.2-0.5-0.4-0.8-0.5-1l1.1-0.9l0.1,0.2
		C22.9,13.9,23,14.2,23.2,14.6z"/>
	<path d="M30.5,15.4c-0.4,0.7-1,1.2-1.8,1.5c-0.4,0.1-0.7,0.3-1.1,0.3c-0.3,0.1-0.7,0.1-0.9,0.2l-1.9-4.9c0.4-0.3,0.7-0.5,0.9-0.6
		c0.3-0.2,0.6-0.4,1-0.5c0.3-0.1,0.7-0.2,1.2-0.2c0.6,0,1.1,0.1,1.5,0.4c0.6,0.3,1,0.8,1.2,1.5C31,13.9,30.9,14.7,30.5,15.4z
		 M28.3,12.5c-0.4-0.1-0.7-0.1-1.1,0.1c-0.2,0.1-0.4,0.2-0.6,0.3c-0.1,0.1-0.2,0.1-0.3,0.2l1.1,2.9c0.1,0,0.2,0,0.3,0
		c0.2,0,0.4-0.1,0.6-0.2c0.5-0.2,0.8-0.5,1-0.9c0.2-0.4,0.2-0.8,0-1.3C29.2,12.9,28.9,12.6,28.3,12.5z"/>
	<path d="M32.7,15.5l-0.6-5.4L36,9.7l0.2,1.1l-2.6,0.3l0.1,0.6l1.6-0.2l0.1,1.2l-1.6,0.2l0.1,1.3l2.7-0.3l0.2,1.2L32.7,15.5z"/>
	<path d="M42.2,16L42.2,16c-0.1,0-0.1,0-0.2,0c0,0-0.1,0-0.1,0c-0.2-0.1-0.3-0.1-0.4-0.2c-0.1-0.1-0.3-0.3-0.6-0.6
		c-0.1-0.2-0.2-0.3-0.3-0.4c-0.1-0.1-0.1-0.2-0.2-0.2c-0.1-0.2-0.2-0.3-0.3-0.4c0-0.1-0.1-0.1-0.1-0.2c-0.1,0-0.2,0-0.2,0
		c-0.2,0-0.4,0.1-0.6,0L39,15.2l-1.3-0.2l0.7-5.2c0.2-0.1,0.5-0.1,0.9-0.1c0.5,0,0.8,0,1,0c0.7,0.1,1.3,0.3,1.7,0.7
		c0.5,0.4,0.7,0.9,0.6,1.5c-0.1,0.4-0.2,0.7-0.5,0.9c-0.2,0.3-0.5,0.5-1,0.7c0.4,0.5,0.5,0.8,0.6,0.9c0.2,0.3,0.5,0.5,0.8,0.5
		L42.2,16z M41.2,11.3c-0.2-0.1-0.4-0.2-0.7-0.2c-0.2,0-0.4,0-0.5,0c-0.1,0-0.2,0-0.3,0.1l-0.2,1.5c0.5,0,0.9-0.1,1.3-0.2
		c0.4-0.2,0.7-0.4,0.7-0.6C41.4,11.6,41.4,11.4,41.2,11.3z"/>
	<path d="M47,17c-0.6,0.2-1.2,0.2-1.8-0.1c-0.3-0.1-0.7-0.4-1.1-0.7s-0.6-0.6-0.7-0.7l0.9-1.1c0.2,0.3,0.4,0.6,0.7,0.8
		c0.2,0.2,0.5,0.3,0.7,0.4c0.2,0.1,0.3,0.1,0.5,0.1c0.2,0,0.4-0.1,0.5-0.3c0.1-0.2,0-0.4-0.3-0.6c-0.3-0.2-0.6-0.4-0.9-0.6
		c-0.3-0.3-0.4-0.5-0.5-0.9c-0.1-0.3-0.1-0.7,0.1-1c0.2-0.4,0.5-0.7,0.9-0.9c0.5-0.2,1-0.2,1.7,0c0.3,0.1,0.5,0.2,0.7,0.4
		c0.1,0.1,0.3,0.3,0.6,0.6l-0.9,0.9L47.5,13c-0.1-0.1-0.3-0.2-0.5-0.3c-0.2-0.1-0.3-0.1-0.4-0.1c-0.1,0-0.2,0.1-0.2,0.2
		c-0.1,0.2,0.1,0.5,0.5,0.7c0.3,0.2,0.6,0.4,0.8,0.5c0.3,0.3,0.5,0.5,0.5,0.9c0.1,0.3,0,0.7-0.1,1C47.8,16.5,47.5,16.8,47,17z"/>
	<path d="M54.3,23.4c0.2-0.2,0.5-0.6,0.8-1c0.4-0.5,0.6-0.9,0.7-1l-3,0.8l0.7-2.9c-0.3,0.2-0.7,0.4-1,0.6s-0.6,0.4-1.1,0.7l-0.9-1
		c0.5-0.4,0.9-0.6,1.3-0.8c0.8-0.5,1.5-0.9,2.1-1.3c0.8-0.5,1.3-0.7,1.7-0.8l-1,3.7l3.7-0.9c-0.1,0.2-0.2,0.6-0.5,1
		c-0.3,0.6-0.7,1.2-1.1,1.8c-0.5,0.8-1,1.5-1.5,2.2L54.3,23.4z"/>
	<path d="M60.7,25.7l-3.8,2l-0.6-1.2l3.8-2l-0.8-1.6l1.1-0.6l2.3,4.5l-1.1,0.6L60.7,25.7z"/>
	<path d="M61.3,30.8c-0.5,0-1,0.1-1.6,0.2c-0.6,0.1-1.1,0.2-1.5,0.3l-0.3-1.3l1.4-0.2c0.9-0.1,1.6-0.2,2.2-0.2
		c0.9-0.1,1.6,0,2.1,0.1l-2,3.4l2.6-0.6l0.3,1.3l-5.6,1.2L61.3,30.8z"/>
	<path d="M60.4,37.6c-0.2,0.1-0.4,0.2-0.6,0.2c-0.3,0-0.5-0.1-0.7-0.3s-0.3-0.4-0.3-0.7c0-0.3,0.1-0.6,0.3-0.7
		c0.2-0.1,0.4-0.2,0.6-0.2c0.3,0,0.5,0.1,0.7,0.3c0.2,0.2,0.3,0.4,0.3,0.7C60.7,37.2,60.6,37.4,60.4,37.6z"/>
</g>
<path d="M53,32.7c0.2,0,0.4,0,0.5,0c0.5-0.1,0.6,0,0.5,0.5c0,0.1,0,0.1,0,0.2c0.2-0.1,0.3-0.3,0.4-0.4c0.4-0.3,0.6-0.1,0.7,0.3
	c0.1,0.2,0.1,0.4,0.2,0.6c0.2,0.4,0.2,0.8-0.1,1.1c-0.1,0.2-0.3,0.4-0.5,0.5c-0.3,0.3-0.6,0.5-0.7,0.9c0,0.3-0.3,0.4-0.6,0.2
	c-0.4-0.2-0.8-0.4-1.2-0.5c-0.4-0.1-0.8-0.2-1.2-0.4c-0.1,0.4,0.1,0.6,0.4,0.7c0.8,0.2,0.8,0.3,0.7,1.2c0.1,0,0.2,0,0.3,0
	c0.6,0.1,0.9,0.6,0.5,1.2c-0.1,0.2-0.3,0.4-0.4,0.5c-0.4,0.5-0.8,0.7-1.4,0.7c-1.6,0.1-2.9,0.8-3.9,2c-0.3,0.4-0.6,0.8-0.9,1.3
	c-0.1,0.2-0.2,0.4-0.3,0.6c-0.1,0.1-0.2,0.2-0.3,0.2c-0.5,0-1,0-1.4,0.1c-0.2,0-0.4,0.1-0.5,0.2c-0.3,0.3-0.5,0.2-0.8-0.1
	c-0.1-0.1-0.2-0.2-0.3-0.4c-1.4-1.3-2.7-2.7-4.1-4c-0.1-0.1-0.4-0.2-0.6-0.2c-1.3,0-2.6-0.1-3.9-0.1c-0.3,0-0.5-0.1-0.6-0.4
	c-0.3-1.1-1.1-1.6-2.3-1.6c-1.5,0-3-0.1-4.4-0.1c-0.3,0-0.5,0.1-0.8,0.2c-1,0.4-2,0.6-3,0.6c-1.3,0-2.6,0-3.8,0
	c-0.5,0-0.8-0.3-0.8-0.8c0-0.3,0.1-0.6,0.2-0.9c0.1-0.3,0.3-0.4,0.6-0.4c0.2,0,0.3-0.1,0.4-0.3c0.1-0.3,0.3-0.5,0.5-0.7
	c0.3-0.3,0.6-0.5,1-0.5c1.2,0.1,2.1-0.5,3-1.3c0.2-0.2,0.4-0.4,0.6-0.6c0.3-0.3,0.7-0.5,1.1-0.3c0.3,0.1,0.5,0,0.7-0.2
	c0.5-0.5,0.9-0.7,1.6-0.2c0.1-0.2,0.2-0.4,0.3-0.5c0.2-0.2,0.3-0.4,0.5-0.5c0.3-0.1,0.4-0.3,0.5-0.6c0.2-0.8,0.5-1,1.3-1.1
	c1.3,0,2.5-0.1,3.8-0.1c6.4,0,12.8,0.1,19.3,0.1c0.4,0,0.6,0.1,0.7,0.4c0.2,0.5,0.4,1,0.6,1.4c0.2,0.7-0.2,1.1-0.8,0.8
	C53.8,32.1,53.4,32.4,53,32.7z"/>
<g>
	<path d="M17.5,54c-0.3,0.2-0.9,0.7-1.2,1s-0.6,0.6-0.9,0.8l-0.5-0.5l0.8-0.7c0.5-0.4,0.9-0.8,1.3-1.1c0.5-0.3,1-0.6,1.4-0.8
		L18,56.1l1.8-1.8l0.5,0.5l-3,3L17.5,54z"/>
	<path d="M20.8,60.2c-0.3-0.1-0.6-0.2-0.8-0.4c-0.5-0.3-0.8-0.8-0.8-1.4c-0.1-0.6,0-1.1,0.3-1.5c0.4-0.5,0.8-0.8,1.4-0.9
		c0.6-0.1,1.1,0,1.6,0.4c0.2,0.2,0.4,0.4,0.6,0.7c0.1,0.2,0.2,0.5,0.3,0.7l-0.6,0.2l-0.1-0.5c-0.1-0.2-0.3-0.4-0.5-0.5
		c-0.3-0.2-0.7-0.3-1.1-0.2c-0.4,0.1-0.7,0.3-1,0.6c-0.2,0.3-0.3,0.6-0.2,1c0,0.4,0.2,0.8,0.6,1.1c0.2,0.1,0.3,0.2,0.6,0.3
		c0.4,0.1,0.4,0.1,0.8,0.1l-0.2,0.6C21.3,60.3,21.1,60.2,20.8,60.2z"/>
	<path d="M27.1,63c-0.4,0.2-0.8,0.2-1.3,0c-0.2-0.1-0.5-0.2-0.7-0.5c-0.3-0.2-0.4-0.4-0.5-0.5l0.5-0.6c0.1,0.2,0.3,0.4,0.5,0.5
		c0.2,0.1,0.3,0.2,0.5,0.3c0.1,0.1,0.4,0.1,0.6,0.1c0.2,0,0.3-0.1,0.4-0.3c0.1-0.2,0-0.5-0.3-0.7c-0.2-0.1-0.5-0.3-0.7-0.5
		c-0.2-0.2-0.4-0.3-0.4-0.6c-0.1-0.2,0-0.4,0.1-0.6c0.1-0.3,0.3-0.5,0.6-0.7c0.3-0.2,0.7-0.2,1.2,0c0.2,0.1,0.3,0.2,0.5,0.3
		c0.1,0.1,0.2,0.2,0.3,0.4l-0.4,0.5l-0.3-0.3c-0.1-0.1-0.2-0.1-0.3-0.2c-0.1-0.1-0.4-0.1-0.5,0c-0.1,0-0.3,0.1-0.3,0.3
		c-0.1,0.3,0.2,0.5,0.5,0.7c0.2,0.1,0.4,0.3,0.5,0.4c0.3,0.3,0.5,0.7,0.3,1.2C27.7,62.5,27.4,62.8,27.1,63z"/>
	<path d="M29.9,61.7l-0.4,1.4c0,0.2,0,0.3,0.1,0.3c0.1,0,0.2,0,0.3,0l0.2,0.6c-0.3,0.1-0.6,0.1-0.8,0.1C29.2,64,29,63.9,29,63.8
		c-0.1-0.2-0.1-0.6,0-0.8l0.4-1.4l-0.5-0.1l0.2-0.6l0.5,0.1l0.2-0.7l0.7,0.2l-0.2,0.7l0.7,0.2l-0.1,0.6L29.9,61.7z"/>
	<path d="M32.9,61.4c0.3,0,0.5,0.1,0.7,0.3c0.2,0.2,0.3,0.4,0.3,0.5c0.1,0.2,0.1,0.4,0,0.6l0,0.1c0,0.2-0.1,0.3-0.1,0.5
		c0,0.1,0,0.3,0,0.4c0,0.2,0,0.3,0.2,0.6l-0.5,0.4l-0.2-0.3c-0.2,0.1-0.7,0.1-1.1,0.1c-0.3,0-0.6-0.2-0.8-0.4
		c-0.2-0.2-0.3-0.5-0.2-0.8c0-0.2,0.2-0.4,0.4-0.6c0.3-0.2,0.6-0.2,0.9-0.2l0,0c0.2,0,0.5,0.1,0.7,0.3c0.1-0.4-0.2-0.7-0.6-0.8
		c-0.3,0-0.4,0-0.7,0.2l-0.3-0.6C32.1,61.5,32.3,61.3,32.9,61.4z M32.4,64.1c0.2,0,0.5,0,0.7,0l0.1-0.5c-0.2-0.1-0.4-0.3-0.7-0.3
		c-0.4,0-0.6,0.1-0.6,0.3C31.8,63.8,32,64,32.4,64.1C32.4,64,32.4,64,32.4,64.1z"/>
	<path d="M36.1,62.5l0,1.5c0,0.2,0.1,0.3,0.2,0.3c0.1,0,0.2,0,0.3-0.1l0.3,0.5c-0.3,0.2-0.6,0.3-0.8,0.3c-0.2,0-0.4-0.1-0.5-0.2
		c-0.2-0.1-0.2-0.5-0.2-0.8l0-1.5l-0.5,0l0-0.6l0.5,0l0-0.7l0.7,0l0,0.7l0.7,0l0,0.6L36.1,62.5z"/>
	<path d="M39,61.6L39,61.6c0.4,0,0.7,0.1,1,0.3c0.3,0.2,0.5,0.5,0.6,1c0,0.1,0,0.2,0,0.2c0,0.1,0,0.2,0,0.3l-2.4,0.2
		c0.2,0.5,0.8,0.6,1.2,0.6c0,0,0,0,0,0c0.3,0,0.6-0.2,0.8-0.5l0.4,0.5c-0.3,0.4-0.8,0.6-1.4,0.6l0,0c-0.5,0-0.8-0.1-1.2-0.3
		c-0.4-0.3-0.5-0.6-0.6-1l0-0.1c0-0.5,0.1-0.9,0.4-1.2C38.2,61.8,38.5,61.6,39,61.6z M40,62.8c-0.1-0.4-0.5-0.5-0.9-0.5
		c-0.4,0-0.8,0.3-0.9,0.7L40,62.8z"/>
	<path d="M46.3,61.5c-0.2,0.3-0.5,0.6-0.9,0.9c-0.1,0.1-0.2,0.1-0.4,0.2c0,0-0.2,0.1-0.3,0.2l0.3,0.9l-0.6,0.2l-1.3-3.7
		c0.2-0.1,0.3-0.2,0.5-0.3c0.2-0.1,0.4-0.2,0.6-0.3c0.5-0.2,0.9-0.2,1.3-0.1c0.5,0.1,0.8,0.4,0.9,0.8S46.6,61,46.3,61.5z M45.4,60
		c-0.2,0-0.5,0-0.8,0.1c-0.2,0.1-0.4,0.2-0.5,0.2c-0.1,0.1-0.1,0.1-0.2,0.2l0.5,1.5c0.5-0.3,0.8-0.5,1-0.8c0.3-0.4,0.4-0.7,0.4-0.9
		C45.8,60.1,45.6,60,45.4,60z"/>
	<path d="M48,59c0.3-0.1,0.5-0.2,0.8-0.1c0.3,0.1,0.5,0.2,0.6,0.2c0.2,0.2,0.3,0.3,0.4,0.5l0.1,0.1c0.1,0.1,0.1,0.3,0.2,0.5
		c0.1,0.1,0.1,0.2,0.2,0.3c0.1,0.2,0.2,0.2,0.5,0.4l-0.2,0.6l-0.3-0.1c-0.1,0.2-0.5,0.5-0.9,0.7c-0.3,0.1-0.6,0.2-0.9,0.1
		c-0.3-0.1-0.5-0.3-0.6-0.6c-0.1-0.2-0.1-0.5,0-0.7c0.1-0.3,0.3-0.5,0.6-0.7l0,0c0.2-0.1,0.5-0.1,0.7-0.2c-0.2-0.4-0.6-0.5-0.9-0.3
		c-0.3,0.1-0.4,0.2-0.5,0.5l-0.6-0.3C47.3,59.4,47.5,59.2,48,59z M49.1,61.4c0.2-0.1,0.4-0.3,0.5-0.4l-0.2-0.4c-0.2,0-0.5,0-0.7,0.1
		c-0.3,0.2-0.4,0.4-0.3,0.6C48.4,61.5,48.7,61.6,49.1,61.4C49,61.4,49.1,61.4,49.1,61.4z"/>
	<path d="M51.6,57.7C51.6,57.7,51.5,57.7,51.6,57.7c-0.3,0.2-0.4,0.4-0.4,0.5c0,0.1,0.1,0.3,0.3,0.6l0.9,1.3l-0.6,0.4l-1.1-1.6
		c-0.2-0.3-0.3-0.4-0.6-0.5l0.2-0.7c0.1,0,0.2,0,0.4,0.1c0.1-0.2,0.2-0.4,0.6-0.7c0.4-0.2,0.6-0.2,0.6-0.2l0,0.7
		C51.9,57.6,51.7,57.6,51.6,57.7z"/>
	<path d="M54.4,54.7c0.2,0.5,0.2,0.8,0.2,1.4c0,0.4,0,0.5,0,0.8l0.2,0.1c0.1,0,0.3,0,0.7,0.1c0.4,0,0.6,0,0.8-0.2c0,0,0,0,0-0.1
		l0.1,0.6c-0.1,0.1-0.2,0.1-0.3,0.1c-0.2,0.1-0.3,0.1-0.5,0.1c-0.3,0-0.6,0-0.7,0s-0.4,0-0.5,0l-0.1,0.4l0.4,0.5l-0.5,0.4l-2.9-3.4
		l0.5-0.4l1.9,2.3c0.4-0.7,0.2-1.7,0.1-2.1L54.4,54.7z"/>
	<path d="M58.3,54.6c0,0.3-0.1,0.6-0.4,1c-0.1,0.2-0.3,0.3-0.6,0.5c-0.2,0.1-0.4,0.2-0.5,0.2l-0.3-0.6c0.1,0,0.2-0.1,0.2-0.1
		c0.3-0.1,0.6-0.3,0.7-0.5l0,0c0.3-0.3,0.2-0.6,0.1-0.7c0,0-0.1-0.1-0.1-0.1c-0.1,0-0.4,0.1-0.6,0.4c-0.3,0.3-0.6,0.4-0.9,0.4
		c-0.2,0-0.3-0.1-0.5-0.2c-0.2-0.2-0.3-0.4-0.3-0.7c0-0.3,0.1-0.6,0.3-0.9c0.1-0.1,0.2-0.2,0.4-0.3c0.1-0.1,0.2-0.1,0.4-0.2l0.3,0.6
		c-0.2,0.1-0.4,0.2-0.6,0.4c-0.3,0.3-0.2,0.5-0.1,0.6l0,0c0.2,0.2,0.7-0.5,1-0.6c0.2-0.1,0.3-0.1,0.5-0.1c0.2,0,0.3,0.1,0.6,0.3
		C58.2,54.1,58.3,54.3,58.3,54.6z"/>
</g>
</svg>
