<?xml version="1.0" encoding="utf-8"?>
<!-- Generator: Adobe Illustrator 27.0.0, SVG Export Plug-In . SVG Version: 6.00 Build 0)  -->
<svg version="1.1" id="Layer_1" xmlns="http://www.w3.org/2000/svg" xmlns:xlink="http://www.w3.org/1999/xlink" x="0px" y="0px"
	 viewBox="0 0 73.7 73.7" style="enable-background:new 0 0 73.7 73.7;" xml:space="preserve">
<image style="overflow:visible;opacity:0.5;" width="1000" height="1000" xlink:href="../../Mirror/Other Publications/Passport/Stamps/Passport Stickers/500/CABESticker_500.png"  transform="matrix(7.674115e-02 0 0 7.674115e-02 119.7757 -7.1989)">
</image>
<path d="M36.9,71.4c19,0,34.5-15.5,34.5-34.5S55.9,2.3,36.9,2.3c-19,0-34.5,15.5-34.5,34.5S17.8,71.4,36.9,71.4z M66.9,36.8
	C66.9,53.5,53.4,67,36.7,67S6.5,53.5,6.5,36.8S20,6.6,36.7,6.6S66.9,20.1,66.9,36.8z"/>
<path d="M36.9,73.7c20.3,0,36.9-16.5,36.9-36.9S57.2,0,36.9,0C16.5,0,0,16.5,0,36.9S16.5,73.7,36.9,73.7z M36.9,1.1
	c19.7,0,35.8,16.1,35.8,35.8S56.6,72.6,36.9,72.6c-19.7,0-35.8-16.1-35.8-35.8S17.1,1.1,36.9,1.1z"/>
<g>
	<path d="M15.2,40c-0.3,0.1-0.7,0.3-1.2,0.5c-0.6,0.3-1,0.4-1.1,0.5l2.9,0.9L13.7,44c0.4,0,0.8,0,1.1,0c0.3,0,0.8,0,1.3-0.1l0.3,1.3
		c-0.6,0-1.1,0.1-1.5,0.1c-0.9,0-1.8,0-2.4,0c-0.9,0-1.5-0.1-1.9-0.2l2.8-2.7l-3.6-1.1c0.2-0.1,0.5-0.4,0.9-0.6
		c0.5-0.3,1.2-0.7,1.8-1c0.8-0.4,1.6-0.8,2.4-1.1L15.2,40z"/>
	<path d="M14.5,33c0.6,0.6,0.9,1.4,0.8,2.4c-0.1,0.8-0.4,1.5-1.1,2c-0.6,0.5-1.4,0.7-2.2,0.7c-0.8-0.1-1.5-0.4-2-1
		c-0.5-0.6-0.7-1.4-0.7-2.2c0.1-0.8,0.4-1.4,1-1.9c0.6-0.5,1.3-0.8,2.1-0.7C13.3,32.2,13.9,32.5,14.5,33z M11.3,33.8
		c-0.3,0.3-0.5,0.6-0.6,1.1c0,0.5,0.1,0.8,0.4,1.2s0.7,0.5,1.1,0.6c0.4,0,0.8-0.1,1.2-0.4c0.4-0.3,0.6-0.6,0.6-1.1
		c0-0.5-0.1-0.9-0.4-1.2c-0.3-0.3-0.7-0.5-1.1-0.6C12,33.4,11.6,33.5,11.3,33.8z"/>
	<path d="M17.4,27.5c-0.1,0.1-0.3,0.2-0.6,0.2c0,0.3,0.1,0.5,0.1,0.8c0,0.3-0.1,0.6-0.2,0.9c-0.2,0.6-0.6,1.1-1.1,1.4
		C15,31.2,14.5,31.2,14,31l-3.5-1.4l0.5-1.2l2.7,1.1c0.5,0.2,0.9,0.3,1.1,0.2c0.2-0.1,0.5-0.3,0.6-0.8c0.2-0.5,0.2-0.8,0-1.1
		c-0.1-0.2-0.4-0.3-0.9-0.5l-2.8-1.1l0.5-1.3l3.3,1.3c0.3,0.1,0.6,0.2,0.8,0.2c0.2,0,0.5-0.1,0.6-0.2L17.4,27.5z"/>
	<path d="M16.5,22.7c0.3,0.3,0.7,0.7,1.1,1.1c0.4,0.4,0.8,0.7,1.2,1L18,25.9L17,24.9c-0.6-0.6-1.2-1.1-1.6-1.6
		c-0.6-0.6-1-1.2-1.3-1.6l3.9-0.6l-2.1-1.6l0.8-1l4.6,3.5L16.5,22.7z"/>
	<path d="M21.6,15.9l2.6,3.4l-1.1,0.8l-2.6-3.4L19,17.8l-0.7-1l4-3.1l0.7,1L21.6,15.9z"/>
	<path d="M25.6,14.9c0-0.8,0.1-1.5,0.2-2c0.1-0.4,0.1-0.7,0.2-0.9c0.2,0,0.4,0.2,0.8,0.5c0.5,0.3,1,0.7,1.6,1.2
		c0.8,0.7,1.6,1.4,2.4,2.2l-1.3,0.6c-0.1-0.1-0.1-0.2-0.2-0.3C29.1,16,29,15.9,29,15.9l-2.1,0.9c0,0.1,0,0.2,0,0.3
		c0,0.2,0,0.3,0.1,0.4l-1.3,0.6C25.6,17,25.6,16,25.6,14.9z M27.5,14.5c-0.2-0.2-0.4-0.3-0.6-0.4c0,0.2-0.1,0.4-0.1,0.7
		c0,0.4,0,0.6,0,0.8l1.3-0.6C27.9,14.9,27.8,14.7,27.5,14.5z"/>
	<path d="M31.8,15.8l-1.2-5.4l1.3-0.3l1.2,5.4L31.8,15.8z"/>
	<path d="M35.7,12.1c-0.1,0.5-0.1,1-0.1,1.6c0,0.6-0.1,1.1,0,1.6l-1.4,0l0.1-1.4c0-0.9,0.1-1.6,0.2-2.2c0.1-0.9,0.3-1.5,0.5-2
		l2.9,2.7l0-2.6l1.3,0l0.1,5.7L35.7,12.1z"/>
	<path d="M43.9,15.7c-0.5,0.3-1.1,0.4-1.8,0.2c-0.4-0.1-0.7-0.3-1.2-0.5c-0.4-0.2-0.7-0.5-0.8-0.6l0.8-1.2c0.2,0.3,0.5,0.5,0.8,0.7
		c0.3,0.2,0.5,0.3,0.7,0.3c0.2,0,0.4,0.1,0.5,0c0.2,0,0.4-0.2,0.4-0.3c0.1-0.2-0.1-0.4-0.4-0.6c-0.3-0.2-0.7-0.3-1-0.5
		c-0.3-0.2-0.5-0.5-0.6-0.8s-0.1-0.6-0.1-1c0.1-0.4,0.4-0.8,0.7-1c0.5-0.3,1-0.4,1.6-0.2c0.3,0.1,0.5,0.2,0.8,0.3
		c0.2,0.1,0.4,0.3,0.7,0.5l-0.8,1l-0.5-0.4c-0.1-0.1-0.3-0.2-0.5-0.2c-0.2,0-0.4-0.1-0.5,0c-0.1,0.1-0.2,0.1-0.2,0.3
		c-0.1,0.2,0.2,0.5,0.6,0.7c0.4,0.1,0.6,0.3,0.8,0.4c0.3,0.2,0.5,0.5,0.7,0.8c0.1,0.3,0.1,0.6,0.1,1C44.6,15.1,44.3,15.4,43.9,15.7z
		"/>
	<path d="M46.5,13.7l2.3,1.1l-0.5,1.1L46,14.9L46.5,13.7z"/>
	<path d="M53,16.2l-2.5,3.5l-1.1-0.8l2.5-3.5l-1.5-1.1l0.7-1l4.1,2.9l-0.7,1L53,16.2z"/>
	<path d="M56.2,24.5c-0.9,0-1.6-0.4-2.2-1.1c-0.5-0.6-0.7-1.4-0.6-2.2s0.5-1.5,1.1-2c0.6-0.5,1.3-0.7,2.2-0.6s1.5,0.5,2,1.1
		c0.5,0.6,0.7,1.3,0.6,2.1c-0.1,0.8-0.4,1.5-1.1,2C57.6,24.3,56.9,24.5,56.2,24.5z M57.9,21.7c0-0.4-0.1-0.8-0.3-1.2
		c-0.3-0.4-0.6-0.5-1.1-0.6c-0.4-0.1-0.8,0.1-1.2,0.4c-0.3,0.3-0.5,0.6-0.6,1.1c-0.1,0.5,0,0.8,0.3,1.2c0.3,0.4,0.7,0.5,1.1,0.6
		c0.5,0,0.9-0.1,1.2-0.4C57.6,22.5,57.8,22.1,57.9,21.7z"/>
	<path d="M59.2,25l1.1,2.3l-1.1,0.5l-1.1-2.3L59.2,25z"/>
	<path d="M59.1,33.1c-0.5-0.3-0.9-0.8-1-1.5C58,31.3,58,30.9,58,30.4s0.1-0.8,0.2-1l1.4,0.1c-0.1,0.3-0.2,0.7-0.2,1
		c0,0.3,0,0.6,0.1,0.8c0,0.2,0.1,0.3,0.2,0.5c0.1,0.2,0.3,0.3,0.5,0.2c0.2-0.1,0.3-0.3,0.3-0.7c0-0.4-0.1-0.8-0.1-1.1
		c0-0.4,0.2-0.7,0.4-0.9c0.2-0.3,0.5-0.4,0.8-0.5c0.4-0.1,0.8,0,1.2,0.2c0.5,0.3,0.8,0.7,1,1.4c0.1,0.3,0.1,0.6,0.1,0.8
		c0,0.2,0,0.5-0.1,0.8l-1.3-0.2l0.1-0.6c0-0.2,0-0.4-0.1-0.6c-0.1-0.2-0.1-0.3-0.2-0.4c-0.1-0.1-0.2-0.1-0.3-0.1
		c-0.2,0.1-0.3,0.4-0.3,0.9c0,0.4,0,0.7,0,0.9c0,0.4-0.2,0.7-0.4,0.9c-0.2,0.3-0.5,0.4-0.9,0.5C60,33.5,59.6,33.4,59.1,33.1z"/>
	<path d="M58.9,34.6l5.5-0.1l0.1,3.9l-1.1,0.1l-0.1-2.6l-0.6,0l0,1.6l-1.2,0l0-1.6l-1.3,0l0.1,2.7L59,38.8L58.9,34.6z"/>
	<path d="M61.6,41.2c0.6,0.5,1.1,1,1.5,1.4c0.3,0.3,0.5,0.6,0.6,0.7c-0.1,0.1-0.4,0.2-0.8,0.4c-0.5,0.2-1.2,0.4-2,0.6
		c-1,0.2-2.1,0.4-3.2,0.6l0.3-1.4c0.1,0,0.2,0,0.3,0c0.2,0,0.3,0,0.4-0.1l0.5-2.3c0-0.1-0.1-0.1-0.3-0.2c-0.1-0.1-0.3-0.2-0.4-0.2
		l0.3-1.4C60,40,60.8,40.6,61.6,41.2z M60.9,43c0.3-0.1,0.5-0.2,0.7-0.2c-0.1-0.1-0.3-0.3-0.5-0.5c-0.3-0.2-0.5-0.4-0.6-0.5
		l-0.3,1.3C60.2,43.1,60.5,43.1,60.9,43z"/>
</g>
<path d="M53,34.7c0.2,0,0.4,0,0.5,0c0.5-0.1,0.6,0,0.5,0.5c0,0.1,0,0.1,0,0.2c0.2-0.1,0.3-0.3,0.4-0.4c0.4-0.3,0.6-0.1,0.7,0.3
	c0.1,0.2,0.1,0.4,0.2,0.6c0.2,0.4,0.2,0.8-0.1,1.1c-0.1,0.2-0.3,0.4-0.5,0.5c-0.3,0.3-0.6,0.5-0.7,0.9c0,0.3-0.3,0.4-0.6,0.2
	c-0.4-0.2-0.8-0.4-1.2-0.5c-0.4-0.1-0.8-0.2-1.2-0.4c-0.1,0.4,0.1,0.6,0.4,0.7c0.8,0.2,0.8,0.3,0.7,1.2c0.1,0,0.2,0,0.3,0
	c0.6,0.1,0.9,0.6,0.5,1.2c-0.1,0.2-0.3,0.4-0.4,0.5c-0.4,0.5-0.8,0.7-1.4,0.7c-1.6,0.1-2.9,0.8-3.9,2c-0.3,0.4-0.6,0.8-0.9,1.3
	c-0.1,0.2-0.2,0.4-0.3,0.6c-0.1,0.1-0.2,0.2-0.3,0.2c-0.5,0-1,0-1.4,0.1c-0.2,0-0.4,0.1-0.5,0.2c-0.3,0.3-0.5,0.2-0.8-0.1
	c-0.1-0.1-0.2-0.2-0.3-0.4c-1.4-1.3-2.7-2.7-4.1-4c-0.1-0.1-0.4-0.2-0.6-0.2c-1.3,0-2.6-0.1-3.9-0.1c-0.3,0-0.5-0.1-0.6-0.4
	c-0.3-1.1-1.1-1.6-2.3-1.6c-1.5,0-3-0.1-4.4-0.1c-0.3,0-0.5,0.1-0.8,0.2c-1,0.4-2,0.6-3,0.6c-1.3,0-2.6,0-3.8,0
	c-0.5,0-0.8-0.3-0.8-0.8c0-0.3,0.1-0.6,0.2-0.9c0.1-0.3,0.3-0.4,0.6-0.4c0.2,0,0.3-0.1,0.4-0.3c0.1-0.3,0.3-0.5,0.5-0.7
	c0.3-0.3,0.6-0.5,1-0.5c1.2,0.1,2.1-0.5,3-1.3c0.2-0.2,0.4-0.4,0.6-0.6c0.3-0.3,0.7-0.5,1.1-0.3c0.3,0.1,0.5,0,0.7-0.2
	c0.5-0.5,0.9-0.7,1.6-0.2c0.1-0.2,0.2-0.4,0.3-0.5c0.2-0.2,0.3-0.4,0.5-0.5c0.3-0.1,0.4-0.3,0.5-0.6c0.2-0.8,0.5-1,1.3-1.1
	c1.3,0,2.5-0.1,3.8-0.1c6.4,0,12.8,0.1,19.3,0.1c0.4,0,0.6,0.1,0.7,0.4c0.2,0.5,0.4,1,0.6,1.4c0.2,0.7-0.2,1.1-0.8,0.8
	C53.8,34.1,53.4,34.4,53,34.7z"/>
<g>
	<path d="M17.3,53.9c-0.3,0.2-0.9,0.7-1.3,0.9c-0.3,0.3-0.6,0.5-0.9,0.8l-0.5-0.5l0.8-0.7c0.5-0.4,0.9-0.8,1.3-1
		c0.5-0.3,1-0.6,1.4-0.7L17.8,56l1.8-1.8l0.5,0.5l-3,3L17.3,53.9z"/>
	<path d="M20.6,60.1c-0.3-0.1-0.6-0.2-0.8-0.4c-0.5-0.3-0.8-0.8-0.8-1.4c-0.1-0.6,0-1.1,0.3-1.5c0.4-0.5,0.8-0.8,1.4-0.9
		s1.1,0,1.6,0.4c0.2,0.2,0.4,0.4,0.6,0.7c0.1,0.2,0.2,0.5,0.3,0.7l-0.6,0.2l-0.1-0.5c-0.1-0.2-0.3-0.4-0.5-0.6
		c-0.3-0.2-0.7-0.3-1.1-0.2c-0.4,0.1-0.7,0.3-1,0.6c-0.2,0.3-0.3,0.6-0.2,1c0,0.4,0.2,0.8,0.6,1.1c0.2,0.1,0.3,0.2,0.6,0.3
		c0.4,0.1,0.4,0.1,0.8,0.1l-0.2,0.6C21.2,60.2,20.9,60.1,20.6,60.1z"/>
	<path d="M27,62.9c-0.4,0.2-0.8,0.2-1.3,0c-0.2-0.1-0.5-0.3-0.7-0.5c-0.3-0.2-0.4-0.4-0.5-0.5l0.5-0.6c0.1,0.2,0.3,0.4,0.5,0.5
		c0.2,0.1,0.3,0.2,0.5,0.3c0.1,0.1,0.4,0.1,0.6,0.1c0.2,0,0.3-0.1,0.4-0.3c0.1-0.2,0-0.5-0.3-0.7c-0.2-0.1-0.5-0.3-0.7-0.5
		c-0.2-0.2-0.4-0.3-0.4-0.6c-0.1-0.2,0-0.4,0.1-0.6c0.1-0.3,0.3-0.5,0.6-0.7c0.3-0.2,0.7-0.2,1.2,0c0.2,0.1,0.3,0.2,0.5,0.3
		c0.1,0.1,0.2,0.2,0.3,0.4l-0.4,0.5l-0.3-0.3c-0.1-0.1-0.2-0.1-0.3-0.2c-0.1-0.1-0.4-0.1-0.5,0c-0.1,0-0.3,0.1-0.3,0.3
		c-0.1,0.3,0.2,0.5,0.5,0.7c0.2,0.1,0.4,0.3,0.5,0.4c0.3,0.3,0.5,0.7,0.3,1.2C27.6,62.4,27.3,62.8,27,62.9z"/>
	<path d="M29.8,61.7l-0.4,1.4c0,0.2,0,0.3,0.1,0.3c0.1,0,0.2,0,0.3,0l0.2,0.6c-0.3,0.1-0.6,0.1-0.8,0.1c-0.2-0.1-0.4-0.2-0.4-0.3
		c-0.1-0.2-0.1-0.6,0-0.8l0.4-1.4l-0.5-0.1l0.2-0.6l0.5,0.1l0.2-0.7l0.6,0.2l-0.2,0.7l0.7,0.2l-0.1,0.6L29.8,61.7z"/>
	<path d="M32.7,61.4c0.3,0,0.5,0.1,0.7,0.3c0.2,0.2,0.3,0.4,0.3,0.5c0.1,0.2,0.1,0.4,0,0.6l0,0.1c0,0.2-0.1,0.3-0.1,0.5
		c0,0.1,0,0.3,0,0.4c0,0.2,0,0.3,0.2,0.6l-0.5,0.4l-0.2-0.3c-0.2,0.1-0.7,0.1-1.1,0.1c-0.3,0-0.6-0.2-0.8-0.4
		c-0.2-0.2-0.3-0.5-0.2-0.8c0-0.2,0.2-0.4,0.4-0.6c0.3-0.2,0.6-0.2,0.9-0.2l0,0c0.2,0,0.5,0.2,0.7,0.3c0.1-0.4-0.2-0.7-0.6-0.8
		c-0.3,0-0.4,0-0.7,0.2l-0.3-0.6C31.9,61.4,32.1,61.3,32.7,61.4z M32.2,64c0.2,0,0.5,0,0.7,0l0.1-0.5c-0.2-0.1-0.4-0.3-0.7-0.3
		c-0.4,0-0.6,0.1-0.6,0.3C31.6,63.7,31.8,64,32.2,64C32.2,64,32.2,64,32.2,64z"/>
	<path d="M35.9,62.5l0,1.5c0,0.2,0.1,0.3,0.2,0.3c0.1,0,0.2,0,0.3-0.1l0.3,0.5c-0.3,0.2-0.6,0.3-0.8,0.2c-0.2,0-0.4-0.1-0.5-0.2
		c-0.2-0.1-0.2-0.5-0.2-0.8l0-1.5l-0.5,0l0-0.6l0.5,0l0-0.7l0.7,0l0,0.7l0.7,0l0,0.6L35.9,62.5z"/>
	<path d="M38.8,61.6L38.8,61.6c0.4,0,0.7,0.1,1,0.3c0.3,0.2,0.5,0.5,0.6,1c0,0.1,0,0.2,0,0.2c0,0.1,0,0.2,0,0.3l-2.4,0.2
		c0.2,0.5,0.8,0.6,1.2,0.6c0,0,0,0,0,0c0.3,0,0.6-0.2,0.8-0.5l0.4,0.5c-0.3,0.4-0.8,0.6-1.4,0.6l0,0c-0.5,0-0.9-0.1-1.2-0.4
		c-0.4-0.3-0.5-0.6-0.6-1l0-0.1c0-0.5,0.1-0.9,0.4-1.2C38,61.8,38.3,61.6,38.8,61.6z M39.8,62.8c-0.1-0.4-0.5-0.5-0.9-0.5
		c-0.4,0-0.8,0.3-0.9,0.7L39.8,62.8z"/>
	<path d="M45,59.9l1.1,3.3l-0.6,0.2l-1.1-3.3L43,60.7L42.7,60l3.6-1.2l0.2,0.6L45,59.9z"/>
	<path d="M48.4,59.6C48.4,59.6,48.4,59.6,48.4,59.6C48.1,59.7,48,59.9,48,60c0,0.1,0,0.3,0.2,0.7l0.7,1.4l-0.6,0.3l-0.8-1.7
		c-0.2-0.3-0.3-0.5-0.5-0.6l0.3-0.7c0.1,0,0.2,0.1,0.4,0.1c0.1-0.2,0.2-0.4,0.6-0.6c0.4-0.2,0.7-0.1,0.7-0.1l-0.1,0.7
		C48.7,59.5,48.6,59.5,48.4,59.6z"/>
	<path d="M50.1,57.8c0.3-0.2,0.5-0.2,0.7-0.2c0.3,0,0.5,0.1,0.6,0.2c0.2,0.1,0.3,0.3,0.4,0.4l0.1,0.1c0.1,0.1,0.2,0.3,0.3,0.4
		c0.1,0.1,0.2,0.2,0.2,0.3c0.2,0.2,0.2,0.2,0.5,0.3L52.8,60l-0.3-0.1c-0.1,0.2-0.5,0.5-0.8,0.7c-0.3,0.2-0.6,0.2-0.9,0.1
		c-0.3-0.1-0.5-0.2-0.7-0.5C50,60.1,50,59.9,50,59.6c0.1-0.3,0.3-0.5,0.6-0.7l0,0c0.2-0.1,0.5-0.2,0.7-0.2c-0.2-0.4-0.6-0.4-0.9-0.2
		c-0.3,0.2-0.3,0.3-0.4,0.6l-0.6-0.2C49.5,58.3,49.6,58.1,50.1,57.8z M51.5,60.1c0.2-0.1,0.4-0.3,0.5-0.5l-0.3-0.4
		c-0.2,0-0.5,0-0.7,0.2c-0.3,0.2-0.3,0.5-0.2,0.6C50.8,60.2,51.1,60.3,51.5,60.1C51.4,60.1,51.4,60.1,51.5,60.1z"/>
	<path d="M52.3,55.6c0,0.1-0.1,0.2-0.2,0.3C52.1,56,52,56,51.9,56c-0.1,0-0.2-0.1-0.3-0.2c-0.1-0.1-0.1-0.2-0.1-0.3s0.1-0.2,0.2-0.3
		c0.1,0,0.1-0.1,0.2-0.1c0.1,0,0.1,0,0.2,0c0.1,0,0.1,0.1,0.2,0.1C52.3,55.4,52.4,55.5,52.3,55.6z M52.2,56.5l0.5-0.4l1.9,2.4
		l-0.5,0.4L52.2,56.5z"/>
	<path d="M52.7,54.2l0.5-0.5l3,3.3l-0.5,0.5L52.7,54.2z"/>
	<path d="M58.4,54.4c0,0.3-0.1,0.6-0.4,1c-0.1,0.2-0.3,0.3-0.6,0.5c-0.2,0.1-0.4,0.2-0.5,0.2l-0.3-0.6c0.1,0,0.2-0.1,0.2-0.1
		c0.3-0.1,0.6-0.3,0.7-0.5l0,0c0.2-0.3,0.2-0.6,0-0.7c0,0-0.1-0.1-0.1-0.1c-0.1,0-0.4,0.1-0.6,0.4c-0.3,0.3-0.6,0.4-0.9,0.4
		c-0.2,0-0.3-0.1-0.5-0.2c-0.2-0.2-0.3-0.4-0.3-0.7c0-0.3,0.1-0.6,0.3-0.9c0.1-0.1,0.2-0.2,0.4-0.3c0.1-0.1,0.2-0.1,0.4-0.2l0.3,0.6
		c-0.2,0.1-0.4,0.2-0.6,0.4c-0.3,0.3-0.2,0.5-0.1,0.6l0,0c0.2,0.2,0.7-0.5,1-0.6c0.2-0.1,0.3-0.1,0.5-0.1c0.2,0,0.3,0.1,0.6,0.3
		C58.3,53.9,58.4,54.1,58.4,54.4z"/>
</g>
</svg>
