<?xml version="1.0" encoding="utf-8"?>
<!-- Generator: Adobe Illustrator 27.0.0, SVG Export Plug-In . SVG Version: 6.00 Build 0)  -->
<svg version="1.1" id="Layer_1" xmlns="http://www.w3.org/2000/svg" xmlns:xlink="http://www.w3.org/1999/xlink" x="0px" y="0px"
	 viewBox="0 0 73.7 73.7" style="enable-background:new 0 0 73.7 73.7;" xml:space="preserve">
<image style="overflow:visible;opacity:0.5;" width="1000" height="1000" xlink:href="../../Mirror/Other Publications/Passport/Stamps/Passport Stickers/500/CABESticker_500.png"  transform="matrix(7.674115e-02 0 0 7.674115e-02 119.7757 -7.1989)">
</image>
<path d="M36.9,71.4c19,0,34.5-15.5,34.5-34.5S55.9,2.3,36.9,2.3c-19,0-34.5,15.5-34.5,34.5S17.8,71.4,36.9,71.4z M66.9,36.8
	C66.9,53.5,53.4,67,36.7,67S6.5,53.5,6.5,36.8S20,6.6,36.7,6.6S66.9,20.1,66.9,36.8z"/>
<path d="M36.9,73.7c20.3,0,36.9-16.5,36.9-36.9S57.2,0,36.9,0C16.5,0,0,16.5,0,36.9S16.5,73.7,36.9,73.7z M36.9,1.1
	c19.7,0,35.8,16.1,35.8,35.8S56.6,72.6,36.9,72.6c-19.7,0-35.8-16.1-35.8-35.8S17.1,1.1,36.9,1.1z"/>
<g>
	<path d="M11.2,38.3c0.6,0.1,1.2,0.1,1.7,0.2c0.1,0,0.3,0.1,0.8,0.2c0.2,0,0.3,0.1,0.5,0.1c0.3,0.1,0.6,0.2,0.8,0.2
		c0.2,0.1,0.3,0.1,0.5,0.2c-0.1,0.1-0.3,0.3-0.7,0.6c-0.5,0.3-1,0.6-1.5,0.9c0.5,0.1,1,0.3,1.4,0.4c0.5,0.1,0.8,0.3,1.1,0.4
		c-0.3,0.3-0.8,0.7-1.5,1.1c-0.5,0.3-1.2,0.6-1.9,0.9c-0.4,0.2-0.8,0.3-1.2,0.5l-0.1,0l-0.2-1.2c0.2,0,0.5-0.2,1.1-0.4
		s0.9-0.4,1.2-0.6c-0.1-0.1-0.4-0.1-0.8-0.2c-0.4-0.1-0.6-0.1-0.8-0.1l-0.1,0c-0.4,0.1-0.6,0.3-0.7,0.3c0,0-0.1,0-0.1,0l-0.2-1.1
		c0.5-0.2,0.9-0.4,1.4-0.6c0.4-0.2,0.7-0.4,0.8-0.5c-0.3-0.1-0.8-0.1-1.4-0.2c-0.4,0-0.8,0-1-0.1l-0.2-1.2l0.2,0
		C10.6,38.3,10.9,38.3,11.2,38.3z"/>
	<path d="M15.1,36.6l-4.8-0.2l0.1-1.1l4.8,0.2L15.1,36.6z"/>
	<path d="M15.2,34.2l-4.7-1l0.3-1.2l3.7,0.8l0.5-2.3l1,0.2L15.2,34.2z"/>
	<path d="M16.3,29.8l-4.4-2l0.5-1.1l3.4,1.5l1-2.2l1,0.4L16.3,29.8z"/>
	<path d="M18.4,25.5l-4-2.7l0.6-0.9l4,2.7L18.4,25.5z"/>
	<path d="M18.3,21.2c-0.2-0.7-0.4-1.2-0.5-1.7c-0.1-0.4-0.1-0.6-0.1-0.8c0.2,0,0.4,0,0.8,0.1c0.5,0.1,1.1,0.2,1.7,0.5
		c0.9,0.3,1.7,0.6,2.7,1L22,21.1c-0.1,0-0.2-0.1-0.3-0.1c-0.2-0.1-0.3-0.1-0.3-0.1L20,22.3c0,0.1,0,0.1,0.1,0.3
		c0.1,0.1,0.1,0.2,0.2,0.3l-0.9,0.9C19,22.9,18.6,22,18.3,21.2z M19.7,20.2c-0.3-0.1-0.5-0.1-0.6-0.2c0,0.2,0.1,0.4,0.2,0.6
		c0.1,0.3,0.2,0.5,0.3,0.6l0.8-0.9C20.2,20.3,20,20.3,19.7,20.2z"/>
	<path d="M27,17.5c-0.2-0.2-0.4-0.5-0.7-0.9c-0.4-0.4-0.6-0.7-0.7-0.8l0.1,2.7l-2.3-1.2c0.1,0.3,0.2,0.6,0.3,0.9
		c0.1,0.3,0.3,0.6,0.4,1l-1,0.6c-0.2-0.5-0.4-0.9-0.5-1.2c-0.3-0.8-0.5-1.4-0.7-2c-0.2-0.7-0.4-1.3-0.4-1.6l3,1.5l-0.1-3.3
		c0.2,0.1,0.4,0.3,0.8,0.6c0.4,0.4,0.9,0.8,1.3,1.2c0.6,0.6,1.1,1.1,1.6,1.7L27,17.5z"/>
	<path d="M34.7,15c-0.4,0.3-0.9,0.6-1.6,0.7c-0.4,0.1-0.7,0.1-0.9,0.1c-0.3,0-0.6,0-0.9,0l-0.8-4.6c0.3-0.1,0.5-0.2,0.7-0.3
		c0.3-0.1,0.6-0.2,0.9-0.2c0.5-0.1,0.9-0.1,1.3,0.1c0.4,0.1,0.7,0.4,0.8,0.8c0,0.1,0,0.2,0,0.3c0,0.2-0.1,0.3-0.1,0.4
		c0.3,0.2,0.5,0.3,0.8,0.5c0.2,0.2,0.4,0.5,0.4,0.9C35.3,14.1,35.2,14.6,34.7,15z M32.7,11.6c-0.1,0-0.2,0-0.4,0
		c-0.1,0-0.2,0-0.2,0.1c-0.1,0-0.2,0.1-0.3,0.1l0.1,0.9c0.3-0.1,0.6-0.3,0.7-0.4c0.1-0.1,0.2-0.3,0.2-0.4
		C32.9,11.7,32.8,11.6,32.7,11.6z M33.7,13.3c-0.2-0.1-0.3-0.1-0.5-0.1c-0.2,0-0.5,0.1-0.7,0.3c-0.2,0.1-0.3,0.2-0.3,0.2l0.1,0.8
		l0.5-0.1l0.9-0.3c0.2-0.1,0.3-0.3,0.3-0.5C34,13.5,33.9,13.4,33.7,13.3z"/>
	<path d="M37.9,13.9c0.1,0.2,0.2,0.4,0.2,0.6c0,0.2-0.1,0.4-0.3,0.6c-0.2,0.2-0.4,0.2-0.6,0.2c-0.3,0-0.5-0.1-0.6-0.3
		c-0.1-0.2-0.2-0.4-0.2-0.6c0-0.3,0.1-0.5,0.3-0.6s0.4-0.2,0.6-0.2C37.5,13.6,37.8,13.7,37.9,13.9z"/>
	<path d="M45.5,17c-0.1-0.1-0.1-0.3-0.2-0.5c-0.2,0.1-0.5,0.1-0.7,0.1c-0.3,0-0.5-0.1-0.8-0.1c-0.5-0.2-1-0.5-1.3-0.9
		c-0.3-0.5-0.4-0.9-0.2-1.4l1.1-3.1l1.1,0.4l-0.8,2.4c-0.2,0.5-0.2,0.8-0.2,1c0.1,0.2,0.3,0.4,0.7,0.5c0.4,0.1,0.7,0.1,0.9,0
		c0.1-0.1,0.3-0.4,0.4-0.8l0.8-2.5l1.1,0.4l-1,2.9c-0.1,0.2-0.1,0.5-0.1,0.7c0,0.2,0.1,0.4,0.2,0.5L45.5,17z"/>
	<path d="M50.7,19.9c0.1-0.2,0.3-0.6,0.5-1c0.2-0.5,0.4-0.9,0.4-1l-2.4,1.2l0.1-2.6c-0.2,0.2-0.5,0.4-0.7,0.7
		c-0.2,0.2-0.5,0.5-0.8,0.8l-1-0.7c0.4-0.4,0.7-0.7,0.9-0.9c0.6-0.6,1.1-1.1,1.5-1.5c0.6-0.5,1-0.9,1.3-1l-0.2,3.4l3-1.5
		c0,0.2-0.1,0.5-0.2,0.9c-0.2,0.5-0.3,1.1-0.6,1.7c-0.3,0.8-0.6,1.5-0.9,2.1L50.7,19.9z"/>
	<path d="M54.5,23.2c-0.5,0-1-0.3-1.4-0.7c-0.2-0.2-0.4-0.6-0.6-0.9c-0.2-0.4-0.3-0.7-0.3-0.8l1.1-0.5c0,0.3,0.1,0.6,0.2,0.9
		c0.1,0.2,0.2,0.4,0.4,0.6c0.1,0.1,0.2,0.2,0.4,0.3c0.2,0.1,0.4,0.1,0.5,0c0.2-0.1,0.1-0.4,0-0.6s-0.4-0.6-0.5-0.8
		c-0.1-0.3-0.1-0.6-0.1-0.9c0.1-0.3,0.2-0.5,0.4-0.7c0.3-0.3,0.6-0.4,1-0.4c0.5,0,0.9,0.2,1.3,0.7c0.2,0.2,0.3,0.4,0.4,0.6
		c0.1,0.1,0.1,0.4,0.2,0.7l-1.1,0.4l-0.2-0.5c0-0.1-0.1-0.3-0.3-0.4c-0.1-0.1-0.2-0.2-0.3-0.2s-0.2,0-0.3,0.1
		c-0.2,0.2-0.1,0.4,0.1,0.8c0.2,0.3,0.3,0.5,0.4,0.7c0.1,0.3,0.2,0.6,0.1,0.9c-0.1,0.3-0.2,0.5-0.5,0.8C55.4,23.1,55,23.2,54.5,23.2
		z"/>
	<path d="M59.5,24.7l-3.3,1.9l-0.6-1l3.3-1.9l-0.8-1.4l0.9-0.5l2.2,3.8L60.3,26L59.5,24.7z"/>
	<path d="M57.3,28.7l4.5-1.5l1.1,3.2L62,30.8l-0.7-2.1l-0.5,0.2l0.4,1.3l-1,0.3l-0.4-1.4l-1.1,0.4l0.7,2.3l-1,0.4L57.3,28.7z"/>
	<path d="M61.3,33.4c0.6,0.2,1.2,0.5,1.6,0.7c0.3,0.2,0.6,0.3,0.7,0.4c-0.1,0.1-0.3,0.3-0.6,0.5c-0.4,0.3-0.9,0.6-1.5,1
		c-0.8,0.5-1.6,0.9-2.5,1.4L59,36.2c0.1,0,0.2-0.1,0.3-0.1c0.2-0.1,0.3-0.1,0.3-0.2l-0.2-2c-0.1,0-0.1-0.1-0.3-0.1
		c-0.1,0-0.3-0.1-0.4-0.1l-0.1-1.2C59.6,32.8,60.5,33.1,61.3,33.4z M61.2,35.1c0.2-0.1,0.4-0.3,0.5-0.4c-0.1-0.1-0.3-0.2-0.6-0.3
		c-0.3-0.1-0.5-0.2-0.7-0.2l0.1,1.2C60.7,35.4,60.9,35.3,61.2,35.1z"/>
	<path d="M59.1,41.9c-0.4-0.6-0.5-1.3-0.4-2.1c0-0.3,0.1-0.7,0.2-1s0.2-0.6,0.3-0.8l4.6,0.7c0,0.4,0.1,0.8,0.1,1c0,0.3,0,0.7,0,1
		c0,0.3-0.2,0.6-0.3,1c-0.2,0.4-0.5,0.8-0.9,1c-0.5,0.3-1,0.4-1.7,0.3C60,42.9,59.4,42.5,59.1,41.9z M62.2,41.5
		c0.2-0.2,0.4-0.5,0.4-0.8c0-0.2,0-0.4,0-0.5s0-0.2,0-0.3L60,39.4c0,0.1-0.1,0.2-0.1,0.2c-0.1,0.2-0.1,0.4-0.1,0.5
		c-0.1,0.4,0,0.8,0.3,1.1c0.2,0.3,0.6,0.5,1,0.6C61.5,41.9,61.9,41.8,62.2,41.5z"/>
</g>
<path d="M53,34.7c0.2,0,0.4,0,0.5,0c0.5-0.1,0.6,0,0.5,0.5c0,0.1,0,0.1,0,0.2c0.2-0.1,0.3-0.3,0.4-0.4c0.4-0.3,0.6-0.1,0.7,0.3
	c0.1,0.2,0.1,0.4,0.2,0.6c0.2,0.4,0.2,0.8-0.1,1.1c-0.1,0.2-0.3,0.4-0.5,0.5c-0.3,0.3-0.6,0.5-0.7,0.9c0,0.3-0.3,0.4-0.6,0.2
	c-0.4-0.2-0.8-0.4-1.2-0.5c-0.4-0.1-0.8-0.2-1.2-0.4c-0.1,0.4,0.1,0.6,0.4,0.7c0.8,0.2,0.8,0.3,0.7,1.2c0.1,0,0.2,0,0.3,0
	c0.6,0.1,0.9,0.6,0.5,1.2c-0.1,0.2-0.3,0.4-0.4,0.5c-0.4,0.5-0.8,0.7-1.4,0.7c-1.6,0.1-2.9,0.8-3.9,2c-0.3,0.4-0.6,0.8-0.9,1.3
	c-0.1,0.2-0.2,0.4-0.3,0.6c-0.1,0.1-0.2,0.2-0.3,0.2c-0.5,0-1,0-1.4,0.1c-0.2,0-0.4,0.1-0.5,0.2c-0.3,0.3-0.5,0.2-0.8-0.1
	c-0.1-0.1-0.2-0.2-0.3-0.4c-1.4-1.3-2.7-2.7-4.1-4c-0.1-0.1-0.4-0.2-0.6-0.2c-1.3,0-2.6-0.1-3.9-0.1c-0.3,0-0.5-0.1-0.6-0.4
	c-0.3-1.1-1.1-1.6-2.3-1.6c-1.5,0-3-0.1-4.4-0.1c-0.3,0-0.5,0.1-0.8,0.2c-1,0.4-2,0.6-3,0.6c-1.3,0-2.6,0-3.8,0
	c-0.5,0-0.8-0.3-0.8-0.8c0-0.3,0.1-0.6,0.2-0.9c0.1-0.3,0.3-0.4,0.6-0.4c0.2,0,0.3-0.1,0.4-0.3c0.1-0.3,0.3-0.5,0.5-0.7
	c0.3-0.3,0.6-0.5,1-0.5c1.2,0.1,2.1-0.5,3-1.3c0.2-0.2,0.4-0.4,0.6-0.6c0.3-0.3,0.7-0.5,1.1-0.3c0.3,0.1,0.5,0,0.7-0.2
	c0.5-0.5,0.9-0.7,1.6-0.2c0.1-0.2,0.2-0.4,0.3-0.5c0.2-0.2,0.3-0.4,0.5-0.5c0.3-0.1,0.4-0.3,0.5-0.6c0.2-0.8,0.5-1,1.3-1.1
	c1.3,0,2.5-0.1,3.8-0.1c6.4,0,12.8,0.1,19.3,0.1c0.4,0,0.6,0.1,0.7,0.4c0.2,0.5,0.4,1,0.6,1.4c0.2,0.7-0.2,1.1-0.8,0.8
	C53.8,34.1,53.4,34.4,53,34.7z"/>
<g>
	<path d="M17.5,54c-0.3,0.2-0.9,0.7-1.2,1s-0.6,0.6-0.9,0.8l-0.5-0.5l0.8-0.7c0.5-0.4,0.9-0.8,1.3-1.1c0.5-0.3,1-0.6,1.4-0.8
		L18,56.1l1.8-1.8l0.5,0.5l-3,3L17.5,54z"/>
	<path d="M20.8,60.2c-0.3-0.1-0.6-0.2-0.8-0.4c-0.5-0.3-0.8-0.8-0.8-1.4c-0.1-0.6,0-1.1,0.3-1.5c0.4-0.5,0.8-0.8,1.4-0.9
		c0.6-0.1,1.1,0,1.6,0.4c0.2,0.2,0.4,0.4,0.6,0.7c0.1,0.2,0.2,0.5,0.3,0.7l-0.6,0.2l-0.1-0.5c-0.1-0.2-0.3-0.4-0.5-0.5
		c-0.3-0.2-0.7-0.3-1.1-0.2c-0.4,0.1-0.7,0.3-1,0.6c-0.2,0.3-0.3,0.6-0.2,1c0,0.4,0.2,0.8,0.6,1.1c0.2,0.1,0.3,0.2,0.6,0.3
		c0.4,0.1,0.4,0.1,0.8,0.1l-0.2,0.6C21.3,60.3,21.1,60.2,20.8,60.2z"/>
	<path d="M27.1,63c-0.4,0.2-0.8,0.2-1.3,0c-0.2-0.1-0.5-0.2-0.7-0.5c-0.3-0.2-0.4-0.4-0.5-0.5l0.5-0.6c0.1,0.2,0.3,0.4,0.5,0.5
		c0.2,0.1,0.3,0.2,0.5,0.3c0.1,0.1,0.4,0.1,0.6,0.1c0.2,0,0.3-0.1,0.4-0.3c0.1-0.2,0-0.5-0.3-0.7c-0.2-0.1-0.5-0.3-0.7-0.5
		c-0.2-0.2-0.4-0.3-0.4-0.6c-0.1-0.2,0-0.4,0.1-0.6c0.1-0.3,0.3-0.5,0.6-0.7c0.3-0.2,0.7-0.2,1.2,0c0.2,0.1,0.3,0.2,0.5,0.3
		c0.1,0.1,0.2,0.2,0.3,0.4l-0.4,0.5l-0.3-0.3c-0.1-0.1-0.2-0.1-0.3-0.2c-0.1-0.1-0.4-0.1-0.5,0c-0.1,0-0.3,0.1-0.3,0.3
		c-0.1,0.3,0.2,0.5,0.5,0.7c0.2,0.1,0.4,0.3,0.5,0.4c0.3,0.3,0.5,0.7,0.3,1.2C27.7,62.5,27.4,62.8,27.1,63z"/>
	<path d="M29.9,61.7l-0.4,1.4c0,0.2,0,0.3,0.1,0.3c0.1,0,0.2,0,0.3,0l0.2,0.6c-0.3,0.1-0.6,0.1-0.8,0.1C29.2,64,29,63.9,29,63.8
		c-0.1-0.2-0.1-0.6,0-0.8l0.4-1.4l-0.5-0.1l0.2-0.6l0.5,0.1l0.2-0.7l0.7,0.2l-0.2,0.7l0.7,0.2l-0.1,0.6L29.9,61.7z"/>
	<path d="M32.9,61.4c0.3,0,0.5,0.1,0.7,0.3c0.2,0.2,0.3,0.4,0.3,0.5c0.1,0.2,0.1,0.4,0,0.6l0,0.1c0,0.2-0.1,0.3-0.1,0.5
		c0,0.1,0,0.3,0,0.4c0,0.2,0,0.3,0.2,0.6l-0.5,0.4l-0.2-0.3c-0.2,0.1-0.7,0.1-1.1,0.1c-0.3,0-0.6-0.2-0.8-0.4
		c-0.2-0.2-0.3-0.5-0.2-0.8c0-0.2,0.2-0.4,0.4-0.6c0.3-0.2,0.6-0.2,0.9-0.2l0,0c0.2,0,0.5,0.1,0.7,0.3c0.1-0.4-0.2-0.7-0.6-0.8
		c-0.3,0-0.4,0-0.7,0.2l-0.3-0.6C32.1,61.5,32.3,61.3,32.9,61.4z M32.4,64.1c0.2,0,0.5,0,0.7,0l0.1-0.5c-0.2-0.1-0.4-0.3-0.7-0.3
		c-0.4,0-0.6,0.1-0.6,0.3C31.8,63.8,32,64,32.4,64.1C32.4,64,32.4,64,32.4,64.1z"/>
	<path d="M36.1,62.5l0,1.5c0,0.2,0.1,0.3,0.2,0.3c0.1,0,0.2,0,0.3-0.1l0.3,0.5c-0.3,0.2-0.6,0.3-0.8,0.3c-0.2,0-0.4-0.1-0.5-0.2
		c-0.2-0.1-0.2-0.5-0.2-0.8l0-1.5l-0.5,0l0-0.6l0.5,0l0-0.7l0.7,0l0,0.7l0.7,0l0,0.6L36.1,62.5z"/>
	<path d="M39,61.6L39,61.6c0.4,0,0.7,0.1,1,0.3c0.3,0.2,0.5,0.5,0.6,1c0,0.1,0,0.2,0,0.2c0,0.1,0,0.2,0,0.3l-2.4,0.2
		c0.2,0.5,0.8,0.6,1.2,0.6c0,0,0,0,0,0c0.3,0,0.6-0.2,0.8-0.5l0.4,0.5c-0.3,0.4-0.8,0.6-1.4,0.6l0,0c-0.5,0-0.8-0.1-1.2-0.3
		c-0.4-0.3-0.5-0.6-0.6-1l0-0.1c0-0.5,0.1-0.9,0.4-1.2C38.2,61.8,38.5,61.6,39,61.6z M40,62.8c-0.1-0.4-0.5-0.5-0.9-0.5
		c-0.4,0-0.8,0.3-0.9,0.7L40,62.8z"/>
	<path d="M46.3,61.5c-0.2,0.3-0.5,0.6-0.9,0.9c-0.1,0.1-0.2,0.1-0.4,0.2c0,0-0.2,0.1-0.3,0.2l0.3,0.9l-0.6,0.2l-1.3-3.7
		c0.2-0.1,0.3-0.2,0.5-0.3c0.2-0.1,0.4-0.2,0.6-0.3c0.5-0.2,0.9-0.2,1.3-0.1c0.5,0.1,0.8,0.4,0.9,0.8S46.6,61,46.3,61.5z M45.4,60
		c-0.2,0-0.5,0-0.8,0.1c-0.2,0.1-0.4,0.2-0.5,0.2c-0.1,0.1-0.1,0.1-0.2,0.2l0.5,1.5c0.5-0.3,0.8-0.5,1-0.8c0.3-0.4,0.4-0.7,0.4-0.9
		C45.8,60.1,45.6,60,45.4,60z"/>
	<path d="M48,59c0.3-0.1,0.5-0.2,0.8-0.1c0.3,0.1,0.5,0.2,0.6,0.2c0.2,0.2,0.3,0.3,0.4,0.5l0.1,0.1c0.1,0.1,0.1,0.3,0.2,0.5
		c0.1,0.1,0.1,0.2,0.2,0.3c0.1,0.2,0.2,0.2,0.5,0.4l-0.2,0.6l-0.3-0.1c-0.1,0.2-0.5,0.5-0.9,0.7c-0.3,0.1-0.6,0.2-0.9,0.1
		c-0.3-0.1-0.5-0.3-0.6-0.6c-0.1-0.2-0.1-0.5,0-0.7c0.1-0.3,0.3-0.5,0.6-0.7l0,0c0.2-0.1,0.5-0.1,0.7-0.2c-0.2-0.4-0.6-0.5-0.9-0.3
		c-0.3,0.1-0.4,0.2-0.5,0.5l-0.6-0.3C47.3,59.4,47.5,59.2,48,59z M49.1,61.4c0.2-0.1,0.4-0.3,0.5-0.4l-0.2-0.4c-0.2,0-0.5,0-0.7,0.1
		c-0.3,0.2-0.4,0.4-0.3,0.6C48.4,61.5,48.7,61.6,49.1,61.4C49,61.4,49.1,61.4,49.1,61.4z"/>
	<path d="M51.6,57.7C51.6,57.7,51.5,57.7,51.6,57.7c-0.3,0.2-0.4,0.4-0.4,0.5c0,0.1,0.1,0.3,0.3,0.6l0.9,1.3l-0.6,0.4l-1.1-1.6
		c-0.2-0.3-0.3-0.4-0.6-0.5l0.2-0.7c0.1,0,0.2,0,0.4,0.1c0.1-0.2,0.2-0.4,0.6-0.7c0.4-0.2,0.6-0.2,0.6-0.2l0,0.7
		C51.9,57.6,51.7,57.6,51.6,57.7z"/>
	<path d="M54.4,54.7c0.2,0.5,0.2,0.8,0.2,1.4c0,0.4,0,0.5,0,0.8l0.2,0.1c0.1,0,0.3,0,0.7,0.1c0.4,0,0.6,0,0.8-0.2c0,0,0,0,0-0.1
		l0.1,0.6c-0.1,0.1-0.2,0.1-0.3,0.1c-0.2,0.1-0.3,0.1-0.5,0.1c-0.3,0-0.6,0-0.7,0s-0.4,0-0.5,0l-0.1,0.4l0.4,0.5l-0.5,0.4l-2.9-3.4
		l0.5-0.4l1.9,2.3c0.4-0.7,0.2-1.7,0.1-2.1L54.4,54.7z"/>
	<path d="M58.3,54.6c0,0.3-0.1,0.6-0.4,1c-0.1,0.2-0.3,0.3-0.6,0.5c-0.2,0.1-0.4,0.2-0.5,0.2l-0.3-0.6c0.1,0,0.2-0.1,0.2-0.1
		c0.3-0.1,0.6-0.3,0.7-0.5l0,0c0.3-0.3,0.2-0.6,0.1-0.7c0,0-0.1-0.1-0.1-0.1c-0.1,0-0.4,0.1-0.6,0.4c-0.3,0.3-0.6,0.4-0.9,0.4
		c-0.2,0-0.3-0.1-0.5-0.2c-0.2-0.2-0.3-0.4-0.3-0.7c0-0.3,0.1-0.6,0.3-0.9c0.1-0.1,0.2-0.2,0.4-0.3c0.1-0.1,0.2-0.1,0.4-0.2l0.3,0.6
		c-0.2,0.1-0.4,0.2-0.6,0.4c-0.3,0.3-0.2,0.5-0.1,0.6l0,0c0.2,0.2,0.7-0.5,1-0.6c0.2-0.1,0.3-0.1,0.5-0.1c0.2,0,0.3,0.1,0.6,0.3
		C58.2,54.1,58.3,54.3,58.3,54.6z"/>
</g>
</svg>
