<svg width="85" height="62" viewBox="0 0 85 62" fill="none" xmlns="http://www.w3.org/2000/svg">
<path d="M36.8274 45.5328L23.5155 10.1353C23.5155 10.1353 19.885 13.4633 22.154 19.5141L32.138 46.2892L36.8274 45.5328Z" fill="#BCBEC0"/>
<path d="M80.8473 47.6506L41.5166 7.71487C35.617 1.664 27.7509 0 27.7509 0C27.7509 0 24.8767 7.41233 36.0708 18.7577L71.0146 54.1553L80.8473 47.6506Z" fill="#BCBEC0"/>
<path d="M48.7777 18.0014C48.7777 18.0014 46.2061 16.64 43.6345 14.2196C41.2141 11.7993 39.8527 9.07642 39.8527 9.07642C39.8527 9.07642 42.1217 10.7404 44.6934 13.1607C47.265 15.5811 48.7777 18.0014 48.7777 18.0014Z" fill="#939598"/>
<path d="M1.42944 51.4325L1.73198 13.4633L3.09342 11.7993H7.63157L8.99303 13.4633V18.0015C8.99303 20.7244 7.48031 23.5985 7.48031 26.6239C7.48031 29.0443 8.69048 30.4057 10.8083 30.4057C12.9261 30.4057 14.2875 28.893 14.2875 26.6239C14.2875 23.7498 12.9261 22.8421 12.9261 22.8421L13.2286 22.2371C13.2286 22.2371 16.8592 24.0523 16.8592 28.4392C16.8592 34.7926 9.44685 35.2464 9.44685 42.6587L1.42944 51.4325Z" fill="#BCBEC0"/>
<path d="M3.84991 15.4297C3.84991 15.4297 4.60627 17.85 4.60627 20.7242C4.60627 23.5984 3.84991 26.0187 3.84991 26.0187C3.84991 26.0187 3.39612 23.5984 3.39612 20.7242C3.39612 17.85 3.84991 15.4297 3.84991 15.4297Z" fill="#939598"/>
<path d="M9.2957 61.114C4.15246 61.114 0.0681152 56.8784 0.0681152 51.7352C0.0681152 46.5919 4.30374 42.5076 9.44698 42.5076L75.704 42.9614C80.8472 42.9614 84.9316 47.197 84.9316 52.3402C84.9316 57.4835 80.696 61.5678 75.5527 61.5678L9.2957 61.114Z" fill="#D71920"/>
<path d="M78.524 54.1531C79.5363 53.1568 79.5491 51.5285 78.5528 50.5163C77.5565 49.5041 75.9283 49.4912 74.9161 50.4875C73.9038 51.4838 73.8909 53.1121 74.8872 54.1243C75.8835 55.1365 77.5118 55.1494 78.524 54.1531Z" fill="#B11116"/>
</svg>
