<svg width="112" height="80" viewBox="0 0 112 80" fill="none" xmlns="http://www.w3.org/2000/svg">
<path d="M16.2568 8.10303L0.500732 15.4558L13.5557 72.0275L29.4618 64.5246L16.2568 8.10303Z" fill="white"/>
<path d="M33.8134 7.80298L16.2567 8.10309L29.4617 64.5247L47.0185 64.2245L33.8134 7.80298Z" fill="#DCDBDB"/>
<path d="M47.0184 64.2245L62.9245 56.8717L49.7194 0.300049L33.8134 7.80292L47.0184 64.2245Z" fill="white"/>
<path d="M67.2763 0L49.7196 0.300114L62.9247 56.8717L80.4814 56.5716L67.2763 0Z" fill="#DCDBDB"/>
<path d="M16.8571 10.3538L2.90173 17.1063L15.0564 69.1762L29.0117 62.5737L16.8571 10.3538Z" fill="#046937"/>
<path d="M34.2635 9.75366L16.8568 10.3539L29.0115 62.5738L46.4181 61.9736L34.2635 9.75366Z" fill="#044F2A"/>
<path d="M46.4182 61.9735L62.3243 54.7707L50.3197 2.55078L34.2635 9.75353L46.4182 61.9735Z" fill="#046937"/>
<path d="M65.7756 2.55078H50.3197L62.3243 54.7707L77.9302 54.6207L65.7756 2.55078Z" fill="#044F2A"/>
<path d="M20.4581 21.0081C18.8075 19.2074 16.2565 18.3071 13.8556 19.0573C10.8545 19.9577 8.90372 22.9588 9.35389 26.11C9.50395 26.7103 9.654 27.4606 9.95411 27.9107C10.1042 28.2108 10.1042 28.661 10.1042 29.1112C9.80407 30.0115 9.80407 31.0619 10.1042 32.1123C10.8545 34.2131 12.9553 35.4136 15.0561 35.1135C15.9564 34.9634 16.5567 34.6633 17.3069 34.2131C18.8075 33.1627 20.4581 32.5625 22.2588 32.5625C22.709 32.5625 23.0091 32.5625 23.4593 32.4124C25.7101 31.8122 27.2107 29.5614 26.9106 27.1604C26.6105 25.5098 25.5601 24.1593 24.2096 23.5591C22.709 23.1089 21.5085 22.2085 20.4581 21.0081Z" fill="#5791C7"/>
<path d="M24.2096 23.7091C22.8591 23.1089 21.5086 22.2085 20.4582 21.0081C20.008 20.5579 19.5578 20.1077 19.1077 19.8076L22.1088 32.7126C22.2589 32.7126 22.2589 32.7126 22.4089 32.7126C22.8591 32.7126 23.1592 32.7126 23.6094 32.5625C25.8602 31.9623 27.3608 29.7114 27.0607 27.3105C26.6105 25.6599 25.5601 24.3093 24.2096 23.7091Z" fill="#306BB2"/>
<path d="M34.2637 35.8638C32.6131 36.0138 31.4126 37.0642 30.8124 38.4147C30.5123 39.165 30.0621 39.7652 29.6119 40.3655C28.8616 41.1158 28.5615 42.1662 29.0117 43.2166C29.4619 44.417 30.6623 45.3174 32.0128 45.1673C32.463 45.1673 32.7631 45.0173 33.2133 44.8672C33.9636 44.417 34.7138 44.267 35.4641 44.1169C35.6142 44.1169 35.6142 44.1169 35.7643 44.1169C38.1652 43.5167 39.5157 41.1158 38.7654 38.7148C37.8651 36.7641 36.0644 35.7137 34.2637 35.8638Z" fill="#306BB2"/>
<path d="M70.5773 22.6584C68.4765 22.3583 66.0756 23.4087 65.0252 25.6595C64.2749 27.01 64.2749 28.6607 64.8751 30.1612L66.9759 35.1131C67.4261 36.1635 67.5762 37.364 67.276 38.5645L66.0756 43.0662C65.6254 44.8669 66.0756 46.8176 67.4261 48.1681L68.7766 49.6687C70.5773 51.4694 73.2783 51.9196 75.5292 50.569L76.7296 49.8188C76.7296 49.8188 76.8797 49.8188 76.8797 49.6687L70.5773 22.6584Z" fill="#306BB2"/>
<path d="M51.8205 28.6607L50.9201 28.0605L51.5204 27.1601C51.8205 26.5599 51.6704 25.9597 51.2202 25.6596C50.62 25.3594 50.0198 25.5095 49.7197 25.9597L49.1194 26.86L48.2191 26.2598C47.6189 25.9597 47.0186 26.1097 46.7185 26.5599C46.4184 27.1601 46.5685 27.7604 47.0186 28.0605L47.919 28.6607L47.3188 29.561C47.0186 30.1613 47.1687 30.7615 47.6189 31.0616C48.2191 31.3617 48.8193 31.2117 49.1194 30.7615L49.7197 29.8612L50.62 30.4614C51.2202 30.7615 51.8205 30.6114 52.1206 30.1613C52.5708 29.7111 52.4207 28.9608 51.8205 28.6607Z" fill="#BE202E"/>
<path d="M51.8205 38.4149C51.3703 38.5649 50.9201 38.2648 50.9201 37.8146L50.3199 34.9635C50.1699 34.5134 50.47 34.0632 50.9201 34.0632C51.3703 33.9131 51.8205 34.2133 51.8205 34.6634L52.4207 37.5145C52.4207 37.8146 52.1206 38.2648 51.8205 38.4149Z" fill="#29282A"/>
<path d="M45.0679 50.1189C44.7678 49.8188 44.9178 49.3686 45.2179 49.0685L47.4688 47.2678C47.7689 46.9677 48.2191 47.1178 48.5192 47.4179C48.8193 47.718 48.6693 48.1682 48.3691 48.4683L46.1183 50.269C45.8182 50.5691 45.368 50.419 45.0679 50.1189Z" fill="#29282A"/>
<path d="M37.715 50.1189C37.715 49.6688 38.1651 49.3687 38.6153 49.3687L41.4664 49.6688C41.9166 49.6688 42.2167 50.1189 42.2167 50.5691C42.2167 51.0193 41.7665 51.3194 41.3164 51.3194L38.4653 51.0193C38.0151 51.0193 37.715 50.5691 37.715 50.1189Z" fill="#141314"/>
<path d="M31.8626 53.4203C31.7125 53.1201 31.7125 52.5199 32.1627 52.3699L34.5636 50.8693C34.8637 50.7192 35.464 50.7192 35.614 51.1694C35.7641 51.4695 35.7641 52.0697 35.3139 52.2198L32.913 53.7204C32.6129 53.8704 32.1627 53.7204 31.8626 53.4203Z" fill="#141314"/>
<path d="M28.7115 59.1228C28.4114 58.8227 28.2614 58.3725 28.4114 58.0724L29.912 55.6715C30.2121 55.3714 30.6623 55.2213 30.9624 55.3714C31.2625 55.6715 31.4126 56.1217 31.2625 56.4218L29.7619 58.8227C29.4618 59.2729 29.0116 59.4229 28.7115 59.1228Z" fill="#141314"/>
<path d="M50.4698 45.1673C50.0196 45.0173 49.7195 44.7171 49.8696 44.267L50.3198 41.4159C50.4698 40.9657 50.7699 40.6656 51.2201 40.8156C51.6703 40.9657 51.9704 41.2658 51.8204 41.716L51.3702 44.5671C51.3702 45.0172 50.92 45.3174 50.4698 45.1673Z" fill="#29282A"/>
<path d="M109.617 56.8197C110.933 44.5418 102.047 33.5215 89.7693 32.2052C77.4914 30.8888 66.4711 39.7749 65.1548 52.0528C63.8385 64.3307 72.7246 75.351 85.0025 76.6674C97.2804 77.9837 108.301 69.0976 109.617 56.8197Z" fill="#1C75BC"/>
<path d="M107.063 56.5012C108.22 45.7066 100.407 36.0176 89.6125 34.8603C78.8179 33.703 69.1289 41.5156 67.9716 52.3102C66.8143 63.1049 74.6269 72.7939 85.4216 73.9512C96.2162 75.1085 105.905 67.2959 107.063 56.5012Z" fill="black"/>
<path d="M105.594 56.1399C106.663 46.1692 99.4463 37.2199 89.4757 36.1509C79.505 35.0819 70.5556 42.2982 69.4867 52.2688C68.4177 62.2395 75.6339 71.1888 85.6046 72.2578C95.5752 73.3268 104.525 66.1105 105.594 56.1399Z" fill="white"/>
<path d="M103.6 56.0382C104.545 47.2211 98.0969 39.3001 89.1975 38.346C80.2981 37.3918 72.3174 43.766 71.3721 52.583C70.4268 61.4 76.8749 69.3211 85.7743 70.2752C94.6738 71.2293 102.654 64.8552 103.6 56.0382Z" fill="black"/>
<path d="M101.872 55.9212C102.729 47.9282 96.9443 40.7539 88.9513 39.897C80.9583 39.04 73.784 44.8249 72.9271 52.8179C72.0702 60.8109 77.8551 67.9852 85.8481 68.8422C93.8411 69.6991 101.015 63.9142 101.872 55.9212Z" fill="white"/>
<path d="M90.085 51.77L88.8846 40.6658L85.2832 51.62L90.085 51.77Z" fill="#1C75BC"/>
<path d="M84.6831 56.8717L86.0336 67.8259L89.7851 56.7217L84.6831 56.8717Z" fill="#D32328"/>
<path d="M91.2932 54.7418C91.5229 52.5994 89.9723 50.6764 87.8298 50.4467C85.6874 50.217 83.7644 51.7676 83.5347 53.91C83.305 56.0525 84.8556 57.9755 86.998 58.2052C89.1405 58.4349 91.0635 56.8843 91.2932 54.7418Z" fill="black"/>
<path d="M87.3843 56.5715C88.6274 56.5715 89.6351 55.5638 89.6351 54.3207C89.6351 53.0776 88.6274 52.0698 87.3843 52.0698C86.1412 52.0698 85.1334 53.0776 85.1334 54.3207C85.1334 55.5638 86.1412 56.5715 87.3843 56.5715Z" fill="white"/>
<path d="M88.6627 54.511C88.7333 53.8518 88.2562 53.2601 87.597 53.1895C86.9378 53.1188 86.3461 53.5959 86.2754 54.2551C86.2048 54.9143 86.6819 55.506 87.3411 55.5767C88.0003 55.6474 88.592 55.1703 88.6627 54.511Z" fill="#1C75BC"/>
<path d="M94.241 26.2128L87.2285 25.4609L86.6846 30.5338L93.6971 31.2856L94.241 26.2128Z" fill="black"/>
<path d="M93.0108 31.2335L87.1919 30.6096L86.9999 32.4L92.8188 33.0239L93.0108 31.2335Z" fill="black"/>
<path d="M103.59 56.1216C103.44 56.1216 103.29 56.1216 102.99 56.1216C102.84 56.1216 102.84 55.9715 102.84 55.8214C102.84 55.6714 102.84 55.6714 102.99 55.6714C103.14 55.6714 103.29 55.8214 103.59 55.6714C103.89 55.6714 104.04 55.6714 104.34 55.8214C104.49 55.8214 104.49 55.9715 104.49 56.1216C104.49 56.2716 104.34 56.2716 104.19 56.2716C104.04 56.2716 103.74 56.2716 103.59 56.1216Z" fill="#67B0D0"/>
<path d="M83.0323 69.3265V69.1764C83.0323 69.0264 83.0323 69.0264 83.3324 69.0264C83.4825 69.0264 83.6325 69.0264 83.4825 69.3265C83.4825 69.4765 83.3324 69.6266 83.3324 69.9267C83.1824 70.0768 83.1824 70.3769 83.0323 70.5269C83.0323 70.677 82.8823 70.677 82.7322 70.677C82.5821 70.677 82.5822 70.5269 82.5822 70.5269C82.5822 70.2268 82.7322 70.0768 82.7322 69.7767C82.8823 69.6266 82.8823 69.4765 83.0323 69.3265Z" fill="#67B0D0"/>
<path d="M98.4884 66.0254C98.4884 65.8754 98.1883 65.7253 98.1883 65.5753C98.0382 65.4252 98.1883 65.4252 98.1883 65.2751C98.3383 65.1251 98.3383 65.1251 98.4884 65.2751C98.6384 65.4252 98.7885 65.5753 98.9386 65.7253C99.0886 66.0254 99.2387 66.0254 99.3887 66.3255C99.5388 66.4756 99.5388 66.4756 99.3887 66.6257C99.2387 66.7757 99.2387 66.7757 99.0886 66.6257C98.9386 66.3255 98.7885 66.1755 98.4884 66.0254Z" fill="#67B0D0"/>
<path d="M102.84 50.2694C102.99 50.2694 102.99 50.1193 103.14 50.1193C103.44 50.1193 103.59 50.1193 103.89 49.9692C104.04 49.9692 104.19 49.9692 104.19 50.1193C104.19 50.2694 104.19 50.2694 104.04 50.2694C103.89 50.2694 103.59 50.2693 103.44 50.5695C103.29 50.4194 103.14 50.5695 102.99 50.5695C102.99 50.5695 102.99 50.5695 102.84 50.5695C102.69 50.5695 102.69 50.4194 102.54 50.4194C102.54 50.2694 102.54 50.2694 102.69 50.2694C102.69 50.2694 102.69 50.2694 102.84 50.2694Z" fill="#67B0D0"/>
<path d="M81.2317 39.3151C81.2317 39.6152 81.3818 39.7652 81.5319 39.9153C81.5319 40.0654 81.5319 40.0654 81.3818 40.2154C81.2317 40.2154 81.2317 40.3655 81.0817 40.2154C80.9316 40.0654 80.9316 39.7652 80.7816 39.6152C80.7816 39.3151 80.6315 39.165 80.4814 39.015C80.4814 38.8649 80.4815 38.8649 80.6315 38.7148C80.7816 38.7148 80.7816 38.7148 80.9316 38.8649C81.0817 39.015 81.0817 39.165 81.2317 39.3151Z" fill="#67B0D0"/>
<path d="M74.0288 63.0241C74.1789 63.0241 74.479 62.8741 74.6291 62.724C74.7791 62.574 74.7791 62.724 74.9292 62.8741C75.0792 63.0241 75.0792 63.0241 74.9292 63.1742C74.7791 63.3242 74.479 63.3242 74.479 63.6244C74.3289 63.6244 74.0288 63.7744 73.8788 63.9245C73.7287 64.0745 73.7287 63.9245 73.5787 63.7744C73.4286 63.6244 73.5787 63.6244 73.5787 63.4743C73.7287 63.3243 73.8788 63.3243 74.0288 63.0241Z" fill="#67B0D0"/>
<path d="M97.2881 41.4161C97.138 41.4161 96.988 41.7162 96.988 41.8662C96.8379 42.0163 96.8379 42.1663 96.6879 42.0163C96.5378 41.8662 96.5378 41.7162 96.6879 41.7162C96.8379 41.5661 96.8379 41.4161 96.988 41.266C97.138 41.1159 97.2881 40.9659 97.4381 40.6658C97.5882 40.5157 97.5882 40.5157 97.7383 40.6658C97.8883 40.8158 97.8883 40.8158 97.7383 40.9659C97.5882 40.9659 97.2881 41.1159 97.2881 41.4161Z" fill="#67B0D0"/>
<path d="M93.8364 69.0267C93.8364 68.8766 93.6863 68.7266 93.6863 68.5765C93.6863 68.4264 93.5363 68.2764 93.8364 68.2764C94.1365 68.1263 94.1365 68.4264 94.1365 68.4264C94.2865 68.5765 94.1365 68.7266 94.4366 68.8766C94.4366 69.1767 94.5867 69.3268 94.7367 69.6269C94.7367 69.777 94.7367 69.777 94.5867 69.927C94.4366 69.927 94.2866 70.0771 94.2866 69.927C94.1365 69.4768 93.9864 69.3268 93.8364 69.0267Z" fill="#67B0D0"/>
<path d="M88.4346 70.3772C88.4346 70.2272 88.4346 69.9271 88.4346 69.777C88.4346 69.627 88.5846 69.627 88.7347 69.627C88.8847 69.627 88.8847 69.627 88.8847 69.777C88.8847 69.9271 88.8847 70.2272 88.8847 70.3772C88.8847 70.6774 88.8847 70.8274 88.8847 71.1275C88.8847 71.2776 88.8847 71.2776 88.7347 71.2776C88.5846 71.2776 88.4346 71.2776 88.4346 71.1275C88.4346 70.8274 88.4346 70.5273 88.4346 70.3772Z" fill="#67B0D0"/>
<path d="M72.6786 58.2225C72.3785 58.2225 72.2284 58.3725 71.9283 58.3725C71.7783 58.3725 71.4781 58.3725 71.3281 58.5226C71.028 58.5226 71.178 58.3725 71.028 58.3725C70.8779 58.2225 71.028 58.2225 71.178 58.2225C71.3281 58.2225 71.6282 58.2225 71.7783 58.0724C71.9283 58.0724 71.9283 58.0724 72.0784 58.0724C72.2284 58.0724 72.3785 58.0724 72.5286 57.9224C72.6786 57.9224 72.8287 58.0724 72.6786 58.2225Z" fill="#67B0D0"/>
<path d="M101.939 61.5235C101.789 61.3734 101.639 61.3734 101.489 61.2234C101.339 61.0733 101.339 61.0733 101.339 60.9232C101.489 60.7732 101.489 60.7732 101.639 60.7732C101.789 60.9233 101.939 60.9232 102.09 60.9232C102.39 61.0733 102.54 61.0733 102.84 61.2234C102.99 61.2234 102.99 61.3734 102.99 61.5235C102.99 61.6735 102.84 61.6735 102.69 61.6735C102.39 61.8236 102.09 61.5235 101.939 61.5235Z" fill="#67B0D0"/>
<path d="M101.039 45.4672C100.889 45.4672 100.739 45.6173 100.589 45.6173C100.439 45.6173 100.439 45.9174 100.139 45.6173C99.989 45.3172 100.139 45.3172 100.289 45.3172C100.439 45.1671 100.589 45.1671 100.589 45.0171C100.889 45.0171 101.039 44.867 101.189 44.7169C101.34 44.5669 101.49 44.7169 101.49 44.867C101.64 45.0171 101.49 45.0171 101.34 45.1671C101.49 45.1671 101.189 45.3172 101.039 45.4672Z" fill="#67B0D0"/>
<path d="M86.6336 38.1147C86.6336 38.2648 86.6336 38.5649 86.6336 38.7149C86.6336 38.865 86.4835 38.865 86.4835 38.865C86.3335 38.865 86.3335 38.865 86.3335 38.7149C86.3335 38.5649 86.3335 38.2648 86.3335 38.1147C86.3335 37.8146 86.3335 37.6645 86.3335 37.3644C86.3335 37.2144 86.4835 37.2144 86.4835 37.2144C86.6336 37.2144 86.6336 37.2144 86.7837 37.3644C86.6336 37.6645 86.6336 37.9646 86.6336 38.1147Z" fill="#67B0D0"/>
<path d="M76.5802 42.4663C76.5802 42.6163 76.8803 42.7664 76.8803 42.9165C77.0303 43.0665 77.1804 43.0665 76.8803 43.3666C76.7302 43.5167 76.5802 43.3666 76.5802 43.2166C76.4301 43.0665 76.28 42.9165 76.13 42.7664C75.9799 42.6163 75.8299 42.4663 75.6798 42.3162C75.5297 42.1662 75.5297 42.1662 75.6798 42.0161C75.8299 41.8661 75.8299 41.8661 75.9799 42.0161C76.28 42.1662 76.28 42.3162 76.5802 42.4663Z" fill="#67B0D0"/>
<path d="M92.336 38.8649C92.1859 39.015 92.1859 39.1651 92.1859 39.4652C92.1859 39.6152 92.0358 39.6152 91.8858 39.6152C91.7357 39.6152 91.7357 39.4652 91.7357 39.3151C91.7357 39.1651 91.8858 39.015 91.8858 38.7149C91.8858 38.5648 92.0359 38.2647 92.0359 38.1147C92.0359 37.9646 92.1859 37.9646 92.336 37.9646C92.486 37.9646 92.486 38.1147 92.486 38.2647C92.486 38.4148 92.1859 38.5648 92.336 38.8649Z" fill="#67B0D0"/>
<path d="M73.1285 46.968C73.2785 47.118 73.4286 47.118 73.7287 47.2681C73.8787 47.2681 73.8787 47.4182 73.8787 47.5682C73.8787 47.7183 73.7287 47.7183 73.5786 47.7183C73.4286 47.5682 73.1284 47.5682 72.9784 47.4182C72.8283 47.2681 72.5282 47.2681 72.3782 47.118C72.2281 47.118 72.2281 46.968 72.3782 46.8179C72.3782 46.6679 72.3782 46.5178 72.6783 46.6679C72.6783 46.8179 72.9784 46.8179 73.1285 46.968Z" fill="#67B0D0"/>
<path d="M77.7805 67.0757C78.0806 67.0757 78.0806 66.7755 78.2306 66.6255C78.3807 66.4754 78.3807 66.4754 78.5308 66.6255C78.6808 66.7755 78.6808 66.7755 78.5308 66.9256C78.3807 67.0757 78.2306 67.2257 78.2306 67.3758C78.0806 67.5258 77.9305 67.6759 77.7805 67.8259C77.6304 67.976 77.6304 67.976 77.4803 67.8259C77.3303 67.6759 77.3303 67.6759 77.4803 67.5258C77.6304 67.5258 77.7805 67.3758 77.7805 67.0757Z" fill="#67B0D0"/>
<path d="M72.2284 52.3699C72.3784 52.52 72.2284 52.67 72.2284 52.67C72.2284 52.8201 72.0783 52.67 72.0783 52.67C71.9283 52.67 71.6281 52.67 71.4781 52.67C71.328 52.67 71.0279 52.67 70.8778 52.67C70.7278 52.67 70.7278 52.52 70.7278 52.3699C70.7278 52.2199 70.7278 52.0698 70.8778 52.2199C71.0279 52.2199 71.328 52.2199 71.4781 52.2199C71.7782 52.3699 71.9282 52.3699 72.2284 52.3699Z" fill="#67B0D0"/>
</svg>
