<?xml version="1.0" encoding="utf-8"?>
<!-- Generator: Adobe Illustrator 27.0.0, SVG Export Plug-In . SVG Version: 6.00 Build 0)  -->
<svg version="1.1" xmlns="http://www.w3.org/2000/svg" xmlns:xlink="http://www.w3.org/1999/xlink" x="0px" y="0px"
	 viewBox="0 0 577.3 440.9" style="enable-background:new 0 0 577.3 440.9;" xml:space="preserve">
<style type="text/css">
	.st0{fill:#FFFFFF;}
</style>
<g id="Layer_1">
	<polygon class="st0" points="31.4,349 31.4,70.4 35.4,76.3 35.4,345 221.3,345 224.3,349 	"/>
	<polygon class="st0" points="557.3,58.1 557.3,345.1 557.3,347 557.3,349.2 348.3,349.2 351,345.1 553.2,345.1 553.2,63.9 	"/>
	<path class="st0" d="M372.8,307.6L285.5,428l-130-186.6l-2.8,1l132.7,190.5c2.6-3.6,55-75.8,89.5-123.3L372.8,307.6z"/>
	<g>
		<path class="st0" d="M573.4,34.2L8,34.5l1.9,3l110.7,158.8l2.6-1.4L13.3,37.3l554.5-0.2l-59.2,81.6c1.3-0.1,2.5-0.2,3.8-0.3
			C527.7,97.3,555.7,58.8,573.4,34.2z"/>
	</g>
	<polygon class="st0" points="68.8,80 509.7,79.9 509.7,83.4 68.8,83.4 	"/>
	<path class="st0" d="M557.3,15.4v17.8h-4V19.4H35.4l0,13.7h-4V15.4C47.1,15.4,520.2,15.4,557.3,15.4z"/>
	<g>
		<path class="st0" d="M197.2,284.4c-0.1,0.5-0.5,0.6-0.8,0.2c-0.8-0.9-1.2-2.7-0.2-5.2c2.3-6.3,8.3-17.2,12-23.4
			c0.4-0.7,0.7-0.7,1.2-0.4c1.7,1.3,2.1,2.5,1.6,5.7c-0.7,4.4-1.2,10.2-1.5,16.7c3.2-7.1,8.5-16.8,12-22.2c0.4-0.6,0.8-0.4,1.1,0.1
			c0.7,1.4,0.6,3.2-1.4,6.7c-2.7,4.5-8.6,15.7-11.4,21.8c-0.2,0.5-0.4,0.6-0.9,0.3c-1.4-0.7-2-1.9-2.3-4.8c-0.2-2.8,0-9.1,0.8-15.7
			C203.8,270.2,199,278.8,197.2,284.4z"/>
		<path class="st0" d="M233.4,266.2c0.4-0.6,0.8-0.7,1.1-0.3c0.7,0.8,1.1,2.8,0,5.1c-1,2.1-3.3,5.6-4.5,8c-1.2,2.6-1.2,4.6,0.4,4.5
			c1.9-0.1,4.5-3.2,6.1-6.4c0.2-0.4,0.6-0.5,0.7,0c0.2,0.4,0.2,1.6-0.4,2.9c-1.2,2.5-4.1,5.1-6.7,5c-2.5-0.1-3.8-1.6-3.8-3.8
			c-1.5,1.9-3.6,3.6-5.8,3.6c-4.3,0-5.2-5.9-1.3-11.5c3.8-5.5,7.4-7.6,9.7-7.6c2,0,2.9,1.5,2.8,3.3
			C232.3,267.9,232.9,267,233.4,266.2z M229.7,268.1c-1.5-0.1-4.9,2.9-7.4,7c-2.5,4-3.1,8.1-1.3,8.1c1.9,0,4.3-2.9,6.7-7
			C230.6,271.1,231,268.3,229.7,268.1z"/>
		<path class="st0" d="M238.5,264.9c-0.5-0.7-0.2-1,0.5-0.9c1.3,0,2.6,0,3.8-0.2c1.4-2.6,2.7-4.7,3.5-5.7c0.4-0.6,0.9-0.6,1.1,0
			c0.5,1.3,0.5,2.8-0.6,5.2c1.8,0,2.5,0.8,2.9,1.4c0.3,0.6,0.1,0.9-0.6,0.9c-1-0.1-2.5,0-3.6,0.2c-1.8,3.1-4.5,7.6-6.2,11.5
			c-1.5,3.4-1,6.3,0.9,6.4c2.1,0.1,4.7-3.2,6.4-6.7c0.3-0.6,0.8-0.6,1,0c0.2,0.7,0,1.6-0.5,2.6c-0.6,1.3-3.7,5.4-7.4,5.3
			c-3.1-0.1-5.5-3.5-3.3-8.9c1-2.3,2.9-6.2,4.9-9.9C240,266.1,238.9,265.4,238.5,264.9z"/>
		<path class="st0" d="M248.2,284.7c-3.3-0.2-3.4-3.7-2.4-6.7c1-3.1,3.4-7.6,6.4-11.8c0.4-0.5,0.9-0.5,1.2,0
			c1.1,1.4,0.8,3.6-0.9,6.3c-1.7,2.7-2.6,4.6-3.6,6.8c-1,2.3-0.8,3.9,0.2,4c1.8,0.1,4.4-3.1,6.9-7.1c2.9-4.7,4.3-7.9,5.7-9.9
			c0.5-0.6,0.8-0.7,1.2-0.3c0.7,0.8,1.1,2.9,0,5.2c-1,2.1-3.3,5.6-4.4,7.9c-1.2,2.6-1,4.6,0.6,4.5c1.9-0.1,4.3-3.2,6.1-6.4
			c0.2-0.4,0.6-0.5,0.8,0c0.2,0.4,0.2,1.6-0.4,2.9c-1.3,2.6-4.2,5-7,5c-3,0-4.2-1.9-3.8-4.6C253.2,282.5,250.8,284.9,248.2,284.7z"
			/>
		<path class="st0" d="M271,278.3c1-3.1,3.7-6.3,5.6-8.5c-2,1.3-4,1.8-5.4,1.8c-1.8,3.2-6.2,9.8-7.1,14c-0.1,0.4-0.4,0.6-0.8,0.2
			c-1.3-1.4-1.3-3.5-0.1-5.9c1.1-2,4.2-6.4,5.9-8.9c-2.6-1.7,1.4-7.2,3.1-7.2c1.4,0,1.1,2.6-0.1,5.6c1.5-0.2,3.1-0.9,4.8-2.1
			c0.6-0.4,0.9-0.5,1.3-0.1c0.9,1,2,3,0.6,4.5c-2.1,2.4-4.4,5.3-5.1,7.7c-0.7,2.4-0.2,4.3,1.2,4.3c1.9,0,4.4-3.3,6-6.5
			c0.2-0.4,0.6-0.5,0.7,0c0.2,0.4,0.2,1.6-0.4,2.9c-1.2,2.5-4.1,5.1-6.7,5C271.1,284.9,269.8,281.8,271,278.3z"/>
		<path class="st0" d="M296.8,266.2c0.4-0.6,0.8-0.7,1.1-0.3c0.7,0.8,1.1,2.8,0,5.1c-1,2.1-3.3,5.6-4.5,8c-1.2,2.6-1.2,4.6,0.4,4.5
			c1.9-0.1,4.4-3.2,6.1-6.4c0.2-0.4,0.6-0.5,0.7,0c0.2,0.4,0.2,1.6-0.4,2.9c-1.2,2.5-4.1,5.1-6.7,5c-2.5-0.1-3.8-1.6-3.8-3.8
			c-1.5,1.9-3.6,3.6-5.8,3.6c-4.3,0-5.2-5.9-1.3-11.5c3.8-5.5,7.4-7.6,9.7-7.6c2,0,2.9,1.5,2.8,3.3
			C295.7,267.9,296.3,267,296.8,266.2z M293.1,268.1c-1.5-0.1-4.9,2.9-7.4,7c-2.5,4-3.1,8.1-1.3,8.1c1.9,0,4.3-2.9,6.7-7
			C294,271.1,294.4,268.3,293.1,268.1z"/>
		<path class="st0" d="M303.4,283.4c2.2,0.2,5.5-3.2,7.3-6.7c0.3-0.6,0.8-0.6,1,0c0.2,0.7,0,1.8-0.5,2.9c-0.6,1.4-4,5.2-7.7,5.1
			c-3.2-0.1-4.9-2.3-3.8-7.3c1.7-8.1,7-16.5,11.7-21.4c0.7-0.7,1.3-0.8,2-0.2c1.3,1.2,1.6,2.9,1.1,5.1c-1.4,5.7-6.6,11.3-10.8,14
			C301.8,279.4,301.3,283.2,303.4,283.4z M312.9,259.9c-0.6-0.4-4,4.8-7.2,10.7c-0.4,0.7-0.8,1.5-1.1,2.2
			C310.9,267.7,313.5,260.3,312.9,259.9z"/>
		<path class="st0" d="M314.3,283.4c2.2,0.2,5.5-3.2,7.3-6.7c0.3-0.6,0.8-0.6,1,0c0.2,0.7,0,1.8-0.5,2.9c-0.6,1.4-4,5.2-7.7,5.1
			c-3.2-0.1-4.9-2.3-3.8-7.3c1.7-8.1,7-16.5,11.7-21.4c0.7-0.7,1.3-0.8,2-0.2c1.3,1.2,1.6,2.9,1.1,5.1c-1.4,5.7-6.6,11.3-10.8,14
			C312.7,279.4,312.2,283.2,314.3,283.4z M323.7,259.9c-0.6-0.4-4,4.8-7.2,10.7c-0.4,0.7-0.8,1.5-1.1,2.2
			C321.7,267.7,324.3,260.3,323.7,259.9z"/>
		<path class="st0" d="M330.3,285.8c-2.6,6.2-5.9,13.7-9.7,15.2c-0.9,0.3-1.8,0.3-2.6-1c-0.9-1.4-1.9-3-0.9-5.7
			c1.4-4.2,5.3-7,9.9-8.8c0.5-1.1,0.9-2.2,1.4-3.3c-1.4,1.5-3.2,2.7-5.1,2.5c-3.3-0.3-3.4-3.7-2.4-6.7c1-3,3.3-7.6,6.3-11.7
			c0.4-0.5,0.8-0.5,1.2,0c1.1,1.5,0.8,3.4-0.9,6.2c-1.7,2.7-2.7,4.6-3.6,6.8c-0.9,2.3-0.8,3.9,0.2,4c1.8,0.1,4.1-2.8,6.5-6.9
			c2-3.4,4-7.6,5.6-10c0.4-0.6,0.8-0.7,1.2-0.3c0.7,0.8,1,2.8-0.2,5.2c-1.4,2.7-4.2,8.2-6.2,12.7c3.6-1.8,6.7-3.8,8.2-6.8
			c0.2-0.4,0.6-0.5,0.7,0c0.2,0.5,0,1.7-0.6,2.8C337.6,282.9,334.2,284.2,330.3,285.8z M318.9,298.4c0.6,0.9,4.4-4.2,7.3-11
			C320.1,290.9,318.1,297.3,318.9,298.4z"/>
	</g>
	<g>
		<path class="st0" d="M218.4,324.3c-0.3,0.5-0.7,0.7-1.3,0.2c-1.5-1.3-1.9-3-1.2-6c1.6-6.6,5.1-16.6,7.2-20.7
			c0.3-0.7,0.8-0.7,1.1-0.2c0.7,1.3,0.8,2.8-0.4,6.2c-1.4,3.9-3.6,9.6-5.4,15.8c4-6.6,10.8-15.8,15.2-21.2c0.3-0.3,0.7-0.5,1.1,0
			c0.9,1.3,1.1,2.4,0,5.7c-1.4,4.1-3.2,9.4-4.9,15.7c4.4-7.2,12.8-18.4,16.7-22.5c0.5-0.5,1-0.4,1,0.2c0.3,1.5-0.3,3.4-2.5,6.3
			c-3.2,4.2-9.6,12.2-14.9,20.3c-0.3,0.5-0.7,0.7-1.3,0.2c-1.5-1.3-2-2.9-1.4-6c0.7-3.2,2.2-8,3.6-12.1
			C227.2,311.4,222.1,318.5,218.4,324.3z"/>
		<path class="st0" d="M253.8,315.1c-0.9,3.7-3.7,8.1-6.9,9.2c-1.6,0.5-3.7,0.3-5.5-1.9c-1.9-2.5-1.3-6.3,0.7-9.8
			c1.7-3,4.3-5.5,6.9-5.7c1.3-0.1,2.1,0.3,3,1.5c1,1.3,2.3,1.7,2,4.8l-0.1,1c0.3,0,0.5-0.1,0.9-0.1c0.3,0,0.3,0.2,0.1,0.4
			C254.6,314.9,254.2,315.1,253.8,315.1z M250.1,314c-0.9-0.7-2-2.2-2-3.8c-1.2,1-2.4,2.4-3.4,4.1c-1.8,3.3-2.5,7.3-1.3,8.3
			c1.2,1,3.9-0.5,6-4.5c0.7-1.2,1.2-2.4,1.5-3.5C250.6,314.4,250.3,314.2,250.1,314z M251.5,310.1c-0.2-1.4-1.1-1.1-1.3,0.1
			c-0.2,1.2,0.3,2.4,1,3.1C251.5,312,251.7,310.9,251.5,310.1z"/>
		<path class="st0" d="M269.3,306.8c1.4,0.2,2.8,2.4,1.7,4.6c-0.9,1.9-3,5.1-4,7.4c-1.1,2.5-0.9,4.6,0.7,4.5c1.8-0.1,3.9-3,5.6-6
			c0.2-0.4,0.5-0.4,0.7,0c0.3,0.5,0.2,1.5-0.4,2.7c-1.2,2.4-3.9,4.7-6.4,4.7c-3.7,0-4.6-2.7-3.3-6.5c1.4-4.3,5.3-8.9,4.5-9.2
			c-0.4-0.2-3,1-5.7,4.1c-2.6,2.8-4.5,7-6.4,11.1c-0.2,0.4-0.4,0.6-0.8,0.2c-0.9-0.9-1.1-2.3-0.4-4.5c0.9-2.7,4.2-8.8,7-12.8
			c0.3-0.5,0.7-0.4,0.9,0c0.7,1.1,0.6,2.6,0.1,4.1C264.9,309,267.9,306.6,269.3,306.8z"/>
		<path class="st0" d="M285.3,323.4c1.8-0.1,4.1-3,5.7-6c0.2-0.4,0.5-0.4,0.7,0c0.2,0.4,0.2,1.5-0.3,2.7c-1.2,2.4-3.9,4.7-6.3,4.6
			c-2.4-0.1-3.5-1.4-3.5-3.5c-1.4,1.7-3.4,3.4-5.4,3.4c-4,0-4.8-5.5-1.3-10.8c3.4-5.1,6.9-7,9.1-7c1.8,0,2.7,1.3,2.6,3
			c2.4-4.5,5.7-10.4,7.2-12.6c0.4-0.6,0.8-0.6,1,0c0.6,1.4,0.5,3.3-1.3,6.6c-2.1,3.7-6.3,10.9-8.4,15.5
			C283.9,321.7,283.8,323.5,285.3,323.4z M277.7,315.5c-2.4,3.7-2.8,7.5-1.1,7.6c1.7,0,4.1-2.5,6.1-6.5c2.5-4.8,3.2-7.6,1.9-7.6
			C283.3,308.9,280.1,311.7,277.7,315.5z"/>
		<path class="st0" d="M296.1,323.3c3.6,0.2,6.8-3.3,8.7-6.2c0.2-0.3,0.6-0.3,0.7,0c0.2,0.3,0,1.6-0.7,2.7c-1.8,2.7-5.2,4.7-8.5,4.7
			c-5.5,0.1-7.4-5.4-4.6-11c2.8-5.6,7.3-7.9,9.4-6.6c1.1,0.7,1.9,1.3,2.6,2.3c0.8,1,0.4,3.7-1.4,5.9c-2.1,2.6-5.1,3.7-8.1,1.3
			C292.7,320.5,293.8,323.2,296.1,323.3z M299.7,313.3c1.4-1.8,2.4-4.1,1.7-4.6c-0.9-0.7-4.9,2.1-6.9,6.7
			C296.6,316.8,298.4,315,299.7,313.3z"/>
		<path class="st0" d="M309.7,318.5c1-2.9,3.5-6,5.2-8c-1.9,1.3-3.8,1.7-5.1,1.7c-1.7,3-5.8,9.2-6.7,13.2c-0.1,0.4-0.3,0.6-0.7,0.2
			c-1.3-1.3-1.3-3.3-0.1-5.5c1-1.9,3.9-6,5.5-8.3c-2.5-1.6,1.3-6.7,2.9-6.8c1.3,0,1,2.5-0.1,5.2c1.4-0.2,2.9-0.9,4.5-2
			c0.5-0.3,0.9-0.4,1.2-0.1c0.8,0.9,1.9,2.8,0.6,4.3c-2,2.2-4.1,5-4.8,7.2c-0.7,2.3-0.2,4,1.1,4c1.8,0,4.1-3.1,5.7-6.1
			c0.2-0.4,0.5-0.4,0.7,0c0.2,0.4,0.2,1.5-0.4,2.7c-1.1,2.4-3.9,4.7-6.3,4.7C309.8,324.6,308.6,321.7,309.7,318.5z"/>
		<path class="st0" d="M325.1,320.9c0,0.5,0,1-0.1,1.5c1.7-1.1,3.4-3.3,4.5-5.5c0.3-0.5,0.7-0.6,0.9,0c0.2,0.7,0,1.7-0.4,2.6
			c-0.4,1-2.6,3.6-5.2,4.5c-0.7,4.4-2.6,9.2-4.7,11.8c-1.5,1.8-2.6,2-3.9,0.9c-1.1-0.9-2.4-2.6-1.9-6.3c1.2-9.7,11.2-26.4,16.1-33.6
			c0.3-0.5,0.9-0.5,1.1,0c0.5,1.5,0.4,3.4-1.5,6.5c-1.8,3-4.8,7.9-7.1,12.5C324.5,316.4,325.1,318.1,325.1,320.9z M316.7,335.1
			c1,1.3,4.2-4.7,5.7-10.7c-1.3-0.1-2.1-0.7-2.7-1.7C317.2,328.4,315.7,333.8,316.7,335.1z M323,320c0-1.6-0.4-3-0.7-2.8
			c-0.4,0.2-0.8,2.5-0.9,3.5c0,1.4,0.3,2.3,1.2,2.5C322.8,322.1,322.9,321,323,320z"/>
		<path class="st0" d="M330.9,324.5c-3.1-0.2-3.2-3.4-2.2-6.3c1-2.9,3.2-7.1,6-11.1c0.3-0.5,0.8-0.5,1.1,0c1,1.3,0.7,3.4-0.8,5.9
			c-1.6,2.6-2.5,4.3-3.4,6.4c-0.9,2.1-0.8,3.7,0.2,3.8c1.7,0.1,4.1-2.9,6.4-6.7c2.7-4.4,4-7.4,5.4-9.3c0.4-0.6,0.7-0.7,1.1-0.3
			c0.7,0.8,1,2.7,0,4.9c-1,2-3.1,5.2-4.1,7.4c-1.1,2.5-1,4.3,0.6,4.2c1.8-0.1,4-3,5.7-6c0.2-0.4,0.6-0.4,0.8,0
			c0.2,0.3,0.2,1.5-0.4,2.7c-1.3,2.4-4,4.7-6.5,4.7c-2.8,0-4-1.8-3.6-4.3C335.6,322.4,333.3,324.6,330.9,324.5z"/>
		<path class="st0" d="M350.2,323.2c2.1,0.2,5.1-3,6.8-6.3c0.3-0.6,0.8-0.6,1,0c0.2,0.7,0,1.7-0.4,2.7c-0.6,1.3-3.8,4.9-7.3,4.8
			c-3-0.1-4.6-2.2-3.6-6.9c1.6-7.6,6.6-15.5,11-20.1c0.7-0.7,1.3-0.8,1.9-0.2c1.3,1.1,1.5,2.7,1,4.8c-1.3,5.4-6.2,10.6-10.1,13.1
			C348.8,319.5,348.3,323.1,350.2,323.2z M359.1,301.2c-0.6-0.3-3.8,4.5-6.8,10.1c-0.4,0.7-0.7,1.4-1,2.1
			C357.2,308.5,359.7,301.5,359.1,301.2z"/>
	</g>
	<g>
		<path class="st0" d="M110.8,74.7L93.6,57.9c-0.3,2.2-0.6,4.8-0.9,7.8c-0.3,3-0.4,5.6-0.4,7.8h-6.8l0.5-7c0.3-4.3,0.7-8.1,1.2-11.1
			c0.7-4.3,1.6-7.7,2.7-10.1l14.4,13.7V45.9h6.6V74.7z"/>
		<path class="st0" d="M148.5,59.3c0,3.7-1.2,7-3.5,9.8c-2.8,3.4-6.6,5.2-11.4,5.2c-4.1,0-7.6-1.5-10.4-4.4c-2.9-3-4.3-6.5-4.3-10.6
			c0-4.1,1.5-7.5,4.4-10.4c2.9-2.9,6.5-4.3,10.8-4.3c3.9,0,7.3,1.5,10.2,4.3C147.1,51.8,148.5,55.3,148.5,59.3z M141.8,59.4
			c0-2.3-0.8-4.2-2.4-5.8c-1.6-1.6-3.5-2.4-5.7-2.4c-2.3,0-4.2,0.8-5.8,2.4c-1.6,1.6-2.4,3.5-2.4,5.8c0,2.2,0.8,4.1,2.5,5.8
			c1.6,1.7,3.5,2.5,5.5,2.5c2.3,0,4.2-0.8,5.8-2.4C141,63.6,141.8,61.6,141.8,59.4z"/>
		<path class="st0" d="M181.4,69.6L179,75h-0.4c-0.1,0-0.2-0.1-0.4-0.1c-0.2,0-0.4,0-0.5-0.1c-1-0.2-1.7-0.3-2-0.5
			c-0.8-0.3-1.9-1.1-3.4-2.4c-0.9-0.7-1.5-1.3-1.9-1.7c-0.4-0.4-0.8-0.8-1.1-1.2c-0.7-0.7-1.2-1.3-1.7-1.8c-0.3-0.3-0.6-0.7-0.8-1
			c-0.4,0.2-0.8,0.3-1.1,0.4c-1,0.3-1.9,0.5-2.8,0.5v6.4h-6.5V46.9c0.8-0.4,2.3-0.7,4.6-1.1c2.3-0.3,3.9-0.5,5-0.5
			c3.6,0,6.6,0.7,9,2.1c2.8,1.7,4.2,4.1,4.2,7.2c0,1.8-0.5,3.5-1.6,5c-0.9,1.4-2.4,2.7-4.3,3.9c2.1,2.4,3.2,3.7,3.5,3.9
			C178.3,68.9,179.8,69.6,181.4,69.6z M172.4,54.7c0-1-0.5-1.7-1.6-2.2c-1-0.5-2.2-0.7-3.5-0.7c-1.2,0-2.1,0.1-2.7,0.2
			c-0.6,0.1-1.1,0.4-1.4,0.6v7.5c2.5-0.3,4.5-1,6.1-1.9C171.4,57.1,172.4,55.9,172.4,54.7z"/>
		<path class="st0" d="M210.6,51.8h-9.2v21.8h-6.9V51.8h-9.1v-6.1h25.2V51.8z"/>
		<path class="st0" d="M242.2,73.5h-7.1V60.9h-10.6v12.7h-6.8V45.9h6.9v9h10.6v-9h6.9V73.5z"/>
		<path class="st0" d="M293.1,70.6c-1.8,0.9-3.6,1.7-5.3,2.5c-2.1,0.7-4.2,1-6.3,1c-4,0-7.5-1.5-10.4-4.6c-2.8-3-4.2-6.3-4.2-10
			c0-4.1,1.5-7.7,4.5-10.6c3-2.9,6.5-4.4,10.3-4.4c2,0,4.1,0.5,6.1,1.5c1.7,0.8,3.1,1.8,4.2,2.9l-3.8,5.3l-2.9-2.2
			c-1.3-0.7-2.6-1-3.8-1c-2,0-3.9,0.8-5.6,2.4c-1.7,1.6-2.5,3.6-2.5,5.9c0,2,0.7,3.8,2,5.3c1.6,1.8,3.8,2.7,6.5,2.7
			c1.4,0,2.6-0.1,3.6-0.4c1.8-0.5,3.7-1.4,5.6-2.7L293.1,70.6z"/>
		<path class="st0" d="M325,73.5h-7.2c-0.1-0.5-0.3-1.1-0.5-1.7c-0.3-1-0.6-1.6-0.8-1.7h-11.6c-0.2,0.3-0.4,0.7-0.7,1.5
			c-0.2,0.7-0.4,1.4-0.5,2h-7.3c0.8-1.9,1.5-3.9,2.3-5.8c2-4.8,3.9-8.7,5.5-12c2.4-4.7,4.6-7.9,6.5-9.7c0.7,0.6,1.6,1.8,2.8,3.7
			c1.5,2.4,3.2,5.3,5,8.9C320.7,63.3,322.9,68.2,325,73.5z M314.2,64.1c-0.2-0.9-0.8-2.1-1.6-3.7c-0.7-1.4-1.3-2.5-1.8-3.3l-3.5,6.9
			H314.2z"/>
		<path class="st0" d="M356,69.6l-2.4,5.4h-0.4c-0.1,0-0.2-0.1-0.4-0.1c-0.2,0-0.4,0-0.5-0.1c-1-0.2-1.7-0.3-2-0.5
			c-0.8-0.3-1.9-1.1-3.4-2.4c-0.9-0.7-1.5-1.3-1.9-1.7c-0.4-0.4-0.8-0.8-1.1-1.2c-0.7-0.7-1.2-1.3-1.7-1.8c-0.3-0.3-0.6-0.7-0.8-1
			c-0.4,0.2-0.8,0.3-1.1,0.4c-1,0.3-1.9,0.5-2.8,0.5v6.4h-6.5V46.9c0.8-0.4,2.3-0.7,4.6-1.1c2.3-0.3,3.9-0.5,5-0.5
			c3.6,0,6.6,0.7,9,2.1c2.8,1.7,4.2,4.1,4.2,7.2c0,1.8-0.5,3.5-1.6,5c-0.9,1.4-2.4,2.7-4.3,3.9c2.1,2.4,3.2,3.7,3.5,3.9
			C352.9,68.9,354.5,69.6,356,69.6z M347.1,54.7c0-1-0.5-1.7-1.6-2.2c-1-0.5-2.2-0.7-3.5-0.7c-1.2,0-2.1,0.1-2.7,0.2
			c-0.6,0.1-1.1,0.4-1.4,0.6v7.5c2.5-0.3,4.5-1,6.1-1.9C346.1,57.1,347.1,55.9,347.1,54.7z"/>
		<path class="st0" d="M391.1,59.3c0,3.7-1.2,7-3.5,9.8c-2.8,3.4-6.6,5.2-11.4,5.2c-4.1,0-7.6-1.5-10.4-4.4c-2.9-3-4.3-6.5-4.3-10.6
			c0-4.1,1.5-7.5,4.4-10.4c2.9-2.9,6.5-4.3,10.8-4.3c3.9,0,7.3,1.5,10.2,4.3C389.7,51.8,391.1,55.3,391.1,59.3z M384.5,59.4
			c0-2.3-0.8-4.2-2.4-5.8c-1.6-1.6-3.5-2.4-5.7-2.4c-2.3,0-4.2,0.8-5.8,2.4c-1.6,1.6-2.4,3.5-2.4,5.8c0,2.2,0.8,4.1,2.5,5.8
			c1.6,1.7,3.5,2.5,5.5,2.5c2.3,0,4.2-0.8,5.8-2.4C383.6,63.6,384.5,61.6,384.5,59.4z"/>
		<path class="st0" d="M420.1,73.5h-20.9V46.1h6.9v21.5h13.7L420.1,73.5z"/>
		<path class="st0" d="M434.6,73.5h-6.5V45.9h6.5V73.5z"/>
		<path class="st0" d="M469.2,74.7L452,57.9c-0.3,2.2-0.6,4.8-0.9,7.8c-0.3,3-0.4,5.6-0.4,7.8h-6.8l0.5-7c0.3-4.3,0.7-8.1,1.2-11.1
			c0.7-4.3,1.6-7.7,2.7-10.1l14.4,13.7V45.9h6.6V74.7z"/>
		<path class="st0" d="M504,73.5h-7.2c-0.1-0.5-0.3-1.1-0.5-1.7c-0.3-1-0.6-1.6-0.8-1.7h-11.6c-0.2,0.3-0.4,0.7-0.7,1.5
			c-0.2,0.7-0.4,1.4-0.5,2h-7.3c0.8-1.9,1.5-3.9,2.3-5.8c2-4.8,3.9-8.7,5.5-12c2.4-4.7,4.6-7.9,6.5-9.7c0.7,0.6,1.6,1.8,2.8,3.7
			c1.5,2.4,3.2,5.3,5,8.9C499.7,63.3,501.9,68.2,504,73.5z M493.1,64.1c-0.2-0.9-0.8-2.1-1.6-3.7c-0.7-1.4-1.3-2.5-1.8-3.3l-3.5,6.9
			H493.1z"/>
	</g>
	<g>
		<path class="st0" d="M165,108.4c0,2.5-0.9,4.6-2.7,6.5c-2.1,2.1-4.9,3.2-8.6,3.2c-1.8,0-3.9-0.4-6.3-1.1c-2.4-0.7-3.9-1.5-4.6-2.2
			l2.4-6.7c1.4,1,2.9,1.8,4.6,2.4c1.4,0.5,2.8,0.7,4,0.7c1,0,1.9-0.2,2.7-0.6c1.1-0.5,1.6-1.2,1.6-2.1c0-1.2-0.9-2-2.8-2.4
			c-1.9-0.4-3.7-0.7-5.5-1.1c-1.7-0.7-3.1-1.7-4.1-3.1c-1-1.4-1.5-3-1.5-4.7c0-2.2,0.8-4.2,2.3-5.9c1.9-2,4.4-3,7.8-3
			c1.5,0,2.8,0.2,4,0.6c0.9,0.3,2.2,0.9,3.8,1.7l-2.5,5.9l-3-1.3c-0.8-0.3-1.7-0.4-2.8-0.4c-1.1,0-1.8,0.2-2.3,0.6
			c-0.4,0.4-0.7,0.9-0.7,1.6c0,1.3,1.3,2.1,3.8,2.5c1.9,0.3,3.5,0.6,4.6,1.1c1.8,0.7,3.1,1.7,4.1,3C164.6,104.9,165,106.5,165,108.4
			z"/>
		<path class="st0" d="M195,95.4h-9.2v21.8h-6.9V95.5h-9.1v-6.1H195V95.4z"/>
		<path class="st0" d="M224,117.2h-7.2c-0.1-0.5-0.3-1.1-0.5-1.7c-0.3-1-0.6-1.6-0.8-1.7h-11.6c-0.2,0.3-0.4,0.7-0.7,1.5
			c-0.2,0.7-0.4,1.4-0.5,2h-7.3c0.8-1.9,1.5-3.9,2.3-5.8c2-4.8,3.9-8.7,5.5-12c2.4-4.7,4.6-7.9,6.5-9.7c0.7,0.6,1.6,1.8,2.8,3.7
			c1.5,2.4,3.2,5.3,5,8.9C219.8,107,222,111.9,224,117.2z M213.2,107.8c-0.2-0.9-0.8-2.1-1.6-3.7c-0.7-1.4-1.3-2.5-1.8-3.3l-3.5,6.9
			H213.2z"/>
		<path class="st0" d="M249.7,95.4h-9.2v21.8h-6.9V95.5h-9.1v-6.1h25.2V95.4z"/>
		<path class="st0" d="M277.7,117.2h-20.9V89.8h19.6l0.3,5.8h-13v3.3h8.1v5.8h-8.2v6.7h13.8L277.7,117.2z"/>
		<path class="st0" d="M326.2,98.5c0,3.2-1.5,5.9-4.6,8.1c-2,1.4-4.5,2.6-7.6,3.5c-0.9,0.2-1.9,0.4-3.1,0.5c-0.3,0-0.6,0.1-0.9,0.2
			v6.4h-6.7V90.6c1.7-0.4,3.4-0.8,5.2-1.1c1.8-0.3,3.4-0.5,4.8-0.5c3.6,0,6.6,0.7,8.9,2.2C324.8,92.9,326.2,95.3,326.2,98.5z
			 M319.1,98.5c0-1-0.5-1.7-1.6-2.1c-1.1-0.4-2.2-0.6-3.6-0.6c-1,0-1.8,0.1-2.5,0.2c-0.6,0.1-1.1,0.2-1.4,0.2v7.8h0.7l4.6-1.4
			C317.8,101.4,319.1,100.1,319.1,98.5z"/>
		<path class="st0" d="M356.7,117.2h-7.2c-0.1-0.5-0.3-1.1-0.5-1.7c-0.3-1-0.6-1.6-0.8-1.7h-11.6c-0.2,0.3-0.4,0.7-0.7,1.5
			c-0.2,0.7-0.4,1.4-0.5,2h-7.3c0.8-1.9,1.5-3.9,2.3-5.8c2-4.8,3.9-8.7,5.5-12c2.4-4.7,4.6-7.9,6.5-9.7c0.7,0.6,1.6,1.8,2.8,3.7
			c1.5,2.4,3.2,5.3,5,8.9C352.4,107,354.6,111.9,356.7,117.2z M345.9,107.8c-0.2-0.9-0.8-2.1-1.6-3.7c-0.7-1.4-1.3-2.5-1.8-3.3
			l-3.5,6.9H345.9z"/>
		<path class="st0" d="M387.7,113.3l-2.4,5.4h-0.4c-0.1,0-0.2-0.1-0.4-0.1c-0.2,0-0.4,0-0.5-0.1c-1-0.2-1.7-0.3-2-0.5
			c-0.8-0.3-1.9-1.1-3.4-2.4c-0.9-0.7-1.5-1.3-1.9-1.7c-0.4-0.4-0.8-0.8-1.1-1.2c-0.7-0.7-1.2-1.3-1.7-1.8c-0.3-0.3-0.6-0.7-0.8-1
			c-0.4,0.2-0.8,0.3-1.1,0.4c-1,0.3-1.9,0.5-2.8,0.5v6.4h-6.5V90.6c0.8-0.4,2.3-0.7,4.6-1.1c2.3-0.3,3.9-0.5,5-0.5
			c3.6,0,6.6,0.7,9,2.1c2.8,1.7,4.2,4.1,4.2,7.2c0,1.8-0.5,3.5-1.6,5c-0.9,1.4-2.4,2.7-4.3,3.9c2.1,2.4,3.2,3.7,3.5,3.9
			C384.6,112.6,386.2,113.3,387.7,113.3z M378.8,98.4c0-1-0.5-1.7-1.6-2.2c-1-0.5-2.2-0.7-3.5-0.7c-1.2,0-2.1,0.1-2.7,0.2
			c-0.6,0.1-1.1,0.4-1.4,0.6v7.5c2.5-0.3,4.5-1,6.1-1.9C377.8,100.8,378.8,99.6,378.8,98.4z"/>
		<path class="st0" d="M419.7,113.2l-2.7,5.7c-1-0.2-1.7-0.3-2.3-0.5c-1.7-0.6-2.9-1.4-3.8-2.5c-1.1-0.8-2.2-1.9-3.5-3.4
			c-1.3-1.4-2.2-2.4-2.6-3c-0.9,0.7-1.6,1.3-2.2,1.6c-0.2,0.1-0.3,0.3-0.3,0.4v5.6h-6.7V89.6h6.8l0,12.6c2.1-2.1,3.8-4,5.1-5.7
			c0.4-0.5,1.8-2.8,4.3-6.9h7.1c-0.4,0.9-1,1.9-1.6,3.2c-0.6,1.2-1.4,2.7-2.3,4.3c-1.2,2.2-2.3,3.9-3.3,5.2
			c-0.6,0.7-1.1,1.4-1.7,2.1c0.4,0.9,0.8,1.5,1.2,2.1c1,1.6,2.2,3,3.5,4.3c0.7,0.7,1.4,1.2,2,1.7c1,0.6,1.8,0.9,2.6,0.9
			C419.3,113.3,419.5,113.3,419.7,113.2z"/>
		<path class="st0" d="M446.6,108.4c0,2.5-0.9,4.6-2.7,6.5c-2.1,2.1-4.9,3.2-8.6,3.2c-1.8,0-3.9-0.4-6.3-1.1
			c-2.4-0.7-3.9-1.5-4.6-2.2l2.4-6.7c1.4,1,2.9,1.8,4.6,2.4c1.4,0.5,2.8,0.7,4,0.7c1,0,1.9-0.2,2.7-0.6c1.1-0.5,1.6-1.2,1.6-2.1
			c0-1.2-0.9-2-2.8-2.4c-1.9-0.4-3.7-0.7-5.5-1.1c-1.7-0.7-3.1-1.7-4.1-3.1c-1-1.4-1.5-3-1.5-4.7c0-2.2,0.8-4.2,2.3-5.9
			c1.9-2,4.4-3,7.8-3c1.5,0,2.8,0.2,4,0.6c0.9,0.3,2.2,0.9,3.8,1.7l-2.5,5.9l-3-1.3c-0.8-0.3-1.7-0.4-2.8-0.4
			c-1.1,0-1.8,0.2-2.3,0.6c-0.4,0.4-0.7,0.9-0.7,1.6c0,1.3,1.3,2.1,3.8,2.5c1.9,0.3,3.5,0.6,4.6,1.1c1.8,0.7,3.1,1.7,4.1,3
			C446.1,104.9,446.6,106.5,446.6,108.4z"/>
	</g>
</g>
<g id="state">
	<polygon class="st0" points="208.1,126.5 254.9,126.5 254,126.5 208.9,139.8 208.1,139.8 	"/>
	<path class="st0" d="M515.6,119.4c13.4,0-6.2,8.9-5.7,8.5c-18.6,4.7-37.2,9.2-56,13.4c-11,2.5-22,5.2-33.1,7
		c-11.1,1.8-21.9,2.6-33.2,2.1c-34.5-1.5-66.7-15.8-100-24c44.3,0,88.6,0,132.9,0C453.4,126.5,483,121.6,515.6,119.4z"/>
	<path class="st0" d="M218.3,168c19.5-9,33.3-15.9,55.8-10c23.2,6.1,42.6,22,66.4,27.1c29.4,6.2,57.9-5.1,87.3-0.6
		c17.7,2.7,47.3,6,60.3,19.5c-23.3,2.5-49.6-9.9-74.1-9.5c-43.7,0.6-83,4.3-125.8,12.5c-30.1,5.8-57.6,4-87.2-3.3
		c-32.7-8.2-55-8.1-88.4-0.5c10.3-11.1,22.9-8.1,36.4-10.3C172,189.2,197.6,178.8,218.3,168z"/>
	<path class="st0" d="M155.1,187.7c-3,0.7-11.6,0.3-15.1,0.3c5.8-13.7,0.8-11.6,16.8-10.6c9.6,0.6,3.9-6.7,20-7.9
		c8.2-0.6,7.5,0.8,13.7-7.8c10.9-15,19.8-18,37.1-23.8c6.3-2.1,16.2-5,22.8-6c6-0.8,16.4-0.8,21.5,0.3c23.6,5.1,68.9,23.8,90.7,23.8
		h52.2c11.3-0.2,45.9-10.3,57.2-13.2c10.5-2.7,40.6-10.2,50.8-9c2.9,0.3,3.9,4.5,4.7,6.7c1.6,4.1,1.2,4,1.2,8.5h-3.5
		c-0.4-3.5-1.4-3.4-4.5-5.2l-6.2-3.7c-0.2,3.8-1.5,2.1,3.5,7.1v2.7c-10.3,0.7-12,2.8-18.2,8.6c-8.7,8.1-16.2-1.7-21.6-8
		c-4.9-5.7-8.1-8.1-9.6,1.2c5.6,3.6,12.9,1,13.3,15.2c-1.7,1.1-2.4,5.3-2.7,7.1c12.9-12.9,25-3.8,32.1-8.6c2.7-1.8,6-3,9.2-1.6
		c5.5,2.4-2.8,12.7,3.7,19.9c2.7-5.3,3-11,3.5-16.9c10.2,0,17-2,8.9,15.6c-4.1,8.8-13.7,25.6-25.2,24.4c-8-0.8-39.1-14.4-49.1-18.1
		c-13.8-5.1-28.4-10.1-43.3-10.3c-26-0.3-13,0.1-33.1,3c-7.5,1.1-23.7,0.9-31.1-0.2c-26.1-3.9-49.1-17.8-73.5-26.9
		c-4.8-1.8-10.1-2.6-15.3-3.5c-6.4-1.2-17.1,0-22.3,1.2C230.2,155,187.2,179.8,155.1,187.7z"/>
	<path class="st0" d="M149.8,241.3l-24.8,9H60.5c3.1-16.2-0.3-24.4,14.1-16.9c2.4-9.8,6.3-19,16.8-20.5c6.6-1,27.8-7.2,43.9-9.4
		c34.1-4.6,40.6-1.4,75.4,6.9c37.7,8.9,41,9.3,59.2,7.8c7.8-0.6,38.3-6.7,47.7-9.2c15.9-4.4,76.8-12.9,91.5-10.5
		c-8.2-1-13.5,6.9-5.3,9.1c1.6,0.4,8.3,2.3,9.3,3.5l0.9,2.4c-6.8,0-21.4-0.3-27.4,0.2c-3.9,6.7-23.7-1.1-32.9,7.5
		c-6.9,6.4,15.7,12.5-13.9,16.5c-8,1.1-30.4-3.3-30.9,5.2l0.9,5.6c-3.7-3.8-11.5-13.4-15-13.4H166.5L149.8,241.3z"/>
	<path class="st0" d="M449.5,202.2c1.2,0.1,2.5,0.2,4,0.5c10.3,1.6,27.2,6.4,34.9,9.6c4.2,1.7,14.2,5.7,13.2,11.6
		c-0.7,3.9-4.6,13.1-9.6,13.1c-7.7,0-8.3-8-16.8-5.3c4.8,6.7,11.4,12.8,20.3,10c7.4-2.4,10.3-12.2,14.2-9.6c2.5,1.7-0.2,6.4,7.1,8.5
		c0,2.9,0.5,2.2-1.6,4.3c-4.3,4.3-9.6,9.1-16.1,9.1c-3.1,0-10.3-0.4-13.1,0.5c-12.4,3.8-43.3,32.2-52.7,41
		c-2.9,2.7-6.1,8.8-6.7,12.8c-1.7,11.4,10.7,11.2-32.7,17l-52.1-49c5.6-2.4,30.9-3.9,30-13.8c-0.3-3.8-7.5-6.5-10.6-10.3
		c11.5-5.9,34.1-2,40.2-8.3c6-6.1-9.3-11.7-13.7-14c4.8-6.9,3.5,0.2,15-1.8c0.9-1.9,2.4-2.7,4.4-2.7c10.2,0,20.4,0.4,30.5-1
		c4.9-0.7,13-1.6,15.7-6c2.1-3.4-1.7-6.3-4.5-7.5c-8.9-3.6-24.8-2.1-31.8-9l-0.6-0.7C427.7,199.5,438.3,202,449.5,202.2"/>
</g>
</svg>
