<?xml version="1.0" encoding="utf-8"?>
<!-- Generator: Adobe Illustrator 27.0.0, SVG Export Plug-In . SVG Version: 6.00 Build 0)  -->
<svg version="1.1" id="Layer_1" xmlns="http://www.w3.org/2000/svg" xmlns:xlink="http://www.w3.org/1999/xlink" x="0px" y="0px"
	 viewBox="0 0 153.5 163.9" style="enable-background:new 0 0 153.5 163.9;" xml:space="preserve">
<style type="text/css">
	.st0{fill:#005DAC;}
	.st1{fill:none;}
</style>
<g>
	<g>
		<path class="st0" d="M97,0.4c0.1,0,0.1,0.1,0.2,0.1c0,0,0,0,0,0c0.1,0,0.2,0,0.3-0.1c0,0,0.1-0.1,0.1-0.1c0,0,0-0.1,0-0.1
			C97.5,0,97.3,0,97.2,0c0,0,0,0,0,0C97.1,0,97,0.1,97,0.4C96.9,0.3,96.9,0.3,97,0.4C97,0.4,97,0.4,97,0.4z M77.4,3.8
			c0,0.1,0,0.1,0,0.2c0,0.1,0,0.2,0.1,0.3c1.9,0.1,4.1,0.4,6,0.3c-0.2-0.2-0.3-0.6-0.4-1c0-0.2,0-0.3,0-0.5c0,0,0.1,0,0.1,0
			c0,0,0,0,0.1,0c0,0,0,0,0.1,0c0.2,0,0.3,0,0.4-0.1c0.2-0.1,0.3-0.2,0.3-0.4c0,0,0,0,0,0c-1.2-0.4-2.9-0.5-4.3-0.4
			c0.3,0.7,1.8,0.1,2.5,0.4c0.1,0.2,0.1,0.4,0.2,0.7c0,0.3,0,0.6-0.1,0.8c0,0-0.1,0-0.1,0c-0.1,0-0.1,0-0.2,0.1c0,0-0.1,0-0.1,0
			c-0.1,0-0.1,0-0.2,0c-0.2,0-0.4-0.1-0.5-0.1c0,0-0.1,0-0.1,0C81.1,4.1,81,4,81,4c0,0-0.1,0-0.1,0c0,0,0,0,0,0c0,0-0.1,0-0.1,0
			c-0.2,0.1-0.5,0.2-0.7,0.2c0,0,0,0,0,0c-0.1,0-0.1,0-0.2,0c0,0-0.1,0-0.1,0c-0.1,0-0.1,0-0.2,0c-0.1,0-0.3-0.1-0.3-0.3
			c0,0,0-0.1,0-0.1c0.1-0.2,0.1-0.4,0.1-0.6c0-0.2-0.1-0.3-0.2-0.5c0,0,0,0,0,0c0-0.3,0.4-0.2,0.3-0.5c0,0,0,0,0,0c0,0,0,0,0,0
			c0,0-0.1,0-0.1,0C78.9,2.1,78.3,2,78,2.1c0,0,0,0,0,0c-0.1,0-0.2,0-0.2,0c0,0.1-0.1,0.1-0.1,0.2c0,0,0,0,0,0
			c0.2,0.1,0.6,0,0.7,0.3c0,0.7-1.4,0.4-1.7,0.8c0,0,0,0,0,0C76.6,3.9,77.2,3.6,77.4,3.8z M91.6,2c0.1,0.1,0.3,0.2,0.5,0.1
			c0,0,0,0,0,0c0.1,0,0.2,0,0.2-0.1c0,0,0,0,0.1,0c0,0,0.1,0,0.1-0.1c0.1-0.1,0.2-0.2,0.3-0.3c0,0,0-0.1,0.1-0.2
			c-0.1-0.6-0.3-0.8-0.6-0.7h0c-0.1,0-0.1,0-0.2,0c-0.3,0.1-0.6,0.5-0.7,0.9C91.5,1.9,91.5,2,91.6,2C91.6,2,91.6,2,91.6,2z
			 M87.9,4.6c0,0,0.1,0,0.2,0c0,0,0.1,0,0.1,0c0,0,0.1,0,0.1,0c0.3,0,0.5-0.1,0.6-0.3c0,0,0,0,0-0.1c-0.1-0.2-0.6,0-0.7-0.3
			c0-0.1,0-0.1,0-0.2c0-0.3,0.1-0.4,0.1-0.7c0,0,0,0,0,0c-0.1,0-0.1,0-0.2,0C88,3,88,3,88,3c0,0,0,0,0,0c-0.4,0.1-0.3,0.7-0.2,1.2
			C87.8,4.4,87.8,4.5,87.9,4.6z M85.3,4.1c0-0.1,0-0.2,0-0.2c0,0,0,0,0.1,0c0.3,0,0.6-0.1,0.7-0.4c-0.2-0.1-0.6-0.2-1-0.1
			c0,0,0,0-0.1,0c-0.2,0-0.3,0.1-0.4,0.2c0,0,0,0,0,0c-0.1,0.4,0,0.9-0.1,1.2c0.9,0.2,2.2,0.4,3.1,0.4C87.2,4.5,85.4,5.2,85.3,4.1z
			 M99.6,3.5c0.3,0,0.3-0.2,0.6-0.3c0,0.2-0.2,0.3-0.2,0.5c0,0,0,0,0,0c0.2,0.2,0.4,0.5,0.7,0.6c0.4-0.2,0.6-0.5,0.8-0.8
			c-0.4-0.1-1.4-1.5-2-1.4c0,0,0,0,0,0c0,0,0,0,0,0c-0.4,0.1-0.5,0.4-0.5,0.7C99,3.2,99.2,3.5,99.6,3.5z M105.8,3.1
			c0.2-0.4,0.5-0.6,0.7-1c0,0-0.1-0.1-0.1-0.1c-0.1-0.1-0.1-0.1-0.2-0.2c-0.1,0-0.1-0.1-0.2-0.1c-0.2-0.1-0.3-0.1-0.5-0.1
			c0,0-0.1,0-0.1,0c-0.2,0.1-0.4,0.3-0.6,0.7C105.1,2.6,105.4,3,105.8,3.1z M141.3,42.4c0.4,0,0.8,0,1.1,0.3
			c-0.2,0.1-0.6,0.1-0.8,0.3c0.3,0.8,0.7,1.5,1.1,2.1c0.1-0.2,0.5-0.3,0.8-0.4c0,0,0,0,0.1,0c0,0,0,0,0.1,0c0.2,0,0.4,0,0.5,0
			c0.1,0,0.1,0,0.2,0c0.1,0,0.1,0,0.1,0.1c0.2,0.9,0.8,1.4,1.5,1.7c0,0,0,0,0,0c-0.1-1-0.8-2.1-1.4-2.9c-0.1,0.2-0.3,0.4-0.6,0.5
			c-0.1,0-0.2,0-0.3,0.1c-0.1,0-0.3,0-0.4,0c-0.1,0-0.2-0.1-0.2-0.1c0,0,0,0-0.1-0.1c0-0.1,0-0.1,0-0.2c0-0.4,0.1-0.6,0.4-0.6
			c0.1,0,0.2,0,0.3-0.1c0,0,0.1,0,0.1,0c0.1,0,0.2,0,0.3,0c0.1,0,0.2,0,0.3,0c-0.2-0.8-0.6-1.4-1.1-2c0,0,0,0,0,0c0,0-0.1,0-0.1,0
			c-0.1,0-0.1,0.1-0.1,0.2c0,0.1-0.1,0.2-0.2,0.2c0,0,0,0-0.1,0c0,0-0.1,0-0.1,0c-0.4-0.2-0.9-0.4-1.2-0.7c0-0.1,0-0.2,0.1-0.2
			c0,0,0.1-0.1,0.2-0.1c0.1,0,0.3-0.1,0.4-0.1c0,0,0,0,0.1,0c0.1,0,0.1,0,0.2,0c0.1,0,0.1,0,0.2,0c0,0,0,0,0,0c0,0,0,0,0,0
			c0.1,0,0.1,0,0.2,0c0,0,0,0,0,0c-2.4-4.3-5.3-8.1-8.4-11.6c1.1-0.1,1.6-1.1,1.5-1.9c-0.1-0.6-0.4-1-1-1.2c-0.4,0.3-0.5,1-0.4,1.6
			c0,0.3,0.1,0.6,0.2,0.8c-0.1,0-0.2,0-0.3,0c0,0,0,0,0,0c-0.2,0-0.2,0.2-0.4,0.3c-0.6-0.7-1.2-1.3-1.8-2c0.2-0.1,0.4-0.2,0.5-0.4
			c0-0.1,0-0.2,0-0.4c0-0.3,0-0.5,0.1-0.7c-0.2-0.4-0.5-0.6-0.9-0.6c-0.1,0-0.1,0-0.2,0c0,0-0.1,0-0.1,0c-0.3,0.1-0.7,0.2-1,0.4
			c-0.1-0.1-0.2-0.1-0.2-0.2c0-0.1,0.1-0.3,0.1-0.4c0,0,0-0.1-0.1-0.1c-1.5-0.7-2.5-1.9-3.8-3c0.2-0.1,0.5-0.1,0.4-0.4c0,0,0,0,0,0
			c-0.3-0.1-0.5-0.4-0.8-0.5c-0.1,0.1-0.1,0.3-0.3,0.4c-0.5-0.4-1-0.8-1.5-1.2c0.1-0.1,0.2-0.2,0.2-0.4c0-0.1,0-0.1-0.1-0.2
			c0,0,0,0,0,0c-0.1-0.1-0.2-0.1-0.3-0.2c0,0-0.1,0-0.1,0c-0.1,0-0.2,0-0.3,0.1c0,0,0,0-0.1,0c-1.2-1-2.5-1.8-3.7-2.8
			c0.1,0,0.2,0,0.3,0c0,0,0,0,0,0c0.1,0,0.2,0,0.2-0.1c0.2-0.1,0.4-0.3,0.5-0.6c0-0.1,0-0.1,0-0.2c-0.3-0.2-0.6-0.5-0.9-0.6
			c-0.4,0.2-0.6,0.6-1,0.9c-0.2-0.1-0.3-0.1-0.3-0.2c0-0.1,0.2-0.3,0.2-0.4c0,0,0-0.1,0-0.1c0,0,0,0,0,0c-0.1-0.1-0.2-0.1-0.3-0.1
			c0,0-0.1,0-0.1,0c0,0,0,0,0,0c-0.1,0-0.2,0.1-0.3,0.2c0,0,0,0,0,0.1c0,0,0,0.1,0,0.1c-3.3-2.2-6.7-4.1-10.5-5.7
			c0.1-0.1,0.2-0.2,0.2-0.3c0-0.2-0.3-0.5-0.5-0.6c0,0,0,0,0,0c0,0,0,0,0,0c-0.3,0.1-0.1,0.4-0.3,0.6c-2.5-1.1-5.1-2-7.7-3
			c0.1-0.2,0.2-0.5,0.2-0.8c0,0,0-0.1,0-0.1c-0.1-0.3-0.4-0.5-0.7-0.6c-0.1,0-0.2,0-0.2,0c0,0,0,0-0.1,0c-0.3,0-0.5,0.2-0.5,0.7
			c0,0.3,0.4,0.2,0.5,0.6c0,0,0,0,0,0.1c0,0,0,0-0.1,0l0,0c-0.1,0-0.1,0-0.2,0c-0.1,0-0.1,0-0.2,0c0,0,0,0-0.1,0c0,0,0,0,0,0
			c-0.2,0.4-0.2,0.9-0.6,1.1c-0.5-0.3-0.8-0.6-0.8-1c0-0.3,0.1-0.6,0.3-0.9c-0.1,0-0.1,0-0.2,0.1c0,0,0,0-0.1,0c0,0-0.1,0-0.1,0
			c0,0,0,0-0.1,0c-0.1,0-0.2,0-0.3,0c-0.3,0-0.6,0-0.9-0.1c-0.3-0.1-0.6-0.2-1-0.3c-0.1,0-0.2-0.1-0.3-0.1C94,4,94,4,94,3.9
			c0-0.1-0.1-0.2-0.2-0.2c0,0-0.1,0-0.1,0l0,0c0,0,0,0,0,0c-0.3,0.1-0.2,0.4-0.4,0.6C93.7,4.5,94,5,94.1,5.6c0,0,0,0.1,0,0.1
			c-0.2,0.2-0.4,0.3-0.6,0.3c0,0,0,0,0,0c-0.1,0-0.1,0-0.2,0c-0.5,0-1-0.4-0.9-1.1c0,0,0-0.1,0-0.1c0,0,0,0,0,0
			C92.4,4.4,93,4.4,93,4c-0.8-0.2-1.8-0.6-2.6-0.5c0,0,0,0,0,0c0,0,0,0,0,0c0,0.4,0.4,0.4,0.4,0.8c0,0.1,0,0.1,0,0.2
			c-0.2,0.5-1.1,0.4-1.1,1.1c0,0,0,0,0,0C113.3,10.6,129.9,23.5,141.3,42.4z M138.3,36.3c0-0.3,0.4-0.7,0.6-0.7h0c0,0,0,0,0.1,0
			c0.5,0,1,0.7,0.9,1.4c0,0.1-0.1,0.2-0.1,0.3c0.2,0.5,0.8,0.4,0.9,0.9c0,0.4-0.2,0.6-0.4,0.7c0,0-0.1,0-0.1,0c-0.1,0-0.1,0-0.2,0
			c-0.3,0-0.6-0.2-0.8-0.5c0,0,0-0.1,0-0.1c0-0.1,0-0.3-0.1-0.4c0-0.2,0-0.4,0.1-0.4C139,36.8,138.3,36.7,138.3,36.3
			C138.3,36.3,138.3,36.3,138.3,36.3z M106,4.9c0.2-0.3,0.5-0.5,0.6-0.9c0,0,0-0.1-0.1-0.1c-0.2-0.3-0.4-0.5-0.7-0.5
			c0,0-0.1,0-0.1,0c0,0,0,0-0.1,0c-0.3,0.1-0.6,0.3-0.6,0.8C105.4,4.4,105.6,4.8,106,4.9z M112.2,5.3c0.3-0.3,0.4-0.6,0.7-1
			c0,0-0.1-0.1-0.1-0.1c0,0,0,0-0.1-0.1c0,0-0.1-0.1-0.1-0.1c-0.2-0.1-0.3-0.2-0.5-0.2c-0.1,0-0.1,0-0.2,0c0,0,0,0,0,0
			c-0.2,0-0.4,0.2-0.5,0.4c0,0,0,0,0,0c0,0.1-0.1,0.1-0.1,0.2C111.4,4.8,111.7,5.2,112.2,5.3z M112.4,7.1c0.3-0.2,0.4-0.5,0.6-0.7
			c-0.2-0.4-0.5-0.8-1-0.9c-0.2,0.3-0.5,0.6-0.6,1C111.8,6.7,111.9,7.1,112.4,7.1z M109.3,7.4c0.3-0.2,0.4-0.5,0.7-0.7
			c-0.1-0.3-0.3-0.5-0.6-0.6C109.3,6,109.2,6,109.1,6c0,0,0,0-0.1,0c-0.2,0-0.4,0.2-0.6,0.4c0,0.1-0.1,0.1-0.1,0.2
			C108.5,7,108.9,7.3,109.3,7.4z M105.3,7.6c0.3-0.2,0.5-0.3,0.6-0.6c-0.1-0.4-0.4-0.6-0.7-0.6c-0.1,0-0.1,0-0.2,0c0,0-0.1,0-0.1,0
			c-0.3,0.1-0.5,0.3-0.6,0.6C104.5,7.4,104.9,7.5,105.3,7.6z M27,16.8c0,0,0.1,0,0.1,0c0.2,0,0.2-0.1,0.3-0.3c0,0,0-0.1,0-0.1
			c-0.1-0.1-0.2-0.1-0.3-0.1c-0.1,0-0.1,0-0.2,0c0,0-0.1,0.1-0.1,0.1c0,0-0.1,0.1-0.1,0.1c0,0,0,0,0,0.1
			C26.8,16.6,26.9,16.7,27,16.8C27,16.8,27,16.8,27,16.8z M22.3,18.7c0.3-0.3,0.6-0.5,0.7-1c-0.3-0.2-0.5-0.6-1-0.7
			c-0.3,0.3-0.4,0.6-0.7,0.9C21.5,18.3,21.9,18.5,22.3,18.7z M109.9,9.5c0.2,0.2,0.5,0.3,0.8,0.4c0.2-0.2,0.5-0.3,0.6-0.5
			c-0.1-0.4-0.4-0.7-0.8-0.7c0,0-0.1,0-0.1,0c0,0-0.1,0-0.1,0C110.1,8.8,109.9,9,109.9,9.5z M112.8,9.2c0.2,0.3,0.5,0.5,0.8,0.7
			c0.3-0.2,0.7-0.5,0.8-0.9c-0.1-0.1-0.1-0.2-0.2-0.2c0,0,0,0,0,0c-0.2-0.2-0.3-0.2-0.5-0.3c-0.1,0-0.1,0-0.2,0c0,0,0,0,0,0
			C113.1,8.5,112.8,8.7,112.8,9.2z M22.1,21.7c0,0.2,0.1,0.3,0.2,0.5c0,0,0,0,0,0l0,0c0,0,0.1,0,0.1,0c0.5-0.1,0.5-0.7,0.4-1.1
			c0,0,0,0,0,0c0.3,0,0.4,0.2,0.7,0.2c0.4-0.1,0.6-0.4,0.6-0.7c0-0.3-0.2-0.6-0.6-0.7C22.9,20.3,22,21,22.1,21.7z M116.1,12.9
			C116.1,12.9,116.1,12.9,116.1,12.9c0.2,0,0.4-0.1,0.6-0.2c0.3-0.2,0.6-0.4,0.7-0.7c0,0,0,0,0-0.1c0.1-0.1,0.1-0.2,0.2-0.4
			c0,0,0-0.1,0-0.1l0,0c0,0,0,0,0,0c0,0,0-0.1,0-0.1c-0.2-0.2-0.4-0.3-0.6-0.3c0,0-0.1,0-0.1,0c0,0,0,0,0,0
			c-0.4,0.1-0.7,0.4-0.6,0.9c0,0,0,0,0,0c-0.1,0-0.1,0-0.2,0c0,0-0.1,0-0.1,0c-0.1,0-0.1,0-0.2,0c-0.1,0-0.2,0.1-0.2,0.1
			c0,0,0,0-0.1,0c0,0.1,0,0.1,0,0.2C115.6,12.8,115.8,13,116.1,12.9z M120.3,13.9c0.3-0.2,0.5-0.5,0.7-0.8c-0.2-0.5-0.8-0.7-1.4-0.7
			c0,0-0.1,0-0.1,0c0,0-0.1,0-0.1,0c-0.6,0.1-1.1,0.4-1.3,0.9C118.6,14,119.8,13.5,120.3,13.9z M125.4,14c-0.1-0.1-0.2-0.2-0.2-0.3
			c-0.2-0.1-0.3-0.2-0.5-0.2c0,0-0.1,0-0.1,0c-0.1,0-0.1,0-0.2,0c-0.1,0.1-0.3,0.2-0.4,0.3c-0.1,0.1-0.1,0.2-0.2,0.4
			c0.2,0.3,0.5,0.5,0.8,0.7C125.1,14.8,125.3,14.4,125.4,14z M125,16.8c0.2-0.3,0.5-0.5,0.6-0.9c0,0,0-0.1,0-0.1
			c-0.2-0.3-0.4-0.5-0.7-0.5c0,0-0.1,0-0.1,0c0,0,0,0,0,0c-0.3,0-0.6,0.3-0.7,0.8C124.4,16.4,124.6,16.7,125,16.8z M131.8,16.2
			c-0.4-0.2-0.5-0.6-0.9-0.7c-0.2,0.3-0.5,0.5-0.6,0.8c0.2,0.4,0.5,0.6,0.8,0.9C131.4,17,131.6,16.6,131.8,16.2z M14.4,27.8
			c0,0,0.1,0,0.1,0c0.1,0,0.2,0,0.2-0.1c0.1-0.1,0.1-0.1,0.1-0.2c0,0,0,0,0,0c0,0,0,0,0,0c0,0,0,0-0.1,0c-0.1,0-0.2-0.1-0.3-0.1
			c0,0,0,0,0,0c-0.1,0-0.3,0.1-0.3,0.3C14.3,27.7,14.3,27.7,14.4,27.8z M9.7,29.8c0.3-0.3,0.6-0.5,0.7-1c-0.3-0.2-0.5-0.6-1-0.7
			c-0.2,0.4-0.6,0.6-0.7,1C9.1,29.3,9.3,29.6,9.7,29.8z M131.3,19.1c0.2-0.3,0.4-0.6,0.7-0.8c-0.2-0.4-0.5-0.8-1-0.9
			c-0.3,0.3-0.5,0.6-0.6,1C130.7,18.7,131,18.9,131.3,19.1z M128.3,19.3c0.3-0.3,0.6-0.5,0.7-0.9c0-0.1-0.1-0.1-0.2-0.2
			c-0.2-0.2-0.5-0.3-0.7-0.3c0,0,0,0-0.1,0c0,0-0.1,0-0.1,0c-0.1,0-0.3,0.1-0.4,0.3c0,0.1-0.1,0.1-0.1,0.2c0,0.1-0.1,0.2-0.1,0.3
			C127.6,18.9,127.9,19.2,128.3,19.3z M13,33.1c0.1,0,0.2,0,0.3,0c0,0,0,0,0.1,0c0.6-0.1,1.3-0.4,1.4-0.9c0,0,0,0,0,0
			c-0.2-0.4-0.6-0.5-1.1-0.5c0,0-0.1,0-0.1,0c0,0-0.1,0-0.1,0c-0.6,0.1-1.2,0.4-1.2,0.9c0,0,0,0,0,0C12.3,32.9,12.6,33.1,13,33.1z
			 M128.7,21.4c0.2,0.3,0.5,0.4,0.7,0.4c0,0,0.1,0,0.1,0c0.1,0,0.2,0,0.3-0.1c0.2-0.1,0.4-0.3,0.5-0.5c0,0,0-0.1,0-0.1
			c-0.3-0.3-0.6-0.5-1-0.7C129.1,20.7,128.9,21.1,128.7,21.4z M131.8,21.1C131.8,21.1,131.8,21.1,131.8,21.1
			c0.1,0.4,0.5,0.4,0.8,0.7c0.4-0.2,0.7-0.5,0.8-1c0,0,0,0,0,0c0,0,0,0,0-0.1c0,0,0-0.1,0-0.1c-0.2-0.3-0.4-0.4-0.7-0.4
			c0,0,0,0-0.1,0c0,0-0.1,0-0.1,0C132,20.4,131.7,20.7,131.8,21.1z M40.3,31.3c-0.1,0-0.1,0-0.1,0.1c-0.1,0.1-0.1,0.2-0.1,0.3
			c0,0,0.1,0,0.1,0c0,0,0.1,0,0.1,0c0,0,0.1,0,0.1,0c0.1,0,0.2-0.1,0.2-0.3c0,0,0,0,0,0c0,0,0,0,0,0C40.4,31.3,40.4,31.3,40.3,31.3
			C40.4,31.3,40.3,31.3,40.3,31.3z M30.5,38.6C30.5,38.6,30.5,38.6,30.5,38.6c0.1,0.1,0.2,0.1,0.3,0.1c0.2,0.1,0.4,0.2,0.7,0.1
			c0,0,0,0,0,0c0,0,0.1,0,0.1,0c0.1,0.2,0.2,0.4,0.3,0.6c1.1-0.8,1.8-1.8,2.7-2.7c0.9-0.9,2-1.7,2.7-2.8c-0.2-0.2-0.8,0-1.1-0.1
			c-0.1-0.1-0.1-0.3-0.1-0.4c-0.1-0.7,0.7-0.8,0.7-1.5c0,0-0.1,0-0.1-0.1c-0.1-0.1-0.2-0.1-0.3-0.1c0,0,0,0-0.1,0
			c-0.1,0-0.2,0-0.3,0.1c-0.1,0.1-0.2,0.2-0.3,0.3c-0.2,0.2-0.4,0.4-0.4,0.6c0,0,0,0,0,0c0.2,0.1,0.3,0.3,0.3,0.6c0,0.1,0,0.1,0,0.2
			c-0.1,0.3-0.5,0.4-0.5,0.8c0.1,0.2,0.4,0.2,0.4,0.5c0,0,0,0.1,0,0.1c-0.3,0.4-0.7,1.1-1.4,1.6c-0.4,0.3-0.9,0.3-1.1,0.6
			c-0.3,0.3-0.5,0.8-0.9,0.9c0,0,0,0,0,0h0c0,0,0,0,0,0c-0.1,0-0.3-0.1-0.5-0.2c0,0,0,0,0,0c0-0.1-0.1-0.2-0.1-0.3
			c0-0.4,0.1-0.7,0.1-1c0-0.1,0-0.1-0.1-0.2c-0.5,0.2-0.8,0.6-0.7,1.1c0,0.1,0.1,0.3,0.1,0.4C30.9,38.3,30.4,38.3,30.5,38.6z
			 M38.4,33C38.4,33,38.4,33,38.4,33c0.3,0,0.4-0.1,0.5-0.3c0,0,0,0,0,0c0,0,0,0-0.1,0c0,0-0.1,0-0.1,0c0,0,0,0,0,0
			C38.5,32.7,38.3,32.9,38.4,33z M34.1,34.3C34.1,34.3,34.1,34.3,34.1,34.3c-0.1-0.1-0.2-0.1-0.3-0.1c-0.1,0-0.2,0-0.2,0.1
			c0,0.2,0.1,0.3,0.3,0.3C33.9,34.4,34.1,34.4,34.1,34.3z M139.3,25.9c0.3-0.3,0.6-0.5,0.7-1c0,0,0,0,0-0.1
			c-0.2-0.3-0.8-0.5-1.4-0.4c0,0,0,0-0.1,0c0,0-0.1,0-0.1,0c-0.6,0.1-1.1,0.4-1.1,0.9C137.5,26,138.6,25.7,139.3,25.9z M139.5,26.3
			c-0.1,0-0.1,0-0.2,0c0,0,0,0,0,0c-0.3,0-0.6,0.3-0.7,0.8c0.3,0.2,0.4,0.5,0.9,0.6c0.3-0.2,0.6-0.5,0.7-0.9c0,0,0,0,0,0
			C139.9,26.5,139.7,26.4,139.5,26.3z M29.9,38.2c-0.3,0.4-0.8,0.7-0.9,1.2c0.1,0,0.2,0.1,0.3,0.1c0,0,0,0,0,0
			c0.2,0,0.4-0.1,0.6-0.2C30.3,38.9,30.6,38.3,29.9,38.2z M27.5,41.3C27.6,41.3,27.6,41.3,27.5,41.3c0.1,0,0.1,0,0.1,0
			c0.1,0,0.2-0.1,0.3-0.2c0.1-0.2,0.2-0.4,0.1-0.5c0,0,0,0,0,0c0,0,0,0-0.1,0c-0.2,0.2-0.5,0.4-0.5,0.7
			C27.5,41.3,27.5,41.3,27.5,41.3C27.5,41.3,27.5,41.3,27.5,41.3z M30.5,40.4C30.5,40.4,30.5,40.4,30.5,40.4c-0.2,0-0.3,0.1-0.4,0.1
			c-0.1,0.1-0.3,0.1-0.4,0.1l0,0c-0.1,0-0.2,0-0.3,0c-0.1,0.2-0.1,0.5-0.1,0.8c0,0.3,0.1,0.7,0.3,0.8c0.7-0.4,1.1-1,1.4-1.7
			c0,0,0,0,0,0C30.8,40.4,30.7,40.4,30.5,40.4C30.6,40.4,30.5,40.4,30.5,40.4z M142,32.3c0.2-0.3,0.6-0.5,0.7-1
			c-0.4-0.2-0.6-0.5-1-0.6c-0.3,0.3-0.6,0.6-0.8,1C141.4,31.8,141.6,32.2,142,32.3z M145,47.8c0,0-0.1,0-0.1,0c0,0-0.1,0-0.1,0
			c-0.1,0-0.2,0.1-0.2,0.3c0.1,0.1,0.2,0.2,0.4,0.2c0,0,0,0,0,0c0,0,0,0,0,0c0.1,0,0.2-0.1,0.2-0.2c0,0,0,0,0-0.1l0,0c0,0,0,0,0,0
			C145.2,47.9,145.1,47.9,145,47.8z M152.3,65.8c-0.1,0-0.1,0-0.2,0c-0.1,0-0.2,0.1-0.3,0.3c0,0.1-0.1,0.1-0.1,0.2
			c-0.1,0.1-0.1,0.1-0.2,0.1c0,0,0,0,0,0c0,0-0.1,0-0.1,0c-1,0-1.1-1.3-0.2-1.5c0,0,0,0,0,0l0,0c0,0,0,0,0,0c0.2,0,0.3,0.1,0.3,0.1
			c0.1,0.1,0.2,0.3,0.4,0.3c0,0,0,0,0,0c0,0,0,0,0,0c0,0,0.1,0,0.1,0c-0.5-4.2-2.1-9-3.5-12.8c-0.5-1.4-1.1-3.3-1.8-4
			c0,0.1-0.1,0.1-0.1,0.2c-0.1,0.3-0.1,0.5-0.1,0.7c0.1,1,1,1.6,1.1,2.5c0,0.1,0,0.2,0,0.4c-0.3,0.2-0.9,0.1-1.2,0.3
			c0.4,0.4,0.7,0.4,0.8,0.9c0,0.1,0,0.2,0,0.3c-0.1,0.5-0.6,0.4-0.5,0.9c0.8,0.4,1.8-0.2,1.9,0.6c0.1,0.9-1.5,0.6-1.4,1.1
			c0,0,0,0,0,0c0.1,0.7,1.2,0,1.7,0.4c0.3,0.3,0.9,1.6,1,2.7c0.1,0.7,0,1.2-0.4,1.3c0,0-0.1,0-0.1,0c0,0-0.1,0-0.1,0
			c-0.4,0-0.4-0.4-0.6-0.6c-0.1-0.1-0.2-0.2-0.3-0.2c0.9,3.3,1.5,6.7,1.9,10.1c1,8.6,0.4,17.2-1.1,24.3
			c-2.2,10.1-6.1,18.7-11.6,26.5c-5.3,7.5-12.2,14.1-20.6,19.6c-0.4,0.3-0.8,0.5-1.2,0.7c-8,4.9-18.1,8.8-30.3,10.1l-0.2,0
			c-0.2,0-0.3,0-0.5,0c-13,1.2-23.9-0.8-33.2-4.2c-8.7-3.2-16.4-7.9-22.9-13.5c-0.4-0.3-0.7-0.9-1.4-1c0,0,0,0,0,0.1
			c0,0.2,0.4,0.7,0.4,1.1c0,0.2,0,0.4-0.2,0.5c0,0,0,0-0.1,0c0,0,0,0-0.1,0c0,0,0,0,0,0c-0.5,0-0.7-0.2-0.9-0.5c0,0,0-0.1-0.1-0.1
			c-0.2-0.3-0.4-0.6-0.9-0.6c0,0-0.1,0-0.1,0c0,0,0,0,0,0c0,0,0,0,0,0c0,0-0.1,0-0.1,0c0,0-0.1,0-0.1,0c-0.6-0.3-0.7-1-1.1-1.4
			c-0.3-0.4-0.9-0.6-1.3-1c-0.4-0.4-0.8-0.9-1.4-1c0.8,1.2,1.9,2.2,3,3.1c3.2,3,6.5,5.7,10.2,8.2c-0.4,0.6-1.4,0.7-1.5,1.5
			c0.4,0.1,1.1,0.2,1.5,0.2c0,0,0,0,0,0c0,0,0.1,0,0.1,0c0,0,0.1,0,0.1,0c0.4-0.2-0.1-1.1,0.3-1.2c11.4,7,24.4,12.3,41.5,12.6
			c0.3,0,0.6,0,0.9,0c2.7,0,5.4-0.1,7.9-0.4l0.2,0c14.5-1.5,26.5-6.9,35.4-12.9c0.3-0.2,0.6-0.4,0.8-0.6c10.9-7.7,19.5-18.1,25-30.2
			c5-11,7.9-24.3,6.2-39.4C152.9,69,152.6,67.4,152.3,65.8z M129.7,52.7c0,0.1,0,0.1,0,0.2c0.1,0.5,0.5,1,0.7,1.4
			c0.4-0.2,0.3-0.8,0.4-1.2C130.3,53.2,130.2,52.7,129.7,52.7z M15.5,119.1C15.5,119.1,15.5,119.1,15.5,119.1
			c-0.1,0-0.2,0.1-0.2,0.2c0,0,0,0.1,0,0.1c0.1,0.1,0.4,0.3,0.6,0.3c0.1,0,0.1,0,0.2,0c0,0,0,0,0,0c0,0,0.1,0,0.1,0c0,0,0,0,0,0
			c0-0.1-0.1-0.2-0.2-0.4C15.8,119.2,15.7,119.1,15.5,119.1z M22.4,127.7c-0.9-1.3-1.9-2.6-3.1-3.6c0,0.7-1.4,0.2-1.4,0.9
			c0.3,0.1,0.6,0.2,1,0.1c0,0,0.1,0,0.1,0c0.1,0,0.2,0,0.2,0c0.4,0.5,1.6,1.1,1.7,1.6c0,0,0,0,0,0.1c0,0.3-0.1,0.5-0.3,0.5
			c0,0,0,0,0,0c0,0-0.1,0-0.1,0c-0.2,0-0.4-0.1-0.6-0.2c0,0-0.1,0-0.1,0c-0.3-0.1-0.6-0.2-0.8-0.2c0,0-0.1,0-0.1,0
			c0,0-0.1,0-0.1,0.1c0.3,0.7,1.1,1.6,1.9,2.1C21.3,128.6,21.5,127.8,22.4,127.7z M23.4,128.7c-0.1,0.2-0.4,0.3-0.4,0.6
			c0,0,0.1,0.1,0.1,0.1c0.1,0.1,0.3,0.3,0.4,0.4c0.5,0.5,1,1.1,1.8,1.1c0,0,0.1,0,0.1,0c0,0,0,0,0,0c0,0,0.1,0,0.1,0
			C25,129.9,24.2,129.3,23.4,128.7z M27.3,140.9c1.2-0.6,0.6-1.6-0.2-1.7c0,0-0.1,0-0.1,0c0,0,0,0,0,0c-0.3,0-0.6,0.2-0.8,0.7
			c0,0,0,0.1,0,0.1C26.2,140.6,26.8,140.7,27.3,140.9z M30.9,143.6c0-0.3,0-0.6,0-0.9c0,0,0,0-0.1,0c-0.1,0-0.2-0.1-0.3-0.1
			c0,0-0.1,0-0.1,0c0,0,0,0-0.1,0c-0.4,0.1-0.8,0.6-0.8,1c0.2,0.3,0.6,0.7,1,0.7c0,0,0,0,0,0c0.1,0,0.2,0,0.2-0.1
			c0,0,0.1-0.1,0.1-0.1C31,143.9,31,143.7,30.9,143.6z M35.9,144.3c0.2,0.1,0.3,0.3,0.7,0.3c0.4-0.4,1-0.7,1-1.4c0,0-0.1,0-0.1-0.1
			c-0.2-0.1-0.4-0.2-0.5-0.2c0,0-0.1,0-0.1,0c0,0,0,0-0.1,0c-0.3,0-0.5,0.2-0.8,0.5c-0.2,0.2-0.5,0.4-0.8,0.5c0,0-0.1,0-0.1,0
			c-0.3-0.1-0.5-0.4-0.6-0.7c-0.5,0.2-1.3,0.2-1.3,0.7c0.1,0,0.2,0.1,0.2,0.3c0.1,0,0.1,0,0.2,0c0,0,0,0,0,0l0,0c0.1,0,0.2,0,0.3,0
			c0.2,0,0.3,0,0.5,0.1c0.1,0,0.1,0,0.2,0c0.2,0.1,0.4,0.1,0.6,0.1c0.1,0,0.2,0,0.3,0c0,0,0.1,0,0.1,0c0.1,0,0.2-0.1,0.3-0.1
			C35.8,144.4,35.8,144.4,35.9,144.3z M28.6,145.4c-0.1-0.4-0.4-0.5-0.7-0.6c-0.1,0-0.1,0-0.2,0c0,0,0,0,0,0
			c-0.5,0.1-0.9,0.4-0.9,0.8c0,0,0,0,0,0.1c0.1,0.4,0.5,0.5,1.1,0.8c0.3-0.3,0.8-0.5,0.8-1C28.7,145.5,28.7,145.5,28.6,145.4
			C28.7,145.5,28.7,145.4,28.6,145.4z M32.8,145.1C32.7,145.1,32.7,145.1,32.8,145.1c-0.3-0.5-0.6-0.6-0.8-0.6c0,0,0,0,0,0
			c0,0-0.1,0-0.1,0c-0.7,0.2-1.2,1.3,0.1,1.6c0,0,0.1,0,0.1,0C32.4,145.9,32.6,145.5,32.8,145.1z M37.7,145.3L37.7,145.3
			c-0.1,0-0.2,0.1-0.3,0.1c0,0-0.1,0.1-0.1,0.1c0,0-0.1,0-0.1,0c0,0-0.1,0-0.1,0c-0.3-0.1-0.4-0.5-0.6-0.7c0,0-0.1,0-0.1,0
			c0,0,0,0,0,0c-0.3,0-0.5,0.2-0.6,0.4c0.4,0.6,0.4,1.5,1,1.8c0.7-0.2,0.7-0.8,1.5-0.9c0-0.1,0-0.1,0-0.2
			C38,145.8,37.9,145.5,37.7,145.3C37.7,145.3,37.7,145.3,37.7,145.3z M39.9,144.6C39.9,144.6,39.9,144.6,39.9,144.6
			c-0.1-0.1-0.2-0.1-0.4-0.1c0,0,0,0-0.1,0c-0.2,0-0.3,0.1-0.4,0.3c0.1,0.2,0.2,0.3,0.4,0.3c0,0,0.1,0,0.1,0c0,0,0.1,0,0.1,0
			c0.2,0,0.3-0.2,0.3-0.4C40,144.8,40,144.8,39.9,144.6C39.9,144.7,39.9,144.7,39.9,144.6z M35.4,145.6c-0.2,0-0.4,0.1-0.6,0.2
			c-0.3,0.2-0.5,0.4-0.7,0.6c0.2,0.2,0.6,0.3,0.9,0.4c0.3-0.2,0.5-0.5,0.5-0.9C35.5,145.8,35.5,145.7,35.4,145.6
			C35.4,145.6,35.4,145.6,35.4,145.6z M39.4,145.6C39.4,145.6,39.4,145.6,39.4,145.6c-0.3,0.1-0.4,0.2-0.4,0.4
			c0.1,0.2,0.2,0.3,0.4,0.3c0.2-0.1,0.3-0.2,0.3-0.4c0,0,0-0.1,0-0.1C39.7,145.6,39.6,145.6,39.4,145.6z M34,147.9
			c-0.1,0-0.2,0-0.2,0c0,0,0,0-0.1,0c-0.1,0-0.2,0.1-0.3,0.2c0,0,0,0,0,0c0.2,0.6,0.5,1.1,1.1,1.2C34.8,148.9,34.4,148.1,34,147.9z
			 M33.4,149.9C33.4,149.9,33.4,149.9,33.4,149.9c-0.5,0.1-1,0.6-1,1.1c0,0.1,0,0.2,0.1,0.2c0.1,0,0.2,0,0.2,0.1
			c0.6-0.2,0.9-0.8,1-1.4C33.6,149.9,33.6,149.8,33.4,149.9C33.5,149.8,33.4,149.9,33.4,149.9z M56.3,151.6c-0.1,0-0.2,0-0.3,0
			c-0.1,0-0.1,0-0.2,0c-0.3,0.1-0.6,0.3-0.8,0.7c0,0,0,0.1,0,0.1c0,0.1,0,0.1,0,0.2c0,0,0,0,0.1,0c0,0,0,0,0.1,0c0.2,0,0.4,0,0.7,0
			l0,0c0.5,0,1-0.2,1.3-0.3c0,0,0-0.1,0-0.1C56.9,151.8,56.6,151.6,56.3,151.6z M17.9,122.4C17.9,122.4,17.9,122.4,17.9,122.4
			c-0.1-0.5-0.5-1.1-0.9-1.3c-0.3,0.1,0.1,0.7-0.2,0.8c-0.8,0-1.4-0.2-2-0.4c0,0,0-0.1,0-0.1c-0.1-0.9-0.9-1.5-1-2.3
			c0-0.3,0-0.6,0.3-0.9c0,0,0.1,0,0.1,0c0,0,0,0,0.1,0c0.1,0,0.1,0,0.2,0c0,0,0.1,0,0.1,0c0.1,0,0.2,0,0.3,0c0,0,0,0,0.1,0
			c0,0,0.1,0,0.1,0c0,0,0,0,0,0c-0.4-1.1-1.2-2.1-1.8-3.2c-4.3-7.6-8-16-9.7-26.6c-0.2-1.2-0.4-2.5-0.5-3.7c-1.4-12.8,0.6-23.8,4-33
			c2.7-7.3,6.5-13.9,11.1-19.7c0.7-0.8,1.5-1.6,1.9-2.6c-0.1-0.2-0.5,0-0.7-0.2c0-0.2-0.1-0.3-0.1-0.5c-0.1-0.8,0.2-1.4,0.9-1.7
			c0.3,0.1,0.5,0.3,0.5,0.5c0.1,0.5-0.3,1.1-0.3,1.5c0,0,0,0,0,0.1c1.5-1.4,3-2.9,4.2-4.5c-0.1-0.1-0.5,0-0.7-0.2
			c0.3-0.4,0.5-0.8,0.7-1.2c0,0.1,0,0.4,0,0.6c0,0.2,0.1,0.4,0.1,0.5c0.8-0.2,1.1-0.9,1.7-1.4c-0.4-0.2-0.7-0.6-0.8-1.2
			c0-0.1,0-0.3,0-0.5c0.3-0.3,0.7-0.6,1.2-0.8c0,0,0-0.1,0-0.1c0-0.8,0.6-1.1,1.5-1.2c0.1,0,0.2,0,0.3,0l0,0
			c0.1,0.1,0.1,0.1,0.1,0.2c0.3,0.7-0.1,1.4-0.8,1.5c0,0,0,0,0,0c0,0-0.1,0-0.1,0c-0.2,0-0.3,0-0.5-0.1c0,0-0.1,0-0.1,0
			c-0.1,0.6-0.5,1.3-0.4,1.8C37.1,14.1,50,6.6,69.4,4.7c0,0,0.1,0,0.1,0c0.1,0,0.2,0,0.3,0c0,0,0.1,0,0.1,0c0.7-0.1,1.4-0.1,2.1-0.1
			c0.6,0,1.2,0,1.8-0.1c0,0,0.1,0,0.1,0c0.1,0,0.1,0,0.2,0c0.2,0,0.3,0,0.5-0.1c0.2,0,0.4-0.1,0.6-0.1c-0.1-0.9-1.3-0.5-1.5-1.2
			c0,0,0,0,0-0.1c0-0.4,0.4-0.4,0.3-0.8c0,0,0-0.1,0-0.2c-0.1,0-0.2,0-0.3,0c-0.2,0-0.4,0-0.5,0c-0.3,0-0.6,0-0.8,0
			c-0.3,0-0.5,0-0.8,0c-0.1,0-0.2,0-0.4,0c0,0-0.1,0-0.1,0c-0.3,0-0.5,0.1-0.8,0.1c-0.1,0-0.3,0.1-0.4,0.1c0,0,0,0-0.1,0
			c0,0,0,0.1,0,0.1c0,0.1,0,0.2,0.1,0.3c0,0.2,0,0.3-0.2,0.4c0.1,0.4,0.5,0.3,0.6,0.7c0,0,0,0.1,0,0.1c-0.1,0.1-0.3,0.2-0.5,0.3
			c-0.1,0-0.1,0-0.2,0c0,0-0.1,0-0.2,0c-0.1,0-0.2,0-0.3,0c-0.1,0-0.3-0.1-0.3-0.2c0,0,0,0,0,0c0-0.4,0.5-0.4,0.5-0.8
			c-0.2,0-0.2-0.1-0.3-0.3c0-0.1,0-0.3,0-0.4c0-0.1,0-0.1-0.1-0.1c-0.1,0-0.2,0-0.2,0c-0.2,0-0.4,0-0.7,0c0,0,0,0-0.1,0
			c-0.1,0-0.2,0-0.3,0c-0.1,0-0.1,0-0.2,0c0,0-0.1,0-0.1,0c-0.3,0-0.6,0.1-0.9,0.1c-0.3,0-0.6,0.1-0.8,0.1c0,0-0.1,0-0.1,0
			c-17.6,2.5-29.9,9.5-39.8,18c-0.1,0.1-0.5,0.1-0.6,0.2c0,0.4-0.3,0.5-0.5,0.8c0.3,0.1,0.4,0.4,0.5,0.6c0,0.4-0.1,0.7-0.5,0.8
			c0,0,0,0,0,0c0,0,0,0,0,0c0,0-0.1,0-0.1,0c-0.2,0-0.3-0.2-0.5-0.3c-0.1-0.1-0.2-0.1-0.3-0.1c-2.4,2.1-4.6,4.5-6.5,7
			c-0.1,0.1-0.3,0.2-0.5,0.3c0,0.2,0,0.4-0.1,0.5c-2.4,2.7-4.4,6.1-6.3,8.9c0.1-0.4,0.1-0.7,0.1-1c0-0.3-0.2-0.6-0.6-0.7
			c-0.6,0.2-0.8,0.8-0.7,1.3c0.1,0.6,0.4,1.1,1,1.1c-1.2,1.9-2.2,4-3.1,6.1c0,0-0.1,0-0.1-0.1C6.5,46,6.4,46,6.3,46
			c-0.1,0-0.2,0-0.3,0.1c-0.2,0.1-0.4,0.2-0.5,0.4c0.2,0.3,0.8,0.1,1,0.3C2,56.9-1.3,70.2,0.5,85.6c0.1,1.3,0.3,2.6,0.5,4
			c1.2,7.1,3.7,14.7,6.5,20.5c0.4,0.8,1.1,2.3,1.5,2.3c0,0,0.1,0,0.1,0c0.2,0,0.4-0.2,0.5-0.3c0,0,0,0,0,0c0.1-0.1,0.2-0.2,0.4-0.3
			c0,0,0.1,0,0.1,0c0,0,0,0,0,0c0,0,0,0,0.1,0c0,0,0,0,0,0c0.5,0,0.8,0.7,0.9,1.4c0,0.3,0,0.6,0,0.9c-0.1,0-0.2,0.1-0.2,0.1
			c-0.1,0-0.1,0-0.2,0c0,0,0,0,0,0c-0.4,0-0.5-0.4-0.7-0.8c0,0,0,0,0,0c-0.1-0.4-0.3-0.7-0.7-0.7c0,0-0.1,0-0.1,0c0,0,0,0,0,0
			c0,0-0.1,0-0.1,0c0,0.1,0,0.1,0,0.2c0.1,0.9,0.7,1.7,1.2,2.5c1.6,2.6,3.3,5.2,5.1,7.5c0.5-0.1,1.1-0.2,1.6-0.3l0.1,0
			c0,0,0.1,0,0.1,0C17.4,122.4,17.7,122.4,17.9,122.4C17.9,122.4,17.9,122.4,17.9,122.4z M71.5,3.2C71.5,3.2,71.5,3.1,71.5,3.2
			c0.2-0.3,0.6-0.4,1-0.5c0,0,0.1,0,0.1,0c0,0,0,0,0.1,0c0.3,0,0.6,0,0.8,0.2c0,0,0,0,0.1,0.1c0,0,0,0.1,0,0.1
			c0,0.4-0.3,0.6-0.7,0.6c0,0-0.1,0-0.1,0c0,0-0.1,0-0.1,0c-0.4,0-0.8-0.1-1-0.3c0,0,0,0-0.1-0.1C71.4,3.3,71.4,3.2,71.5,3.2z
			 M10.2,33.4c0.2-0.2,0.6-0.5,0.6-0.9c0,0,0-0.1,0-0.1c0.6-0.1,0.8-0.4,0.9-0.8c-0.2-0.4-0.4-0.5-0.6-0.5c0,0,0,0-0.1,0
			c-0.1,0-0.2,0-0.2,0.1c-0.4,0.2-0.7,0.7-1,1.1c-0.1,0.2-0.3,0.4-0.4,0.5c0,0-0.1,0.1-0.1,0.1C9.5,33,9.7,33.4,10.2,33.4z
			 M135.1,25.4c0.3-0.3,0.5-0.7,0.7-1.1c0.5-0.1,0.7-0.5,0.9-0.9c-0.3-0.2-0.5-0.5-0.9-0.6c-0.6,0.6-1.2,1.1-1.5,1.9
			C134.5,24.9,134.7,25.3,135.1,25.4z"/>
		<path class="st0" d="M94.9,146.8c37.9-9.7,60.9-48.5,51.1-86.4C136.2,22.4,97.4-0.5,59.5,9.2S-1.3,57.7,8.4,95.6
			S56.9,156.5,94.9,146.8z M137.1,62.5c8.5,33.3-11.5,67.1-44.8,75.7c-33.3,8.5-67.1-11.5-75.7-44.8s11.5-67.1,44.8-75.7
			S128.5,29.2,137.1,62.5z"/>
		<path class="st0" d="M112,66.3c0.4-0.1,0.9-0.2,1.3-0.3c1.1-0.5,1.3-0.4,1.5,0.9c0,0.1,0.1,0.3,0.2,0.5c0.3-0.4,0.6-0.8,0.8-1.1
			c0.7-0.8,1.4-0.7,1.9,0.2c0.2,0.4,0.5,0.8,0.9,1.2c0.8,0.8,0.9,1.7,0.5,2.6c-0.2,0.5-0.5,1-0.8,1.5c-0.6,0.8-1.2,1.5-1.1,2.6
			c0.1,0.8-0.5,1.1-1.4,1c-1-0.2-2-0.5-3.1-0.6c-1-0.1-2-0.1-3.1-0.1c0.1,1,0.6,1.4,1.3,1.4c2,0.1,2.1,0.1,2.4,2.4
			c0.3-0.1,0.5-0.1,0.8-0.2c1.5-0.2,2.5,1,2,2.4c-0.2,0.5-0.5,1.1-0.7,1.6c-0.6,1.3-1.4,2.1-3,2.6c-3.7,1.1-6.3,3.7-8,7.2
			c-0.5,1.2-1,2.4-1.4,3.6c-0.2,0.5-0.2,1.1-0.3,1.7c-0.1,0.3-0.3,0.7-0.6,0.7c-1.1,0.4-2.3,0.7-3.4,1.1c-0.4,0.1-0.8,0.5-1.1,0.8
			c-0.7,0.8-1.1,0.9-2,0.2c-0.3-0.3-0.7-0.4-1-0.6c-4.1-2.4-8.2-4.7-12.3-7c-0.4-0.2-1-0.2-1.5-0.1c-3.1,0.7-6.2,1.4-9.3,2.2
			c-0.7,0.2-1.3,0.1-1.7-0.6c-1.5-2.5-3.6-3.3-6.4-2.4c-3.5,1-7.1,1.7-10.6,2.5c-0.6,0.2-1.2,0.6-1.7,1c-2,1.6-4.3,2.6-6.8,3.2
			c-3.1,0.7-6.1,1.5-9.2,2.3c-1.3,0.3-2.1-0.2-2.3-1.5c-0.1-0.7-0.1-1.5,0-2.2c0-0.7,0.5-1.2,1.2-1.3c0.6-0.1,0.7-0.4,0.9-0.9
			c0.2-0.7,0.4-1.4,0.7-2c0.4-0.9,1.1-1.5,2.1-1.7c2.9-0.6,4.8-2.5,6.3-4.9c0.4-0.6,0.7-1.2,1-1.8c0.5-1,1.3-1.5,2.5-1.5
			c0.8,0.1,1.3-0.3,1.6-0.9c0.8-1.5,1.8-2.4,3.6-1.4c0.1-0.5,0.2-1,0.4-1.4c0.3-0.5,0.5-1.2,1-1.5c0.7-0.5,0.8-1.1,0.9-1.8
			c0.1-2,0.6-2.8,2.5-3.3c3-0.9,5.9-1.7,8.9-2.5c15.3-3.9,30.6-7.7,45.9-11.6c0.9-0.2,1.4-0.1,1.9,0.6c0.7,1,1.6,2,2.3,3.1
			c0.9,1.5,0.2,2.6-1.5,2.5C113.5,64.4,112.8,65.4,112,66.3z"/>
		<g>
			<path class="st0" d="M37.6,122.5l-0.4-7.3c-0.5,0.4-1.2,0.9-1.8,1.5c-0.7,0.6-1.2,1.2-1.7,1.7l-1.5-1.4l1.6-1.5
				c1-0.9,1.8-1.6,2.6-2.2c1.1-0.8,2-1.4,2.7-1.7l0.3,6l2.7-2.9l1.5,1.4L37.6,122.5z"/>
			<path class="st0" d="M47.9,128c-0.6-0.1-1.2-0.1-1.8-0.2c-0.7-0.2-1.3-0.4-1.8-0.8c-1-0.7-1.7-1.6-1.9-2.9
				c-0.2-1.2-0.1-2.3,0.5-3.3c0.7-1.1,1.6-1.7,2.9-2c1.2-0.3,2.4-0.1,3.4,0.6c0.5,0.3,1,0.8,1.3,1.4c0.3,0.5,0.5,1,0.6,1.4l-1.8,0.8
				l-0.4-1c-0.2-0.4-0.5-0.7-0.8-0.9c-0.5-0.3-1.1-0.4-1.8-0.3c-0.7,0.1-1.2,0.5-1.6,1.1c-0.3,0.5-0.4,1.1-0.4,1.7
				c0.1,0.7,0.5,1.3,1.2,1.8c0.3,0.2,0.7,0.4,1,0.5c0.5,0.2,1.2,0.2,1.9,0.2L47.9,128z"/>
			<path class="st0" d="M62.2,131.6c-0.2,0.7-0.7,1.3-1.4,1.6c-0.8,0.4-1.7,0.5-2.8,0.1c-0.5-0.2-1.1-0.5-1.7-0.9
				c-0.6-0.4-1-0.8-1.1-1.1l1.3-1.7c0.3,0.4,0.7,0.8,1.1,1.1c0.4,0.3,0.7,0.5,1.1,0.6c0.3,0.1,0.6,0.1,0.8,0.1
				c0.4-0.1,0.6-0.2,0.7-0.5c0.1-0.4-0.1-0.7-0.6-1c-0.5-0.3-1-0.5-1.5-0.8c-0.4-0.3-0.7-0.8-0.9-1.3c-0.2-0.5-0.2-1,0-1.5
				c0.2-0.6,0.6-1.1,1.2-1.5c0.7-0.4,1.6-0.5,2.5-0.2c0.4,0.1,0.8,0.3,1.1,0.5c0.2,0.2,0.6,0.4,1,0.8l-1.3,1.5L61,127
				c-0.2-0.2-0.5-0.3-0.8-0.4c-0.3-0.1-0.5-0.1-0.7,0c-0.2,0.1-0.3,0.2-0.3,0.4c-0.1,0.4,0.2,0.7,0.9,1.1c0.5,0.3,0.9,0.5,1.2,0.7
				c0.4,0.4,0.8,0.8,0.9,1.3C62.4,130.6,62.4,131.1,62.2,131.6z"/>
			<path class="st0" d="M72.4,129.3l-2.8-0.4l-0.9,6.6l-2.1-0.3l0.9-6.5l-2.7-0.4l0.3-1.9l7.6,1.1L72.4,129.3z"/>
			<path class="st0" d="M81.3,135.8l-2.2,0c0-0.2-0.1-0.3-0.2-0.5c-0.1-0.3-0.2-0.5-0.2-0.5l-3.5,0.1c-0.1,0.1-0.1,0.2-0.2,0.4
				c-0.1,0.2-0.1,0.4-0.2,0.6l-2.2,0c0.2-0.6,0.4-1.2,0.7-1.8c0.6-1.5,1.1-2.7,1.6-3.7c0.7-1.4,1.3-2.4,1.9-3
				c0.2,0.2,0.5,0.5,0.9,1.1c0.5,0.7,1,1.6,1.6,2.7C80,132.7,80.7,134.2,81.3,135.8z M78,133c-0.1-0.3-0.2-0.6-0.5-1.1
				c-0.2-0.4-0.4-0.7-0.6-1l-1,2.1L78,133z"/>
			<path class="st0" d="M88.8,127.7l-2.8,0.5l1.2,6.5l-2.1,0.4l-1.2-6.5l-2.7,0.5l-0.3-1.8l7.6-1.3L88.8,127.7z"/>
			<path class="st0" d="M99.1,131.3l-6,2.1l-2.8-7.9l5.6-2l0.7,1.6l-3.7,1.3l0.3,0.9l2.3-0.8l0.6,1.7l-2.4,0.8l0.7,1.9l4-1.4
				L99.1,131.3z"/>
			<path class="st0" d="M110,118.2c0.6,0.8,0.7,1.7,0.3,2.8c-0.2,0.7-0.7,1.4-1.3,2.2c-0.2,0.2-0.4,0.4-0.7,0.7
				c-0.1,0.1-0.1,0.1-0.2,0.2l1.1,1.6l-1.7,1.2l-4.6-6.6c0.3-0.4,0.7-0.8,1.1-1.2c0.4-0.4,0.8-0.7,1.1-1c0.9-0.6,1.8-1,2.6-1
				C108.6,117,109.4,117.4,110,118.2z M108.2,119.4c-0.2-0.2-0.4-0.3-0.8-0.2c-0.3,0.1-0.7,0.2-1,0.5c-0.3,0.2-0.4,0.3-0.6,0.5
				c-0.1,0.1-0.2,0.2-0.3,0.3l1.4,1.9l0.2-0.1l0.9-1.2C108.4,120.4,108.5,119.8,108.2,119.4z"/>
			<path class="st0" d="M120.7,115.8l-1.6,1.5c-0.1-0.1-0.3-0.2-0.5-0.3c-0.3-0.1-0.5-0.2-0.5-0.2l-2.5,2.5c0,0.1,0.1,0.3,0.2,0.5
				c0.1,0.2,0.2,0.4,0.3,0.5l-1.6,1.6c-0.2-0.6-0.5-1.2-0.7-1.8c-0.6-1.5-1-2.7-1.3-3.8c-0.5-1.5-0.7-2.7-0.7-3.5
				c0.3,0,0.7,0.1,1.4,0.2c0.8,0.2,1.8,0.5,3,0.9C117.6,114.5,119.1,115.1,120.7,115.8z M116.3,116c-0.2-0.1-0.6-0.3-1.1-0.5
				c-0.5-0.1-0.8-0.3-1.1-0.3l0.7,2.3L116.3,116z"/>
			<path class="st0" d="M126,106.5l0.9,1.5l-0.1,0.1c0,0,0,0-0.1,0.1c0,0.1-0.1,0.1-0.1,0.1c-0.2,0.2-0.4,0.4-0.5,0.4
				c-0.2,0.1-0.6,0.3-1.2,0.4c-0.3,0.1-0.6,0.1-0.7,0.2c-0.2,0-0.3,0.1-0.5,0.1c-0.3,0-0.5,0.1-0.7,0.1c-0.1,0-0.3,0-0.4,0
				c0,0.1-0.1,0.3-0.1,0.3c-0.1,0.3-0.2,0.6-0.4,0.8l1.6,1.1l-1.1,1.6l-6.6-4.7c0-0.3,0.2-0.7,0.5-1.3c0.3-0.6,0.6-1.1,0.8-1.3
				c0.6-0.9,1.3-1.5,2.1-1.9c0.9-0.4,1.8-0.3,2.5,0.2c0.5,0.3,0.8,0.7,1,1.3c0.2,0.5,0.2,1.1,0.2,1.8c1-0.1,1.5-0.2,1.6-0.2
				C125.3,107.1,125.7,106.9,126,106.5z M120.7,106.1c-0.2-0.2-0.5-0.2-0.8,0c-0.3,0.2-0.6,0.4-0.8,0.7c-0.2,0.3-0.3,0.5-0.4,0.7
				c-0.1,0.2-0.1,0.3-0.1,0.5l1.9,1.3c0.4-0.7,0.5-1.3,0.6-1.9C121.1,106.8,121,106.3,120.7,106.1z"/>
			<path class="st0" d="M130.6,96.9l1.2,1.5c-0.2,0.3-0.3,0.4-0.4,0.6c-0.4,0.4-0.8,0.6-1.2,0.7c-0.4,0.2-0.8,0.4-1.4,0.5
				c-0.6,0.2-1,0.3-1.2,0.3c0.1,0.3,0.1,0.6,0.2,0.8c0,0.1,0,0.1,0.1,0.1l1.6,0.7l-0.9,1.9l-7.6-3.5l0.9-1.9l3.5,1.6
				c-0.3-0.8-0.6-1.5-0.9-2.1c-0.1-0.2-0.6-0.9-1.4-2.1l0.9-2c0.2,0.2,0.4,0.5,0.7,0.9c0.3,0.3,0.6,0.7,0.9,1.2
				c0.5,0.6,0.8,1.1,1,1.6c0.1,0.2,0.3,0.5,0.4,0.7c0.3,0,0.5,0,0.7-0.1c0.6-0.1,1.1-0.2,1.6-0.4c0.3-0.1,0.5-0.2,0.7-0.3
				c0.3-0.2,0.5-0.4,0.6-0.6C130.6,97,130.6,97,130.6,96.9z"/>
			<path class="st0" d="M131.7,87.8c0.7,0.2,1.3,0.6,1.7,1.3c0.5,0.8,0.5,1.7,0.2,2.8c-0.1,0.5-0.4,1.1-0.8,1.8
				c-0.4,0.6-0.7,1-1,1.2l-1.8-1.2c0.4-0.3,0.8-0.7,1.1-1.2c0.3-0.4,0.4-0.8,0.5-1.1c0.1-0.3,0.1-0.6,0-0.8
				c-0.1-0.4-0.2-0.6-0.5-0.6c-0.4-0.1-0.7,0.1-0.9,0.6c-0.3,0.5-0.5,1-0.7,1.5c-0.3,0.5-0.7,0.8-1.2,0.9c-0.5,0.2-1,0.2-1.5,0.1
				c-0.7-0.2-1.2-0.6-1.5-1.1c-0.4-0.7-0.5-1.5-0.3-2.5c0.1-0.4,0.3-0.8,0.5-1.1c0.2-0.2,0.4-0.6,0.8-1l1.5,1.2l-0.6,0.8
				c-0.1,0.2-0.3,0.5-0.3,0.8c-0.1,0.3-0.1,0.6,0,0.7c0.1,0.2,0.2,0.3,0.4,0.3c0.4,0.1,0.7-0.2,1-0.9c0.2-0.5,0.5-1,0.7-1.3
				c0.3-0.5,0.8-0.8,1.2-1C130.7,87.7,131.2,87.7,131.7,87.8z"/>
		</g>
		<path id="SVGID_x5F_1_x5F_" class="st1" d="M121.1,68.3c6.2,24.1-8.3,48.7-32.5,54.9c-24.1,6.2-48.7-8.3-54.9-32.5
			S42,42,66.1,35.8S114.9,44.2,121.1,68.3z"/>
		<text>		<textPath  xlink:href="#SVGID_x5F_1_x5F_" startOffset="8166.4014%">
<tspan  class="st0" style="font-family:'NaturallyWonderful-heavy'; font-size:20px; letter-spacing:70;">passport </tspan>		</textPath>
</text>
		<path class="st0" d="M86.7,159.8c-0.9,0-1.7,0.7-2.7,0.8c-1,0.1-2.2-0.3-3.4-0.1c-3.2,0.3-5,1-7,0.3c-0.7,0.4-0.8,1.3-1.9,1.5
			c-1.2-0.4-2-1.4-3.4-1.5c-2.8,1.1-3.1-1.4-5.5-0.8c-0.1,0.7-0.4,1.3-0.1,2.2c0.6,0.6,2,0.1,2.9,0.2c0.8,0.4,2,1.1,2.8,1.1
			c2.1,0,4.2,0.5,5.7,0.5c3.1,0.1,7.4-1,10.5-1c2.4,0,4.6-0.8,7.1-1.1c-0.1-0.7,0.7-0.7,0.5-1.5C90.6,160.9,88.8,159.7,86.7,159.8z"
			/>
		<path class="st0" d="M93.6,161.4c2.3,0.6,2.8-1.8,4.9-2.1c1.1-0.3,1.1,1,2.1,0.7c0.5-0.8,0.9-1.5,0.9-2.6
			C98.5,157,92.9,158.1,93.6,161.4z"/>
		<path class="st0" d="M113.5,151.8c-0.7,0.9,1.1,0.9,0.4,1.8c-4.5-0.7-8,1.1-12,3.2c0.5,0.5,0.5,1.8,1,2.2c3.2-0.4,4.9-2.1,8.4-2.8
			c1.4-1.3,4.9-1.4,4.9-3.7C115.1,152.7,114.9,151.4,113.5,151.8z"/>
		<path class="st0" d="M62.3,161.6c-1-1.9-2.7-2.6-4.8-1.2C58.2,162,60.6,162.7,62.3,161.6z"/>
		<path class="st0" d="M125.2,147c-0.2,0.7,0.9,0.8,0.2,1c-1.2-0.2-1.8-1.2-3.1-1.3c-0.5,0.6-1.5,1-1.6,1.9c1.2,0.4,2.7,0.4,4.3,0.2
			c0.4-0.8,1.7-1.1,1.8-2C126.2,147.1,125.6,147.3,125.2,147z"/>
		<path class="st0" d="M118.7,150.8c-0.8-0.1-1.5-0.4-2.3-0.4c0.5,1.6,1.9,3.1,3.7,1.7c-0.1-1.3,0.9-2-0.3-2.9
			C119.3,149.6,119.3,150.4,118.7,150.8z"/>
	</g>
</g>
</svg>
