<?xml version="1.0" encoding="utf-8"?>
<!-- Generator: Adobe Illustrator 27.0.0, SVG Export Plug-In . SVG Version: 6.00 Build 0)  -->
<svg version="1.1" id="Layer_1" xmlns="http://www.w3.org/2000/svg" xmlns:xlink="http://www.w3.org/1999/xlink" x="0px" y="0px"
	 viewBox="0 0 290.7 76" style="enable-background:new 0 0 290.7 76;" xml:space="preserve">
<style type="text/css">
	.st0{fill:#C15728;}
	.st1{fill:#3C1510;}
</style>
<g>
	<path class="st0" d="M121.6,36.3h-11.7v27.8H101V36.5H89.5v-7.8h32.1L121.6,36.3L121.6,36.3z"/>
	<path class="st0" d="M158.7,58.8l-3.1,6.9h-0.5c-0.1,0-0.3-0.1-0.5-0.1c-0.3,0-0.5-0.1-0.6-0.1c-1.3-0.2-2.2-0.4-2.5-0.6
		c-1-0.4-2.4-1.4-4.3-3c-1.1-0.9-1.9-1.6-2.4-2.1s-1-1-1.4-1.5c-0.8-0.8-1.5-1.6-2.1-2.4c-0.4-0.4-0.7-0.9-1-1.3
		c-0.6,0.2-1,0.4-1.4,0.5c-1.2,0.4-2.4,0.6-3.6,0.6v8.1H127V29.9c1-0.5,2.9-0.9,5.8-1.4s5-0.6,6.4-0.6c4.6,0,8.4,0.9,11.5,2.7
		c3.6,2.1,5.4,5.2,5.4,9.2c0,2.3-0.7,4.5-2,6.4c-1.2,1.7-3,3.4-5.5,5c2.7,3.1,4.1,4.7,4.5,5C154.7,58,156.7,58.8,158.7,58.8z
		 M147.2,39.9c0-1.2-0.7-2.2-2-2.7c-1.3-0.6-2.8-0.9-4.4-0.9c-1.5,0-2.6,0.1-3.4,0.3c-0.8,0.2-1.4,0.5-1.8,0.8v9.5
		c3.2-0.4,5.8-1.3,7.8-2.5C145.9,42.9,147.2,41.4,147.2,39.9z"/>
	<path class="st0" d="M214.8,63.9h-8.3V28.6h8.3V63.9z"/>
	<path class="st0" d="M251.8,63.9h-26.7v-35h8.9v27.4h17.4L251.8,63.9z"/>
	<path class="st0" d="M284.3,52.7c0,3.2-1.1,5.9-3.4,8.3c-2.7,2.7-6.3,4-11,4c-2.3,0-5-0.5-8-1.4s-5-1.9-5.8-2.8l3.1-8.6
		c1.8,1.3,3.7,2.4,5.9,3.1c1.8,0.6,3.6,0.9,5.1,0.9c1.2,0,2.4-0.3,3.4-0.8c1.4-0.7,2-1.6,2-2.7c0-1.6-1.2-2.6-3.6-3
		c-2.4-0.5-4.7-0.9-7-1.4c-2.2-0.8-3.9-2.2-5.2-4c-1.2-1.8-1.9-3.8-1.9-5.9c0-2.9,1-5.3,3-7.5c2.4-2.5,5.7-3.8,9.9-3.8
		c1.9,0,3.6,0.2,5.1,0.7c1.2,0.4,2.8,1.1,4.9,2.2l-3.1,7.5l-3.9-1.7c-1-0.4-2.2-0.5-3.6-0.5s-2.3,0.2-2.9,0.7s-0.8,1.2-0.8,2
		c0,1.6,1.6,2.7,4.9,3.1c2.5,0.4,4.4,0.8,5.8,1.4c2.3,0.9,4,2.2,5.2,3.9C283.7,48.2,284.3,50.3,284.3,52.7z"/>
</g>
<path class="st0" d="M192.6,64.9h9.7c0,0-11.5-30-19.1-37.8c0,0-8.2,6.4-20.1,37.8h10.5c0,0,1.5,0.1,2.9-2.5
	c1.4-2.5,1.8-4.6-0.2-12.2s2.9-10.5,7.5-11.4l1.1-0.2c0,0-3.3,1.4-3.5,4.2c-0.3,2.8,1.2,4.4,4.5,7.7S192.1,57.6,192.6,64.9z"/>
<g>
	<path class="st1" d="M40.7,65.1L18.5,43.5c-0.4,2.9-0.8,6.2-1.2,10.1c-0.3,3.8-0.5,7.2-0.5,10.1H8l0.6-9c0.4-5.6,0.9-10.4,1.6-14.3
		c0.9-5.6,2.1-9.9,3.5-13L32.3,45V28h8.5L40.7,65.1L40.7,65.1z"/>
	<path class="st1" d="M80.4,59.8c-2.3,1.1-4.6,2.2-6.9,3.2c-2.7,0.9-5.5,1.3-8.2,1.3c-5.2,0-9.6-2-13.4-6c-3.6-3.8-5.4-8.1-5.4-12.9
		c0-5.3,1.9-9.9,5.8-13.6c3.9-3.8,8.3-5.6,13.3-5.6c2.6,0,5.2,0.6,7.9,1.9c2.2,1.1,4,2.3,5.4,3.7L74,38.7L70.3,36
		c-1.7-0.9-3.3-1.3-4.9-1.3c-2.6,0-5.1,1-7.2,3.1c-2.2,2.1-3.3,4.6-3.3,7.6c0,2.6,0.9,4.9,2.6,6.9c2,2.4,4.8,3.5,8.4,3.5
		c1.7,0,3.3-0.2,4.7-0.5c2.3-0.6,4.7-1.8,7.3-3.5L80.4,59.8z"/>
</g>
<g>
	<path class="st1" d="M13.1,13.7c0.6,0,1.2,0.2,1.7,0.6v-2.4c0-0.1,0-0.3,0.1-0.4c0.1-0.1,0.2-0.1,0.4-0.1c0.1,0,0.3,0,0.4,0.1
		c0.1,0.1,0.1,0.2,0.1,0.4v4.6c0,0.8-0.3,1.4-0.8,1.9c-0.5,0.5-1.2,0.8-1.9,0.8c-0.8,0-1.4-0.3-1.9-0.8s-0.8-1.2-0.8-1.9
		c0-0.8,0.3-1.4,0.8-1.9S12.3,13.7,13.1,13.7z M14.8,16.4c0-0.2,0-0.5-0.1-0.7c-0.1-0.2-0.2-0.4-0.4-0.5s-0.3-0.3-0.5-0.4
		s-0.4-0.1-0.7-0.1c-0.2,0-0.5,0-0.7,0.1S12,15,11.9,15.2c-0.2,0.2-0.3,0.3-0.4,0.5s-0.1,0.4-0.1,0.7s0,0.5,0.1,0.7s0.2,0.4,0.4,0.5
		c0.2,0.2,0.3,0.3,0.5,0.4s0.4,0.1,0.7,0.1c0.2,0,0.5,0,0.7-0.1s0.4-0.2,0.5-0.4s0.3-0.3,0.4-0.5C14.8,16.9,14.8,16.6,14.8,16.4z"/>
	<path class="st1" d="M18.5,12.7c0,0.2-0.1,0.3-0.2,0.4s-0.3,0.2-0.4,0.2s-0.3-0.1-0.4-0.2s-0.2-0.3-0.2-0.4s0.1-0.3,0.2-0.4
		s0.3-0.2,0.4-0.2s0.3,0.1,0.4,0.2S18.5,12.5,18.5,12.7z M17.4,18.6v-4.4c0-0.1,0-0.3,0.1-0.4c0.1-0.1,0.2-0.1,0.4-0.1
		s0.3,0,0.4,0.1c0.1,0.1,0.2,0.2,0.2,0.4v4.4c0,0.1-0.1,0.3-0.2,0.4c-0.1,0.1-0.2,0.1-0.4,0.1s-0.3,0-0.4-0.1
		C17.4,18.9,17.4,18.8,17.4,18.6z"/>
	<path class="st1" d="M22.5,19.1c-0.2,0-0.4-0.1-0.4-0.3L20,14.4c0-0.1,0-0.1,0-0.2s0-0.1,0-0.2s0.1-0.1,0.1-0.2
		c0,0,0.1-0.1,0.2-0.1s0.1,0,0.2,0c0.1,0,0.2,0,0.3,0.1c0.1,0,0.1,0.1,0.2,0.2l1.6,3.5l1.6-3.5c0.1-0.2,0.2-0.3,0.4-0.3
		c0.1,0,0.1,0,0.2,0s0.1,0.1,0.2,0.1c0,0,0.1,0.1,0.1,0.2s0,0.1,0,0.2c0,0.1,0,0.1,0,0.2l-2.1,4.5C22.9,19.1,22.7,19.1,22.5,19.1z"
		/>
	<path class="st1" d="M27.7,12.7c0,0.2-0.1,0.3-0.2,0.4s-0.3,0.2-0.4,0.2s-0.3-0.1-0.4-0.2s-0.2-0.3-0.2-0.4s0.1-0.3,0.2-0.4
		s0.3-0.2,0.4-0.2s0.3,0.1,0.4,0.2S27.7,12.5,27.7,12.7z M26.6,18.6v-4.4c0-0.1,0-0.3,0.1-0.4c0.1-0.1,0.2-0.1,0.4-0.1
		s0.3,0,0.4,0.1c0.1,0.1,0.2,0.2,0.2,0.4v4.4c0,0.1-0.1,0.3-0.2,0.4c-0.1,0.1-0.2,0.1-0.4,0.1s-0.3,0-0.4-0.1
		C26.6,18.9,26.6,18.8,26.6,18.6z"/>
	<path class="st1" d="M30.1,16.5c-0.3-0.1-0.5-0.2-0.6-0.4h0c-0.2-0.3-0.4-0.5-0.4-0.9c0-0.2,0.1-0.5,0.2-0.7
		c0.1-0.2,0.3-0.4,0.5-0.5s0.5-0.2,0.7-0.3c0.3-0.1,0.5-0.1,0.8-0.1c0.8,0,1.5,0.3,2.1,1c0.1,0.1,0.1,0.2,0.1,0.3
		c0,0.1,0,0.3-0.1,0.4c-0.1,0.1-0.2,0.1-0.4,0.1c-0.1,0-0.2,0-0.3-0.1s-0.1-0.1-0.2-0.2c-0.3-0.3-0.7-0.5-1.2-0.5
		c-0.5,0-0.8,0.1-1.1,0.4c-0.1,0.1-0.1,0.1-0.1,0.2s0,0.2,0.1,0.2l2.3,0.8c0.3,0.1,0.5,0.2,0.6,0.4h0c0.2,0.3,0.4,0.5,0.4,0.9
		c0,0.3-0.1,0.5-0.2,0.7s-0.3,0.4-0.5,0.5c-0.2,0.1-0.4,0.2-0.7,0.3c-0.3,0.1-0.5,0.1-0.8,0.1c-0.8,0-1.5-0.3-2.1-1
		c-0.1-0.1-0.1-0.2-0.1-0.3c0-0.1,0-0.3,0.1-0.4c0.1-0.1,0.2-0.1,0.4-0.1c0.1,0,0.2,0,0.3,0.1c0.1,0.1,0.1,0.1,0.2,0.2
		c0.3,0.3,0.7,0.5,1.2,0.5c0.5,0,0.8-0.1,1.1-0.4c0-0.1,0.1-0.1,0.1-0.2c0-0.1,0-0.2-0.1-0.2L30.1,16.5z"/>
	<path class="st1" d="M36.2,12.7c0,0.2-0.1,0.3-0.2,0.4s-0.3,0.2-0.4,0.2s-0.3-0.1-0.4-0.2S35,12.9,35,12.7s0.1-0.3,0.2-0.4
		s0.3-0.2,0.4-0.2s0.3,0.1,0.4,0.2S36.2,12.5,36.2,12.7z M35.1,18.6v-4.4c0-0.1,0-0.3,0.1-0.4c0.1-0.1,0.2-0.1,0.4-0.1
		s0.3,0,0.4,0.1c0.1,0.1,0.2,0.2,0.2,0.4v4.4c0,0.1-0.1,0.3-0.2,0.4c-0.1,0.1-0.2,0.1-0.4,0.1s-0.3,0-0.4-0.1
		C35.2,18.9,35.1,18.8,35.1,18.6z"/>
	<path class="st1" d="M43.1,16.4c0,0.8-0.3,1.4-0.8,1.9c-0.5,0.5-1.2,0.8-1.9,0.8c-0.8,0-1.4-0.3-1.9-0.8s-0.8-1.2-0.8-1.9
		c0-0.8,0.3-1.4,0.8-1.9s1.2-0.8,1.9-0.8c0.7,0,1.4,0.3,1.9,0.8c0.3,0.3,0.5,0.6,0.6,0.9S43.1,16,43.1,16.4z M40.4,14.7
		c-0.2,0-0.5,0-0.7,0.1s-0.4,0.2-0.5,0.4c-0.2,0.2-0.3,0.3-0.4,0.5s-0.1,0.4-0.1,0.7s0,0.5,0.1,0.7s0.2,0.4,0.4,0.5
		c0.2,0.2,0.3,0.3,0.5,0.4s0.4,0.1,0.7,0.1c0.2,0,0.5,0,0.7-0.1s0.4-0.2,0.5-0.4s0.3-0.3,0.4-0.5c0.1-0.2,0.1-0.4,0.1-0.7
		s0-0.5-0.1-0.7c-0.1-0.2-0.2-0.4-0.4-0.5s-0.3-0.3-0.5-0.4S40.6,14.7,40.4,14.7z"/>
	<path class="st1" d="M45.4,14.2c0.4-0.3,0.9-0.5,1.5-0.5c0.3,0,0.7,0.1,1,0.2c0.3,0.1,0.6,0.3,0.8,0.5c0.2,0.2,0.4,0.5,0.6,0.8
		c0.1,0.3,0.2,0.6,0.2,1v2.4c0,0.1,0,0.3-0.1,0.4c-0.1,0.1-0.2,0.1-0.4,0.1c-0.1,0-0.3,0-0.4-0.1c-0.1-0.1-0.1-0.2-0.1-0.4v-2.4
		c0-0.2,0-0.4-0.1-0.6s-0.2-0.3-0.3-0.5c-0.1-0.1-0.3-0.2-0.5-0.3s-0.4-0.1-0.6-0.1c-0.2,0-0.4,0-0.6,0.1c-0.2,0.1-0.3,0.2-0.5,0.3
		s-0.2,0.3-0.3,0.5s-0.1,0.4-0.1,0.6v2.4c0,0.1,0,0.3-0.1,0.4c-0.1,0.1-0.2,0.1-0.4,0.1c-0.1,0-0.3,0-0.4-0.1
		c-0.1-0.1-0.1-0.2-0.1-0.4v-4.4c0-0.1,0-0.3,0.1-0.4s0.2-0.2,0.4-0.2c0.1,0,0.3,0.1,0.4,0.2S45.4,14,45.4,14.2z"/>
	<path class="st1" d="M59.7,16.4c0,0.8-0.3,1.4-0.8,1.9c-0.5,0.5-1.2,0.8-1.9,0.8c-0.8,0-1.4-0.3-1.9-0.8s-0.8-1.2-0.8-1.9
		c0-0.8,0.3-1.4,0.8-1.9s1.2-0.8,1.9-0.8c0.7,0,1.4,0.3,1.9,0.8c0.3,0.3,0.5,0.6,0.6,0.9C59.6,15.7,59.7,16,59.7,16.4z M56.9,14.7
		c-0.2,0-0.5,0-0.7,0.1s-0.4,0.2-0.5,0.4c-0.2,0.2-0.3,0.3-0.4,0.5c-0.1,0.2-0.1,0.4-0.1,0.7s0,0.5,0.1,0.7c0.1,0.2,0.2,0.4,0.4,0.5
		c0.2,0.2,0.3,0.3,0.5,0.4s0.4,0.1,0.7,0.1c0.2,0,0.5,0,0.7-0.1s0.4-0.2,0.5-0.4c0.2-0.2,0.3-0.3,0.4-0.5c0.1-0.2,0.1-0.4,0.1-0.7
		s0-0.5-0.1-0.7c-0.1-0.2-0.2-0.4-0.4-0.5c-0.2-0.2-0.3-0.3-0.5-0.4S57.2,14.7,56.9,14.7z"/>
	<path class="st1" d="M64,12.4c-0.9,0-1.3,0.4-1.3,1.3V14h1c0.1,0,0.3,0,0.4,0.1c0.1,0.1,0.1,0.2,0.1,0.4c0,0.1,0,0.3-0.1,0.4
		c-0.1,0.1-0.2,0.1-0.4,0.1h-1v3.7c0,0.1,0,0.1,0,0.2s-0.1,0.1-0.1,0.2c0,0-0.1,0.1-0.2,0.1s-0.1,0-0.2,0s-0.1,0-0.2,0
		S61.8,19,61.8,19c0,0-0.1-0.1-0.1-0.2s0-0.1,0-0.2V15h-0.2c-0.1,0-0.3,0-0.4-0.1c-0.1-0.1-0.1-0.2-0.1-0.4s0-0.3,0.1-0.4
		c0.1-0.1,0.2-0.1,0.4-0.1h0.2v-0.3c0-1.6,0.8-2.4,2.4-2.4c0.1,0,0.3,0,0.4,0.1c0.1,0.1,0.1,0.2,0.1,0.4c0,0.1,0,0.3-0.1,0.4
		C64.3,12.3,64.1,12.4,64,12.4z"/>
	<path class="st1" d="M71.5,19.1c-0.7,0-1.2-0.2-1.7-0.6V21c0,0.1,0,0.3-0.1,0.4c-0.1,0.1-0.2,0.1-0.4,0.1c-0.1,0-0.3,0-0.4-0.1
		c-0.1-0.1-0.1-0.2-0.1-0.4v-4.6c0-0.8,0.3-1.4,0.8-1.9s1.2-0.8,1.9-0.8c0.7,0,1.4,0.3,1.9,0.8c0.3,0.3,0.5,0.6,0.6,0.9
		c0.1,0.3,0.2,0.7,0.2,1.1c0,0.8-0.3,1.4-0.8,1.9c-0.3,0.3-0.6,0.5-0.9,0.6C72.3,19.1,71.9,19.1,71.5,19.1z M69.8,16.4
		c0,0.2,0,0.5,0.1,0.7c0.1,0.2,0.2,0.4,0.4,0.5c0.2,0.2,0.3,0.3,0.5,0.4s0.4,0.1,0.7,0.1c0.2,0,0.5,0,0.7-0.1s0.4-0.2,0.5-0.4
		c0.2-0.2,0.3-0.3,0.4-0.5c0.1-0.2,0.1-0.4,0.1-0.7s0-0.5-0.1-0.7c-0.1-0.2-0.2-0.4-0.4-0.5c-0.2-0.2-0.3-0.3-0.5-0.4
		s-0.4-0.1-0.7-0.1c-0.2,0-0.5,0-0.7,0.1s-0.4,0.2-0.5,0.4c-0.2,0.2-0.3,0.3-0.4,0.5C69.9,16,69.8,16.2,69.8,16.4z"/>
	<path class="st1" d="M80,18.6L80,18.6c-0.2,0.1-0.5,0.2-0.8,0.4s-0.6,0.2-0.9,0.2c-0.8,0-1.4-0.3-1.9-0.8s-0.8-1.2-0.8-1.9
		c0-0.8,0.3-1.4,0.8-1.9s1.2-0.8,1.9-0.8c0.7,0,1.4,0.3,1.9,0.8c0.5,0.5,0.8,1.2,0.8,1.9v2.2c0,0.1,0,0.3-0.1,0.4
		c-0.1,0.1-0.2,0.1-0.4,0.1c-0.1,0-0.3,0-0.4-0.1C80,18.9,80,18.8,80,18.6z M78.3,14.7c-0.2,0-0.5,0-0.7,0.1s-0.4,0.2-0.5,0.4
		c-0.2,0.2-0.3,0.3-0.4,0.5c-0.1,0.2-0.1,0.4-0.1,0.7s0,0.5,0.1,0.7c0.1,0.2,0.2,0.4,0.4,0.5c0.2,0.2,0.3,0.3,0.5,0.4
		s0.4,0.1,0.7,0.1c0.2,0,0.5,0,0.7-0.1s0.4-0.2,0.5-0.4c0.2-0.2,0.3-0.3,0.4-0.5c0.1-0.2,0.1-0.4,0.1-0.7s0-0.5-0.1-0.7
		c-0.1-0.2-0.2-0.4-0.4-0.5c-0.2-0.2-0.3-0.3-0.5-0.4S78.5,14.7,78.3,14.7z"/>
	<path class="st1" d="M83.3,14.2L83.3,14.2c0.2-0.1,0.5-0.2,0.8-0.4s0.6-0.2,0.9-0.2c0.1,0,0.3,0,0.5,0c0.2,0,0.3,0.1,0.5,0.1
		c0.1,0,0.3,0.1,0.3,0.2s0.1,0.2,0.1,0.3c0,0.1,0,0.1,0,0.2c0,0.1-0.1,0.1-0.1,0.2c0,0-0.1,0.1-0.2,0.1s-0.1,0-0.2,0
		c-0.1,0-0.1,0-0.2-0.1c-0.2-0.1-0.4-0.1-0.7-0.1c-0.2,0-0.5,0-0.7,0.1c-0.2,0.1-0.4,0.2-0.5,0.4c-0.2,0.2-0.3,0.3-0.4,0.5
		c-0.1,0.2-0.1,0.4-0.1,0.7v2.2c0,0.1,0,0.3-0.1,0.4c-0.1,0.1-0.2,0.1-0.4,0.1c-0.1,0-0.3,0-0.4-0.1c-0.1-0.1-0.1-0.2-0.1-0.4v-4.5
		c0-0.1,0-0.3,0.1-0.4c0.1-0.1,0.2-0.1,0.4-0.1c0.1,0,0.3,0,0.4,0.1C83.2,13.9,83.3,14,83.3,14.2z"/>
	<path class="st1" d="M87.5,18.6v-6.8c0-0.1,0-0.3,0.1-0.4c0.1-0.1,0.2-0.1,0.4-0.1c0.1,0,0.3,0,0.4,0.1c0.1,0.1,0.1,0.2,0.1,0.4
		v3.8l2.9-1.9c0.1-0.1,0.2-0.1,0.3-0.1c0.1,0,0.1,0,0.2,0s0.1,0.1,0.2,0.1c0,0,0.1,0.1,0.1,0.2c0,0.1,0,0.1,0,0.2
		c0,0.2-0.1,0.3-0.2,0.4l-2,1.3l2.1,2.4c0.1,0.1,0.1,0.2,0.1,0.4c0,0.1,0,0.1,0,0.2c0,0.1-0.1,0.1-0.1,0.2c0,0-0.1,0.1-0.2,0.1
		s-0.1,0-0.2,0c-0.1,0-0.3,0-0.3-0.1l-2.3-2.5l-0.6,0.4v1.8c0,0.1,0,0.3-0.1,0.4c-0.1,0.1-0.2,0.2-0.4,0.2c-0.1,0-0.3-0.1-0.4-0.2
		C87.5,18.9,87.5,18.8,87.5,18.6z"/>
	<path class="st1" d="M94.4,16.5c-0.3-0.1-0.5-0.2-0.6-0.4h0c-0.2-0.3-0.4-0.5-0.4-0.9c0-0.2,0.1-0.5,0.2-0.7
		c0.1-0.2,0.3-0.4,0.5-0.5s0.5-0.2,0.7-0.3c0.3-0.1,0.5-0.1,0.8-0.1c0.8,0,1.5,0.3,2.1,1c0.1,0.1,0.1,0.2,0.1,0.3
		c0,0.1,0,0.3-0.1,0.4c-0.1,0.1-0.2,0.1-0.4,0.1c-0.1,0-0.2,0-0.3-0.1c-0.1-0.1-0.1-0.1-0.2-0.2c-0.3-0.3-0.7-0.5-1.2-0.5
		c-0.5,0-0.8,0.1-1.1,0.4c-0.1,0.1-0.1,0.1-0.1,0.2s0,0.2,0.1,0.2l2.3,0.8c0.3,0.1,0.5,0.2,0.6,0.4h0c0.2,0.3,0.4,0.5,0.4,0.9
		c0,0.3-0.1,0.5-0.2,0.7c-0.1,0.2-0.3,0.4-0.5,0.5C97,18.9,96.7,19,96.5,19s-0.5,0.1-0.8,0.1c-0.8,0-1.5-0.3-2.1-1
		c-0.1-0.1-0.1-0.2-0.1-0.3c0-0.1,0-0.3,0.1-0.4c0.1-0.1,0.2-0.1,0.4-0.1c0.1,0,0.2,0,0.3,0.1c0.1,0.1,0.1,0.1,0.2,0.2
		c0.3,0.3,0.7,0.5,1.2,0.5c0.5,0,0.8-0.1,1.1-0.4c0-0.1,0.1-0.1,0.1-0.2c0-0.1,0-0.2-0.1-0.2L94.4,16.5z"/>
	<path class="st1" d="M107,18.6L107,18.6c-0.2,0.1-0.5,0.2-0.8,0.4s-0.6,0.2-0.9,0.2c-0.8,0-1.4-0.3-1.9-0.8s-0.8-1.2-0.8-1.9
		c0-0.8,0.3-1.4,0.8-1.9s1.2-0.8,1.9-0.8c0.7,0,1.4,0.3,1.9,0.8c0.5,0.5,0.8,1.2,0.8,1.9v2.2c0,0.1,0,0.3-0.1,0.4
		c-0.1,0.1-0.2,0.1-0.4,0.1c-0.1,0-0.3,0-0.4-0.1C107.1,18.9,107,18.8,107,18.6z M105.3,14.7c-0.2,0-0.5,0-0.7,0.1s-0.4,0.2-0.5,0.4
		c-0.2,0.2-0.3,0.3-0.4,0.5c-0.1,0.2-0.1,0.4-0.1,0.7s0,0.5,0.1,0.7c0.1,0.2,0.2,0.4,0.4,0.5c0.2,0.2,0.3,0.3,0.5,0.4
		s0.4,0.1,0.7,0.1c0.2,0,0.5,0,0.7-0.1s0.4-0.2,0.5-0.4c0.2-0.2,0.3-0.3,0.4-0.5c0.1-0.2,0.1-0.4,0.1-0.7s0-0.5-0.1-0.7
		c-0.1-0.2-0.2-0.4-0.4-0.5c-0.2-0.2-0.3-0.3-0.5-0.4S105.5,14.7,105.3,14.7z"/>
	<path class="st1" d="M110.3,14.2c0.4-0.3,0.9-0.5,1.5-0.5c0.3,0,0.7,0.1,1,0.2c0.3,0.1,0.6,0.3,0.8,0.5c0.2,0.2,0.4,0.5,0.6,0.8
		c0.1,0.3,0.2,0.6,0.2,1v2.4c0,0.1,0,0.3-0.1,0.4c-0.1,0.1-0.2,0.1-0.4,0.1c-0.1,0-0.3,0-0.4-0.1c-0.1-0.1-0.1-0.2-0.1-0.4v-2.4
		c0-0.2,0-0.4-0.1-0.6s-0.2-0.3-0.3-0.5c-0.1-0.1-0.3-0.2-0.5-0.3s-0.4-0.1-0.6-0.1c-0.2,0-0.4,0-0.6,0.1c-0.2,0.1-0.3,0.2-0.5,0.3
		s-0.2,0.3-0.3,0.5c-0.1,0.2-0.1,0.4-0.1,0.6v2.4c0,0.1,0,0.3-0.1,0.4c-0.1,0.1-0.2,0.1-0.4,0.1c-0.1,0-0.3,0-0.4-0.1
		c-0.1-0.1-0.1-0.2-0.1-0.4v-4.4c0-0.1,0-0.3,0.1-0.4c0.1-0.1,0.2-0.2,0.4-0.2c0.1,0,0.3,0.1,0.4,0.2
		C110.3,13.9,110.3,14,110.3,14.2z"/>
	<path class="st1" d="M118.4,13.7c0.6,0,1.2,0.2,1.7,0.6v-2.4c0-0.1,0-0.3,0.1-0.4c0.1-0.1,0.2-0.1,0.4-0.1c0.1,0,0.3,0,0.4,0.1
		c0.1,0.1,0.1,0.2,0.1,0.4v4.6c0,0.8-0.3,1.4-0.8,1.9c-0.5,0.5-1.2,0.8-1.9,0.8c-0.8,0-1.4-0.3-1.9-0.8s-0.8-1.2-0.8-1.9
		c0-0.8,0.3-1.4,0.8-1.9S117.6,13.7,118.4,13.7z M120.1,16.4c0-0.2,0-0.5-0.1-0.7c-0.1-0.2-0.2-0.4-0.4-0.5
		c-0.2-0.2-0.3-0.3-0.5-0.4s-0.4-0.1-0.7-0.1c-0.2,0-0.5,0-0.7,0.1c-0.2,0.1-0.4,0.2-0.5,0.4c-0.2,0.2-0.3,0.3-0.4,0.5
		c-0.1,0.2-0.1,0.4-0.1,0.7s0,0.5,0.1,0.7c0.1,0.2,0.2,0.4,0.4,0.5c0.2,0.2,0.3,0.3,0.5,0.4c0.2,0.1,0.4,0.1,0.7,0.1
		c0.2,0,0.5,0,0.7-0.1s0.4-0.2,0.5-0.4c0.2-0.2,0.3-0.3,0.4-0.5C120.1,16.9,120.1,16.6,120.1,16.4z"/>
	<path class="st1" d="M126.8,14.2L126.8,14.2c0.2-0.1,0.5-0.2,0.8-0.4s0.6-0.2,0.9-0.2c0.1,0,0.3,0,0.5,0c0.2,0,0.3,0.1,0.5,0.1
		c0.1,0,0.3,0.1,0.3,0.2s0.1,0.2,0.1,0.3c0,0.1,0,0.1,0,0.2c0,0.1-0.1,0.1-0.1,0.2c0,0-0.1,0.1-0.2,0.1s-0.1,0-0.2,0
		c-0.1,0-0.1,0-0.2-0.1c-0.2-0.1-0.4-0.1-0.7-0.1c-0.2,0-0.5,0-0.7,0.1c-0.2,0.1-0.4,0.2-0.5,0.4c-0.2,0.2-0.3,0.3-0.4,0.5
		c-0.1,0.2-0.1,0.4-0.1,0.7v2.2c0,0.1,0,0.3-0.1,0.4c-0.1,0.1-0.2,0.1-0.4,0.1c-0.1,0-0.3,0-0.4-0.1c-0.1-0.1-0.1-0.2-0.1-0.4v-4.5
		c0-0.1,0-0.3,0.1-0.4c0.1-0.1,0.2-0.1,0.4-0.1c0.1,0,0.3,0,0.4,0.1C126.8,13.9,126.8,14,126.8,14.2z"/>
	<path class="st1" d="M135.2,17.6c0.1,0,0.3,0,0.4,0.1c0.1,0.1,0.1,0.2,0.1,0.4c0,0.1,0,0.3-0.1,0.4c-0.5,0.4-1.1,0.7-1.8,0.7
		c-0.8,0-1.4-0.3-1.9-0.8s-0.8-1.2-0.8-1.9c0-0.8,0.3-1.4,0.8-1.9s1.2-0.8,1.9-0.8c0.7,0,1.4,0.3,1.9,0.8c0.3,0.3,0.5,0.6,0.6,0.9
		c0.1,0.3,0.2,0.7,0.2,1.1c0,0.1,0,0.3-0.1,0.4c-0.1,0.1-0.2,0.1-0.4,0.1h-3.9c0.1,0.2,0.1,0.3,0.2,0.5c0.1,0.1,0.2,0.3,0.4,0.4
		c0.1,0.1,0.3,0.2,0.5,0.2c0.2,0.1,0.4,0.1,0.5,0.1c0.2,0,0.4,0,0.6-0.1s0.3-0.2,0.5-0.3C135,17.7,135.1,17.6,135.2,17.6z
		 M135.4,15.9c-0.1-0.2-0.1-0.3-0.2-0.5c-0.1-0.1-0.2-0.3-0.4-0.4c-0.1-0.1-0.3-0.2-0.5-0.2c-0.2-0.1-0.4-0.1-0.5-0.1
		s-0.4,0-0.5,0.1s-0.3,0.1-0.5,0.2c-0.1,0.1-0.3,0.2-0.4,0.4c-0.1,0.1-0.2,0.3-0.2,0.5H135.4z"/>
	<path class="st1" d="M141.9,17.6c0.1,0,0.3,0,0.4,0.1c0.1,0.1,0.1,0.2,0.1,0.4c0,0.1-0.1,0.3-0.2,0.4c-0.5,0.4-1.1,0.7-1.8,0.7
		c-0.8,0-1.4-0.3-1.9-0.8s-0.8-1.2-0.8-1.9c0-0.8,0.3-1.4,0.8-1.9s1.2-0.8,1.9-0.8c0.7,0,1.3,0.2,1.8,0.7c0.1,0.1,0.2,0.2,0.2,0.4
		c0,0.1,0,0.3-0.1,0.4c-0.1,0.1-0.2,0.1-0.4,0.1c-0.1,0-0.2,0-0.3-0.1c-0.2-0.1-0.3-0.2-0.5-0.3s-0.4-0.1-0.6-0.1
		c-0.2,0-0.5,0-0.7,0.1c-0.2,0.1-0.4,0.2-0.5,0.4c-0.2,0.2-0.3,0.3-0.4,0.5c-0.1,0.2-0.1,0.4-0.1,0.7s0,0.5,0.1,0.7
		c0.1,0.2,0.2,0.4,0.4,0.5c0.2,0.2,0.3,0.3,0.5,0.4c0.2,0.1,0.4,0.1,0.7,0.1c0.2,0,0.4,0,0.6-0.1c0.2-0.1,0.4-0.2,0.5-0.3
		C141.7,17.6,141.8,17.6,141.9,17.6z"/>
	<path class="st1" d="M144.8,14.2L144.8,14.2c0.2-0.1,0.5-0.2,0.8-0.4s0.6-0.2,0.9-0.2c0.1,0,0.3,0,0.5,0c0.2,0,0.3,0.1,0.5,0.1
		c0.1,0,0.3,0.1,0.3,0.2s0.1,0.2,0.1,0.3c0,0.1,0,0.1,0,0.2c0,0.1-0.1,0.1-0.1,0.2c0,0-0.1,0.1-0.2,0.1s-0.1,0-0.2,0
		c-0.1,0-0.1,0-0.2-0.1c-0.2-0.1-0.4-0.1-0.7-0.1c-0.2,0-0.5,0-0.7,0.1c-0.2,0.1-0.4,0.2-0.5,0.4c-0.2,0.2-0.3,0.3-0.4,0.5
		c-0.1,0.2-0.1,0.4-0.1,0.7v2.2c0,0.1,0,0.3-0.1,0.4c-0.1,0.1-0.2,0.1-0.4,0.1c-0.1,0-0.3,0-0.4-0.1c-0.1-0.1-0.1-0.2-0.1-0.4v-4.5
		c0-0.1,0-0.3,0.1-0.4c0.1-0.1,0.2-0.1,0.4-0.1c0.1,0,0.3,0,0.4,0.1C144.7,13.9,144.8,14,144.8,14.2z"/>
	<path class="st1" d="M153.1,17.6c0.1,0,0.3,0,0.4,0.1c0.1,0.1,0.1,0.2,0.1,0.4c0,0.1,0,0.3-0.1,0.4c-0.5,0.4-1.1,0.7-1.8,0.7
		c-0.8,0-1.4-0.3-1.9-0.8s-0.8-1.2-0.8-1.9c0-0.8,0.3-1.4,0.8-1.9s1.2-0.8,1.9-0.8c0.7,0,1.4,0.3,1.9,0.8c0.3,0.3,0.5,0.6,0.6,0.9
		c0.1,0.3,0.2,0.7,0.2,1.1c0,0.1,0,0.3-0.1,0.4c-0.1,0.1-0.2,0.1-0.4,0.1H150c0.1,0.2,0.1,0.3,0.2,0.5c0.1,0.1,0.2,0.3,0.4,0.4
		c0.1,0.1,0.3,0.2,0.5,0.2c0.2,0.1,0.4,0.1,0.5,0.1c0.2,0,0.4,0,0.6-0.1s0.3-0.2,0.5-0.3C152.9,17.7,153,17.6,153.1,17.6z
		 M153.3,15.9c-0.1-0.2-0.1-0.3-0.2-0.5c-0.1-0.1-0.2-0.3-0.4-0.4c-0.1-0.1-0.3-0.2-0.5-0.2c-0.2-0.1-0.4-0.1-0.5-0.1
		s-0.4,0-0.5,0.1s-0.3,0.1-0.5,0.2c-0.1,0.1-0.3,0.2-0.4,0.4c-0.1,0.1-0.2,0.3-0.2,0.5H153.3z"/>
	<path class="st1" d="M160.1,18.6L160.1,18.6c-0.2,0.1-0.5,0.2-0.8,0.4s-0.6,0.2-0.9,0.2c-0.8,0-1.4-0.3-1.9-0.8s-0.8-1.2-0.8-1.9
		c0-0.8,0.3-1.4,0.8-1.9s1.2-0.8,1.9-0.8c0.7,0,1.4,0.3,1.9,0.8c0.5,0.5,0.8,1.2,0.8,1.9v2.2c0,0.1,0,0.3-0.1,0.4
		c-0.1,0.1-0.2,0.1-0.4,0.1c-0.1,0-0.3,0-0.4-0.1C160.2,18.9,160.1,18.8,160.1,18.6z M158.4,14.7c-0.2,0-0.5,0-0.7,0.1
		s-0.4,0.2-0.5,0.4c-0.2,0.2-0.3,0.3-0.4,0.5c-0.1,0.2-0.1,0.4-0.1,0.7s0,0.5,0.1,0.7c0.1,0.2,0.2,0.4,0.4,0.5
		c0.2,0.2,0.3,0.3,0.5,0.4s0.4,0.1,0.7,0.1c0.2,0,0.5,0,0.7-0.1s0.4-0.2,0.5-0.4c0.2-0.2,0.3-0.3,0.4-0.5c0.1-0.2,0.1-0.4,0.1-0.7
		s0-0.5-0.1-0.7c-0.1-0.2-0.2-0.4-0.4-0.5c-0.2-0.2-0.3-0.3-0.5-0.4S158.7,14.7,158.4,14.7z"/>
	<path class="st1" d="M162.9,13.7h0.2v-1.8c0-0.1,0-0.3,0.1-0.4c0.1-0.1,0.2-0.1,0.4-0.1c0.1,0,0.3,0,0.4,0.1
		c0.1,0.1,0.1,0.2,0.1,0.4v1.8h0.6c0.1,0,0.3,0,0.4,0.1c0.1,0.1,0.1,0.2,0.1,0.4c0,0.1,0,0.3-0.1,0.4c-0.1,0.1-0.2,0.1-0.4,0.1h-0.6
		v2.5c0,0.6,0.3,1,1,1c0.1,0,0.3,0,0.4,0.1c0.1,0.1,0.1,0.2,0.1,0.4c0,0.1,0,0.3-0.1,0.4c-0.1,0.1-0.2,0.1-0.4,0.1c-1.3,0-2-0.7-2-2
		v-2.5h-0.2c-0.1,0-0.3,0-0.4-0.1c-0.1-0.1-0.1-0.2-0.1-0.4c0-0.1,0-0.3,0.1-0.4C162.7,13.7,162.8,13.7,162.9,13.7z"/>
	<path class="st1" d="M168.2,12.7c0,0.2-0.1,0.3-0.2,0.4s-0.3,0.2-0.4,0.2s-0.3-0.1-0.4-0.2s-0.2-0.3-0.2-0.4s0.1-0.3,0.2-0.4
		s0.3-0.2,0.4-0.2s0.3,0.1,0.4,0.2S168.2,12.5,168.2,12.7z M167.1,18.6v-4.4c0-0.1,0-0.3,0.1-0.4c0.1-0.1,0.2-0.1,0.4-0.1
		s0.3,0,0.4,0.1c0.1,0.1,0.2,0.2,0.2,0.4v4.4c0,0.1-0.1,0.3-0.2,0.4c-0.1,0.1-0.2,0.1-0.4,0.1s-0.3,0-0.4-0.1
		C167.2,18.9,167.1,18.8,167.1,18.6z"/>
	<path class="st1" d="M175.2,16.4c0,0.8-0.3,1.4-0.8,1.9c-0.5,0.5-1.2,0.8-1.9,0.8c-0.8,0-1.4-0.3-1.9-0.8s-0.8-1.2-0.8-1.9
		c0-0.8,0.3-1.4,0.8-1.9s1.2-0.8,1.9-0.8c0.7,0,1.4,0.3,1.9,0.8c0.3,0.3,0.5,0.6,0.6,0.9C175.1,15.7,175.2,16,175.2,16.4z
		 M172.4,14.7c-0.2,0-0.5,0-0.7,0.1s-0.4,0.2-0.5,0.4c-0.2,0.2-0.3,0.3-0.4,0.5c-0.1,0.2-0.1,0.4-0.1,0.7s0,0.5,0.1,0.7
		c0.1,0.2,0.2,0.4,0.4,0.5c0.2,0.2,0.3,0.3,0.5,0.4s0.4,0.1,0.7,0.1c0.2,0,0.5,0,0.7-0.1s0.4-0.2,0.5-0.4c0.2-0.2,0.3-0.3,0.4-0.5
		c0.1-0.2,0.1-0.4,0.1-0.7s0-0.5-0.1-0.7c-0.1-0.2-0.2-0.4-0.4-0.5c-0.2-0.2-0.3-0.3-0.5-0.4S172.7,14.7,172.4,14.7z"/>
	<path class="st1" d="M177.5,14.2c0.4-0.3,0.9-0.5,1.5-0.5c0.3,0,0.7,0.1,1,0.2c0.3,0.1,0.6,0.3,0.8,0.5c0.2,0.2,0.4,0.5,0.6,0.8
		c0.1,0.3,0.2,0.6,0.2,1v2.4c0,0.1,0,0.3-0.1,0.4c-0.1,0.1-0.2,0.1-0.4,0.1c-0.1,0-0.3,0-0.4-0.1c-0.1-0.1-0.1-0.2-0.1-0.4v-2.4
		c0-0.2,0-0.4-0.1-0.6s-0.2-0.3-0.3-0.5c-0.1-0.1-0.3-0.2-0.5-0.3s-0.4-0.1-0.6-0.1c-0.2,0-0.4,0-0.6,0.1c-0.2,0.1-0.3,0.2-0.5,0.3
		s-0.2,0.3-0.3,0.5c-0.1,0.2-0.1,0.4-0.1,0.6v2.4c0,0.1,0,0.3-0.1,0.4c-0.1,0.1-0.2,0.1-0.4,0.1c-0.1,0-0.3,0-0.4-0.1
		c-0.1-0.1-0.1-0.2-0.1-0.4v-4.4c0-0.1,0-0.3,0.1-0.4c0.1-0.1,0.2-0.2,0.4-0.2c0.1,0,0.3,0.1,0.4,0.2
		C177.4,13.9,177.5,14,177.5,14.2z"/>
</g>
</svg>
