<?xml version="1.0" encoding="utf-8"?>
<!-- Generator: Adobe Illustrator 27.0.0, SVG Export Plug-In . SVG Version: 6.00 Build 0)  -->
<svg version="1.1" id="Layer_1" xmlns="http://www.w3.org/2000/svg" xmlns:xlink="http://www.w3.org/1999/xlink" x="0px" y="0px"
	 viewBox="0 0 36.2 36" style="enable-background:new 0 0 36.2 36;" xml:space="preserve">
<style type="text/css">
	.st0{fill:#2DA649;}
	.st1{fill:#FFFFFF;}
	.st2{fill:#FFFFFF;stroke:#2DA649;stroke-miterlimit:10;}
</style>
<path class="st0" d="M31.9,36c2.4,0,4.3-1.9,4.3-4.3V4.3c0-2.4-1.9-4.3-4.3-4.3H4.5C2.1,0,0.2,1.9,0.2,4.3v27.4
	c0,2.4,1.9,4.3,4.3,4.3H31.9z"/>
<g>
	<path class="st1" d="M35.2,18.5c-4.5,0-9.1,0-13.6,0c-0.8-2.7-2.1-3.9-4.4-3.8c-2,0.1-3.4,1.4-3.9,3.8c-0.4,0-0.7,0-1.1,0
		c-1.6,0-3.2,0-4.8,0c-2,0-3.7-1.2-3.8-3.2c-0.2-2.6-0.2-5.3,0-7.9C3.8,4.5,6,2.9,8.9,2.8c5.7,0,11.5,0,17.2,0
		c0.4,0,0.9,0.1,1.3,0.2c2.4,0.5,4.1,2.6,4.1,5c0,2.8,0,5.6,0,8.4c0,0.3,0,0.6,0,0.9c0.8,0,1.5,0,2.1,0c0.6,0,1.2,0.1,1.6,0.6
		C35.2,18.2,35.2,18.3,35.2,18.5z M12.5,6.1c-1.3,0-2.6,0-3.9,0c-0.8,0-1.2,0.4-1.2,1.1c0,0.5,0,1.1,0,1.6c0,0.7,0.5,1.1,1.2,1.1
		c2.6,0,5.2,0,7.9,0c0.7,0,1.1-0.4,1.2-1.2c0-0.4,0-0.8,0-1.2c0-1.1-0.3-1.4-1.4-1.5C15,6.1,13.8,6.1,12.5,6.1z M25.4,6.1
		c-0.6,0-1.1,0-1.7,0c-0.1,0-0.1,0-0.2,0c-0.7,0.1-1,0.4-1.1,1.1c0,0.5,0,1,0,1.6c0,0.8,0.4,1.2,1.3,1.2c1.1,0,2.2,0,3.3,0
		c0.7,0,1.3-0.3,1.3-1c0-0.9,0.5-2.1-0.6-2.8c-0.2-0.1-0.5-0.1-0.7-0.1C26.4,6.1,25.9,6.1,25.4,6.1z"/>
	<path class="st1" d="M17.5,21.6c-1.6,0-3-1.3-3-2.9c0-1.6,1.3-3,3-3c1.6,0,2.9,1.3,2.9,2.9C20.4,20.3,19.1,21.6,17.5,21.6z
		 M17.5,20c0.7,0,1.2-0.6,1.2-1.3c0-0.7-0.6-1.3-1.3-1.2c-0.7,0-1.2,0.6-1.2,1.3C16.2,19.4,16.8,20,17.5,20z"/>
	<path class="st0" d="M12.5,6.1c1.2,0,2.4,0,3.7,0c1.1,0,1.4,0.3,1.4,1.5c0,0.4,0,0.8,0,1.2c0,0.8-0.4,1.2-1.2,1.2
		c-2.6,0-5.2,0-7.9,0c-0.7,0-1.1-0.4-1.2-1.1c0-0.5,0-1.1,0-1.6c0-0.8,0.4-1.1,1.2-1.1C9.9,6.1,11.2,6.1,12.5,6.1z"/>
	<path class="st0" d="M25.4,6.1c0.5,0,1,0,1.6,0c0.2,0,0.5,0,0.7,0.1c1.1,0.7,0.6,1.8,0.6,2.8c0,0.7-0.6,1-1.3,1c-1.1,0-2.2,0-3.3,0
		c-0.8,0-1.2-0.4-1.3-1.2c0-0.5,0-1,0-1.6c0-0.7,0.4-1,1.1-1.1c0.1,0,0.1,0,0.2,0C24.3,6.1,24.8,6.1,25.4,6.1z"/>
	<path class="st0" d="M17.5,20c-0.7,0-1.3-0.6-1.3-1.2c0-0.7,0.5-1.3,1.2-1.3c0.7,0,1.3,0.5,1.3,1.2C18.7,19.4,18.2,20,17.5,20z"/>
</g>
<path class="st2" d="M11.5,16.3c0,0.4,0.2,0.7,0.3,1c0.3,0.6,0.6,1.2,1,1.8c0.6,1,1.3,2,2,3.1c0.5,0.8,1,1.6,1.4,2.4
	c0.4,0.8,0.7,1.5,0.8,2.4c0.2,1.2,0.2,2.3-0.3,3.4c-0.4,1-1.1,1.8-2,2.4c-1,0.7-2.2,1-3.4,1c-1.2,0-2.4-0.4-3.3-1.2
	c-1.1-0.9-1.8-2.1-2-3.5c-0.1-0.9,0-1.9,0.3-2.8c0.3-1.1,0.8-2,1.4-3c0.8-1.2,1.5-2.4,2.3-3.6c0.5-0.8,1-1.6,1.3-2.5
	C11.3,16.9,11.4,16.6,11.5,16.3C11.5,16.4,11.5,16.3,11.5,16.3z"/>
<path class="st0" d="M10.8,32.2c0,0,0.1,0,0.1,0c0.3,0,0.5-0.2,0.5-0.4c0-0.3-0.2-0.5-0.4-0.5c-0.1,0-0.1,0-0.2,0
	c-0.7,0-1.3-0.3-1.8-0.8c-0.6-0.5-0.9-1.2-0.9-2c0-0.1,0-0.2,0-0.3C8,28,7.7,27.9,7.5,27.9c-0.2,0-0.4,0.2-0.4,0.5
	c0,0.3,0,0.5,0.1,0.8C7.5,30.9,9.1,32.2,10.8,32.2z"/>
<path class="st2" d="M3,26.2c-0.5-0.2-0.6-0.7-0.4-1.1c0.5-1.3,1-2.6,1.6-3.9c0.4-0.9,0.7-1.9,1.1-2.8c0-0.1,0-0.1,0.1-0.2
	c-0.3,0-0.7,0-1,0c-0.9,0-1.8,0-2.7,0c-0.3,0-0.6-0.1-0.9-0.3c-0.2-0.3-0.3-0.6-0.2-1c0.2-0.4,0.3-0.7,0.5-1.1c0.5-1,0.9-2,1.4-2.9
	c0.4-0.8,0.8-1.7,1.2-2.5c0.5-1.1,1-2.2,1.6-3.2c0.2-0.3,0.3-0.7,0.5-1c0.3-0.5,0.8-0.8,1.4-0.8c1.6,0,3.2,0,4.8,0
	c0.6,0,1,0.3,1.1,0.9c0,0.3-0.1,0.5-0.2,0.7c-0.9,1.6-1.8,3.2-2.7,4.7c-0.3,0.6-0.6,1.1-1,1.7c0.1,0,0.1,0,0.2,0c0.8,0,1.7,0,2.5,0
	c0.3,0,0.6,0.1,0.8,0.3c0.3,0.3,0.3,0.8,0.1,1.2c-0.6,0.8-1.2,1.6-1.9,2.4c-0.7,0.9-1.4,1.8-2.2,2.7c-0.5,0.7-1,1.3-1.6,2
	c-0.5,0.6-1,1.3-1.5,1.9c-0.6,0.8-1.2,1.5-1.8,2.3c-0.1,0.2-0.3,0.3-0.5,0.4C3.2,26.2,3.1,26.2,3,26.2z"/>
</svg>
