<svg width="93" height="80" viewBox="0 0 93 80" fill="none" xmlns="http://www.w3.org/2000/svg">
<path d="M49.4501 6.88641C49.7526 7.03768 50.2064 7.34024 50.509 7.49151C51.114 8.0966 51.5679 8.70168 52.1729 9.30676L52.3242 9.45802C53.2318 9.45802 53.9882 9.91184 54.8958 9.91184C55.1984 10.0631 55.5009 10.2144 55.6522 10.3657C56.2573 10.9707 56.8624 11.7271 57.4674 12.3322L57.6187 12.4835C58.5263 12.6347 59.2827 12.786 60.1903 12.9373C60.4929 13.0885 60.7954 13.2398 60.9467 13.3911C60.9467 13.6936 61.2492 13.6936 61.5518 13.9962C64.4259 16.4165 64.4259 21.106 61.5518 23.375C60.7954 22.6187 59.8878 22.0136 58.6776 22.1648C58.3751 21.2572 57.6187 20.6521 56.7111 20.5009C55.1984 20.1983 53.3831 20.9547 52.6268 22.3161C52.1729 22.9212 51.8704 23.5263 51.7191 24.2826C51.114 26.2492 51.114 28.0644 52.0217 29.7284C52.778 31.0899 54.1395 31.5437 55.6522 31.2411C56.7111 30.9386 57.3162 30.3335 58.0725 29.7284C57.9213 31.2411 57.1649 32.4513 56.106 33.3589C55.9547 33.2077 55.6522 33.2077 55.5009 33.0564C54.442 32.4513 53.3831 31.8462 52.3242 31.2411C51.114 30.6361 49.9039 30.031 48.845 29.1233C49.2988 28.5182 49.4501 27.9132 49.7526 27.3081C50.2064 25.9466 50.2064 24.5852 49.1475 23.375C48.9962 23.2238 48.845 23.0725 48.9962 22.7699C49.6013 22.3161 50.3577 22.4674 50.9628 22.1648C52.6268 21.1059 53.8369 19.5932 53.9882 17.4754C54.5933 17.4754 54.8958 17.0216 55.3496 16.7191C56.4085 15.9627 57.0136 14.9038 57.0136 13.5424C56.8624 11.8784 55.8035 10.8195 54.2907 10.3657C51.7191 9.6093 49.2988 9.91184 47.3323 11.7271C46.1221 12.1809 45.0632 12.6347 44.3068 13.8449C43.7017 14.7525 43.0967 15.6602 42.9454 16.8703C42.7941 18.3831 43.5505 19.5932 44.4581 20.6521C44.9119 21.2572 45.6683 21.5598 46.1221 22.0136C45.9708 22.1648 45.9708 22.1648 45.8195 22.3161C44.1556 22.7699 42.9454 23.6776 41.8865 24.8877C40.9789 24.2827 40.0712 23.8288 39.1636 23.2237C39.6174 22.4674 39.9199 21.711 40.2225 20.9547C40.8276 18.2318 38.8611 16.114 36.1382 16.5678C34.4742 16.8703 33.1127 17.9292 32.0538 19.1394C29.7848 17.778 27.3644 16.5678 25.0953 15.2063C25.2466 14.45 25.3979 13.8449 26.003 13.2398C26.1542 13.3911 26.3055 13.5424 26.3055 13.6936C27.5157 15.3576 30.2386 15.8114 31.7513 14.6013C33.5665 13.0886 33.8691 10.5169 32.3564 8.85295C31.6 7.94532 30.5411 7.64278 29.3309 7.49151C29.4822 7.18897 29.7848 6.88642 30.0873 6.73515C30.5411 6.43261 30.6924 6.13005 30.6924 5.67623C30.9949 1.89444 34.7767 -0.82843 38.5585 0.230471C38.7098 0.230471 39.0123 0.381743 39.1636 0.230471C39.4661 0.381743 39.9199 0.684277 40.2225 0.835548C41.2814 2.34826 42.7941 3.2559 44.7606 3.40717C45.0632 3.55844 45.3657 3.70971 45.517 3.86098C46.1221 4.46607 46.7272 5.07116 47.3323 5.82751C47.3323 5.97879 47.4835 5.9788 47.6348 5.9788C47.9373 6.43261 48.6937 6.88641 49.4501 6.88641ZM42.4916 12.786C43.5505 11.4246 43.3992 8.5504 42.4916 6.88641C42.0377 6.13005 41.5839 5.37369 40.6763 4.91988C38.8611 4.16352 37.1971 5.07116 36.1382 6.58387C35.0793 7.94532 34.7767 9.6093 34.928 11.4246C35.0793 13.2398 35.8356 14.6013 37.4996 15.3576C38.5585 15.8114 39.6174 15.9627 40.6763 15.0551C41.2814 14.6013 41.7352 13.8449 42.4916 12.786Z" fill="#D3A36C"/>
<path d="M25.2462 13.6939C24.9437 12.635 24.9437 11.5761 25.095 10.3659C25.2462 10.0634 25.3975 9.76082 25.5488 9.45827C26.4564 8.70191 27.364 8.09683 28.5742 7.94556C29.7844 7.94556 30.8433 8.39939 31.5996 9.30701C33.1124 10.971 32.8098 13.5426 30.9946 15.0553C29.4818 16.2655 26.759 15.963 25.5488 14.1477C25.5488 13.9964 25.3975 13.8452 25.2462 13.6939Z" fill="#863590"/>
<path d="M61.4003 26.7031C60.7952 27.1569 60.0388 27.4594 59.2825 27.9133C58.9799 27.9133 58.8287 27.762 58.5261 27.762C57.6185 27.6107 57.0134 27.1569 56.5596 26.4005C56.5596 26.2493 56.5596 26.098 56.257 25.9467C55.9545 24.8878 56.257 23.8289 57.0134 22.9213C57.4672 22.6188 58.0723 22.3162 58.6774 22.1649C59.8876 22.0137 60.7952 22.6188 61.5516 23.3751C61.8541 24.2827 62.0054 25.1904 61.7028 26.098C61.7028 26.2493 61.5516 26.5518 61.4003 26.7031ZM60.1901 25.3416C60.3414 25.0391 60.3414 24.7365 60.0388 24.5853C59.7363 24.434 59.2825 24.1315 58.9799 24.5853C58.6774 24.8878 58.8287 25.3416 59.2825 25.4929C59.585 25.7954 59.8876 25.6442 60.1901 25.3416Z" fill="#863590"/>
<path d="M55.9546 33.3591C56.5597 33.8129 56.4084 34.2667 56.1058 34.8718C54.7444 37.2921 53.383 39.7125 52.0215 42.1328C51.719 42.7379 51.4164 42.7379 50.9626 42.4354C40.5249 36.5358 30.2384 30.7875 19.8007 24.8879C19.0443 24.4341 19.0443 24.2828 19.3469 23.5264C20.557 21.2574 21.9185 18.9883 23.1286 16.7192C23.4312 16.1141 23.7337 15.509 24.4901 15.509C26.7592 16.8705 29.1795 18.0807 31.4486 19.4421C31.4486 19.5934 31.5998 19.7446 31.7511 19.7446C32.6588 20.0472 33.2638 20.501 34.1715 20.9548C34.7766 21.4086 35.3816 21.7112 36.138 22.0137C36.8944 22.6188 37.802 23.0726 38.7096 23.5264C39.6172 24.1315 40.5249 24.5853 41.4325 25.1904C42.3401 25.6442 43.2478 26.2493 44.1554 26.7031C44.7605 27.157 45.3656 27.4595 46.1219 27.762C47.0296 28.2159 47.9372 28.8209 48.6935 29.2748C49.7524 30.1824 50.9626 30.6362 52.1728 31.3925C53.2317 31.9976 54.2906 32.6027 55.3495 33.2078C55.5008 33.2078 55.8033 33.3591 55.9546 33.3591Z" fill="#D4DCDB"/>
<path d="M53.6855 17.6266C53.5342 19.7444 52.324 21.2571 50.66 22.316C50.0549 22.6185 49.2986 22.4673 48.6935 22.9211C48.5422 22.7698 48.5422 22.7698 48.391 22.7698C47.4833 22.9211 46.4244 22.7698 45.5168 22.316C45.063 21.8622 44.3066 21.5596 43.8528 20.9545C42.9452 19.8956 42.3401 18.6855 42.3401 17.1728C42.4914 15.9626 43.0964 15.055 43.7015 14.1473C44.4579 12.9372 45.5168 12.4833 46.727 12.0295C48.5422 11.727 50.2062 12.0295 51.5677 13.2397C52.1727 13.8448 52.6266 14.2986 53.0804 15.055C53.3829 15.9626 53.8367 16.7189 53.6855 17.6266Z" fill="#E62A29"/>
<path d="M42.4912 12.786C41.7348 13.8449 41.281 14.6013 40.5247 15.2064C39.4658 16.114 38.4069 15.8115 37.348 15.5089C35.684 14.7525 34.9276 13.3911 34.7763 11.5759C34.6251 9.7606 35.0789 8.24789 35.9865 6.73518C37.0454 5.22246 38.5581 4.31482 40.5247 5.07118C41.4323 5.37372 42.0374 6.13008 42.3399 7.03771C43.2476 8.55043 43.3988 11.4246 42.4912 12.786ZM39.3145 13.6937C39.7683 12.4835 39.9196 11.2733 40.2221 10.0631C40.3734 9.15552 40.5247 8.24789 40.5247 7.49153C40.5247 6.88645 40.3734 6.43263 39.7683 6.28136C39.1632 6.13008 38.7094 6.43261 38.5581 7.18897C38.5581 7.34024 38.5581 7.34026 38.5581 7.49153C38.2556 9.00425 37.9531 10.3657 37.6505 11.8784C37.4992 12.3322 37.4992 12.786 37.6505 13.3911C37.6505 13.8449 37.9531 14.2988 38.4069 14.2988C38.7094 14.45 39.1632 14.1475 39.3145 13.6937Z" fill="#F4C89C"/>
<path d="M58.6776 22.1649C58.0725 22.3161 57.4674 22.6187 57.0136 22.9212C56.8623 22.3161 56.5598 22.0136 55.9547 22.0136C55.3496 22.0136 55.0471 22.4674 54.8958 22.9212C54.442 24.5852 53.9882 26.4005 53.5344 28.0645C53.3831 28.8208 53.5344 29.4259 54.2907 29.5772C54.8958 29.7284 55.3496 29.4259 55.6522 28.6696C55.9547 27.7619 56.106 26.8543 56.2572 25.9467C56.4085 25.9467 56.4085 26.0979 56.5598 26.4005C57.0136 27.1568 57.6187 27.6106 58.5263 27.7619C58.8289 27.7619 58.9801 27.9132 59.2827 27.9132C59.1314 28.367 58.8289 28.5183 58.5263 28.8208C58.2238 29.1234 57.9212 29.4259 57.9212 29.8797C57.1649 30.3335 56.5598 31.0899 55.5009 31.3924C53.9882 31.695 52.6267 31.2412 51.8704 29.8797C50.9627 28.0644 50.9627 26.2492 51.5678 24.4339C51.8704 23.6776 52.1729 23.0725 52.4755 22.4674C53.2318 21.106 55.0471 20.3496 56.5598 20.6522C57.6187 20.6522 58.375 21.106 58.6776 22.1649Z" fill="#F4C89C"/>
<path d="M34.1715 21.1058C33.4151 20.652 32.6588 20.1982 31.7512 19.8956C31.5999 19.8956 31.4486 19.7444 31.4486 19.5931C32.5075 18.2316 33.869 17.324 35.5329 17.0214C38.2558 16.5676 40.2224 18.6854 39.6173 21.4083C39.466 22.316 39.0122 22.9211 38.5584 23.6774C37.6507 23.2236 36.7431 22.7698 35.9868 22.1647C36.4406 21.5596 36.8944 21.1058 37.4995 20.5007C37.9533 19.8956 37.9533 19.4418 37.4995 18.988C37.0457 18.6854 36.4406 18.6854 35.9868 19.1393C35.3817 19.7444 34.7766 20.5007 34.1715 21.1058Z" fill="#F4C89C"/>
<path d="M45.668 22.4673C46.5756 22.7698 47.4832 23.0724 48.5421 22.9211C48.6934 22.9211 48.6934 22.9211 48.8447 23.0724C48.6934 23.3749 48.8447 23.5262 48.996 23.6775C50.0549 24.8876 50.0548 26.2491 49.601 27.6105C49.4498 28.2156 49.1472 28.8207 48.6934 29.4258C47.7858 28.972 46.8781 28.3669 46.1218 27.9131C46.5756 27.4593 47.1807 26.8542 47.6345 26.4004C48.0883 25.7953 48.2396 25.3415 47.6345 24.8876C47.1807 24.4338 46.5756 24.5851 46.1218 25.0389C45.5167 25.644 44.7603 26.4003 44.1553 27.0054C43.2476 26.5516 42.34 25.9465 41.4324 25.4927C42.4913 24.2825 43.7014 23.3749 45.3654 22.9211C45.3654 22.6186 45.5167 22.6186 45.668 22.4673Z" fill="#F4C89C"/>
<path d="M53.6855 17.6268C53.8368 16.7192 53.383 15.9628 53.2317 15.0552C53.5342 15.0552 53.6855 15.0552 53.9881 14.9039C54.5931 14.7527 55.047 14.2988 54.8957 13.6937C54.7444 13.0887 54.2906 12.7861 53.5342 12.9374C52.9292 13.0887 52.3241 13.0887 51.719 13.2399C50.2063 12.181 48.5423 11.7272 46.8783 12.0298C48.9961 10.2145 51.2652 9.91196 53.8368 10.6683C55.3495 11.1221 56.4084 12.0298 56.5597 13.845C56.7109 15.2065 55.9546 16.1141 54.8957 17.0217C54.5931 17.3243 54.2906 17.6268 53.6855 17.6268Z" fill="#F4C89C"/>
<path d="M35.2303 33.8126C40.5248 36.838 45.8193 39.7122 51.1138 42.7376C51.5676 43.0402 51.5676 43.1914 51.2651 43.494C49.6011 46.6707 47.9371 49.6961 46.1219 52.7216C42.1888 59.3775 38.5583 66.1847 34.7765 72.8407C33.5663 74.9585 31.2973 75.8661 29.0282 75.261C28.5744 75.1097 28.4231 75.261 28.2718 75.7148C27.818 76.925 27.3642 78.1352 26.9104 79.3454C26.7591 79.6479 26.6078 79.7992 26.3053 79.4966C26.154 79.3453 26.0027 79.3454 25.8515 79.1941C17.5315 74.5047 9.2116 69.8153 0.891667 65.2771C0.437852 64.9746 0.437852 64.8233 0.740395 64.3695C1.49675 63.3106 2.25311 62.4029 3.16074 61.344C3.46328 61.0415 3.46328 60.8902 3.16074 60.5877C1.34548 59.075 0.891666 56.3521 2.25311 53.9317C6.0349 47.2758 9.81669 40.4686 13.5985 33.8126C14.6574 31.8461 15.7163 30.0308 16.7752 28.0643C17.3803 27.0054 18.1366 25.9465 18.7417 24.8876C18.893 24.5851 19.0443 24.5851 19.3468 24.7363C19.4981 24.8876 19.8006 25.0389 19.9519 25.0389C24.7926 28.0643 30.0871 30.9385 35.2303 33.8126Z" fill="#575195"/>
<path d="M56.4085 25.9465C56.2573 26.8541 55.9547 27.7618 55.8034 28.6694C55.6522 29.4257 55.1984 29.8795 54.442 29.577C53.8369 29.4257 53.5344 28.9719 53.6856 28.0643C54.1395 26.4003 54.5933 24.5851 55.0471 22.9211C55.1984 22.316 55.5009 22.0134 56.106 22.0134C56.7111 22.0134 57.0136 22.316 57.1649 22.9211C56.4085 23.8287 56.106 24.7363 56.4085 25.9465Z" fill="#AB814F"/>
<path d="M60.19 25.3417C59.8875 25.6443 59.585 25.7956 59.2824 25.493C58.9799 25.3418 58.8286 24.8879 58.9799 24.5854C59.2824 24.1316 59.7362 24.4341 60.0388 24.5854C60.3413 24.7367 60.3413 25.0392 60.19 25.3417Z" fill="#2A2B2D"/>
<path d="M44.1553 26.7032C44.7604 26.0981 45.5167 25.3417 46.1218 24.7366C46.5756 24.2828 47.332 24.2828 47.6345 24.5854C48.0883 25.0392 48.0883 25.6443 47.6345 26.0981C47.1807 26.7032 46.5756 27.157 46.1218 27.6108C45.3654 27.6108 44.7604 27.157 44.1553 26.7032Z" fill="#AB814F"/>
<path d="M34.1716 21.1059C34.7767 20.3496 35.3818 19.7445 35.9869 18.9881C36.4407 18.5343 37.0458 18.5343 37.4996 18.8368C37.9534 19.2907 37.9534 19.8957 37.4996 20.3496C37.0458 20.9546 36.592 21.4084 35.9869 22.0135C35.3818 22.0135 34.7767 21.5597 34.1716 21.1059Z" fill="#AB814F"/>
<path d="M51.7189 13.2397C52.324 13.0884 52.929 12.9371 53.5341 12.9371C54.1392 12.7859 54.7443 13.2397 54.8956 13.6935C55.0468 14.2986 54.593 14.7524 53.9879 14.9037C53.6854 14.9037 53.5341 14.9037 53.2316 15.055C52.7778 14.4499 52.324 13.8448 51.7189 13.2397Z" fill="#AB814F"/>
<path d="M39.3147 13.6935C39.0122 14.1474 38.7097 14.4499 38.2558 14.2986C37.802 14.1474 37.4995 13.8448 37.4995 13.391C37.3482 12.9372 37.4995 12.4834 37.4995 11.8783C37.802 10.3656 38.1046 9.00414 38.4071 7.49143C38.4071 7.34016 38.4071 7.34014 38.4071 7.18887C38.5584 6.58378 39.1635 6.28125 39.6173 6.28125C40.2224 6.43252 40.5249 6.88634 40.3736 7.49143C40.3736 8.39906 40.2224 9.30668 40.0711 10.063C39.9198 11.2732 39.7686 12.4834 39.3147 13.6935Z" fill="#AB814F"/>
<path d="M48.9962 19.4421C50.0823 19.4421 50.9627 18.5617 50.9627 17.4756C50.9627 16.3895 50.0823 15.509 48.9962 15.509C47.9101 15.509 47.0297 16.3895 47.0297 17.4756C47.0297 18.5617 47.9101 19.4421 48.9962 19.4421Z" fill="#2A2B2D"/>
<path d="M28.5743 11.8785C29.1591 11.8785 29.6332 11.4045 29.6332 10.8196C29.6332 10.2348 29.1591 9.76074 28.5743 9.76074C27.9895 9.76074 27.5154 10.2348 27.5154 10.8196C27.5154 11.4045 27.9895 11.8785 28.5743 11.8785Z" fill="#2A2B2D"/>
<path d="M82.7297 74.6561C79.4017 77.8328 75.3174 77.984 71.233 77.5302C68.5101 77.2277 65.636 77.2277 62.9131 77.379C60.1902 77.5302 57.6186 76.9251 55.3495 74.9586C46.8783 67.8488 42.9453 55.142 46.122 45.3094C46.727 43.3429 47.7859 41.3763 49.1474 39.7123C52.1728 35.9305 55.9546 34.5691 60.7953 35.4767C62.9131 35.9306 64.8796 36.9895 67.1487 36.2331C67.4513 36.5356 67.7538 36.0818 68.0563 36.0818C70.0229 36.3844 71.6868 35.4767 73.5021 35.1742C78.7966 34.1153 83.1835 35.628 86.9653 39.4098C86.6627 39.8636 86.3602 40.1662 86.0577 40.62C85.3013 40.62 85.15 40.0149 84.6962 39.7123C81.5195 38.0483 78.3428 36.2331 74.4097 37.7458C71.3843 38.8047 68.0563 39.4098 64.8796 37.8971C64.5771 37.7458 64.1233 37.5945 63.8207 37.5945C60.7953 37.1407 57.9211 37.8971 55.9546 40.3174C53.2317 43.3429 52.1728 47.1246 51.8703 51.209C51.4165 56.0497 52.4754 60.7391 54.5932 64.9747C56.4084 68.6052 58.2237 72.2357 62.308 73.8997C68.964 76.7739 75.4686 77.2277 82.1246 74.051C82.2759 74.2023 82.4271 74.3535 82.7297 74.6561Z" fill="#AD2224"/>
<path d="M83.1834 23.0725C84.3936 23.2238 86.5114 22.4675 87.1165 23.9802C87.5703 25.0391 85.9063 26.5518 84.8474 27.4594C80.7631 31.3925 76.0736 33.359 70.3253 32.6026C68.6613 32.3001 68.8126 31.695 69.569 30.6361C72.5944 25.9467 77.1325 22.9213 83.1834 23.0725Z" fill="#4E7C3B"/>
<path d="M68.0566 36.2333C67.754 36.2333 67.4515 36.6871 67.1489 36.3845C66.6951 33.5104 66.09 30.6362 64.7286 28.0646C64.426 27.6108 63.2159 26.5519 64.5773 26.2493C65.4849 26.0981 67.3002 25.0392 67.754 27.157C68.3591 29.7286 68.6616 32.4515 68.0566 35.1743C68.0566 35.4769 68.0566 35.9307 68.0566 36.2333Z" fill="#603913"/>
<path d="M91.3521 46.8223C91.6547 47.2761 91.8059 47.7299 91.8059 48.1837C91.8059 48.7888 91.6547 49.3939 92.2598 49.8477C92.2598 50.3015 92.2598 50.7553 92.411 51.2091C92.2598 53.6295 92.1085 56.0498 91.9572 58.4702C91.3521 62.8571 89.5369 66.7901 86.6627 70.2694C86.6627 69.9668 86.6627 69.6643 86.6627 69.2104C89.0831 65.1261 90.5958 60.7392 91.2009 56.0498C91.6547 55.7473 91.5034 55.1422 91.5034 54.6884C91.5034 54.0833 91.5034 53.4782 91.5034 52.8731C91.3521 51.9655 91.8059 51.0579 91.0496 50.1502C90.8983 49.0913 91.3521 48.0324 90.5958 47.1248C90.2932 46.8223 89.9907 46.3685 90.5958 46.0659C90.8983 46.0659 91.0496 46.8223 91.3521 46.8223Z" fill="#AD2224"/>
<path d="M91.3521 46.8221C90.8983 46.6708 90.8983 45.9144 90.2932 46.217C89.6881 46.5195 89.9907 46.9733 90.2932 47.2759C91.2008 48.1835 90.5957 49.3937 90.747 50.3013L90.5957 50.4526C89.6881 47.1246 88.3267 44.0992 85.4525 41.9814C85.6038 41.5276 85.7551 41.0738 85.9063 40.7712C86.2089 40.3174 86.5114 40.0148 86.814 39.561C89.2343 41.5276 90.747 43.9479 91.3521 46.8221Z" fill="#B72728"/>
<path d="M86.5113 69.2104C86.5113 69.513 86.5113 69.8156 86.5113 70.2694C85.4524 71.9334 84.0909 73.4461 82.5782 74.6562C82.427 74.505 82.2757 74.3537 81.9731 74.0512C83.1833 72.0846 84.696 70.5719 86.5113 69.2104Z" fill="#B72728"/>
<path d="M91.9573 58.4703C92.1085 56.0499 92.2598 53.6296 92.4111 51.2092C92.8649 53.6296 92.5624 56.0499 91.9573 58.4703Z" fill="#B72728"/>
<path d="M92.2596 49.9989C91.6545 49.5451 91.9571 48.94 91.8058 48.335C92.1083 48.7888 92.4109 49.2426 92.2596 49.9989Z" fill="#B72728"/>
<path d="M86.5114 69.2104C84.6961 70.4206 83.1834 72.0846 82.1245 74.0511C75.4685 77.2278 68.9639 76.9253 62.3079 73.8998C58.2236 72.0846 56.4083 68.4541 54.5931 64.9748C52.4753 60.7392 51.4164 56.0498 51.8702 51.2091C52.1727 47.276 53.2316 43.4943 55.9545 40.3176C58.0723 38.0485 60.7952 37.2921 63.8206 37.5947C64.1232 37.5947 64.577 37.7459 64.8795 37.8972C68.0562 39.2586 71.3842 38.8048 74.4096 37.7459C78.3427 36.2332 81.5194 38.0485 84.6961 39.7125C85.1499 40.015 85.4525 40.6201 86.0575 40.6201C85.9063 41.0739 85.755 41.5277 85.6037 41.8303C84.6961 42.5866 85.755 43.0404 86.0575 43.343C87.5703 45.7633 88.6292 48.1837 89.2342 50.9066C89.6881 53.3269 89.5368 55.596 89.8393 58.0163C90.1419 57.26 90.2932 56.5036 90.5957 55.7472C90.747 55.7472 90.8982 55.7472 91.0495 55.7472C90.4444 60.7392 88.9317 65.1261 86.5114 69.2104Z" fill="#D52127"/>
<path d="M91.0497 50.3015C91.8061 51.0579 91.3523 52.1168 91.5035 53.0244C91.3523 53.0244 91.201 53.0244 91.0497 53.0244C91.0497 52.1168 90.8984 51.3604 90.8984 50.4528L91.0497 50.3015Z" fill="#B72728"/>
<path d="M91.0498 56.0498C90.8985 56.0498 90.7472 56.0498 90.5959 56.0498C90.7472 55.596 90.7472 55.2934 90.8985 54.8396C91.0498 54.8396 91.201 54.8396 91.3523 54.8396C91.3523 55.2934 91.5036 55.7472 91.0498 56.0498Z" fill="#B72728"/>
<path d="M91.3523 54.8397C91.201 54.8397 91.0497 54.8397 90.8984 54.8397C90.8984 54.2346 90.8984 53.6295 91.0497 53.0244C91.201 53.0244 91.3523 53.0244 91.5035 53.0244C91.3523 53.6295 91.3523 54.2346 91.3523 54.8397Z" fill="#D52127"/>
<path d="M91.0495 53.0246C91.0495 53.6297 91.0495 54.2348 90.8982 54.8399C90.747 55.2937 90.747 55.5962 90.5957 56.05C90.2931 56.8064 90.1419 57.5628 89.8393 58.3191C89.5368 55.8988 89.6881 53.6297 89.2342 51.2094C88.6292 48.4865 87.5703 45.9148 86.0575 43.6458C85.755 43.192 84.8474 42.8894 85.6037 42.1331C88.4779 44.2509 89.8393 47.2763 90.747 50.6043C90.8982 51.3606 90.8982 52.117 91.0495 53.0246Z" fill="#FCFBFA"/>
</svg>
