<?xml version="1.0" encoding="utf-8"?>
<!-- Generator: Adobe Illustrator 27.0.0, SVG Export Plug-In . SVG Version: 6.00 Build 0)  -->
<svg version="1.1" id="Layer_1" xmlns="http://www.w3.org/2000/svg" xmlns:xlink="http://www.w3.org/1999/xlink" x="0px" y="0px"
	 viewBox="0 0 36 36" style="enable-background:new 0 0 36 36;" xml:space="preserve">
<style type="text/css">
	.st0{fill:#2DA649;}
	.st1{fill:#FFFFFF;}
	.st2{fill:#FFFFFF;stroke:#FFFFFF;stroke-width:0;stroke-linecap:square;stroke-miterlimit:2;}
</style>
<path class="st0" d="M31.7,36c2.4,0,4.3-1.9,4.3-4.3V4.3C36,1.9,34.1,0,31.7,0H4.3C1.9,0,0,1.9,0,4.3v27.4C0,34.1,1.9,36,4.3,36
	H31.7z"/>
<g>
	<path class="st1" d="M-84.2,15.8c-0.6,1.3-1.6,1.7-3.1,1.7c-7.2-0.1-14.3,0-21.5,0c-0.3,0-0.6,0-1,0c0-0.3,0-0.6-0.1-1
		c0.3,0,0.6,0,0.9,0c7.2,0,14.5,0,21.7,0c0.9,0,1.6-0.2,2-1.2c0.1-0.2,0.6-0.2,1-0.3C-84.2,15.3-84.2,15.6-84.2,15.8z"/>
	<path class="st1" d="M-98.1-4.6c-1.2-0.2-2.2-0.1-2.9,0.9c-0.7,1.1-1.7,2-2.6,3c-0.6,0.7-1.3,0.8-1.9,0.3c-0.5-0.5-0.5-1.2,0.1-1.8
		c1.2-1.4,2.4-2.8,3.6-4.2c0.4-0.5,0.9-0.7,1.6-0.7c1.6,0,3.2,0,4.8,0c0.7,0,1.3,0.2,1.8,0.8c1,1.1,2.1,2.2,3.3,3.3
		c0.9-1,1.8-1.9,2.8-2.8c0.3-0.3,0.8-0.5,1.2-0.5c1,0.1,1.4,1.3,0.7,2C-86.8-3-88-1.8-89.2-0.7c-0.7,0.7-1.4,0.7-2.1-0.1
		c-0.6-0.6-1.3-1.2-1.9-1.9c0,0-0.1,0-0.2-0.1c-1.1,1.3-2.2,2.5-3.4,3.9c0.8,0.8,1.6,1.7,2.5,2.4c1,0.8,1.2,1.8,0.9,3
		c-0.6,2.3-1.1,4.7-1.6,7.1c-0.2,0.7-0.4,1.4-1.3,1.5c-1.1,0.2-2-0.7-1.8-1.8c0.4-2,0.9-4,1.3-6c0.1-0.2,0-0.6-0.1-0.7
		c-1.1-1.1-2.2-2.2-3.3-3.3c-0.9,1-1.9,2-2.7,3c-0.6,0.7-1.2,1-2,1c-2.1,0-4.2,0-6.3,0c-1,0-1.7-0.6-1.7-1.6c0-0.9,0.6-1.4,1.7-1.4
		c1.6,0,3.1,0,4.7,0c0.3,0,0.6-0.1,0.8-0.3C-103.2,1.3-100.7-1.6-98.1-4.6z"/>
	<path class="st1" d="M-85.1-3.3c0.3,0.1,0.6,0.2,0.9,0.4c-0.1,0.3-0.2,0.5-0.3,0.8c-2.8,5.6-5.5,11.1-8.3,16.7
		c-0.3,0.6-0.7,0.8-1.3,0.6C-91.2,9-88.2,2.9-85.1-3.3z"/>
	<path class="st1" d="M-94.4-8.8c0-1.3,1-2.3,2.3-2.3c1.3,0,2.4,1,2.4,2.3c0,1.3-1.1,2.4-2.4,2.4C-93.3-6.5-94.4-7.5-94.4-8.8z"/>
	<path class="st1" d="M-105.1,14.2c-1.1,0.8-1.8,0.8-2.6,0c-2.1-2.1-4.2-4.3-6.3-6.3c-0.6-0.6-0.7-1.1-0.5-1.9
		c0.3,0.2,0.5,0.4,0.6,0.6c2.2,2.2,4.5,4.5,6.7,6.7c0.3,0.3,0.7,0.5,1.2,0.4C-105.7,13.7-105.4,14-105.1,14.2z"/>
	<path class="st1" d="M-106.6-0.2c-2.7,0-5.3,0-7.9,0c0-0.3,0-0.6,0-0.9c2.6,0,5.2,0,7.9,0C-106.6-0.7-106.6-0.5-106.6-0.2z"/>
</g>
<path class="st1" d="M-213.6,87.4c0,5-3.8,8.7-8.8,8.6c-5.1-0.1-8.6-3.8-8.5-8.9c0.1-4.9,3.6-8.3,8.5-8.4
	C-217.4,78.7-213.6,82.4-213.6,87.4z"/>
<path class="st1" d="M-127.4,78.7c5,0,8.8,3.8,8.7,8.8c-0.1,4.9-3.9,8.6-9,8.5c-4.8-0.1-8.3-3.7-8.4-8.5
	C-136.1,82.4-132.4,78.7-127.4,78.7z"/>
<path class="st1" d="M-209.2,21.1c12.8,0,25.4,0,38,0.1c1,0,2.4,1,3,2c2.1,3.2,3.8,6.6,5.8,10.1c-2.9,3.1-5.7,6.2-8.7,9.1
	c-0.8,0.8-2.3,1.5-3.4,1.5c-11.5,0.1-22.9,0.1-34.8,0.1C-209.2,36.4-209.2,29.2-209.2,21.1z"/>
<path class="st1" d="M-220.9,43.7c-6.7,0-13.1,0-19.5,0c-0.1-0.3-0.3-0.5-0.4-0.8c6.4-3.8,12.9-7.6,19.8-11.7
	C-220.9,35.6-220.9,39.4-220.9,43.7z"/>
<path class="st2" d="M50.8,36.8h8.1v1.4h1.5v-4.1c0,0-0.4-0.9-0.8-0.9c-2.5,0-6.1-0.1-6.1-0.1l-1.1-0.9c0,0-1-0.2-1.6,0v-0.7h-1.3
	v6.8h1.4V36.8L50.8,36.8z"/>
<path class="st2" d="M9.3,25.7h16.3v2.8h3v-8.2c0,0-0.9-1.9-1.6-1.9c-5.1,0-12.4-0.2-12.4-0.2l-2.3-1.8c0,0-2.1-0.4-3.3,0v-1.4H6.5
	v13.8h2.8V25.7L9.3,25.7z M4.6,12.7L18,3.8l13.4,8.9v18.6H4.6V12.7z"/>
<path class="st2" d="M69.9,35.5h8.1v1.4h1.5v-4.1c0,0-0.4-0.9-0.8-0.9c-2.5,0-6.1-0.1-6.1-0.1l-1.1-0.9c0,0-1-0.2-1.6,0v-0.7h-1.3
	V37h1.4V35.5L69.9,35.5z M67.6,29.1l6.6-4.4l6.6,4.4v9.2H67.6V29.1z"/>
<path class="st2" d="M44,27.2L57.8,18l13.8,9.2v19.3H44V27.2z M52.5,43.5l5.2-10.1L63,43.5H52.5z M67.5,43.5l-9.8-18.8l-9.8,18.8
	h-2.1v1.4h23.6v-1.4H67.5z"/>
</svg>
