<?xml version="1.0" encoding="utf-8"?>
<!-- Generator: Adobe Illustrator 27.0.0, SVG Export Plug-In . SVG Version: 6.00 Build 0)  -->
<svg version="1.1" id="Layer_1" xmlns="http://www.w3.org/2000/svg" xmlns:xlink="http://www.w3.org/1999/xlink" x="0px" y="0px"
	 viewBox="0 0 36 36" style="enable-background:new 0 0 36 36;" xml:space="preserve">
<style type="text/css">
	.st0{fill:#2DA649;}
	.st1{fill:#FFFFFF;}
</style>
<path class="st0" d="M31.7,36c2.4,0,4.3-1.9,4.3-4.3V4.3C36,1.9,34.1,0,31.7,0H4.3C1.9,0,0,1.9,0,4.3v27.4C0,34.1,1.9,36,4.3,36
	H31.7z"/>
<g>
	<path class="st1" d="M-84.2,15.8c-0.6,1.3-1.6,1.7-3.1,1.7c-7.2-0.1-14.3,0-21.5,0c-0.3,0-0.6,0-1,0c0-0.3,0-0.6-0.1-1
		c0.3,0,0.6,0,0.9,0c7.2,0,14.5,0,21.7,0c0.9,0,1.6-0.2,2-1.2c0.1-0.2,0.6-0.2,1-0.3C-84.2,15.3-84.2,15.6-84.2,15.8z"/>
	<path class="st1" d="M-98.1-4.6c-1.2-0.2-2.2-0.1-2.9,0.9c-0.7,1.1-1.7,2-2.6,3c-0.6,0.7-1.3,0.8-1.9,0.3c-0.5-0.5-0.5-1.2,0.1-1.8
		c1.2-1.4,2.4-2.8,3.6-4.2c0.4-0.5,0.9-0.7,1.6-0.7c1.6,0,3.2,0,4.8,0c0.7,0,1.3,0.2,1.8,0.8c1,1.1,2.1,2.2,3.3,3.3
		c0.9-1,1.8-1.9,2.8-2.8c0.3-0.3,0.8-0.5,1.2-0.5c1,0.1,1.4,1.3,0.7,2C-86.8-3-88-1.8-89.2-0.7c-0.7,0.7-1.4,0.7-2.1-0.1
		c-0.6-0.6-1.3-1.2-1.9-1.9c0,0-0.1,0-0.2-0.1c-1.1,1.3-2.2,2.5-3.4,3.9c0.8,0.8,1.6,1.7,2.5,2.4c1,0.8,1.2,1.8,0.9,3
		c-0.6,2.3-1.1,4.7-1.6,7.1c-0.2,0.7-0.4,1.4-1.3,1.5c-1.1,0.2-2-0.7-1.8-1.8c0.4-2,0.9-4,1.3-6c0.1-0.2,0-0.6-0.1-0.7
		c-1.1-1.1-2.2-2.2-3.3-3.3c-0.9,1-1.9,2-2.7,3c-0.6,0.7-1.2,1-2,1c-2.1,0-4.2,0-6.3,0c-1,0-1.7-0.6-1.7-1.6c0-0.9,0.6-1.4,1.7-1.4
		c1.6,0,3.1,0,4.7,0c0.3,0,0.6-0.1,0.8-0.3C-103.2,1.3-100.7-1.6-98.1-4.6z"/>
	<path class="st1" d="M-85.1-3.3c0.3,0.1,0.6,0.2,0.9,0.4c-0.1,0.3-0.2,0.5-0.3,0.8c-2.8,5.6-5.5,11.1-8.3,16.7
		c-0.3,0.6-0.7,0.8-1.3,0.6C-91.2,9-88.2,2.9-85.1-3.3z"/>
	<path class="st1" d="M-94.4-8.8c0-1.3,1-2.3,2.3-2.3c1.3,0,2.4,1,2.4,2.3c0,1.3-1.1,2.4-2.4,2.4C-93.3-6.5-94.4-7.5-94.4-8.8z"/>
	<path class="st1" d="M-105.1,14.2c-1.1,0.8-1.8,0.8-2.6,0c-2.1-2.1-4.2-4.3-6.3-6.3c-0.6-0.6-0.7-1.1-0.5-1.9
		c0.3,0.2,0.5,0.4,0.6,0.6c2.2,2.2,4.5,4.5,6.7,6.7c0.3,0.3,0.7,0.5,1.2,0.4C-105.7,13.7-105.4,14-105.1,14.2z"/>
	<path class="st1" d="M-106.6-0.2c-2.7,0-5.3,0-7.9,0c0-0.3,0-0.6,0-0.9c2.6,0,5.2,0,7.9,0C-106.6-0.7-106.6-0.5-106.6-0.2z"/>
</g>
<path class="st1" d="M-213.6,87.4c0,5-3.8,8.7-8.8,8.6c-5.1-0.1-8.6-3.8-8.5-8.9c0.1-4.9,3.6-8.3,8.5-8.4
	C-217.4,78.7-213.6,82.4-213.6,87.4z"/>
<path class="st1" d="M-127.4,78.7c5,0,8.8,3.8,8.7,8.8c-0.1,4.9-3.9,8.6-9,8.5c-4.8-0.1-8.3-3.7-8.4-8.5
	C-136.1,82.4-132.4,78.7-127.4,78.7z"/>
<path class="st1" d="M-209.2,21.1c12.8,0,25.4,0,38,0.1c1,0,2.4,1,3,2c2.1,3.2,3.8,6.6,5.8,10.1c-2.9,3.1-5.7,6.2-8.7,9.1
	c-0.8,0.8-2.3,1.5-3.4,1.5c-11.5,0.1-22.9,0.1-34.8,0.1C-209.2,36.4-209.2,29.2-209.2,21.1z"/>
<path class="st1" d="M-220.9,43.7c-6.7,0-13.1,0-19.5,0c-0.1-0.3-0.3-0.5-0.4-0.8c6.4-3.8,12.9-7.6,19.8-11.7
	C-220.9,35.6-220.9,39.4-220.9,43.7z"/>
<path class="st1" d="M24.4,11c-0.3-0.3-0.7-0.5-1-0.8c0,0.1,0,0.2,0,0.2c0,1.6,0,3.3,0,4.9c0,0.5-0.2,0.7-0.7,0.7
	c-3.1,0-6.2,0-9.3,0c-0.4,0-0.7-0.2-0.7-0.7c0-1.7,0-3.3,0-5c0,0,0-0.1,0-0.2c-0.4,0.3-0.7,0.6-1,0.8c-0.3-0.3-0.5-0.5-0.8-0.7
	c2.4-2,4.8-4.1,7.2-6.1c1,0.9,2.1,1.8,3.1,2.7c0-0.1,0-0.1,0-0.1c0-0.3,0-0.7,0-1c0-0.2,0.1-0.3,0.3-0.3c0.2,0,0.5,0,0.7,0
	c0.2,0,0.3,0.1,0.3,0.3c0,0.7,0,1.4,0,2.1c0,0.1,0,0.2,0.1,0.3c0.8,0.7,1.7,1.4,2.5,2.2c0,0,0,0,0.1,0C24.9,10.5,24.7,10.8,24.4,11z
	 M16.7,15c0-0.1,0-0.1,0-0.2c0-1.3,0-2.5,0-3.8c0-0.3,0.1-0.5,0.5-0.5c0.6,0,1.2,0,1.8,0c0.3,0,0.5,0.1,0.5,0.5c0,1.2,0,2.5,0,3.7
	c0,0.1,0,0.1,0,0.2c1,0,1.9,0,2.9,0c0-0.3,0-0.6,0-0.9c-0.8,0-1.6,0-2.4,0c0-0.4,0-0.7,0-1.1c0.8,0,1.6,0,2.4,0c0-0.3,0-0.6,0-0.9
	c-0.8,0-1.6,0-2.4,0c0-0.4,0-0.7,0-1c0.8,0,1.6,0,2.4,0c0-0.3,0-0.6,0-0.9c-2.9,0-5.8,0-8.7,0c0,0.3,0,0.6,0,0.9c0.9,0,1.7,0,2.6,0
	c0,0.3,0,0.6,0,0.9c0,0.1,0,0.2-0.2,0.2c-0.8,0-1.5,0-2.3,0c0,0-0.1,0-0.1,0c0,0.3,0,0.6,0,0.9c0.9,0,1.7,0,2.6,0c0,0.4,0,0.7,0,1
	c-0.9,0-1.7,0-2.6,0c0,0.3,0,0.6,0,0.9C14.7,15,15.7,15,16.7,15z M17.6,8.6c0-0.9,0-1.7,0-2.6c-0.5,0.4-1,0.8-1.4,1.2
	C16.6,7.7,17.1,8.2,17.6,8.6z M18.7,6.2c0,0.8,0,1.7,0,2.4c0.4-0.4,0.9-0.9,1.3-1.3C19.6,7,19.1,6.6,18.7,6.2z M15.3,7.9
	c-0.4,0.4-0.9,0.7-1.4,1.1c0.9,0,1.7,0,2.5,0C16,8.7,15.7,8.3,15.3,7.9z M20.9,8c-0.3,0.3-0.7,0.7-1,1c0.7,0,1.4,0,2.2,0
	C21.7,8.7,21.3,8.4,20.9,8z"/>
<g>
	<path class="st1" d="M33.3,25.8c-0.3-0.3-0.7-0.5-1-0.8c0,0.1,0,0.2,0,0.2c0,1.6,0,3.3,0,4.9c0,0.5-0.2,0.7-0.7,0.7
		c-3.1,0-6.2,0-9.3,0c-0.4,0-0.7-0.2-0.7-0.7c0-1.7,0-3.3,0-5c0,0,0-0.1,0-0.2c-0.4,0.3-0.7,0.6-1,0.8c-0.3-0.3-0.5-0.5-0.8-0.7
		c2.4-2,4.8-4.1,7.2-6.1c1,0.9,2.1,1.8,3.1,2.7c0-0.1,0-0.1,0-0.1c0-0.3,0-0.7,0-1c0-0.2,0.1-0.3,0.3-0.3c0.2,0,0.5,0,0.7,0
		c0.2,0,0.3,0.1,0.3,0.3c0,0.7,0,1.4,0,2.1c0,0.1,0,0.2,0.1,0.3c0.8,0.7,1.7,1.4,2.5,2.2c0,0,0,0,0.1,0
		C33.8,25.3,33.6,25.5,33.3,25.8z M25.6,29.7c0-0.1,0-0.1,0-0.2c0-1.3,0-2.5,0-3.8c0-0.3,0.1-0.5,0.5-0.5c0.6,0,1.2,0,1.8,0
		c0.3,0,0.5,0.1,0.5,0.5c0,1.2,0,2.5,0,3.7c0,0.1,0,0.1,0,0.2c1,0,1.9,0,2.9,0c0-0.3,0-0.6,0-0.9c-0.8,0-1.6,0-2.4,0
		c0-0.4,0-0.7,0-1.1c0.8,0,1.6,0,2.4,0c0-0.3,0-0.6,0-0.9c-0.8,0-1.6,0-2.4,0c0-0.4,0-0.7,0-1c0.8,0,1.6,0,2.4,0c0-0.3,0-0.6,0-0.9
		c-2.9,0-5.8,0-8.7,0c0,0.3,0,0.6,0,0.9c0.9,0,1.7,0,2.6,0c0,0.3,0,0.6,0,0.9c0,0.1,0,0.2-0.2,0.2c-0.8,0-1.5,0-2.3,0
		c0,0-0.1,0-0.1,0c0,0.3,0,0.6,0,0.9c0.9,0,1.7,0,2.6,0c0,0.4,0,0.7,0,1c-0.9,0-1.7,0-2.6,0c0,0.3,0,0.6,0,0.9
		C23.6,29.7,24.6,29.7,25.6,29.7z M26.5,23.4c0-0.9,0-1.7,0-2.6c-0.5,0.4-1,0.8-1.4,1.2C25.5,22.4,26,22.9,26.5,23.4z M27.6,21
		c0,0.8,0,1.7,0,2.4c0.4-0.4,0.9-0.9,1.3-1.3C28.5,21.7,28,21.3,27.6,21z M24.2,22.7c-0.4,0.4-0.9,0.7-1.4,1.1c0.9,0,1.7,0,2.5,0
		C24.9,23.4,24.6,23.1,24.2,22.7z M29.8,22.8c-0.3,0.3-0.7,0.7-1,1c0.7,0,1.4,0,2.2,0C30.6,23.4,30.2,23.1,29.8,22.8z"/>
	<path class="st1" d="M15.5,25.8c-0.3-0.3-0.7-0.5-1-0.8c0,0.1,0,0.2,0,0.2c0,1.6,0,3.3,0,4.9c0,0.5-0.2,0.7-0.7,0.7
		c-3.1,0-6.2,0-9.3,0c-0.4,0-0.7-0.2-0.7-0.7c0-1.7,0-3.3,0-5c0,0,0-0.1,0-0.2c-0.4,0.3-0.7,0.6-1,0.8c-0.3-0.3-0.5-0.5-0.8-0.7
		c2.4-2,4.8-4.1,7.2-6.1c1,0.9,2.1,1.8,3.1,2.7c0-0.1,0-0.1,0-0.1c0-0.3,0-0.7,0-1c0-0.2,0.1-0.3,0.3-0.3c0.2,0,0.5,0,0.7,0
		c0.2,0,0.3,0.1,0.3,0.3c0,0.7,0,1.4,0,2.1c0,0.1,0,0.2,0.1,0.3c0.8,0.7,1.7,1.4,2.5,2.2c0,0,0,0,0.1,0C16,25.3,15.8,25.5,15.5,25.8
		z M7.8,29.7c0-0.1,0-0.1,0-0.2c0-1.3,0-2.5,0-3.8c0-0.3,0.1-0.5,0.5-0.5c0.6,0,1.2,0,1.8,0c0.3,0,0.5,0.1,0.5,0.5
		c0,1.2,0,2.5,0,3.7c0,0.1,0,0.1,0,0.2c1,0,1.9,0,2.9,0c0-0.3,0-0.6,0-0.9c-0.8,0-1.6,0-2.4,0c0-0.4,0-0.7,0-1.1c0.8,0,1.6,0,2.4,0
		c0-0.3,0-0.6,0-0.9c-0.8,0-1.6,0-2.4,0c0-0.4,0-0.7,0-1c0.8,0,1.6,0,2.4,0c0-0.3,0-0.6,0-0.9c-2.9,0-5.8,0-8.7,0c0,0.3,0,0.6,0,0.9
		c0.9,0,1.7,0,2.6,0c0,0.3,0,0.6,0,0.9c0,0.1,0,0.2-0.2,0.2c-0.8,0-1.5,0-2.3,0c0,0-0.1,0-0.1,0c0,0.3,0,0.6,0,0.9
		c0.9,0,1.7,0,2.6,0c0,0.4,0,0.7,0,1c-0.9,0-1.7,0-2.6,0c0,0.3,0,0.6,0,0.9C5.8,29.7,6.8,29.7,7.8,29.7z M8.6,23.4
		c0-0.9,0-1.7,0-2.6c-0.5,0.4-1,0.8-1.4,1.2C7.7,22.4,8.2,22.9,8.6,23.4z M9.7,21c0,0.8,0,1.7,0,2.4c0.4-0.4,0.9-0.9,1.3-1.3
		C10.7,21.7,10.2,21.3,9.7,21z M6.4,22.7C5.9,23,5.5,23.4,5,23.8c0.9,0,1.7,0,2.5,0C7.1,23.4,6.7,23.1,6.4,22.7z M12,22.8
		c-0.3,0.3-0.7,0.7-1,1c0.7,0,1.4,0,2.2,0C12.7,23.4,12.3,23.1,12,22.8z"/>
</g>
</svg>
