<?xml version="1.0" encoding="utf-8"?>
<!-- Generator: Adobe Illustrator 27.0.0, SVG Export Plug-In . SVG Version: 6.00 Build 0)  -->
<svg version="1.1" id="Layer_1" xmlns="http://www.w3.org/2000/svg" xmlns:xlink="http://www.w3.org/1999/xlink" x="0px" y="0px"
	 viewBox="0 0 36.8 36.8" style="enable-background:new 0 0 36.8 36.8;" xml:space="preserve">
<style type="text/css">
	.st0{fill:#2C439B;}
	.st1{fill:#FFFFFF;}
</style>
<g>
	<path class="st0" d="M32.5,36.9c2.4,0,4.4-2,4.4-4.4v-28c0-2.4-2-4.4-4.4-4.4h-28C2,0,0,2,0,4.4v28c0,2.4,2,4.4,4.4,4.4H32.5z"/>
	<g>
		<path class="st1" d="M7.2,21.2c2,0,3.6-1.6,3.6-3.6c0-2-1.6-3.6-3.6-3.6c-2,0-3.6,1.6-3.6,3.6C3.6,19.6,5.2,21.2,7.2,21.2z"/>
		<g>
			<path class="st1" d="M22.3,30.8c-0.2,0.1-0.2,0.4-0.1,0.5l0.7,0.9c0.1,0.2,0.4,0.2,0.5,0.1l4.8-3.5c0.2-0.1,0.2-0.4,0.1-0.5
				l-0.7-0.9c-0.1-0.2-0.3-0.2-0.5-0.1L22.3,30.8z"/>
		</g>
		<polygon class="st1" points="21.6,22.8 19.7,19.4 18.7,20.2 20.6,23.6 		"/>
		<polygon class="st1" points="17.2,15 9.7,1.9 8.3,1.9 16.1,15.7 		"/>
		<path class="st1" d="M18.8,25.6L15.1,22l5.1-3.8c0.8-0.7,0.9-1.9,0.2-2.6c-0.7-0.8-1.9-0.9-2.7-0.2l-8,5.7c-1.2,1-1.4,3.2-0.4,4.4
			l5.8,5.8c0,0,1.6,2.1,4.2,0.2l7.4-5.2l5.8,0c1.3,0,2.4-1.1,2.4-2.4c0-1.3-1.1-2.4-2.4-2.4l-6.9,0c-0.6,0-1,0.2-1.5,0.5L18.8,25.6z
			"/>
	</g>
</g>
</svg>
